%TF.GenerationSoftware,KiCad,Pcbnew,7.0.9*%
%TF.CreationDate,2024-01-21T19:27:48-06:00*%
%TF.ProjectId,Tei,5465692e-6b69-4636-9164-5f7063625858,1*%
%TF.SameCoordinates,Original*%
%TF.FileFunction,Copper,L2,Bot*%
%TF.FilePolarity,Positive*%
%FSLAX46Y46*%
G04 Gerber Fmt 4.6, Leading zero omitted, Abs format (unit mm)*
G04 Created by KiCad (PCBNEW 7.0.9) date 2024-01-21 19:27:48*
%MOMM*%
%LPD*%
G01*
G04 APERTURE LIST*
G04 Aperture macros list*
%AMRoundRect*
0 Rectangle with rounded corners*
0 $1 Rounding radius*
0 $2 $3 $4 $5 $6 $7 $8 $9 X,Y pos of 4 corners*
0 Add a 4 corners polygon primitive as box body*
4,1,4,$2,$3,$4,$5,$6,$7,$8,$9,$2,$3,0*
0 Add four circle primitives for the rounded corners*
1,1,$1+$1,$2,$3*
1,1,$1+$1,$4,$5*
1,1,$1+$1,$6,$7*
1,1,$1+$1,$8,$9*
0 Add four rect primitives between the rounded corners*
20,1,$1+$1,$2,$3,$4,$5,0*
20,1,$1+$1,$4,$5,$6,$7,0*
20,1,$1+$1,$6,$7,$8,$9,0*
20,1,$1+$1,$8,$9,$2,$3,0*%
G04 Aperture macros list end*
%TA.AperFunction,ComponentPad*%
%ADD10R,1.700000X1.700000*%
%TD*%
%TA.AperFunction,ComponentPad*%
%ADD11O,1.700000X1.700000*%
%TD*%
%TA.AperFunction,ComponentPad*%
%ADD12R,1.600000X1.600000*%
%TD*%
%TA.AperFunction,ComponentPad*%
%ADD13O,1.600000X1.600000*%
%TD*%
%TA.AperFunction,ComponentPad*%
%ADD14R,3.800000X3.800000*%
%TD*%
%TA.AperFunction,ComponentPad*%
%ADD15C,4.000000*%
%TD*%
%TA.AperFunction,ComponentPad*%
%ADD16RoundRect,0.250000X-0.600000X-0.750000X0.600000X-0.750000X0.600000X0.750000X-0.600000X0.750000X0*%
%TD*%
%TA.AperFunction,ComponentPad*%
%ADD17O,1.700000X2.000000*%
%TD*%
%TA.AperFunction,ViaPad*%
%ADD18C,0.800000*%
%TD*%
%TA.AperFunction,ViaPad*%
%ADD19C,1.800000*%
%TD*%
%TA.AperFunction,Conductor*%
%ADD20C,0.250000*%
%TD*%
%TA.AperFunction,Conductor*%
%ADD21C,0.600000*%
%TD*%
G04 APERTURE END LIST*
D10*
%TO.P,J7,1,Pin_1*%
%TO.N,+5V*%
X29778059Y31675500D03*
D11*
%TO.P,J7,2,Pin_2*%
%TO.N,SENS5*%
X27238059Y31675500D03*
%TO.P,J7,3,Pin_3*%
%TO.N,GND*%
X24698059Y31675500D03*
%TD*%
D10*
%TO.P,J6,1,Pin_1*%
%TO.N,+5V*%
X37781184Y31675500D03*
D11*
%TO.P,J6,2,Pin_2*%
%TO.N,SENS4*%
X35241184Y31675500D03*
%TO.P,J6,3,Pin_3*%
%TO.N,GND*%
X32701184Y31675500D03*
%TD*%
D10*
%TO.P,J5,1,Pin_1*%
%TO.N,+5V*%
X45784309Y31675500D03*
D11*
%TO.P,J5,2,Pin_2*%
%TO.N,SENS3*%
X43244309Y31675500D03*
%TO.P,J5,3,Pin_3*%
%TO.N,GND*%
X40704309Y31675500D03*
%TD*%
D10*
%TO.P,J4,1,Pin_1*%
%TO.N,+5V*%
X53787434Y31675500D03*
D11*
%TO.P,J4,2,Pin_2*%
%TO.N,SENS2*%
X51247434Y31675500D03*
%TO.P,J4,3,Pin_3*%
%TO.N,GND*%
X48707434Y31675500D03*
%TD*%
D12*
%TO.P,A1,1,D1/TX*%
%TO.N,TX*%
X40818684Y11285500D03*
D13*
%TO.P,A1,2,D0/RX*%
%TO.N,RX*%
X43358684Y11285500D03*
%TO.P,A1,3,~{RESET}*%
%TO.N,unconnected-(A1-~{RESET}-Pad3)*%
X45898684Y11285500D03*
%TO.P,A1,4,GND*%
%TO.N,GND*%
X48438684Y11285500D03*
%TO.P,A1,5,D2*%
%TO.N,MA2*%
X50978684Y11285500D03*
%TO.P,A1,6,D3*%
%TO.N,MA1*%
X53518684Y11285500D03*
%TO.P,A1,7,D4*%
%TO.N,STBY*%
X56058684Y11285500D03*
%TO.P,A1,8,D5*%
%TO.N,PWMA*%
X58598684Y11285500D03*
%TO.P,A1,9,D6*%
%TO.N,PWMB*%
X61138684Y11285500D03*
%TO.P,A1,10,D7*%
%TO.N,MB1*%
X63678684Y11285500D03*
%TO.P,A1,11,D8*%
%TO.N,MB2*%
X66218684Y11285500D03*
%TO.P,A1,12,D9*%
%TO.N,REMOTE*%
X68758684Y11285500D03*
%TO.P,A1,13,D10*%
%TO.N,Net-(A1-D10)*%
X71298684Y11285500D03*
%TO.P,A1,14,D11*%
%TO.N,Net-(A1-D11)*%
X73838684Y11285500D03*
%TO.P,A1,15,D12*%
%TO.N,Net-(A1-D12)*%
X76378684Y11285500D03*
%TO.P,A1,16,D13*%
%TO.N,Net-(A1-D13)*%
X76378684Y26525500D03*
%TO.P,A1,17,3V3*%
%TO.N,+3.3V*%
X73838684Y26525500D03*
%TO.P,A1,18,AREF*%
%TO.N,unconnected-(A1-AREF-Pad18)*%
X71298684Y26525500D03*
%TO.P,A1,19,A0*%
%TO.N,SENS0*%
X68758684Y26525500D03*
%TO.P,A1,20,A1*%
%TO.N,SENS1*%
X66218684Y26525500D03*
%TO.P,A1,21,A2*%
%TO.N,SENS2*%
X63678684Y26525500D03*
%TO.P,A1,22,A3*%
%TO.N,SENS3*%
X61138684Y26525500D03*
%TO.P,A1,23,A4*%
%TO.N,SENS4*%
X58598684Y26525500D03*
%TO.P,A1,24,A5*%
%TO.N,SENS5*%
X56058684Y26525500D03*
%TO.P,A1,25,A6*%
%TO.N,SENS6*%
X53518684Y26525500D03*
%TO.P,A1,26,A7*%
%TO.N,SENS7*%
X50978684Y26525500D03*
%TO.P,A1,27,+5V*%
%TO.N,unconnected-(A1-+5V-Pad27)*%
X48438684Y26525500D03*
%TO.P,A1,28,~{RESET}*%
%TO.N,unconnected-(A1-~{RESET}-Pad28)*%
X45898684Y26525500D03*
%TO.P,A1,29,GND*%
%TO.N,GND*%
X43358684Y26525500D03*
%TO.P,A1,30,VIN*%
%TO.N,+5V*%
X40818684Y26525500D03*
%TD*%
D10*
%TO.P,Bluetooth Adapter,1,Pin_1*%
%TO.N,RX*%
X53518684Y5125500D03*
D11*
%TO.P,Bluetooth Adapter,2,Pin_2*%
%TO.N,TX*%
X50978684Y5125500D03*
%TO.P,Bluetooth Adapter,3,Pin_3*%
%TO.N,GND*%
X48438684Y5125500D03*
%TO.P,Bluetooth Adapter,4,Pin_4*%
%TO.N,+5V*%
X45898684Y5125500D03*
%TD*%
D10*
%TO.P,J2,1,Pin_1*%
%TO.N,+5V*%
X69793684Y31675500D03*
D11*
%TO.P,J2,2,Pin_2*%
%TO.N,SENS0*%
X67253684Y31675500D03*
%TO.P,J2,3,Pin_3*%
%TO.N,GND*%
X64713684Y31675500D03*
%TD*%
D10*
%TO.P,J12,1,Pin_1*%
%TO.N,+5V*%
X77796809Y31675500D03*
D11*
%TO.P,J12,2,Pin_2*%
%TO.N,+3.3V*%
X75256809Y31675500D03*
%TO.P,J12,3,Pin_3*%
%TO.N,GND*%
X72716809Y31675500D03*
%TD*%
D10*
%TO.P,J3,1,Pin_1*%
%TO.N,+5V*%
X61790559Y31675500D03*
D11*
%TO.P,J3,2,Pin_2*%
%TO.N,SENS1*%
X59250559Y31675500D03*
%TO.P,J3,3,Pin_3*%
%TO.N,GND*%
X56710559Y31675500D03*
%TD*%
D10*
%TO.P,J8,1,Pin_1*%
%TO.N,+5V*%
X21774934Y31675500D03*
D11*
%TO.P,J8,2,Pin_2*%
%TO.N,SENS6*%
X19234934Y31675500D03*
%TO.P,J8,3,Pin_3*%
%TO.N,GND*%
X16694934Y31675500D03*
%TD*%
D10*
%TO.P,J9,1,Pin_1*%
%TO.N,+5V*%
X13771809Y31675500D03*
D11*
%TO.P,J9,2,Pin_2*%
%TO.N,SENS7*%
X11231809Y31675500D03*
%TO.P,J9,3,Pin_3*%
%TO.N,GND*%
X8691809Y31675500D03*
%TD*%
D14*
%TO.P,J1,1,Pin_1*%
%TO.N,GND*%
X18468684Y4295500D03*
D15*
%TO.P,J1,2,Pin_2*%
%TO.N,Net-(J1-Pin_2)*%
X13468684Y4295500D03*
%TD*%
D16*
%TO.P,J14,1,Pin_1*%
%TO.N,Net-(J14-Pin_1)*%
X33683684Y5125500D03*
D17*
%TO.P,J14,2,Pin_2*%
%TO.N,Net-(J14-Pin_2)*%
X36183684Y5125500D03*
%TD*%
D16*
%TO.P,J13,1,Pin_1*%
%TO.N,Net-(J13-Pin_1)*%
X24933684Y5100500D03*
D17*
%TO.P,J13,2,Pin_2*%
%TO.N,Net-(J13-Pin_2)*%
X27433684Y5100500D03*
%TD*%
D10*
%TO.P,REMOTE,1,Pin_1*%
%TO.N,unconnected-(J11-Pin_1-Pad1)*%
X66218684Y5125500D03*
D11*
%TO.P,REMOTE,2,Pin_2*%
%TO.N,REMOTE*%
X68758684Y5125500D03*
%TO.P,REMOTE,3,Pin_3*%
%TO.N,GND*%
X71298684Y5125500D03*
%TO.P,REMOTE,4,Pin_4*%
%TO.N,+5V*%
X73838684Y5125500D03*
%TD*%
D18*
%TO.N,PWMA*%
X27943689Y16315895D03*
%TO.N,PWMB*%
X36163684Y16750000D03*
%TO.N,Net-(A1-D10)*%
X46310529Y13584771D03*
%TO.N,Net-(A1-D11)*%
X23763684Y24151000D03*
%TO.N,Net-(A1-D12)*%
X47202073Y14037513D03*
%TO.N,Net-(A1-D13)*%
X18763684Y24875500D03*
D19*
%TO.N,VM*%
X10568684Y9895500D03*
X7084822Y17908740D03*
X24708684Y21475500D03*
X35338684Y18105500D03*
%TD*%
D20*
%TO.N,GND*%
X32701184Y31675500D02*
X31526184Y32850500D01*
X8691809Y31675500D02*
X9866809Y32850500D01*
X15519934Y32850500D02*
X16694934Y31675500D01*
X23523059Y32850500D02*
X15519934Y32850500D01*
X31526184Y32850500D02*
X23523059Y32850500D01*
X56710559Y31675500D02*
X55535559Y32850500D01*
X49613684Y6300500D02*
X70123684Y6300500D01*
X47532434Y32850500D02*
X39529309Y32850500D01*
X70123684Y6300500D02*
X71298684Y5125500D01*
X40704309Y31675500D02*
X39529309Y32850500D01*
X39529309Y32850500D02*
X31526184Y32850500D01*
X63538684Y32850500D02*
X55535559Y32850500D01*
X71541809Y32850500D02*
X63538684Y32850500D01*
X48438684Y5125500D02*
X49613684Y6300500D01*
X48707434Y31675500D02*
X47532434Y32850500D01*
X9866809Y32850500D02*
X15519934Y32850500D01*
X72716809Y31675500D02*
X71541809Y32850500D01*
X48438684Y5125500D02*
X48438684Y11285500D01*
X24698059Y31675500D02*
X23523059Y32850500D01*
X64713684Y31675500D02*
X63538684Y32850500D01*
X55535559Y32850500D02*
X47532434Y32850500D01*
%TO.N,PWMA*%
X27943689Y16315895D02*
X31849084Y12410500D01*
X57473684Y12410500D02*
X58598684Y11285500D01*
X31849084Y12410500D02*
X57473684Y12410500D01*
%TO.N,PWMB*%
X40028684Y12860500D02*
X59563684Y12860500D01*
X36163684Y16725500D02*
X40028684Y12860500D01*
X36163684Y16750000D02*
X36163684Y16725500D01*
X59563684Y12860500D02*
X61138684Y11285500D01*
%TO.N,Net-(A1-D10)*%
X69258684Y13325500D02*
X71298684Y11285500D01*
X65413684Y13325500D02*
X69258684Y13325500D01*
X46310529Y13584771D02*
X46581849Y13313451D01*
X48128684Y13310500D02*
X65398684Y13310500D01*
X48101635Y13313451D02*
X48113684Y13325500D01*
X48113684Y13325500D02*
X48128684Y13310500D01*
X65398684Y13310500D02*
X65413684Y13325500D01*
X46581849Y13313451D02*
X48101635Y13313451D01*
%TO.N,Net-(A1-D11)*%
X60973184Y24151000D02*
X73838684Y11285500D01*
X23763684Y24151000D02*
X60973184Y24151000D01*
%TO.N,Net-(A1-D12)*%
X72713684Y10819509D02*
X73372693Y10160500D01*
X75253684Y10160500D02*
X76378684Y11285500D01*
X47202073Y14037513D02*
X47464086Y13775500D01*
X72713684Y11625500D02*
X72713684Y10819509D01*
X70563684Y13775500D02*
X72713684Y11625500D01*
X47464086Y13775500D02*
X70563684Y13775500D01*
X73372693Y10160500D02*
X75253684Y10160500D01*
%TO.N,Net-(A1-D13)*%
X18763684Y24875500D02*
X74728684Y24875500D01*
X74728684Y24875500D02*
X76378684Y26525500D01*
D21*
%TO.N,VM*%
X10568684Y9895500D02*
X10568684Y9905500D01*
X35338684Y18105500D02*
X18768684Y18105500D01*
X10568684Y9905500D02*
X18768684Y18105500D01*
X18768684Y18105500D02*
X7281582Y18105500D01*
X7281582Y18105500D02*
X7084822Y17908740D01*
X24708684Y21475500D02*
X28078684Y18105500D01*
X28078684Y18105500D02*
X35338684Y18105500D01*
%TD*%
%TA.AperFunction,Conductor*%
%TO.N,GND*%
G36*
X83016806Y33745799D02*
G01*
X83966681Y33508330D01*
X84024286Y33475714D01*
X84741316Y32758684D01*
X84756809Y32739786D01*
X84855286Y32592070D01*
X85131445Y32177831D01*
X85138859Y32166711D01*
X85154069Y32134822D01*
X85173644Y32072005D01*
X85177494Y32059649D01*
X85179111Y32053295D01*
X85208110Y31907505D01*
X85231093Y31782086D01*
X85231977Y31774960D01*
X85243517Y31598898D01*
X85249281Y31503612D01*
X85249297Y31496386D01*
X85246508Y31446735D01*
X85232777Y31237251D01*
X85219952Y31189907D01*
X84758188Y30266378D01*
X84737429Y30236691D01*
X81750728Y27074303D01*
X80516909Y25842589D01*
X80516396Y25842244D01*
X80499616Y25825383D01*
X80499530Y25825173D01*
X80499458Y25825000D01*
X80499454Y25800452D01*
X80499510Y25800171D01*
X80500000Y24632550D01*
X80500000Y9242245D01*
X80506467Y9209758D01*
X80506468Y9206300D01*
X80506340Y9205641D01*
X80506438Y9181978D01*
X80506539Y9181737D01*
X80506597Y9181597D01*
X80506598Y9181597D01*
X80517541Y9170694D01*
X84589414Y5091861D01*
X84591755Y5089383D01*
X84595319Y5085396D01*
X84597971Y5082428D01*
X84611842Y5063596D01*
X84627262Y5037897D01*
X85130987Y4198353D01*
X85142076Y4174418D01*
X85147785Y4157601D01*
X85148653Y4154833D01*
X85181076Y4042293D01*
X85182308Y4037222D01*
X85213594Y3879937D01*
X85231786Y3772869D01*
X85232530Y3766534D01*
X85246501Y3553378D01*
X85249296Y3503598D01*
X85249281Y3496384D01*
X85243517Y3401103D01*
X85231977Y3225042D01*
X85231093Y3217916D01*
X85208110Y3092496D01*
X85179111Y2946706D01*
X85177494Y2940352D01*
X85137846Y2813120D01*
X85099643Y2700577D01*
X85096384Y2692770D01*
X84908902Y2317807D01*
X84906504Y2313455D01*
X84898410Y2300068D01*
X84896904Y2297699D01*
X84819408Y2181718D01*
X84816661Y2177925D01*
X84732618Y2070652D01*
X84730426Y2068008D01*
X84638739Y1963460D01*
X84635966Y1960498D01*
X84574468Y1898999D01*
X84550583Y1880351D01*
X83699697Y1369820D01*
X83672791Y1357764D01*
X83559648Y1322506D01*
X83553294Y1320889D01*
X83407504Y1291890D01*
X83282084Y1268907D01*
X83274958Y1268023D01*
X83098897Y1256483D01*
X83001866Y1250613D01*
X82998121Y1250500D01*
X2013267Y1250500D01*
X1983193Y1254202D01*
X1020836Y1494791D01*
X982128Y1511915D01*
X557500Y1795000D01*
X483825Y1844117D01*
X477332Y1849094D01*
X463460Y1861259D01*
X460511Y1864020D01*
X364033Y1960498D01*
X361259Y1963459D01*
X361258Y1963460D01*
X269566Y2068015D01*
X267380Y2070652D01*
X209375Y2144690D01*
X189350Y2181948D01*
X0Y2750000D01*
X-219954Y3189908D01*
X-232780Y3237252D01*
X-234328Y3260877D01*
X-236588Y3295359D01*
X-234446Y3327775D01*
X-200001Y3500000D01*
X644341Y3500000D01*
X664936Y3264597D01*
X664938Y3264587D01*
X726094Y3036345D01*
X726096Y3036341D01*
X726097Y3036337D01*
X754143Y2976193D01*
X825964Y2822172D01*
X825965Y2822170D01*
X961505Y2628598D01*
X1128597Y2461506D01*
X1322169Y2325966D01*
X1322171Y2325965D01*
X1536337Y2226097D01*
X1764592Y2164937D01*
X1941034Y2149500D01*
X2058966Y2149500D01*
X2235408Y2164937D01*
X2463663Y2226097D01*
X2677829Y2325965D01*
X2746430Y2374000D01*
X4065992Y2374000D01*
X4168678Y2374000D01*
X5064808Y3270130D01*
X6476192Y3270130D01*
X7372322Y2374000D01*
X7704212Y2374000D01*
X8600342Y3270130D01*
X7538267Y4332205D01*
X6476192Y3270130D01*
X5064808Y3270130D01*
X4283620Y4051318D01*
X4305395Y3970053D01*
X4313651Y3932811D01*
X4322154Y3884587D01*
X4327131Y3846779D01*
X4351995Y3562593D01*
X4353659Y3524486D01*
X4353659Y3475514D01*
X4351995Y3437407D01*
X4327131Y3153221D01*
X4322154Y3115413D01*
X4313651Y3067189D01*
X4305395Y3029947D01*
X4231558Y2754377D01*
X4220081Y2717977D01*
X4203329Y2671961D01*
X4188742Y2636744D01*
X4068185Y2378212D01*
X4065992Y2374000D01*
X2746430Y2374000D01*
X2871401Y2461505D01*
X3038495Y2628599D01*
X3174035Y2822170D01*
X3273903Y3036337D01*
X3335063Y3264592D01*
X3355659Y3500000D01*
X3354099Y3517825D01*
X3344723Y3625000D01*
X3335063Y3735408D01*
X3281045Y3937007D01*
X3273905Y3963656D01*
X3273904Y3963657D01*
X3273903Y3963663D01*
X3174035Y4177829D01*
X3174034Y4177831D01*
X3038494Y4371403D01*
X2871402Y4538495D01*
X2677830Y4674035D01*
X2677828Y4674036D01*
X2536170Y4740092D01*
X2463663Y4773903D01*
X2463659Y4773904D01*
X2463655Y4773906D01*
X2235413Y4835062D01*
X2235403Y4835064D01*
X2058966Y4850500D01*
X1941034Y4850500D01*
X1764596Y4835064D01*
X1764586Y4835062D01*
X1536344Y4773906D01*
X1536335Y4773902D01*
X1322171Y4674036D01*
X1322169Y4674035D01*
X1128597Y4538495D01*
X961506Y4371403D01*
X961501Y4371396D01*
X825967Y4177835D01*
X825965Y4177831D01*
X726098Y3963665D01*
X726094Y3963656D01*
X664938Y3735414D01*
X664936Y3735404D01*
X644341Y3500001D01*
X644341Y3500000D01*
X-200001Y3500000D01*
X-83531Y4082343D01*
X-5516Y4472425D01*
X16872Y4522498D01*
X403422Y5037898D01*
X4708425Y5037898D01*
X5770500Y3975823D01*
X6315418Y4520741D01*
X6292712Y4523498D01*
X6289007Y4524062D01*
X6240739Y4532908D01*
X6237077Y4533694D01*
X6174869Y4549027D01*
X6171262Y4550033D01*
X6124415Y4564630D01*
X6120873Y4565853D01*
X5901911Y4648894D01*
X5898451Y4650327D01*
X5853712Y4670461D01*
X5850343Y4672101D01*
X5793607Y4701877D01*
X5790344Y4703718D01*
X5748339Y4729110D01*
X5745193Y4731144D01*
X5552459Y4864179D01*
X5549442Y4866399D01*
X5510815Y4896661D01*
X5507938Y4899060D01*
X5459979Y4941548D01*
X5457251Y4944115D01*
X5422551Y4978815D01*
X5419984Y4981543D01*
X5370059Y5037897D01*
X8243959Y5037897D01*
X9306033Y3975823D01*
X9625710Y4295500D01*
X10963240Y4295500D01*
X10982994Y3981496D01*
X10982995Y3981489D01*
X11002004Y3881843D01*
X11041156Y3676597D01*
X11041954Y3672417D01*
X11139181Y3373184D01*
X11139183Y3373179D01*
X11273145Y3088497D01*
X11273148Y3088491D01*
X11441735Y2822839D01*
X11441738Y2822835D01*
X11642290Y2580410D01*
X11642292Y2580408D01*
X11642294Y2580406D01*
X11862094Y2374000D01*
X11871652Y2365024D01*
X11871662Y2365016D01*
X12126188Y2180092D01*
X12126193Y2180090D01*
X12126200Y2180084D01*
X12401918Y2028506D01*
X12401923Y2028504D01*
X12401925Y2028503D01*
X12401926Y2028502D01*
X12694455Y1912682D01*
X12694458Y1912681D01*
X12942114Y1849094D01*
X12999211Y1834434D01*
X13064694Y1826162D01*
X13311354Y1795001D01*
X13311363Y1795001D01*
X13311366Y1795000D01*
X13311368Y1795000D01*
X13626000Y1795000D01*
X13626002Y1795000D01*
X13626005Y1795001D01*
X13626013Y1795001D01*
X13812277Y1818532D01*
X13938157Y1834434D01*
X14242909Y1912681D01*
X14242912Y1912682D01*
X14535441Y2028502D01*
X14535442Y2028503D01*
X14535440Y2028503D01*
X14535450Y2028506D01*
X14811168Y2180084D01*
X15065714Y2365022D01*
X15295074Y2580406D01*
X15495631Y2822837D01*
X15664221Y3088493D01*
X15798187Y3373185D01*
X15826753Y3461103D01*
X15866190Y3518777D01*
X15930549Y3545976D01*
X15999395Y3534061D01*
X16050871Y3486817D01*
X16068684Y3422784D01*
X16068684Y2347656D01*
X16075085Y2288128D01*
X16075087Y2288121D01*
X16125329Y2153414D01*
X16125333Y2153407D01*
X16211493Y2038313D01*
X16211496Y2038310D01*
X16326590Y1952150D01*
X16326597Y1952146D01*
X16461304Y1901904D01*
X16461311Y1901902D01*
X16520839Y1895501D01*
X16520856Y1895500D01*
X18218684Y1895500D01*
X18218684Y2964865D01*
X18233363Y2960931D01*
X18409739Y2945500D01*
X18527629Y2945500D01*
X18704005Y2960931D01*
X18718684Y2964865D01*
X18718684Y1895500D01*
X20416512Y1895500D01*
X20416528Y1895501D01*
X20476056Y1901902D01*
X20476063Y1901904D01*
X20610770Y1952146D01*
X20610777Y1952150D01*
X20725871Y2038310D01*
X20725874Y2038313D01*
X20812034Y2153407D01*
X20812038Y2153414D01*
X20862280Y2288121D01*
X20862282Y2288128D01*
X20868683Y2347656D01*
X20868684Y2347673D01*
X20868684Y4045500D01*
X19799320Y4045500D01*
X19803253Y4060179D01*
X19810755Y4145924D01*
X21866684Y4145924D01*
X21866684Y2394336D01*
X22206344Y2733996D01*
X28225530Y2733996D01*
X28585526Y2374000D01*
X28917416Y2374000D01*
X29813546Y3270130D01*
X29813545Y3270131D01*
X31224929Y3270131D01*
X32121060Y2374000D01*
X32452950Y2374000D01*
X32735636Y2656687D01*
X32693673Y2665672D01*
X32690389Y2666469D01*
X32647652Y2678087D01*
X32644414Y2679063D01*
X32421154Y2753044D01*
X32417764Y2754278D01*
X32373862Y2771720D01*
X32370552Y2773147D01*
X32314637Y2799219D01*
X32311412Y2800838D01*
X32269811Y2823268D01*
X32266687Y2825072D01*
X32064845Y2949569D01*
X32061829Y2951552D01*
X32023114Y2978662D01*
X32020222Y2980816D01*
X31971825Y3019083D01*
X31969061Y3021402D01*
X31933768Y3052811D01*
X31931146Y3055286D01*
X31763470Y3222962D01*
X31760995Y3225584D01*
X31729586Y3260877D01*
X31727267Y3263641D01*
X31722136Y3270130D01*
X38295998Y3270130D01*
X39192128Y2374000D01*
X39524018Y2374000D01*
X40420147Y3270130D01*
X41831531Y3270130D01*
X42727661Y2374000D01*
X43059551Y2374000D01*
X43457796Y2772245D01*
X45864950Y2772245D01*
X46263195Y2374000D01*
X46595085Y2374000D01*
X47139332Y2918249D01*
X49254480Y2918249D01*
X49798729Y2374000D01*
X50130619Y2374000D01*
X50565080Y2808463D01*
X50545873Y2811849D01*
X50508631Y2820105D01*
X50233061Y2893942D01*
X50196661Y2905419D01*
X50150645Y2922171D01*
X50115428Y2936758D01*
X49856896Y3057315D01*
X49823077Y3074920D01*
X49780666Y3099403D01*
X49748486Y3119904D01*
X49708247Y3148080D01*
X49668632Y3120339D01*
X49636450Y3099839D01*
X49594041Y3075355D01*
X49560221Y3057750D01*
X49301767Y2937231D01*
X49266551Y2922643D01*
X49254480Y2918249D01*
X47139332Y2918249D01*
X47291950Y3070867D01*
X47283327Y3075355D01*
X47240918Y3099839D01*
X47208736Y3120339D01*
X47169119Y3148080D01*
X47128882Y3119904D01*
X47096702Y3099403D01*
X47054291Y3074920D01*
X47020472Y3057315D01*
X46761940Y2936758D01*
X46726723Y2922171D01*
X46680707Y2905419D01*
X46644307Y2893942D01*
X46368737Y2820105D01*
X46331495Y2811849D01*
X46283271Y2803346D01*
X46245463Y2798369D01*
X45961277Y2773505D01*
X45923170Y2771841D01*
X45874198Y2771841D01*
X45864950Y2772245D01*
X43457796Y2772245D01*
X43955681Y3270130D01*
X55973667Y3270130D01*
X56869797Y2374000D01*
X57201687Y2374000D01*
X58097817Y3270130D01*
X59509201Y3270130D01*
X60405331Y2374000D01*
X60737221Y2374000D01*
X61633351Y3270130D01*
X61633350Y3270131D01*
X63044734Y3270131D01*
X63940865Y2374000D01*
X64272755Y2374000D01*
X64692105Y2793352D01*
X74128115Y2793352D01*
X74547467Y2374000D01*
X74879357Y2374000D01*
X75775486Y3270130D01*
X77186871Y3270130D01*
X78083001Y2374000D01*
X78414891Y2374000D01*
X79311020Y3270130D01*
X79081150Y3500000D01*
X81644341Y3500000D01*
X81664936Y3264597D01*
X81664938Y3264587D01*
X81726094Y3036345D01*
X81726096Y3036341D01*
X81726097Y3036337D01*
X81754143Y2976193D01*
X81825964Y2822172D01*
X81825965Y2822170D01*
X81961505Y2628598D01*
X82128597Y2461506D01*
X82322169Y2325966D01*
X82322171Y2325965D01*
X82536337Y2226097D01*
X82764592Y2164937D01*
X82941034Y2149500D01*
X83058966Y2149500D01*
X83235408Y2164937D01*
X83463663Y2226097D01*
X83677829Y2325965D01*
X83871401Y2461505D01*
X84038495Y2628599D01*
X84174035Y2822170D01*
X84273903Y3036337D01*
X84335063Y3264592D01*
X84355659Y3500000D01*
X84354099Y3517825D01*
X84344723Y3625000D01*
X84335063Y3735408D01*
X84281045Y3937007D01*
X84273905Y3963656D01*
X84273904Y3963657D01*
X84273903Y3963663D01*
X84174035Y4177829D01*
X84174034Y4177831D01*
X84038494Y4371403D01*
X83871402Y4538495D01*
X83677830Y4674035D01*
X83677828Y4674036D01*
X83536170Y4740092D01*
X83463663Y4773903D01*
X83463659Y4773904D01*
X83463655Y4773906D01*
X83235413Y4835062D01*
X83235403Y4835064D01*
X83058966Y4850500D01*
X82941034Y4850500D01*
X82764596Y4835064D01*
X82764586Y4835062D01*
X82536344Y4773906D01*
X82536335Y4773902D01*
X82322171Y4674036D01*
X82322169Y4674035D01*
X82128597Y4538495D01*
X81961506Y4371403D01*
X81961501Y4371396D01*
X81825967Y4177835D01*
X81825965Y4177831D01*
X81726098Y3963665D01*
X81726094Y3963656D01*
X81664938Y3735414D01*
X81664936Y3735404D01*
X81644341Y3500001D01*
X81644341Y3500000D01*
X79081150Y3500000D01*
X78248945Y4332205D01*
X77186871Y3270130D01*
X75775486Y3270130D01*
X75540041Y3505575D01*
X75398471Y3364005D01*
X75370365Y3338252D01*
X75332854Y3306773D01*
X75302579Y3283541D01*
X75068882Y3119904D01*
X75036702Y3099403D01*
X74994291Y3074920D01*
X74960472Y3057315D01*
X74701940Y2936758D01*
X74666723Y2922171D01*
X74620707Y2905419D01*
X74584307Y2893942D01*
X74308737Y2820105D01*
X74271495Y2811849D01*
X74223271Y2803346D01*
X74185463Y2798369D01*
X74128115Y2793352D01*
X64692105Y2793352D01*
X64790548Y2891795D01*
X64742108Y2909861D01*
X64738017Y2911555D01*
X64685252Y2935653D01*
X64681293Y2937634D01*
X64614817Y2973933D01*
X64611009Y2976193D01*
X64562218Y3007550D01*
X64558581Y3010075D01*
X64382739Y3141712D01*
X64379292Y3144489D01*
X64335462Y3182468D01*
X64332221Y3185485D01*
X64278669Y3239037D01*
X64275652Y3242278D01*
X64237673Y3286108D01*
X64234896Y3289555D01*
X64103259Y3465397D01*
X64100734Y3469034D01*
X64069377Y3517825D01*
X64067117Y3521633D01*
X64030818Y3588109D01*
X64028837Y3592068D01*
X64004739Y3644833D01*
X64003045Y3648924D01*
X63927938Y3850297D01*
X63926698Y3853967D01*
X63911969Y3902525D01*
X63910961Y3906264D01*
X63895722Y3970749D01*
X63894949Y3974545D01*
X63886385Y4024569D01*
X63885850Y4028407D01*
X63877810Y4103206D01*
X63044734Y3270131D01*
X61633350Y3270131D01*
X60571276Y4332205D01*
X59509201Y3270130D01*
X58097817Y3270130D01*
X57035742Y4332205D01*
X55973667Y3270130D01*
X43955681Y3270130D01*
X42893606Y4332205D01*
X41831531Y3270130D01*
X40420147Y3270130D01*
X39358072Y4332205D01*
X38295998Y3270130D01*
X31722136Y3270130D01*
X31689000Y3312038D01*
X31686846Y3314930D01*
X31659736Y3353645D01*
X31657753Y3356661D01*
X31533256Y3558503D01*
X31531452Y3561627D01*
X31526188Y3571390D01*
X31224929Y3270131D01*
X29813545Y3270131D01*
X29408018Y3675658D01*
X29275654Y3486619D01*
X29252440Y3456366D01*
X29220963Y3418852D01*
X29195189Y3390723D01*
X28993461Y3188995D01*
X28965332Y3163221D01*
X28927818Y3131744D01*
X28897565Y3108530D01*
X28663886Y2944908D01*
X28631724Y2924419D01*
X28589319Y2899935D01*
X28555482Y2882320D01*
X28296940Y2761758D01*
X28261723Y2747171D01*
X28225530Y2733996D01*
X22206344Y2733996D01*
X22742478Y3270130D01*
X21866684Y4145924D01*
X19810755Y4145924D01*
X19823841Y4295500D01*
X19823404Y4300499D01*
X23583184Y4300499D01*
X23583185Y4300482D01*
X23593684Y4197704D01*
X23593685Y4197701D01*
X23648869Y4031169D01*
X23648871Y4031164D01*
X23679511Y3981489D01*
X23740972Y3881844D01*
X23865028Y3757788D01*
X24014350Y3665686D01*
X24180887Y3610501D01*
X24283675Y3600000D01*
X25583692Y3600001D01*
X25686481Y3610501D01*
X25853018Y3665686D01*
X26002340Y3757788D01*
X26126396Y3881844D01*
X26218498Y4031166D01*
X26218498Y4031169D01*
X26221862Y4036621D01*
X26273810Y4083346D01*
X26342772Y4094569D01*
X26406854Y4066726D01*
X26415082Y4059206D01*
X26562283Y3912005D01*
X26648557Y3851595D01*
X26755849Y3776468D01*
X26755851Y3776467D01*
X26755854Y3776465D01*
X26970021Y3676597D01*
X27198276Y3615437D01*
X27374718Y3600000D01*
X27433683Y3594841D01*
X27433684Y3594841D01*
X27433685Y3594841D01*
X27492650Y3600000D01*
X27669092Y3615437D01*
X27897347Y3676597D01*
X28111513Y3776465D01*
X28305085Y3912005D01*
X28472179Y4079099D01*
X28607719Y4272671D01*
X28707587Y4486837D01*
X28768747Y4715092D01*
X28769504Y4723745D01*
X29771315Y4723745D01*
X30519237Y3975823D01*
X30868913Y4325499D01*
X32333184Y4325499D01*
X32333185Y4325482D01*
X32343684Y4222704D01*
X32343685Y4222701D01*
X32398869Y4056169D01*
X32398871Y4056164D01*
X32413057Y4033165D01*
X32490972Y3906844D01*
X32615028Y3782788D01*
X32764350Y3690686D01*
X32930887Y3635501D01*
X33033675Y3625000D01*
X34333692Y3625001D01*
X34436481Y3635501D01*
X34603018Y3690686D01*
X34752340Y3782788D01*
X34876396Y3906844D01*
X34968498Y4056166D01*
X34968498Y4056169D01*
X34971862Y4061621D01*
X35023810Y4108346D01*
X35092772Y4119569D01*
X35156854Y4091726D01*
X35165082Y4084206D01*
X35312283Y3937005D01*
X35397169Y3877567D01*
X35505849Y3801468D01*
X35505851Y3801467D01*
X35505854Y3801465D01*
X35720021Y3701597D01*
X35948276Y3640437D01*
X36124718Y3625000D01*
X36183683Y3619841D01*
X36183684Y3619841D01*
X36183685Y3619841D01*
X36242650Y3625000D01*
X36419092Y3640437D01*
X36647347Y3701597D01*
X36861513Y3801465D01*
X37055085Y3937005D01*
X37222179Y4104099D01*
X37357719Y4297671D01*
X37457587Y4511837D01*
X37518747Y4740092D01*
X37534184Y4916534D01*
X37534184Y5037897D01*
X40063764Y5037897D01*
X41125839Y3975823D01*
X42187914Y5037897D01*
X42100311Y5125500D01*
X44543025Y5125500D01*
X44563620Y4890097D01*
X44563622Y4890087D01*
X44624778Y4661845D01*
X44624780Y4661841D01*
X44624781Y4661837D01*
X44704485Y4490912D01*
X44724649Y4447670D01*
X44724651Y4447666D01*
X44810194Y4325499D01*
X44860189Y4254099D01*
X45027283Y4087005D01*
X45107025Y4031169D01*
X45220849Y3951468D01*
X45220851Y3951467D01*
X45220854Y3951465D01*
X45435021Y3851597D01*
X45435027Y3851596D01*
X45435028Y3851595D01*
X45453002Y3846779D01*
X45663276Y3790437D01*
X45839718Y3775000D01*
X45898683Y3769841D01*
X45898684Y3769841D01*
X45898685Y3769841D01*
X45957650Y3775000D01*
X46134092Y3790437D01*
X46362347Y3851597D01*
X46576514Y3951465D01*
X46770085Y4087005D01*
X46937179Y4254099D01*
X47067414Y4440095D01*
X47121991Y4483719D01*
X47191489Y4490913D01*
X47253844Y4459390D01*
X47270563Y4440095D01*
X47400574Y4254422D01*
X47567601Y4087395D01*
X47761105Y3951900D01*
X47975191Y3852071D01*
X47975200Y3852067D01*
X48188684Y3794866D01*
X48188684Y4689999D01*
X48296369Y4640820D01*
X48402921Y4625500D01*
X48474447Y4625500D01*
X48580999Y4640820D01*
X48688684Y4689999D01*
X48688684Y3794867D01*
X48902167Y3852067D01*
X48902176Y3852071D01*
X49116262Y3951900D01*
X49309766Y4087395D01*
X49476789Y4254418D01*
X49606803Y4440095D01*
X49661380Y4483719D01*
X49730879Y4490912D01*
X49793233Y4459390D01*
X49809953Y4440095D01*
X49940189Y4254099D01*
X50107283Y4087005D01*
X50187025Y4031169D01*
X50300849Y3951468D01*
X50300851Y3951467D01*
X50300854Y3951465D01*
X50515021Y3851597D01*
X50515027Y3851596D01*
X50515028Y3851595D01*
X50533002Y3846779D01*
X50743276Y3790437D01*
X50919718Y3775000D01*
X50978683Y3769841D01*
X50978684Y3769841D01*
X50978685Y3769841D01*
X51037650Y3775000D01*
X51214092Y3790437D01*
X51442347Y3851597D01*
X51656514Y3951465D01*
X51850085Y4087005D01*
X51972013Y4208934D01*
X52033332Y4242416D01*
X52103024Y4237432D01*
X52158958Y4195561D01*
X52175873Y4164583D01*
X52224886Y4033172D01*
X52224890Y4033165D01*
X52311136Y3917956D01*
X52311139Y3917953D01*
X52426348Y3831707D01*
X52426355Y3831703D01*
X52561201Y3781409D01*
X52561200Y3781409D01*
X52568128Y3780665D01*
X52620811Y3775000D01*
X54416556Y3775001D01*
X54476167Y3781409D01*
X54611015Y3831704D01*
X54726230Y3917954D01*
X54812480Y4033169D01*
X54862775Y4168017D01*
X54869184Y4227627D01*
X54869184Y5037897D01*
X57741434Y5037897D01*
X58803509Y3975822D01*
X59865584Y5037897D01*
X61276968Y5037897D01*
X62339043Y3975822D01*
X62590851Y4227630D01*
X64868184Y4227630D01*
X64868185Y4227624D01*
X64874592Y4168017D01*
X64924886Y4033172D01*
X64924890Y4033165D01*
X65011136Y3917956D01*
X65011139Y3917953D01*
X65126348Y3831707D01*
X65126355Y3831703D01*
X65261201Y3781409D01*
X65261200Y3781409D01*
X65268128Y3780665D01*
X65320811Y3775000D01*
X67116556Y3775001D01*
X67176167Y3781409D01*
X67311015Y3831704D01*
X67426230Y3917954D01*
X67512480Y4033169D01*
X67561494Y4164584D01*
X67603365Y4220516D01*
X67668829Y4244934D01*
X67737102Y4230083D01*
X67765357Y4208931D01*
X67887283Y4087005D01*
X67967025Y4031169D01*
X68080849Y3951468D01*
X68080851Y3951467D01*
X68080854Y3951465D01*
X68295021Y3851597D01*
X68295027Y3851596D01*
X68295028Y3851595D01*
X68313002Y3846779D01*
X68523276Y3790437D01*
X68699718Y3775000D01*
X68758683Y3769841D01*
X68758684Y3769841D01*
X68758685Y3769841D01*
X68817650Y3775000D01*
X68994092Y3790437D01*
X69222347Y3851597D01*
X69436514Y3951465D01*
X69630085Y4087005D01*
X69797179Y4254099D01*
X69927414Y4440095D01*
X69981991Y4483719D01*
X70051489Y4490913D01*
X70113844Y4459390D01*
X70130563Y4440095D01*
X70260574Y4254422D01*
X70427601Y4087395D01*
X70621105Y3951900D01*
X70835191Y3852071D01*
X70835200Y3852067D01*
X71048684Y3794866D01*
X71048684Y4689999D01*
X71156369Y4640820D01*
X71262921Y4625500D01*
X71334447Y4625500D01*
X71440999Y4640820D01*
X71548684Y4689999D01*
X71548684Y3794867D01*
X71762167Y3852067D01*
X71762176Y3852071D01*
X71976262Y3951900D01*
X72169766Y4087395D01*
X72336789Y4254418D01*
X72466803Y4440095D01*
X72521380Y4483719D01*
X72590879Y4490912D01*
X72653233Y4459390D01*
X72669953Y4440095D01*
X72800189Y4254099D01*
X72967283Y4087005D01*
X73047025Y4031169D01*
X73160849Y3951468D01*
X73160851Y3951467D01*
X73160854Y3951465D01*
X73375021Y3851597D01*
X73375027Y3851596D01*
X73375028Y3851595D01*
X73393002Y3846779D01*
X73603276Y3790437D01*
X73779718Y3775000D01*
X73838683Y3769841D01*
X73838684Y3769841D01*
X73838685Y3769841D01*
X73897650Y3775000D01*
X74074092Y3790437D01*
X74302347Y3851597D01*
X74516514Y3951465D01*
X74710085Y4087005D01*
X74877179Y4254099D01*
X74969051Y4385305D01*
X76071696Y4385305D01*
X76481178Y3975823D01*
X77543253Y5037897D01*
X78954637Y5037897D01*
X80016712Y3975823D01*
X81078787Y5037897D01*
X80016712Y6099972D01*
X78954637Y5037897D01*
X77543253Y5037897D01*
X76481178Y6099973D01*
X76108720Y5727515D01*
X76144079Y5595553D01*
X76152335Y5558311D01*
X76160838Y5510087D01*
X76165815Y5472279D01*
X76190679Y5188093D01*
X76192343Y5149986D01*
X76192343Y5101014D01*
X76190679Y5062907D01*
X76165815Y4778721D01*
X76160838Y4740913D01*
X76152335Y4692689D01*
X76144079Y4655447D01*
X76071696Y4385305D01*
X74969051Y4385305D01*
X75012719Y4447670D01*
X75112587Y4661837D01*
X75173747Y4890092D01*
X75194343Y5125500D01*
X75192227Y5149680D01*
X75185161Y5230446D01*
X75173747Y5360908D01*
X75112587Y5589163D01*
X75012719Y5803329D01*
X75007415Y5810905D01*
X74877178Y5996903D01*
X74710086Y6163994D01*
X74710079Y6163999D01*
X74516518Y6299533D01*
X74516514Y6299535D01*
X74490424Y6311701D01*
X74302347Y6399403D01*
X74302343Y6399404D01*
X74302339Y6399406D01*
X74074097Y6460562D01*
X74074087Y6460564D01*
X73838685Y6481159D01*
X73838683Y6481159D01*
X73603280Y6460564D01*
X73603270Y6460562D01*
X73375028Y6399406D01*
X73375019Y6399402D01*
X73160855Y6299536D01*
X73160853Y6299535D01*
X72967281Y6163995D01*
X72800192Y5996906D01*
X72669953Y5810905D01*
X72615376Y5767281D01*
X72545877Y5760088D01*
X72483523Y5791610D01*
X72466803Y5810906D01*
X72336797Y5996574D01*
X72336792Y5996580D01*
X72169766Y6163606D01*
X71976262Y6299101D01*
X71762176Y6398930D01*
X71762170Y6398933D01*
X71548684Y6456136D01*
X71548684Y5561002D01*
X71440999Y5610180D01*
X71334447Y5625500D01*
X71262921Y5625500D01*
X71156369Y5610180D01*
X71048684Y5561002D01*
X71048684Y6456136D01*
X71048683Y6456136D01*
X70835197Y6398933D01*
X70835191Y6398930D01*
X70621106Y6299101D01*
X70621104Y6299100D01*
X70427610Y6163614D01*
X70427604Y6163609D01*
X70260575Y5996580D01*
X70260574Y5996578D01*
X70130564Y5810905D01*
X70075987Y5767281D01*
X70006488Y5760088D01*
X69944134Y5791610D01*
X69927414Y5810906D01*
X69797178Y5996903D01*
X69630086Y6163994D01*
X69630079Y6163999D01*
X69436518Y6299533D01*
X69436514Y6299535D01*
X69410424Y6311701D01*
X69222347Y6399403D01*
X69222343Y6399404D01*
X69222339Y6399406D01*
X68994097Y6460562D01*
X68994087Y6460564D01*
X68758685Y6481159D01*
X68758683Y6481159D01*
X68523280Y6460564D01*
X68523270Y6460562D01*
X68295028Y6399406D01*
X68295019Y6399402D01*
X68080855Y6299536D01*
X68080853Y6299535D01*
X67887284Y6163997D01*
X67765357Y6042070D01*
X67704034Y6008586D01*
X67634342Y6013570D01*
X67578409Y6055442D01*
X67561494Y6086419D01*
X67512481Y6217829D01*
X67512477Y6217836D01*
X67426231Y6333045D01*
X67426228Y6333048D01*
X67311019Y6419294D01*
X67311012Y6419298D01*
X67176166Y6469592D01*
X67176167Y6469592D01*
X67116567Y6475999D01*
X67116565Y6476000D01*
X67116557Y6476000D01*
X67116548Y6476000D01*
X65320813Y6476000D01*
X65320807Y6475999D01*
X65261200Y6469592D01*
X65126355Y6419298D01*
X65126348Y6419294D01*
X65011139Y6333048D01*
X65011136Y6333045D01*
X64924890Y6217836D01*
X64924886Y6217829D01*
X64874592Y6082983D01*
X64868713Y6028297D01*
X64868185Y6023377D01*
X64868184Y6023365D01*
X64868184Y4227630D01*
X62590851Y4227630D01*
X63401118Y5037897D01*
X62339043Y6099972D01*
X61276968Y5037897D01*
X59865584Y5037897D01*
X58803509Y6099972D01*
X57741434Y5037897D01*
X54869184Y5037897D01*
X54869183Y6023372D01*
X54862775Y6082983D01*
X54861494Y6086417D01*
X54812481Y6217829D01*
X54812477Y6217836D01*
X54726231Y6333045D01*
X54726228Y6333048D01*
X54611019Y6419294D01*
X54611012Y6419298D01*
X54476166Y6469592D01*
X54476167Y6469592D01*
X54416567Y6475999D01*
X54416565Y6476000D01*
X54416557Y6476000D01*
X54416548Y6476000D01*
X52620813Y6476000D01*
X52620807Y6475999D01*
X52561200Y6469592D01*
X52426355Y6419298D01*
X52426348Y6419294D01*
X52311139Y6333048D01*
X52311136Y6333045D01*
X52224890Y6217836D01*
X52224887Y6217831D01*
X52175873Y6086417D01*
X52134001Y6030484D01*
X52068537Y6006067D01*
X52000264Y6020919D01*
X51972010Y6042070D01*
X51850086Y6163994D01*
X51850079Y6163999D01*
X51656518Y6299533D01*
X51656514Y6299535D01*
X51630424Y6311701D01*
X51442347Y6399403D01*
X51442343Y6399404D01*
X51442339Y6399406D01*
X51214097Y6460562D01*
X51214087Y6460564D01*
X50978685Y6481159D01*
X50978683Y6481159D01*
X50743280Y6460564D01*
X50743270Y6460562D01*
X50515028Y6399406D01*
X50515019Y6399402D01*
X50300855Y6299536D01*
X50300853Y6299535D01*
X50107281Y6163995D01*
X49940192Y5996906D01*
X49809953Y5810905D01*
X49755376Y5767281D01*
X49685877Y5760088D01*
X49623523Y5791610D01*
X49606803Y5810906D01*
X49476797Y5996574D01*
X49476792Y5996580D01*
X49309766Y6163606D01*
X49116262Y6299101D01*
X48902176Y6398930D01*
X48902170Y6398933D01*
X48688684Y6456136D01*
X48688684Y5561002D01*
X48580999Y5610180D01*
X48474447Y5625500D01*
X48402921Y5625500D01*
X48296369Y5610180D01*
X48188684Y5561002D01*
X48188684Y6456136D01*
X48188683Y6456136D01*
X47975197Y6398933D01*
X47975191Y6398930D01*
X47761106Y6299101D01*
X47761104Y6299100D01*
X47567610Y6163614D01*
X47567604Y6163609D01*
X47400575Y5996580D01*
X47400574Y5996578D01*
X47270564Y5810905D01*
X47215987Y5767281D01*
X47146488Y5760088D01*
X47084134Y5791610D01*
X47067414Y5810906D01*
X46937178Y5996903D01*
X46770086Y6163994D01*
X46770079Y6163999D01*
X46576518Y6299533D01*
X46576514Y6299535D01*
X46550424Y6311701D01*
X46362347Y6399403D01*
X46362343Y6399404D01*
X46362339Y6399406D01*
X46134097Y6460562D01*
X46134087Y6460564D01*
X45898685Y6481159D01*
X45898683Y6481159D01*
X45663280Y6460564D01*
X45663270Y6460562D01*
X45435028Y6399406D01*
X45435019Y6399402D01*
X45220855Y6299536D01*
X45220853Y6299535D01*
X45027281Y6163995D01*
X44860189Y5996903D01*
X44724649Y5803331D01*
X44724648Y5803329D01*
X44624782Y5589165D01*
X44624778Y5589156D01*
X44563622Y5360914D01*
X44563620Y5360904D01*
X44543025Y5125501D01*
X44543025Y5125500D01*
X42100311Y5125500D01*
X41125839Y6099972D01*
X40063764Y5037897D01*
X37534184Y5037897D01*
X37534184Y5334466D01*
X37518747Y5510908D01*
X37457587Y5739163D01*
X37357719Y5953329D01*
X37356294Y5955365D01*
X37222178Y6146903D01*
X37055086Y6313994D01*
X37055079Y6313999D01*
X37049646Y6317803D01*
X36976470Y6369042D01*
X36861518Y6449533D01*
X36861514Y6449535D01*
X36847358Y6456136D01*
X36647347Y6549403D01*
X36647343Y6549404D01*
X36647339Y6549406D01*
X36419097Y6610562D01*
X36419087Y6610564D01*
X36183685Y6631159D01*
X36183683Y6631159D01*
X35948280Y6610564D01*
X35948270Y6610562D01*
X35720028Y6549406D01*
X35720019Y6549402D01*
X35505855Y6449536D01*
X35505853Y6449535D01*
X35312281Y6313995D01*
X35165082Y6166795D01*
X35103759Y6133310D01*
X35034067Y6138294D01*
X34978134Y6180166D01*
X34971862Y6189380D01*
X34876396Y6344156D01*
X34752341Y6468211D01*
X34752340Y6468212D01*
X34643548Y6535315D01*
X34603020Y6560313D01*
X34603015Y6560315D01*
X34578794Y6568341D01*
X34436481Y6615499D01*
X34436479Y6615500D01*
X34333694Y6626000D01*
X33033682Y6626000D01*
X33033665Y6625999D01*
X32930887Y6615500D01*
X32930884Y6615499D01*
X32764352Y6560315D01*
X32764347Y6560313D01*
X32615026Y6468211D01*
X32490973Y6344158D01*
X32398871Y6194837D01*
X32398869Y6194832D01*
X32380134Y6138294D01*
X32343685Y6028297D01*
X32343685Y6028296D01*
X32343684Y6028296D01*
X32333184Y5925517D01*
X32333184Y4325499D01*
X30868913Y4325499D01*
X31335184Y4791769D01*
X31335184Y5284026D01*
X30519237Y6099973D01*
X29780858Y5361594D01*
X29782184Y5331241D01*
X29782184Y4869759D01*
X29780284Y4826246D01*
X29771315Y4723745D01*
X28769504Y4723745D01*
X28784184Y4891534D01*
X28784184Y5309466D01*
X28768747Y5485908D01*
X28707587Y5714163D01*
X28607719Y5928329D01*
X28595854Y5945275D01*
X28472178Y6121903D01*
X28305086Y6288994D01*
X28305079Y6288999D01*
X28290653Y6299100D01*
X28225509Y6344715D01*
X28111518Y6424533D01*
X28111514Y6424535D01*
X28066072Y6445725D01*
X27897347Y6524403D01*
X27897343Y6524404D01*
X27897339Y6524406D01*
X27669097Y6585562D01*
X27669087Y6585564D01*
X27433685Y6606159D01*
X27433683Y6606159D01*
X27198280Y6585564D01*
X27198270Y6585562D01*
X26970028Y6524406D01*
X26970019Y6524402D01*
X26755855Y6424536D01*
X26755853Y6424535D01*
X26562281Y6288995D01*
X26415082Y6141795D01*
X26353759Y6108310D01*
X26284067Y6113294D01*
X26228134Y6155166D01*
X26221862Y6164380D01*
X26126396Y6319156D01*
X26002341Y6443211D01*
X26002340Y6443212D01*
X25909572Y6500431D01*
X25853020Y6535313D01*
X25853015Y6535315D01*
X25810491Y6549406D01*
X25686481Y6590499D01*
X25686479Y6590500D01*
X25583694Y6601000D01*
X24283682Y6601000D01*
X24283665Y6600999D01*
X24180887Y6590500D01*
X24180884Y6590499D01*
X24014352Y6535315D01*
X24014347Y6535313D01*
X23865026Y6443211D01*
X23740973Y6319158D01*
X23648871Y6169837D01*
X23648869Y6169832D01*
X23630745Y6115136D01*
X23593685Y6003297D01*
X23593685Y6003296D01*
X23593684Y6003296D01*
X23583184Y5900517D01*
X23583184Y4300499D01*
X19823404Y4300499D01*
X19803253Y4530821D01*
X19799320Y4545500D01*
X20868684Y4545500D01*
X20868684Y6243328D01*
X20868683Y6243345D01*
X20862282Y6302873D01*
X20862280Y6302880D01*
X20812038Y6437587D01*
X20812034Y6437594D01*
X20725874Y6552688D01*
X20725871Y6552691D01*
X20610777Y6638851D01*
X20610770Y6638855D01*
X20476063Y6689097D01*
X20476056Y6689099D01*
X20416528Y6695500D01*
X18718684Y6695500D01*
X18718684Y5626136D01*
X18704005Y5630069D01*
X18527629Y5645500D01*
X18409739Y5645500D01*
X18233363Y5630069D01*
X18218684Y5626136D01*
X18218684Y6695500D01*
X16520839Y6695500D01*
X16461311Y6689099D01*
X16461304Y6689097D01*
X16326597Y6638855D01*
X16326590Y6638851D01*
X16211496Y6552691D01*
X16211493Y6552688D01*
X16125333Y6437594D01*
X16125329Y6437587D01*
X16075087Y6302880D01*
X16075085Y6302873D01*
X16068684Y6243345D01*
X16068684Y5168217D01*
X16048999Y5101178D01*
X15996195Y5055423D01*
X15927037Y5045479D01*
X15863481Y5074504D01*
X15826753Y5129899D01*
X15798186Y5217817D01*
X15798184Y5217822D01*
X15730530Y5361594D01*
X15664221Y5502507D01*
X15595890Y5610180D01*
X15495632Y5768162D01*
X15495629Y5768166D01*
X15295077Y6010591D01*
X15295075Y6010593D01*
X15281462Y6023377D01*
X15065714Y6225978D01*
X15065711Y6225980D01*
X15065705Y6225985D01*
X14811179Y6410909D01*
X14811172Y6410914D01*
X14811168Y6410916D01*
X14535450Y6562494D01*
X14535447Y6562496D01*
X14535442Y6562498D01*
X14535441Y6562499D01*
X14242912Y6678319D01*
X14242909Y6678320D01*
X13938160Y6756566D01*
X13938147Y6756568D01*
X13626013Y6796000D01*
X13626002Y6796000D01*
X13311366Y6796000D01*
X13311354Y6796000D01*
X12999220Y6756568D01*
X12999207Y6756566D01*
X12694458Y6678320D01*
X12694455Y6678319D01*
X12401926Y6562499D01*
X12401925Y6562498D01*
X12126200Y6410916D01*
X12126188Y6410909D01*
X11871662Y6225985D01*
X11871652Y6225977D01*
X11642292Y6010593D01*
X11642290Y6010591D01*
X11441738Y5768166D01*
X11441735Y5768162D01*
X11273148Y5502510D01*
X11273145Y5502504D01*
X11139183Y5217822D01*
X11139181Y5217817D01*
X11041954Y4918584D01*
X10982995Y4609512D01*
X10982994Y4609505D01*
X10963240Y4295506D01*
X10963240Y4295500D01*
X9625710Y4295500D01*
X9985929Y4655719D01*
X9988072Y4689778D01*
X9990658Y4717127D01*
X9995077Y4752103D01*
X9999372Y4779214D01*
X10064933Y5122895D01*
X10070920Y5149680D01*
X10079685Y5183824D01*
X10087350Y5210207D01*
X10113945Y5292061D01*
X9306034Y6099972D01*
X8243959Y5037897D01*
X5370059Y5037897D01*
X5264692Y5156831D01*
X5262294Y5159709D01*
X5232034Y5198333D01*
X5229815Y5201350D01*
X5193418Y5254078D01*
X5191384Y5257224D01*
X5165996Y5299220D01*
X5164155Y5302483D01*
X5098364Y5427836D01*
X4708425Y5037898D01*
X403422Y5037898D01*
X537832Y5217112D01*
X549390Y5230427D01*
X1774427Y6453374D01*
X3292948Y6453374D01*
X4002732Y5743590D01*
X4369586Y6110444D01*
X5913184Y6110444D01*
X5930939Y6038410D01*
X5953894Y5945274D01*
X6032947Y5794651D01*
X6032950Y5794648D01*
X6145755Y5667317D01*
X6199718Y5630069D01*
X6285752Y5570683D01*
X6285753Y5570683D01*
X6285754Y5570682D01*
X6318374Y5558311D01*
X6443377Y5510904D01*
X6444812Y5510360D01*
X6520712Y5501144D01*
X6571310Y5495000D01*
X6571312Y5495000D01*
X6656058Y5495000D01*
X6698222Y5500120D01*
X6782556Y5510360D01*
X6941614Y5570682D01*
X7081613Y5667317D01*
X7194418Y5794648D01*
X7198975Y5803329D01*
X7264581Y5928331D01*
X7273474Y5945275D01*
X7314184Y6110444D01*
X7314184Y6280556D01*
X7273474Y6445725D01*
X7273473Y6445727D01*
X7194420Y6596350D01*
X7141041Y6656602D01*
X7081613Y6723683D01*
X6991907Y6785603D01*
X6962844Y6805664D01*
X10011726Y6805664D01*
X10566242Y6251148D01*
X10608543Y6317803D01*
X10623982Y6340520D01*
X10644705Y6369042D01*
X10661533Y6390735D01*
X10884561Y6660330D01*
X10902725Y6680931D01*
X10926857Y6706629D01*
X10946269Y6726041D01*
X11201321Y6965552D01*
X11221912Y6983705D01*
X11249074Y7006177D01*
X11270780Y7023014D01*
X11553859Y7228682D01*
X11576588Y7244128D01*
X11606353Y7263015D01*
X11629970Y7276982D01*
X11652288Y7289252D01*
X11521557Y7419983D01*
X21232645Y7419983D01*
X21354272Y7328931D01*
X21357719Y7326154D01*
X21401549Y7288175D01*
X21404790Y7285158D01*
X21458342Y7231606D01*
X21461359Y7228365D01*
X21499338Y7184535D01*
X21502115Y7181088D01*
X21633666Y7005361D01*
X21636191Y7001724D01*
X21667548Y6952933D01*
X21669808Y6949125D01*
X21706107Y6882649D01*
X21708088Y6878691D01*
X21732185Y6825927D01*
X21733880Y6821836D01*
X21808940Y6620589D01*
X21810180Y6616918D01*
X21824915Y6568341D01*
X21825923Y6564598D01*
X21841157Y6500117D01*
X21841929Y6496324D01*
X21850488Y6446330D01*
X21851022Y6442494D01*
X21862573Y6335063D01*
X21864453Y6311701D01*
X21866059Y6281698D01*
X21866684Y6258334D01*
X21866684Y5929870D01*
X22742478Y6805664D01*
X22117179Y7430963D01*
X28314694Y7430963D01*
X28555472Y7318685D01*
X28589291Y7301080D01*
X28631702Y7276597D01*
X28663882Y7256096D01*
X28897579Y7092459D01*
X28927853Y7069228D01*
X28965367Y7037748D01*
X28993471Y7011994D01*
X29195187Y6810279D01*
X29220963Y6782149D01*
X29252441Y6744634D01*
X29275654Y6714381D01*
X29439276Y6480702D01*
X29458463Y6450583D01*
X29813544Y6805664D01*
X31224930Y6805664D01*
X31470057Y6560537D01*
X31479904Y6585322D01*
X31481331Y6588632D01*
X31507403Y6644547D01*
X31509022Y6647772D01*
X31531452Y6689373D01*
X31533256Y6692497D01*
X31603058Y6805664D01*
X38295998Y6805664D01*
X39358072Y5743590D01*
X40420147Y6805664D01*
X41831531Y6805664D01*
X42893606Y5743590D01*
X43955681Y6805664D01*
X55973667Y6805664D01*
X57035742Y5743589D01*
X58097817Y6805664D01*
X59509201Y6805664D01*
X60571276Y5743589D01*
X61633351Y6805664D01*
X63044735Y6805664D01*
X63870184Y5980215D01*
X63870184Y6038410D01*
X63870812Y6061834D01*
X63872422Y6091836D01*
X63874298Y6115136D01*
X63885853Y6222600D01*
X63886386Y6226435D01*
X63894947Y6276438D01*
X63895720Y6280234D01*
X63910955Y6344715D01*
X63911963Y6348455D01*
X63926696Y6397026D01*
X63927936Y6400696D01*
X64003045Y6602076D01*
X64004739Y6606167D01*
X64028837Y6658932D01*
X64030818Y6662891D01*
X64067117Y6729367D01*
X64069377Y6733175D01*
X64100734Y6781966D01*
X64103259Y6785603D01*
X64234896Y6961445D01*
X64237673Y6964892D01*
X64275652Y7008722D01*
X64278669Y7011963D01*
X64332221Y7065515D01*
X64335462Y7068532D01*
X64379292Y7106511D01*
X64382739Y7109288D01*
X64558581Y7240925D01*
X64562218Y7243450D01*
X64611009Y7274807D01*
X64614817Y7277067D01*
X64668285Y7306264D01*
X64537816Y7436733D01*
X74282404Y7436733D01*
X74308737Y7430895D01*
X74584307Y7357058D01*
X74620707Y7345581D01*
X74666723Y7328829D01*
X74701940Y7314242D01*
X74960472Y7193685D01*
X74994291Y7176080D01*
X75036702Y7151597D01*
X75068882Y7131096D01*
X75302579Y6967459D01*
X75332853Y6944228D01*
X75370367Y6912748D01*
X75398471Y6886994D01*
X75600187Y6685279D01*
X75625963Y6657149D01*
X75626422Y6656602D01*
X75775484Y6805664D01*
X77186871Y6805664D01*
X78248945Y5743590D01*
X79311020Y6805664D01*
X80722405Y6805664D01*
X81784478Y5743590D01*
X82100656Y6059768D01*
X81038581Y7121843D01*
X80722405Y6805664D01*
X79311020Y6805664D01*
X78248945Y7867739D01*
X77186871Y6805664D01*
X75775484Y6805664D01*
X75775485Y6805665D01*
X74713411Y7867740D01*
X74282404Y7436733D01*
X64537816Y7436733D01*
X64106810Y7867739D01*
X63044735Y6805664D01*
X61633351Y6805664D01*
X60571276Y7867739D01*
X59509201Y6805664D01*
X58097817Y6805664D01*
X57035742Y7867739D01*
X55973667Y6805664D01*
X43955681Y6805664D01*
X42893606Y7867739D01*
X41831531Y6805664D01*
X40420147Y6805664D01*
X39358072Y7867739D01*
X38295998Y6805664D01*
X31603058Y6805664D01*
X31657753Y6894339D01*
X31659736Y6897355D01*
X31686846Y6936070D01*
X31689000Y6938962D01*
X31727267Y6987359D01*
X31729586Y6990123D01*
X31760995Y7025416D01*
X31763470Y7028038D01*
X31931146Y7195714D01*
X31933768Y7198189D01*
X31969061Y7229598D01*
X31971825Y7231917D01*
X32020222Y7270184D01*
X32023114Y7272338D01*
X32061829Y7299448D01*
X32064845Y7301431D01*
X32266687Y7425928D01*
X32269811Y7427732D01*
X32311412Y7450162D01*
X32314636Y7451781D01*
X32370551Y7477853D01*
X32373862Y7479281D01*
X32417763Y7496721D01*
X32421152Y7497955D01*
X32598140Y7556604D01*
X32287005Y7867739D01*
X31224930Y6805664D01*
X29813544Y6805664D01*
X29813545Y6805665D01*
X28751470Y7867740D01*
X28314694Y7430963D01*
X22117179Y7430963D01*
X21680402Y7867740D01*
X21232645Y7419983D01*
X11521557Y7419983D01*
X11322989Y7618551D01*
X11215774Y7581743D01*
X11181135Y7571431D01*
X11136163Y7560044D01*
X11100806Y7552630D01*
X10826118Y7506793D01*
X10790262Y7502324D01*
X10744030Y7498493D01*
X10707928Y7497000D01*
X10703062Y7497000D01*
X10011726Y6805664D01*
X6962844Y6805664D01*
X6941615Y6820318D01*
X6782558Y6880640D01*
X6782552Y6880641D01*
X6656058Y6896000D01*
X6656056Y6896000D01*
X6571312Y6896000D01*
X6571310Y6896000D01*
X6444815Y6880641D01*
X6444809Y6880640D01*
X6285752Y6820318D01*
X6145756Y6723684D01*
X6032947Y6596350D01*
X5953894Y6445727D01*
X5926122Y6333048D01*
X5913184Y6280556D01*
X5913184Y6110444D01*
X4369586Y6110444D01*
X5000422Y6741280D01*
X5008168Y6766135D01*
X5009391Y6769677D01*
X5032113Y6829587D01*
X5033547Y6833048D01*
X5034750Y6835722D01*
X4355023Y7515449D01*
X3292948Y6453374D01*
X1774427Y6453374D01*
X3465267Y8141329D01*
X12211595Y8141329D01*
X12654495Y7698429D01*
X12768076Y7727591D01*
X12794845Y7733576D01*
X12829476Y7740185D01*
X12856627Y7744486D01*
X13106229Y7776019D01*
X13903641Y8573431D01*
X15315027Y8573431D01*
X16228813Y7659645D01*
X16264067Y7667973D01*
X16267860Y7668745D01*
X16317854Y7677304D01*
X16321690Y7677838D01*
X16429121Y7689389D01*
X16452483Y7691269D01*
X16482486Y7692875D01*
X16505850Y7693500D01*
X16559246Y7693500D01*
X17439177Y8573431D01*
X18850561Y8573431D01*
X19730492Y7693500D01*
X20094780Y7693500D01*
X20974711Y8573431D01*
X22386095Y8573431D01*
X23448170Y7511356D01*
X24510245Y8573431D01*
X25921629Y8573431D01*
X26944335Y7550725D01*
X26963632Y7555895D01*
X27000873Y7564151D01*
X27044124Y7571778D01*
X28045777Y8573431D01*
X29457163Y8573431D01*
X30519238Y7511356D01*
X31581313Y8573431D01*
X32992697Y8573431D01*
X33942128Y7624000D01*
X34167415Y7624000D01*
X35116845Y8573431D01*
X36528231Y8573431D01*
X37590305Y7511357D01*
X38652380Y8573431D01*
X38652379Y8573432D01*
X40063764Y8573432D01*
X41125839Y7511357D01*
X42187914Y8573431D01*
X42187913Y8573432D01*
X43599298Y8573432D01*
X44661373Y7511357D01*
X45723448Y8573431D01*
X45723447Y8573432D01*
X47134831Y8573432D01*
X48196906Y7511357D01*
X49258981Y8573432D01*
X50670365Y8573432D01*
X51732441Y7511356D01*
X52794516Y8573431D01*
X52794515Y8573432D01*
X54205899Y8573432D01*
X55267975Y7511356D01*
X56330050Y8573431D01*
X56330049Y8573432D01*
X57741433Y8573432D01*
X58803509Y7511356D01*
X59865584Y8573431D01*
X59865583Y8573432D01*
X61276967Y8573432D01*
X62339043Y7511356D01*
X63401118Y8573431D01*
X63401117Y8573432D01*
X64812501Y8573432D01*
X65874576Y7511357D01*
X66936651Y8573432D01*
X68348035Y8573432D01*
X69410111Y7511356D01*
X70472186Y8573431D01*
X70472185Y8573432D01*
X71883569Y8573432D01*
X72945645Y7511356D01*
X73971289Y8537000D01*
X73449254Y8537000D01*
X73413638Y8533634D01*
X73409751Y8533389D01*
X73358745Y8531786D01*
X73354850Y8531786D01*
X73288239Y8533878D01*
X73284349Y8534123D01*
X73245008Y8537843D01*
X73205510Y8540328D01*
X73201629Y8540695D01*
X73174088Y8544175D01*
X75448360Y8544175D01*
X76481178Y7511357D01*
X77543253Y8573432D01*
X78954637Y8573432D01*
X80016711Y7511357D01*
X80332889Y7827535D01*
X79564560Y8595865D01*
X79537680Y8636093D01*
X79385439Y9003635D01*
X79385339Y9004134D01*
X78954637Y8573432D01*
X77543253Y8573432D01*
X77034927Y9081758D01*
X76840022Y9029533D01*
X76802779Y9021276D01*
X76754554Y9012774D01*
X76716746Y9007797D01*
X76441275Y8983696D01*
X76403169Y8982032D01*
X76377646Y8982032D01*
X76344153Y8950580D01*
X76341229Y8948002D01*
X76310766Y8922802D01*
X76281128Y8896670D01*
X76278123Y8894184D01*
X76225449Y8853327D01*
X76222297Y8851037D01*
X76180079Y8822347D01*
X76176788Y8820258D01*
X76146014Y8802061D01*
X76117096Y8781048D01*
X76113874Y8778858D01*
X76070786Y8751511D01*
X76067431Y8749527D01*
X76009025Y8717416D01*
X76005552Y8715647D01*
X75969738Y8698794D01*
X75934536Y8680856D01*
X75931007Y8679195D01*
X75869838Y8652726D01*
X75866216Y8651292D01*
X75818199Y8634005D01*
X75814493Y8632801D01*
X75780150Y8622825D01*
X75746890Y8609655D01*
X75743224Y8608335D01*
X75694680Y8592562D01*
X75690937Y8591475D01*
X75626374Y8574899D01*
X75622569Y8574048D01*
X75583718Y8566640D01*
X75545224Y8558031D01*
X75541395Y8557301D01*
X75475556Y8546869D01*
X75471687Y8546380D01*
X75448360Y8544175D01*
X73174088Y8544175D01*
X73135515Y8549049D01*
X73131668Y8549659D01*
X73081545Y8559221D01*
X73077743Y8560071D01*
X73043097Y8568967D01*
X73007773Y8574561D01*
X73003945Y8575291D01*
X72954134Y8586425D01*
X72950361Y8587394D01*
X72886366Y8605986D01*
X72882660Y8607190D01*
X72845453Y8620586D01*
X72807867Y8632797D01*
X72804200Y8634117D01*
X72742233Y8658652D01*
X72738658Y8660199D01*
X72692471Y8681933D01*
X72688999Y8683702D01*
X72657663Y8700930D01*
X72624847Y8715129D01*
X72621320Y8716789D01*
X72575837Y8739963D01*
X72572422Y8741840D01*
X72515053Y8775768D01*
X72511763Y8777856D01*
X72479072Y8800074D01*
X72445688Y8821259D01*
X72442464Y8823449D01*
X72388551Y8862620D01*
X72385473Y8865007D01*
X72346147Y8897539D01*
X72343224Y8900116D01*
X72308627Y8932606D01*
X72285009Y8953427D01*
X72273950Y8963813D01*
X71883569Y8573432D01*
X70472185Y8573432D01*
X69807267Y9238350D01*
X69604774Y9143924D01*
X69569557Y9129336D01*
X69523540Y9112583D01*
X69487140Y9101106D01*
X69220022Y9029533D01*
X69182779Y9021276D01*
X69134554Y9012774D01*
X69096746Y9007797D01*
X68821275Y8983696D01*
X68783169Y8982032D01*
X68756636Y8982032D01*
X68348035Y8573432D01*
X66936651Y8573432D01*
X66506667Y9003416D01*
X66281275Y8983696D01*
X66243169Y8982032D01*
X66194199Y8982032D01*
X66156093Y8983696D01*
X65880622Y9007797D01*
X65842814Y9012774D01*
X65794589Y9021276D01*
X65757346Y9029533D01*
X65490228Y9101106D01*
X65453828Y9112583D01*
X65407811Y9129336D01*
X65379947Y9140878D01*
X64812501Y8573432D01*
X63401117Y8573432D01*
X62828904Y9145645D01*
X62581982Y9260787D01*
X62548146Y9278402D01*
X62505739Y9302885D01*
X62473578Y9323375D01*
X62408684Y9368814D01*
X62343790Y9323375D01*
X62311629Y9302885D01*
X62269222Y9278402D01*
X62235386Y9260787D01*
X61984774Y9143924D01*
X61949557Y9129336D01*
X61903540Y9112583D01*
X61867140Y9101106D01*
X61781767Y9078232D01*
X61276967Y8573432D01*
X59865583Y8573432D01*
X59335327Y9103688D01*
X59327140Y9101106D01*
X59060022Y9029533D01*
X59022779Y9021276D01*
X58974554Y9012774D01*
X58936746Y9007797D01*
X58661275Y8983696D01*
X58623169Y8982032D01*
X58574199Y8982032D01*
X58536093Y8983696D01*
X58260622Y9007797D01*
X58222814Y9012774D01*
X58187076Y9019075D01*
X57741433Y8573432D01*
X56330049Y8573432D01*
X55912468Y8991013D01*
X55720622Y9007797D01*
X55682814Y9012774D01*
X55634589Y9021276D01*
X55597346Y9029533D01*
X55330228Y9101106D01*
X55293828Y9112583D01*
X55247811Y9129336D01*
X55212594Y9143924D01*
X54961982Y9260787D01*
X54928146Y9278402D01*
X54917193Y9284726D01*
X54205899Y8573432D01*
X52794515Y8573432D01*
X52096281Y9271666D01*
X52075386Y9260787D01*
X51824774Y9143924D01*
X51789557Y9129336D01*
X51743540Y9112583D01*
X51707140Y9101106D01*
X51440022Y9029533D01*
X51402779Y9021276D01*
X51354554Y9012774D01*
X51316746Y9007797D01*
X51084403Y8987470D01*
X50670365Y8573432D01*
X49258981Y8573432D01*
X48823000Y9009413D01*
X48719001Y8981545D01*
X48662715Y8979703D01*
X48438684Y9024267D01*
X48214653Y8979703D01*
X48158367Y8981545D01*
X47710396Y9101579D01*
X47674346Y9112947D01*
X47134831Y8573432D01*
X45723447Y8573432D01*
X45205122Y9091757D01*
X45170228Y9101106D01*
X45133828Y9112583D01*
X45087811Y9129336D01*
X45052594Y9143924D01*
X44801982Y9260787D01*
X44768146Y9278402D01*
X44725739Y9302885D01*
X44693578Y9323375D01*
X44628684Y9368814D01*
X44563790Y9323375D01*
X44531629Y9302885D01*
X44489222Y9278402D01*
X44455386Y9260787D01*
X44204774Y9143924D01*
X44169557Y9129336D01*
X44146984Y9121119D01*
X43599298Y8573432D01*
X42187913Y8573432D01*
X41769073Y8992272D01*
X41758277Y8991111D01*
X41734928Y8989232D01*
X41704930Y8987626D01*
X41681563Y8987001D01*
X40477333Y8987001D01*
X40063764Y8573432D01*
X38652379Y8573432D01*
X37590305Y9635506D01*
X36528231Y8573431D01*
X35116845Y8573431D01*
X35116846Y8573432D01*
X34054772Y9635506D01*
X32992697Y8573431D01*
X31581313Y8573431D01*
X30519238Y9635506D01*
X29457163Y8573431D01*
X28045777Y8573431D01*
X28045778Y8573432D01*
X26983704Y9635506D01*
X25921629Y8573431D01*
X24510245Y8573431D01*
X23448170Y9635506D01*
X22386095Y8573431D01*
X20974711Y8573431D01*
X19912636Y9635506D01*
X18850561Y8573431D01*
X17439177Y8573431D01*
X16377102Y9635506D01*
X15315027Y8573431D01*
X13903641Y8573431D01*
X13903642Y8573432D01*
X12944270Y9532804D01*
X12943028Y9522833D01*
X12935394Y9477075D01*
X12927976Y9441694D01*
X12859607Y9171711D01*
X12849292Y9137070D01*
X12834228Y9093193D01*
X12821097Y9059543D01*
X12709232Y8804514D01*
X12693360Y8772051D01*
X12671282Y8731252D01*
X12652786Y8700213D01*
X12500459Y8467059D01*
X12479438Y8437620D01*
X12450941Y8401013D01*
X12427613Y8373473D01*
X12239017Y8168601D01*
X12213475Y8143058D01*
X12211595Y8141329D01*
X3465267Y8141329D01*
X4436039Y9110444D01*
X5913184Y9110444D01*
X5925730Y9059543D01*
X5953894Y8945274D01*
X6032947Y8794651D01*
X6047826Y8777856D01*
X6145755Y8667317D01*
X6213456Y8620586D01*
X6285752Y8570683D01*
X6285753Y8570683D01*
X6285754Y8570682D01*
X6444812Y8510360D01*
X6520712Y8501144D01*
X6571310Y8495000D01*
X6571312Y8495000D01*
X6656058Y8495000D01*
X6698222Y8500120D01*
X6782556Y8510360D01*
X6941614Y8570682D01*
X7081613Y8667317D01*
X7194418Y8794648D01*
X7207860Y8820258D01*
X7261679Y8922802D01*
X7273474Y8945275D01*
X7314184Y9110444D01*
X7314184Y9280556D01*
X7273474Y9445725D01*
X7257020Y9477075D01*
X7194420Y9596350D01*
X7146502Y9650438D01*
X7081613Y9723683D01*
X6991167Y9786114D01*
X6941615Y9820318D01*
X6782558Y9880640D01*
X6782552Y9880641D01*
X6656058Y9896000D01*
X6656056Y9896000D01*
X6571312Y9896000D01*
X6571310Y9896000D01*
X6444815Y9880641D01*
X6444809Y9880640D01*
X6285752Y9820318D01*
X6145756Y9723684D01*
X6032947Y9596350D01*
X5953894Y9445727D01*
X5914212Y9284726D01*
X5913184Y9280556D01*
X5913184Y9110444D01*
X4436039Y9110444D01*
X4482703Y9157028D01*
X4482940Y9157185D01*
X4500381Y9174618D01*
X4500383Y9174618D01*
X4500445Y9174769D01*
X4500542Y9175000D01*
X4500540Y9175003D01*
X4500524Y9199967D01*
X4500488Y9200144D01*
X4500485Y9206300D01*
X4500000Y10365068D01*
X4500000Y10856909D01*
X6991902Y10856909D01*
X7052499Y10841973D01*
X7056106Y10840967D01*
X7102953Y10826370D01*
X7106495Y10825147D01*
X7325457Y10742106D01*
X7328917Y10740673D01*
X7373656Y10720539D01*
X7377025Y10718899D01*
X7433761Y10689123D01*
X7437024Y10687282D01*
X7479029Y10661890D01*
X7482175Y10659856D01*
X7674909Y10526821D01*
X7677926Y10524601D01*
X7716553Y10494339D01*
X7719430Y10491940D01*
X7767389Y10449452D01*
X7770117Y10446885D01*
X7804817Y10412185D01*
X7807384Y10409457D01*
X7962676Y10234169D01*
X7965074Y10231291D01*
X7995334Y10192667D01*
X7997553Y10189650D01*
X8033950Y10136922D01*
X8035984Y10133776D01*
X8061372Y10091780D01*
X8063213Y10088517D01*
X8161118Y9901976D01*
X8165384Y9906241D01*
X8165384Y9918695D01*
X8166877Y9954797D01*
X8189873Y10232326D01*
X8194340Y10268167D01*
X8201974Y10313925D01*
X8209392Y10349306D01*
X8277761Y10619289D01*
X8287969Y10653571D01*
X7538266Y11403274D01*
X6991902Y10856909D01*
X4500000Y10856909D01*
X4500000Y11193391D01*
X5624000Y11193391D01*
X5770500Y11046891D01*
X6832575Y12108965D01*
X8243959Y12108965D01*
X8817908Y11535016D01*
X8898351Y11622399D01*
X8923893Y11647942D01*
X8958023Y11679362D01*
X8985606Y11702725D01*
X9205381Y11873782D01*
X9234793Y11894782D01*
X9273630Y11920154D01*
X9304664Y11938646D01*
X9549587Y12071192D01*
X9582056Y12087065D01*
X9624538Y12105698D01*
X9658193Y12118831D01*
X9921594Y12209257D01*
X9956233Y12219569D01*
X10001205Y12230956D01*
X10036562Y12238370D01*
X10209796Y12267278D01*
X9306034Y13171040D01*
X8243959Y12108965D01*
X6832575Y12108965D01*
X5770500Y13171040D01*
X5624000Y13024540D01*
X5624000Y11193391D01*
X4500000Y11193391D01*
X4500000Y13876732D01*
X6476192Y13876732D01*
X7538267Y12814658D01*
X8600342Y13876732D01*
X10011726Y13876732D01*
X11004089Y12884369D01*
X12066164Y13946444D01*
X11073801Y14938807D01*
X10011726Y13876732D01*
X8600342Y13876732D01*
X7538267Y14938807D01*
X6476192Y13876732D01*
X4500000Y13876732D01*
X4500000Y16006360D01*
X5624000Y16006360D01*
X5624000Y14728925D01*
X5770500Y14582425D01*
X6725166Y15537091D01*
X6552700Y15565870D01*
X6517343Y15573284D01*
X6472371Y15584671D01*
X6437732Y15594983D01*
X6293497Y15644499D01*
X8243959Y15644499D01*
X9306034Y14582424D01*
X10368109Y15644499D01*
X11779493Y15644499D01*
X12771856Y14652136D01*
X13833931Y15714211D01*
X13241142Y16307000D01*
X12441994Y16307000D01*
X11779493Y15644499D01*
X10368109Y15644499D01*
X9705608Y16307000D01*
X8906460Y16307000D01*
X8243959Y15644499D01*
X6293497Y15644499D01*
X6174331Y15685409D01*
X6140676Y15698542D01*
X6098194Y15717175D01*
X6065725Y15733048D01*
X5820802Y15865594D01*
X5789768Y15884086D01*
X5750931Y15909458D01*
X5721519Y15930458D01*
X5624000Y16006360D01*
X4500000Y16006360D01*
X4500000Y17908734D01*
X5679522Y17908734D01*
X5698686Y17677443D01*
X5698688Y17677432D01*
X5755664Y17452440D01*
X5848897Y17239892D01*
X5975838Y17045593D01*
X5975841Y17045589D01*
X5975843Y17045587D01*
X6133038Y16874827D01*
X6133041Y16874825D01*
X6133044Y16874822D01*
X6316187Y16732276D01*
X6316193Y16732272D01*
X6316196Y16732270D01*
X6406814Y16683230D01*
X6516972Y16623615D01*
X6520319Y16621804D01*
X6634309Y16582672D01*
X6739837Y16546443D01*
X6739839Y16546443D01*
X6739841Y16546442D01*
X6968773Y16508240D01*
X6968774Y16508240D01*
X7200870Y16508240D01*
X7200871Y16508240D01*
X7429803Y16546442D01*
X7649325Y16621804D01*
X7853448Y16732270D01*
X7867494Y16743202D01*
X7964320Y16818565D01*
X8036606Y16874827D01*
X8193801Y17045587D01*
X8320746Y17239891D01*
X8320751Y17239903D01*
X8320810Y17240010D01*
X8320850Y17240052D01*
X8323551Y17244184D01*
X8324401Y17243629D01*
X8370026Y17289604D01*
X8429869Y17305000D01*
X16536744Y17305000D01*
X16603783Y17285315D01*
X16649538Y17232511D01*
X16659482Y17163353D01*
X16630457Y17099797D01*
X16624425Y17093319D01*
X10851878Y11320774D01*
X10790555Y11287289D01*
X10743788Y11286146D01*
X10684733Y11296000D01*
X10452635Y11296000D01*
X10406848Y11288360D01*
X10223699Y11257798D01*
X10004188Y11182439D01*
X10004179Y11182436D01*
X9800055Y11071969D01*
X9800049Y11071965D01*
X9616906Y10929419D01*
X9616903Y10929416D01*
X9616900Y10929414D01*
X9616900Y10929413D01*
X9598689Y10909630D01*
X9459700Y10758648D01*
X9332759Y10564349D01*
X9239526Y10351801D01*
X9182550Y10126809D01*
X9182548Y10126798D01*
X9163384Y9895507D01*
X9163384Y9895494D01*
X9182548Y9664203D01*
X9182550Y9664192D01*
X9239526Y9439200D01*
X9332759Y9226652D01*
X9459700Y9032353D01*
X9459703Y9032349D01*
X9459705Y9032347D01*
X9616900Y8861587D01*
X9616903Y8861585D01*
X9616906Y8861582D01*
X9800049Y8719036D01*
X9800055Y8719032D01*
X9800058Y8719030D01*
X10004181Y8608564D01*
X10118171Y8569432D01*
X10223699Y8533203D01*
X10223701Y8533203D01*
X10223703Y8533202D01*
X10452635Y8495000D01*
X10452636Y8495000D01*
X10684732Y8495000D01*
X10684733Y8495000D01*
X10913665Y8533202D01*
X11133187Y8608564D01*
X11337310Y8719030D01*
X11366617Y8741840D01*
X11441436Y8800074D01*
X11520468Y8861587D01*
X11677663Y9032347D01*
X11804608Y9226651D01*
X11897841Y9439200D01*
X11954818Y9664195D01*
X11955837Y9676487D01*
X11973984Y9895494D01*
X11973984Y9895506D01*
X11957058Y10099772D01*
X11971139Y10168208D01*
X11992950Y10197690D01*
X12136168Y10340908D01*
X13547550Y10340908D01*
X14609335Y9279123D01*
X15671410Y10341198D01*
X17082794Y10341198D01*
X18144869Y9279123D01*
X19206944Y10341198D01*
X20618328Y10341198D01*
X21680403Y9279123D01*
X22742478Y10341198D01*
X24153862Y10341198D01*
X25215937Y9279123D01*
X26278012Y10341198D01*
X27689396Y10341198D01*
X28751471Y9279123D01*
X29813546Y10341198D01*
X29813545Y10341199D01*
X31224929Y10341199D01*
X32287005Y9279123D01*
X33349080Y10341198D01*
X34760464Y10341198D01*
X35822539Y9279123D01*
X36884614Y10341198D01*
X36438812Y10787000D01*
X35206266Y10787000D01*
X34760464Y10341198D01*
X33349080Y10341198D01*
X32903278Y10787000D01*
X31925651Y10787000D01*
X31890029Y10783633D01*
X31886140Y10783388D01*
X31835133Y10781786D01*
X31831239Y10781786D01*
X31764632Y10783878D01*
X31760743Y10784123D01*
X31721379Y10787844D01*
X31681904Y10790328D01*
X31678026Y10790695D01*
X31674829Y10791099D01*
X31224929Y10341199D01*
X29813545Y10341199D01*
X28751471Y11403273D01*
X27689396Y10341198D01*
X26278012Y10341198D01*
X25215937Y11403273D01*
X24153862Y10341198D01*
X22742478Y10341198D01*
X21680403Y11403273D01*
X20618328Y10341198D01*
X19206944Y10341198D01*
X18144869Y11403273D01*
X17082794Y10341198D01*
X15671410Y10341198D01*
X14609625Y11402983D01*
X13547550Y10340908D01*
X12136168Y10340908D01*
X13903935Y12108674D01*
X15315318Y12108674D01*
X16377102Y11046890D01*
X17439177Y12108965D01*
X18850561Y12108965D01*
X19912636Y11046890D01*
X20974711Y12108965D01*
X22386095Y12108965D01*
X23448170Y11046890D01*
X24510245Y12108965D01*
X25921629Y12108965D01*
X26983704Y11046890D01*
X28045779Y12108965D01*
X29457163Y12108965D01*
X30519237Y11046891D01*
X30717942Y11245596D01*
X30655836Y11303916D01*
X30653081Y11306670D01*
X30618148Y11343869D01*
X30615572Y11346791D01*
X30609601Y11354009D01*
X29655904Y12307706D01*
X29457163Y12108965D01*
X28045779Y12108965D01*
X26983704Y13171040D01*
X25921629Y12108965D01*
X24510245Y12108965D01*
X23448170Y13171040D01*
X22386095Y12108965D01*
X20974711Y12108965D01*
X19912636Y13171040D01*
X18850561Y12108965D01*
X17439177Y12108965D01*
X16377393Y13170749D01*
X15315318Y12108674D01*
X13903935Y12108674D01*
X15671702Y13876441D01*
X17083085Y13876441D01*
X18144869Y12814657D01*
X19206944Y13876732D01*
X20618328Y13876732D01*
X21680403Y12814657D01*
X22742478Y13876732D01*
X24153862Y13876732D01*
X25215937Y12814657D01*
X26278012Y13876732D01*
X27689396Y13876732D01*
X28751471Y12814657D01*
X28950212Y13013398D01*
X27888137Y14075473D01*
X27689396Y13876732D01*
X26278012Y13876732D01*
X25215937Y14938807D01*
X24153862Y13876732D01*
X22742478Y13876732D01*
X21680403Y14938807D01*
X20618328Y13876732D01*
X19206944Y13876732D01*
X18145160Y14938516D01*
X17083085Y13876441D01*
X15671702Y13876441D01*
X17439470Y15644208D01*
X18850852Y15644208D01*
X19912636Y14582424D01*
X20974711Y15644499D01*
X22386095Y15644499D01*
X23448170Y14582424D01*
X24510245Y15644499D01*
X23847744Y16307000D01*
X23048596Y16307000D01*
X22386095Y15644499D01*
X20974711Y15644499D01*
X20312210Y16307000D01*
X19513646Y16307000D01*
X18850852Y15644208D01*
X17439470Y15644208D01*
X19063943Y17268681D01*
X19125266Y17302166D01*
X19151624Y17305000D01*
X27391421Y17305000D01*
X27458460Y17285315D01*
X27504215Y17232511D01*
X27514159Y17163353D01*
X27485134Y17099797D01*
X27464306Y17080682D01*
X27337818Y16988784D01*
X27211155Y16848110D01*
X27116510Y16684180D01*
X27116507Y16684173D01*
X27058016Y16504155D01*
X27058015Y16504151D01*
X27038229Y16315895D01*
X27058015Y16127639D01*
X27058016Y16127636D01*
X27116507Y15947618D01*
X27116510Y15947611D01*
X27211156Y15783679D01*
X27328263Y15653619D01*
X27337818Y15643007D01*
X27490954Y15531747D01*
X27490959Y15531744D01*
X27663881Y15454753D01*
X27663886Y15454751D01*
X27849043Y15415395D01*
X27908237Y15415395D01*
X27975276Y15395710D01*
X27995918Y15379076D01*
X31348278Y12026716D01*
X31358103Y12014452D01*
X31358324Y12014634D01*
X31363294Y12008627D01*
X31363297Y12008624D01*
X31363298Y12008623D01*
X31413735Y11961259D01*
X31434614Y11940380D01*
X31440088Y11936134D01*
X31444526Y11932344D01*
X31478502Y11900438D01*
X31478506Y11900436D01*
X31496057Y11890787D01*
X31512315Y11880108D01*
X31528148Y11867826D01*
X31550099Y11858328D01*
X31570921Y11849317D01*
X31576165Y11846748D01*
X31616992Y11824303D01*
X31636396Y11819321D01*
X31654794Y11813022D01*
X31673189Y11805062D01*
X31719213Y11797774D01*
X31724916Y11796593D01*
X31770065Y11785000D01*
X31790100Y11785000D01*
X31809497Y11783474D01*
X31829280Y11780340D01*
X31875668Y11784725D01*
X31881506Y11785000D01*
X39394184Y11785000D01*
X39461223Y11765315D01*
X39506978Y11712511D01*
X39518184Y11661000D01*
X39518184Y10437630D01*
X39518185Y10437624D01*
X39524592Y10378017D01*
X39574886Y10243172D01*
X39574890Y10243165D01*
X39661136Y10127956D01*
X39661139Y10127953D01*
X39776348Y10041707D01*
X39776355Y10041703D01*
X39911201Y9991409D01*
X39911200Y9991409D01*
X39918128Y9990665D01*
X39970811Y9985000D01*
X41666556Y9985001D01*
X41726167Y9991409D01*
X41861015Y10041704D01*
X41976230Y10127954D01*
X42062480Y10243169D01*
X42112775Y10378017D01*
X42116546Y10413099D01*
X42143283Y10477645D01*
X42200674Y10517494D01*
X42270500Y10519989D01*
X42330589Y10484337D01*
X42341410Y10470964D01*
X42358640Y10446357D01*
X42519542Y10285455D01*
X42519545Y10285453D01*
X42705950Y10154932D01*
X42912188Y10058761D01*
X43131992Y9999865D01*
X43289464Y9986088D01*
X43358682Y9980032D01*
X43358684Y9980032D01*
X43358686Y9980032D01*
X43427904Y9986088D01*
X43585376Y9999865D01*
X43805180Y10058761D01*
X44011418Y10154932D01*
X44197823Y10285453D01*
X44358731Y10446361D01*
X44489252Y10632766D01*
X44516302Y10690776D01*
X44562474Y10743215D01*
X44629667Y10762367D01*
X44696549Y10742152D01*
X44741066Y10690775D01*
X44768113Y10632772D01*
X44768116Y10632766D01*
X44898638Y10446359D01*
X45059542Y10285455D01*
X45059545Y10285453D01*
X45245950Y10154932D01*
X45452188Y10058761D01*
X45671992Y9999865D01*
X45829464Y9986088D01*
X45898682Y9980032D01*
X45898684Y9980032D01*
X45898686Y9980032D01*
X45967904Y9986088D01*
X46125376Y9999865D01*
X46345180Y10058761D01*
X46551418Y10154932D01*
X46737823Y10285453D01*
X46898731Y10446361D01*
X47029252Y10632766D01*
X47056579Y10691371D01*
X47102748Y10743805D01*
X47169941Y10762958D01*
X47236823Y10742743D01*
X47281341Y10691367D01*
X47308549Y10633018D01*
X47439026Y10446680D01*
X47599863Y10285843D01*
X47786201Y10155366D01*
X47992357Y10059235D01*
X47992366Y10059231D01*
X48188683Y10006628D01*
X48188684Y10006629D01*
X48188684Y10849999D01*
X48296369Y10800820D01*
X48402921Y10785500D01*
X48474447Y10785500D01*
X48580999Y10800820D01*
X48688684Y10849999D01*
X48688684Y10006628D01*
X48885001Y10059231D01*
X48885010Y10059235D01*
X49091166Y10155366D01*
X49277504Y10285843D01*
X49438341Y10446680D01*
X49568816Y10633016D01*
X49596025Y10691366D01*
X49642197Y10743805D01*
X49709391Y10762958D01*
X49776272Y10742743D01*
X49820790Y10691367D01*
X49848115Y10632768D01*
X49848116Y10632766D01*
X49978638Y10446359D01*
X50139542Y10285455D01*
X50139545Y10285453D01*
X50325950Y10154932D01*
X50532188Y10058761D01*
X50751992Y9999865D01*
X50909464Y9986088D01*
X50978682Y9980032D01*
X50978684Y9980032D01*
X50978686Y9980032D01*
X51047904Y9986088D01*
X51205376Y9999865D01*
X51425180Y10058761D01*
X51631418Y10154932D01*
X51817823Y10285453D01*
X51978731Y10446361D01*
X52109252Y10632766D01*
X52136302Y10690776D01*
X52182474Y10743215D01*
X52249667Y10762367D01*
X52316549Y10742152D01*
X52361066Y10690775D01*
X52388113Y10632772D01*
X52388116Y10632766D01*
X52518638Y10446359D01*
X52679542Y10285455D01*
X52679545Y10285453D01*
X52865950Y10154932D01*
X53072188Y10058761D01*
X53291992Y9999865D01*
X53449464Y9986088D01*
X53518682Y9980032D01*
X53518684Y9980032D01*
X53518686Y9980032D01*
X53587904Y9986088D01*
X53745376Y9999865D01*
X53965180Y10058761D01*
X54171418Y10154932D01*
X54357823Y10285453D01*
X54518731Y10446361D01*
X54649252Y10632766D01*
X54676302Y10690776D01*
X54722474Y10743215D01*
X54789667Y10762367D01*
X54856549Y10742152D01*
X54901066Y10690775D01*
X54928113Y10632772D01*
X54928116Y10632766D01*
X55058638Y10446359D01*
X55219542Y10285455D01*
X55219545Y10285453D01*
X55405950Y10154932D01*
X55612188Y10058761D01*
X55831992Y9999865D01*
X55989464Y9986088D01*
X56058682Y9980032D01*
X56058684Y9980032D01*
X56058686Y9980032D01*
X56127904Y9986088D01*
X56285376Y9999865D01*
X56505180Y10058761D01*
X56711418Y10154932D01*
X56897823Y10285453D01*
X57058731Y10446361D01*
X57189252Y10632766D01*
X57216302Y10690776D01*
X57262474Y10743215D01*
X57329667Y10762367D01*
X57396549Y10742152D01*
X57441066Y10690775D01*
X57468113Y10632772D01*
X57468116Y10632766D01*
X57598638Y10446359D01*
X57759542Y10285455D01*
X57759545Y10285453D01*
X57945950Y10154932D01*
X58152188Y10058761D01*
X58371992Y9999865D01*
X58529464Y9986088D01*
X58598682Y9980032D01*
X58598684Y9980032D01*
X58598686Y9980032D01*
X58667904Y9986088D01*
X58825376Y9999865D01*
X59045180Y10058761D01*
X59251418Y10154932D01*
X59437823Y10285453D01*
X59598731Y10446361D01*
X59729252Y10632766D01*
X59756302Y10690776D01*
X59802474Y10743215D01*
X59869667Y10762367D01*
X59936549Y10742152D01*
X59981066Y10690775D01*
X60008113Y10632772D01*
X60008116Y10632766D01*
X60138638Y10446359D01*
X60299542Y10285455D01*
X60299545Y10285453D01*
X60485950Y10154932D01*
X60692188Y10058761D01*
X60911992Y9999865D01*
X61069464Y9986088D01*
X61138682Y9980032D01*
X61138684Y9980032D01*
X61138686Y9980032D01*
X61207904Y9986088D01*
X61365376Y9999865D01*
X61585180Y10058761D01*
X61791418Y10154932D01*
X61977823Y10285453D01*
X62138731Y10446361D01*
X62269252Y10632766D01*
X62296302Y10690776D01*
X62342474Y10743215D01*
X62409667Y10762367D01*
X62476549Y10742152D01*
X62521066Y10690775D01*
X62548113Y10632772D01*
X62548116Y10632766D01*
X62678638Y10446359D01*
X62839542Y10285455D01*
X62839545Y10285453D01*
X63025950Y10154932D01*
X63232188Y10058761D01*
X63451992Y9999865D01*
X63609464Y9986088D01*
X63678682Y9980032D01*
X63678684Y9980032D01*
X63678686Y9980032D01*
X63747904Y9986088D01*
X63905376Y9999865D01*
X64125180Y10058761D01*
X64331418Y10154932D01*
X64517823Y10285453D01*
X64678731Y10446361D01*
X64809252Y10632766D01*
X64836302Y10690776D01*
X64882474Y10743215D01*
X64949667Y10762367D01*
X65016549Y10742152D01*
X65061066Y10690775D01*
X65088113Y10632772D01*
X65088116Y10632766D01*
X65218638Y10446359D01*
X65379542Y10285455D01*
X65379545Y10285453D01*
X65565950Y10154932D01*
X65772188Y10058761D01*
X65991992Y9999865D01*
X66149464Y9986088D01*
X66218682Y9980032D01*
X66218684Y9980032D01*
X66218686Y9980032D01*
X66287904Y9986088D01*
X66445376Y9999865D01*
X66665180Y10058761D01*
X66871418Y10154932D01*
X67057823Y10285453D01*
X67218731Y10446361D01*
X67349252Y10632766D01*
X67376302Y10690776D01*
X67422474Y10743215D01*
X67489667Y10762367D01*
X67556549Y10742152D01*
X67601066Y10690775D01*
X67628113Y10632772D01*
X67628116Y10632766D01*
X67758638Y10446359D01*
X67919542Y10285455D01*
X67919545Y10285453D01*
X68105950Y10154932D01*
X68312188Y10058761D01*
X68531992Y9999865D01*
X68689464Y9986088D01*
X68758682Y9980032D01*
X68758684Y9980032D01*
X68758686Y9980032D01*
X68827904Y9986088D01*
X68985376Y9999865D01*
X69205180Y10058761D01*
X69411418Y10154932D01*
X69597823Y10285453D01*
X69758731Y10446361D01*
X69889252Y10632766D01*
X69916302Y10690776D01*
X69962474Y10743215D01*
X70029667Y10762367D01*
X70096549Y10742152D01*
X70141066Y10690775D01*
X70168113Y10632772D01*
X70168116Y10632766D01*
X70298638Y10446359D01*
X70459542Y10285455D01*
X70459545Y10285453D01*
X70645950Y10154932D01*
X70852188Y10058761D01*
X71071992Y9999865D01*
X71229464Y9986088D01*
X71298682Y9980032D01*
X71298684Y9980032D01*
X71298686Y9980032D01*
X71367904Y9986088D01*
X71525376Y9999865D01*
X71745180Y10058761D01*
X71951418Y10154932D01*
X72137823Y10285453D01*
X72162806Y10310438D01*
X72224126Y10343921D01*
X72293818Y10338938D01*
X72338166Y10310437D01*
X72606895Y10041707D01*
X72871890Y9776712D01*
X72881715Y9764449D01*
X72881936Y9764631D01*
X72886907Y9758622D01*
X72907736Y9739063D01*
X72937328Y9711274D01*
X72958222Y9690380D01*
X72963704Y9686127D01*
X72968136Y9682343D01*
X73002111Y9650438D01*
X73019669Y9640786D01*
X73035928Y9630105D01*
X73051757Y9617827D01*
X73094531Y9599318D01*
X73099749Y9596762D01*
X73140601Y9574303D01*
X73160009Y9569320D01*
X73178410Y9563020D01*
X73196797Y9555063D01*
X73240181Y9548192D01*
X73242812Y9547775D01*
X73248532Y9546591D01*
X73293674Y9535000D01*
X73313709Y9535000D01*
X73333107Y9533474D01*
X73352887Y9530341D01*
X73352888Y9530340D01*
X73352888Y9530341D01*
X73352889Y9530340D01*
X73399277Y9534725D01*
X73405115Y9535000D01*
X75170941Y9535000D01*
X75186561Y9533276D01*
X75186588Y9533561D01*
X75194344Y9532829D01*
X75194351Y9532827D01*
X75263498Y9535000D01*
X75293034Y9535000D01*
X75299912Y9535870D01*
X75305725Y9536328D01*
X75352311Y9537791D01*
X75371553Y9543383D01*
X75390596Y9547326D01*
X75410476Y9549836D01*
X75453806Y9566993D01*
X75459330Y9568883D01*
X75463080Y9569973D01*
X75504074Y9581882D01*
X75521313Y9592078D01*
X75521474Y9592157D01*
X77935912Y9592157D01*
X78248945Y9279124D01*
X79311020Y10341199D01*
X78660280Y10991939D01*
X78656387Y10947438D01*
X78651410Y10909630D01*
X78642908Y10861405D01*
X78634651Y10824162D01*
X78563078Y10557044D01*
X78551601Y10520644D01*
X78534848Y10474627D01*
X78520260Y10439410D01*
X78403397Y10188798D01*
X78385782Y10154962D01*
X78361299Y10112555D01*
X78340809Y10080394D01*
X78182207Y9853884D01*
X78158994Y9823629D01*
X78127515Y9786114D01*
X78101741Y9757985D01*
X77935912Y9592157D01*
X75521474Y9592157D01*
X75538787Y9600638D01*
X75557411Y9608012D01*
X75557411Y9608013D01*
X75557416Y9608014D01*
X75595133Y9635418D01*
X75599989Y9638608D01*
X75640104Y9662330D01*
X75654273Y9676501D01*
X75669063Y9689132D01*
X75685271Y9700906D01*
X75714983Y9736824D01*
X75718896Y9741124D01*
X75963862Y9986089D01*
X76025184Y10019573D01*
X76083631Y10018183D01*
X76151992Y9999865D01*
X76309464Y9986088D01*
X76378682Y9980032D01*
X76378684Y9980032D01*
X76378686Y9980032D01*
X76447904Y9986088D01*
X76605376Y9999865D01*
X76825180Y10058761D01*
X77031418Y10154932D01*
X77217823Y10285453D01*
X77378731Y10446361D01*
X77509252Y10632766D01*
X77605423Y10839004D01*
X77664319Y11058808D01*
X77684152Y11285500D01*
X77684095Y11286146D01*
X77677863Y11357389D01*
X77664319Y11512192D01*
X77605423Y11731996D01*
X77509252Y11938234D01*
X77378731Y12124639D01*
X77378729Y12124642D01*
X77217825Y12285546D01*
X77031418Y12416068D01*
X77031416Y12416069D01*
X76825181Y12512239D01*
X76825172Y12512242D01*
X76605381Y12571134D01*
X76605377Y12571135D01*
X76605376Y12571135D01*
X76605375Y12571136D01*
X76605370Y12571136D01*
X76378686Y12590968D01*
X76378682Y12590968D01*
X76151997Y12571136D01*
X76151986Y12571134D01*
X75932195Y12512242D01*
X75932186Y12512239D01*
X75725951Y12416069D01*
X75725949Y12416068D01*
X75539542Y12285546D01*
X75378638Y12124642D01*
X75248116Y11938235D01*
X75248115Y11938233D01*
X75221066Y11880225D01*
X75174893Y11827786D01*
X75107700Y11808634D01*
X75040819Y11828850D01*
X74996302Y11880225D01*
X74969252Y11938234D01*
X74838731Y12124639D01*
X74838729Y12124642D01*
X74677825Y12285546D01*
X74491418Y12416068D01*
X74491416Y12416069D01*
X74285181Y12512239D01*
X74285172Y12512242D01*
X74065381Y12571134D01*
X74065377Y12571135D01*
X74065376Y12571135D01*
X74065375Y12571136D01*
X74065370Y12571136D01*
X73838686Y12590968D01*
X73838683Y12590968D01*
X73611997Y12571136D01*
X73611980Y12571133D01*
X73543633Y12552820D01*
X73473783Y12554484D01*
X73423861Y12584914D01*
X72132043Y13876732D01*
X73651337Y13876732D01*
X73944551Y13583518D01*
X74176746Y13563203D01*
X74214554Y13558226D01*
X74262779Y13549724D01*
X74300022Y13541467D01*
X74567140Y13469894D01*
X74603540Y13458417D01*
X74649557Y13441664D01*
X74684774Y13427076D01*
X74935386Y13310213D01*
X74969222Y13292598D01*
X75011629Y13268115D01*
X75043790Y13247625D01*
X75104129Y13205376D01*
X75775485Y13876732D01*
X77186871Y13876732D01*
X78248945Y12814658D01*
X79311020Y13876732D01*
X78248945Y14938807D01*
X77186871Y13876732D01*
X75775485Y13876732D01*
X75775486Y13876733D01*
X74713411Y14938807D01*
X73651337Y13876732D01*
X72132043Y13876732D01*
X70364276Y15644499D01*
X71883570Y15644499D01*
X72945645Y14582424D01*
X74007720Y15644499D01*
X75419104Y15644499D01*
X76481178Y14582425D01*
X77543253Y15644499D01*
X76481178Y16706574D01*
X75419104Y15644499D01*
X74007720Y15644499D01*
X72945645Y16706574D01*
X71883570Y15644499D01*
X70364276Y15644499D01*
X68596509Y17412266D01*
X70115803Y17412266D01*
X71177878Y16350191D01*
X72239952Y17412266D01*
X73651337Y17412266D01*
X74713411Y16350192D01*
X75775486Y17412266D01*
X77186871Y17412266D01*
X78248945Y16350192D01*
X79311020Y17412266D01*
X78248945Y18474341D01*
X77186871Y17412266D01*
X75775486Y17412266D01*
X74713411Y18474341D01*
X73651337Y17412266D01*
X72239952Y17412266D01*
X71177878Y18474341D01*
X70115803Y17412266D01*
X68596509Y17412266D01*
X66828742Y19180033D01*
X68348036Y19180033D01*
X69410111Y18117958D01*
X70472185Y19180033D01*
X71883570Y19180033D01*
X72945645Y18117958D01*
X74007719Y19180033D01*
X75419104Y19180033D01*
X76481178Y18117959D01*
X77543253Y19180033D01*
X76481178Y20242108D01*
X75419104Y19180033D01*
X74007719Y19180033D01*
X72945645Y20242108D01*
X71883570Y19180033D01*
X70472185Y19180033D01*
X69410111Y20242108D01*
X68348036Y19180033D01*
X66828742Y19180033D01*
X65060975Y20947800D01*
X66580269Y20947800D01*
X67642344Y19885725D01*
X68704418Y20947800D01*
X70115803Y20947800D01*
X71177878Y19885725D01*
X72239952Y20947800D01*
X73651337Y20947800D01*
X74713411Y19885726D01*
X75775486Y20947800D01*
X77186871Y20947800D01*
X78248945Y19885726D01*
X79311020Y20947800D01*
X78248945Y22009875D01*
X77186871Y20947800D01*
X75775486Y20947800D01*
X74713411Y22009875D01*
X73651337Y20947800D01*
X72239952Y20947800D01*
X71177878Y22009875D01*
X70115803Y20947800D01*
X68704418Y20947800D01*
X67642344Y22009875D01*
X66580269Y20947800D01*
X65060975Y20947800D01*
X63293208Y22715567D01*
X64812502Y22715567D01*
X65874577Y21653492D01*
X66936651Y22715567D01*
X68348036Y22715567D01*
X69410111Y21653492D01*
X70472185Y22715567D01*
X71883570Y22715567D01*
X72945645Y21653492D01*
X74007719Y22715567D01*
X75419104Y22715567D01*
X76481178Y21653492D01*
X77543253Y22715567D01*
X76481178Y23777641D01*
X75419104Y22715567D01*
X74007719Y22715567D01*
X73471286Y23252000D01*
X72420004Y23252000D01*
X71883570Y22715567D01*
X70472185Y22715567D01*
X69935752Y23252000D01*
X68884470Y23252000D01*
X68348036Y22715567D01*
X66936651Y22715567D01*
X66400218Y23252000D01*
X65348936Y23252000D01*
X64812502Y22715567D01*
X63293208Y22715567D01*
X61970456Y24038319D01*
X61936971Y24099642D01*
X61941955Y24169334D01*
X61983827Y24225267D01*
X62049291Y24249684D01*
X62058137Y24250000D01*
X74645941Y24250000D01*
X74661561Y24248276D01*
X74661588Y24248561D01*
X74669344Y24247829D01*
X74669351Y24247827D01*
X74738498Y24250000D01*
X74768034Y24250000D01*
X74774912Y24250870D01*
X74780725Y24251328D01*
X74827311Y24252791D01*
X74846553Y24258383D01*
X74865596Y24262326D01*
X74885476Y24264836D01*
X74928806Y24281993D01*
X74934330Y24283883D01*
X74938080Y24284973D01*
X74979074Y24296882D01*
X74996313Y24307078D01*
X75013787Y24315638D01*
X75032411Y24323012D01*
X75032411Y24323013D01*
X75032416Y24323014D01*
X75070133Y24350418D01*
X75074989Y24353608D01*
X75115104Y24377330D01*
X75129273Y24391501D01*
X75143304Y24403484D01*
X77266720Y24403484D01*
X78248945Y23421259D01*
X79311020Y24483334D01*
X78390441Y25403913D01*
X78385782Y25394962D01*
X78361299Y25352555D01*
X78340809Y25320394D01*
X78182207Y25093884D01*
X78158994Y25063629D01*
X78127515Y25026114D01*
X78101741Y24997985D01*
X77906199Y24802443D01*
X77878070Y24776669D01*
X77840555Y24745190D01*
X77810300Y24721977D01*
X77583790Y24563375D01*
X77551629Y24542885D01*
X77509222Y24518402D01*
X77475386Y24500787D01*
X77266720Y24403484D01*
X75143304Y24403484D01*
X75144063Y24404132D01*
X75160271Y24415906D01*
X75189983Y24451824D01*
X75193896Y24456124D01*
X75963863Y25226090D01*
X76025184Y25259573D01*
X76083631Y25258183D01*
X76151992Y25239865D01*
X76309464Y25226088D01*
X76378682Y25220032D01*
X76378684Y25220032D01*
X76378686Y25220032D01*
X76447904Y25226088D01*
X76605376Y25239865D01*
X76825180Y25298761D01*
X77031418Y25394932D01*
X77217823Y25525453D01*
X77378731Y25686361D01*
X77509252Y25872766D01*
X77605423Y26079004D01*
X77651536Y26251101D01*
X78954637Y26251101D01*
X79376000Y25829738D01*
X79376000Y25941499D01*
X79384773Y25987311D01*
X79526272Y26343213D01*
X79551349Y26382542D01*
X80229403Y27100484D01*
X80016712Y27313175D01*
X78954637Y26251101D01*
X77651536Y26251101D01*
X77664319Y26298808D01*
X77684152Y26525500D01*
X77664319Y26752192D01*
X77605423Y26971996D01*
X77509252Y27178234D01*
X77378731Y27364639D01*
X77378729Y27364642D01*
X77217825Y27525546D01*
X77031418Y27656068D01*
X77031416Y27656069D01*
X76825181Y27752239D01*
X76825172Y27752242D01*
X76605381Y27811134D01*
X76605377Y27811135D01*
X76605376Y27811135D01*
X76605375Y27811136D01*
X76605370Y27811136D01*
X76378686Y27830968D01*
X76378682Y27830968D01*
X76151997Y27811136D01*
X76151986Y27811134D01*
X75932195Y27752242D01*
X75932186Y27752239D01*
X75725951Y27656069D01*
X75725949Y27656068D01*
X75539542Y27525546D01*
X75378638Y27364642D01*
X75248116Y27178235D01*
X75248115Y27178233D01*
X75221066Y27120225D01*
X75174893Y27067786D01*
X75107700Y27048634D01*
X75040819Y27068850D01*
X74996302Y27120225D01*
X74969370Y27177980D01*
X74969252Y27178234D01*
X74838731Y27364639D01*
X74838729Y27364642D01*
X74677825Y27525546D01*
X74491418Y27656068D01*
X74491416Y27656069D01*
X74285181Y27752239D01*
X74285172Y27752242D01*
X74065381Y27811134D01*
X74065377Y27811135D01*
X74065376Y27811135D01*
X74065375Y27811136D01*
X74065370Y27811136D01*
X73838686Y27830968D01*
X73838682Y27830968D01*
X73611997Y27811136D01*
X73611986Y27811134D01*
X73392195Y27752242D01*
X73392186Y27752239D01*
X73185951Y27656069D01*
X73185949Y27656068D01*
X72999542Y27525546D01*
X72838638Y27364642D01*
X72708116Y27178235D01*
X72708115Y27178233D01*
X72681066Y27120225D01*
X72634893Y27067786D01*
X72567700Y27048634D01*
X72500819Y27068850D01*
X72456302Y27120225D01*
X72429370Y27177980D01*
X72429252Y27178234D01*
X72298731Y27364639D01*
X72298729Y27364642D01*
X72137825Y27525546D01*
X71951418Y27656068D01*
X71951416Y27656069D01*
X71745181Y27752239D01*
X71745172Y27752242D01*
X71525381Y27811134D01*
X71525377Y27811135D01*
X71525376Y27811135D01*
X71525375Y27811136D01*
X71525370Y27811136D01*
X71298686Y27830968D01*
X71298682Y27830968D01*
X71071997Y27811136D01*
X71071986Y27811134D01*
X70852195Y27752242D01*
X70852186Y27752239D01*
X70645951Y27656069D01*
X70645949Y27656068D01*
X70459542Y27525546D01*
X70298638Y27364642D01*
X70168116Y27178235D01*
X70168115Y27178233D01*
X70141066Y27120225D01*
X70094893Y27067786D01*
X70027700Y27048634D01*
X69960819Y27068850D01*
X69916302Y27120225D01*
X69889370Y27177980D01*
X69889252Y27178234D01*
X69758731Y27364639D01*
X69758729Y27364642D01*
X69597825Y27525546D01*
X69411418Y27656068D01*
X69411416Y27656069D01*
X69205181Y27752239D01*
X69205172Y27752242D01*
X68985381Y27811134D01*
X68985377Y27811135D01*
X68985376Y27811135D01*
X68985375Y27811136D01*
X68985370Y27811136D01*
X68758686Y27830968D01*
X68758682Y27830968D01*
X68531997Y27811136D01*
X68531986Y27811134D01*
X68312195Y27752242D01*
X68312186Y27752239D01*
X68105951Y27656069D01*
X68105949Y27656068D01*
X67919542Y27525546D01*
X67758638Y27364642D01*
X67628116Y27178235D01*
X67628115Y27178233D01*
X67601066Y27120225D01*
X67554893Y27067786D01*
X67487700Y27048634D01*
X67420819Y27068850D01*
X67376302Y27120225D01*
X67349370Y27177980D01*
X67349252Y27178234D01*
X67218731Y27364639D01*
X67218729Y27364642D01*
X67057825Y27525546D01*
X66871418Y27656068D01*
X66871416Y27656069D01*
X66665181Y27752239D01*
X66665172Y27752242D01*
X66445381Y27811134D01*
X66445377Y27811135D01*
X66445376Y27811135D01*
X66445375Y27811136D01*
X66445370Y27811136D01*
X66218686Y27830968D01*
X66218682Y27830968D01*
X65991997Y27811136D01*
X65991986Y27811134D01*
X65772195Y27752242D01*
X65772186Y27752239D01*
X65565951Y27656069D01*
X65565949Y27656068D01*
X65379542Y27525546D01*
X65218638Y27364642D01*
X65088116Y27178235D01*
X65088115Y27178233D01*
X65061066Y27120225D01*
X65014893Y27067786D01*
X64947700Y27048634D01*
X64880819Y27068850D01*
X64836302Y27120225D01*
X64809370Y27177980D01*
X64809252Y27178234D01*
X64678731Y27364639D01*
X64678729Y27364642D01*
X64517825Y27525546D01*
X64331418Y27656068D01*
X64331416Y27656069D01*
X64125181Y27752239D01*
X64125172Y27752242D01*
X63905381Y27811134D01*
X63905377Y27811135D01*
X63905376Y27811135D01*
X63905375Y27811136D01*
X63905370Y27811136D01*
X63678686Y27830968D01*
X63678682Y27830968D01*
X63451997Y27811136D01*
X63451986Y27811134D01*
X63232195Y27752242D01*
X63232186Y27752239D01*
X63025951Y27656069D01*
X63025949Y27656068D01*
X62839542Y27525546D01*
X62678638Y27364642D01*
X62548116Y27178235D01*
X62548115Y27178233D01*
X62521066Y27120225D01*
X62474893Y27067786D01*
X62407700Y27048634D01*
X62340819Y27068850D01*
X62296302Y27120225D01*
X62269370Y27177980D01*
X62269252Y27178234D01*
X62138731Y27364639D01*
X62138729Y27364642D01*
X61977825Y27525546D01*
X61791418Y27656068D01*
X61791416Y27656069D01*
X61585181Y27752239D01*
X61585172Y27752242D01*
X61365381Y27811134D01*
X61365377Y27811135D01*
X61365376Y27811135D01*
X61365375Y27811136D01*
X61365370Y27811136D01*
X61138686Y27830968D01*
X61138682Y27830968D01*
X60911997Y27811136D01*
X60911986Y27811134D01*
X60692195Y27752242D01*
X60692186Y27752239D01*
X60485951Y27656069D01*
X60485949Y27656068D01*
X60299542Y27525546D01*
X60138638Y27364642D01*
X60008116Y27178235D01*
X60008115Y27178233D01*
X59981066Y27120225D01*
X59934893Y27067786D01*
X59867700Y27048634D01*
X59800819Y27068850D01*
X59756302Y27120225D01*
X59729370Y27177980D01*
X59729252Y27178234D01*
X59598731Y27364639D01*
X59598729Y27364642D01*
X59437825Y27525546D01*
X59251418Y27656068D01*
X59251416Y27656069D01*
X59045181Y27752239D01*
X59045172Y27752242D01*
X58825381Y27811134D01*
X58825377Y27811135D01*
X58825376Y27811135D01*
X58825375Y27811136D01*
X58825370Y27811136D01*
X58598686Y27830968D01*
X58598682Y27830968D01*
X58371997Y27811136D01*
X58371986Y27811134D01*
X58152195Y27752242D01*
X58152186Y27752239D01*
X57945951Y27656069D01*
X57945949Y27656068D01*
X57759542Y27525546D01*
X57598638Y27364642D01*
X57468116Y27178235D01*
X57468115Y27178233D01*
X57441066Y27120225D01*
X57394893Y27067786D01*
X57327700Y27048634D01*
X57260819Y27068850D01*
X57216302Y27120225D01*
X57189370Y27177980D01*
X57189252Y27178234D01*
X57058731Y27364639D01*
X57058729Y27364642D01*
X56897825Y27525546D01*
X56711418Y27656068D01*
X56711416Y27656069D01*
X56505181Y27752239D01*
X56505172Y27752242D01*
X56285381Y27811134D01*
X56285377Y27811135D01*
X56285376Y27811135D01*
X56285375Y27811136D01*
X56285370Y27811136D01*
X56058686Y27830968D01*
X56058682Y27830968D01*
X55831997Y27811136D01*
X55831986Y27811134D01*
X55612195Y27752242D01*
X55612186Y27752239D01*
X55405951Y27656069D01*
X55405949Y27656068D01*
X55219542Y27525546D01*
X55058638Y27364642D01*
X54928116Y27178235D01*
X54928115Y27178233D01*
X54901066Y27120225D01*
X54854893Y27067786D01*
X54787700Y27048634D01*
X54720819Y27068850D01*
X54676302Y27120225D01*
X54649370Y27177980D01*
X54649252Y27178234D01*
X54518731Y27364639D01*
X54518729Y27364642D01*
X54357825Y27525546D01*
X54171418Y27656068D01*
X54171416Y27656069D01*
X53965181Y27752239D01*
X53965172Y27752242D01*
X53745381Y27811134D01*
X53745377Y27811135D01*
X53745376Y27811135D01*
X53745375Y27811136D01*
X53745370Y27811136D01*
X53518686Y27830968D01*
X53518682Y27830968D01*
X53291997Y27811136D01*
X53291986Y27811134D01*
X53072195Y27752242D01*
X53072186Y27752239D01*
X52865951Y27656069D01*
X52865949Y27656068D01*
X52679542Y27525546D01*
X52518638Y27364642D01*
X52388116Y27178235D01*
X52388115Y27178233D01*
X52361066Y27120225D01*
X52314893Y27067786D01*
X52247700Y27048634D01*
X52180819Y27068850D01*
X52136302Y27120225D01*
X52109370Y27177980D01*
X52109252Y27178234D01*
X51978731Y27364639D01*
X51978729Y27364642D01*
X51817825Y27525546D01*
X51631418Y27656068D01*
X51631416Y27656069D01*
X51425181Y27752239D01*
X51425172Y27752242D01*
X51205381Y27811134D01*
X51205377Y27811135D01*
X51205376Y27811135D01*
X51205375Y27811136D01*
X51205370Y27811136D01*
X50978686Y27830968D01*
X50978682Y27830968D01*
X50751997Y27811136D01*
X50751986Y27811134D01*
X50532195Y27752242D01*
X50532186Y27752239D01*
X50325951Y27656069D01*
X50325949Y27656068D01*
X50139542Y27525546D01*
X49978638Y27364642D01*
X49848116Y27178235D01*
X49848115Y27178233D01*
X49821066Y27120225D01*
X49774893Y27067786D01*
X49707700Y27048634D01*
X49640819Y27068850D01*
X49596302Y27120225D01*
X49569370Y27177980D01*
X49569252Y27178234D01*
X49438731Y27364639D01*
X49438729Y27364642D01*
X49277825Y27525546D01*
X49091418Y27656068D01*
X49091416Y27656069D01*
X48885181Y27752239D01*
X48885172Y27752242D01*
X48665381Y27811134D01*
X48665377Y27811135D01*
X48665376Y27811135D01*
X48665375Y27811136D01*
X48665370Y27811136D01*
X48438686Y27830968D01*
X48438682Y27830968D01*
X48211997Y27811136D01*
X48211986Y27811134D01*
X47992195Y27752242D01*
X47992186Y27752239D01*
X47785951Y27656069D01*
X47785949Y27656068D01*
X47599542Y27525546D01*
X47438638Y27364642D01*
X47308116Y27178235D01*
X47308115Y27178233D01*
X47281066Y27120225D01*
X47234893Y27067786D01*
X47167700Y27048634D01*
X47100819Y27068850D01*
X47056302Y27120225D01*
X47029370Y27177980D01*
X47029252Y27178234D01*
X46898731Y27364639D01*
X46898729Y27364642D01*
X46737825Y27525546D01*
X46551418Y27656068D01*
X46551416Y27656069D01*
X46345181Y27752239D01*
X46345172Y27752242D01*
X46125381Y27811134D01*
X46125377Y27811135D01*
X46125376Y27811135D01*
X46125375Y27811136D01*
X46125370Y27811136D01*
X45898686Y27830968D01*
X45898682Y27830968D01*
X45671997Y27811136D01*
X45671986Y27811134D01*
X45452195Y27752242D01*
X45452186Y27752239D01*
X45245951Y27656069D01*
X45245949Y27656068D01*
X45059542Y27525546D01*
X44898638Y27364642D01*
X44768117Y27178236D01*
X44768116Y27178234D01*
X44767999Y27177982D01*
X44740790Y27119633D01*
X44694617Y27067194D01*
X44627423Y27048043D01*
X44560542Y27068259D01*
X44516026Y27119635D01*
X44488819Y27177980D01*
X44488818Y27177982D01*
X44358341Y27364321D01*
X44197504Y27525158D01*
X44011166Y27655635D01*
X43805012Y27751766D01*
X43608684Y27804373D01*
X43608684Y26961002D01*
X43500999Y27010180D01*
X43394447Y27025500D01*
X43322921Y27025500D01*
X43216369Y27010180D01*
X43108684Y26961002D01*
X43108684Y27804373D01*
X42912355Y27751766D01*
X42706201Y27655635D01*
X42519863Y27525158D01*
X42359026Y27364321D01*
X42228551Y27177985D01*
X42201341Y27119633D01*
X42155168Y27067194D01*
X42087974Y27048043D01*
X42021093Y27068259D01*
X41976577Y27119635D01*
X41949369Y27177982D01*
X41949252Y27178234D01*
X41818731Y27364639D01*
X41818729Y27364642D01*
X41657825Y27525546D01*
X41471418Y27656068D01*
X41471416Y27656069D01*
X41265181Y27752239D01*
X41265172Y27752242D01*
X41045381Y27811134D01*
X41045377Y27811135D01*
X41045376Y27811135D01*
X41045375Y27811136D01*
X41045370Y27811136D01*
X40818686Y27830968D01*
X40818682Y27830968D01*
X40591997Y27811136D01*
X40591986Y27811134D01*
X40372195Y27752242D01*
X40372186Y27752239D01*
X40165951Y27656069D01*
X40165949Y27656068D01*
X39979542Y27525546D01*
X39818638Y27364642D01*
X39688116Y27178235D01*
X39688115Y27178233D01*
X39591945Y26971998D01*
X39591942Y26971989D01*
X39533050Y26752198D01*
X39533048Y26752187D01*
X39513216Y26525502D01*
X39513216Y26525499D01*
X39533048Y26298814D01*
X39533050Y26298803D01*
X39591942Y26079012D01*
X39591945Y26079003D01*
X39688115Y25872768D01*
X39688116Y25872766D01*
X39811801Y25696123D01*
X39834128Y25629916D01*
X39817117Y25562149D01*
X39766169Y25514337D01*
X39710226Y25501000D01*
X19467432Y25501000D01*
X19400393Y25520685D01*
X19375284Y25542026D01*
X19369557Y25548386D01*
X19369553Y25548390D01*
X19216418Y25659649D01*
X19216413Y25659652D01*
X19043491Y25736643D01*
X19043486Y25736645D01*
X18897685Y25767635D01*
X18858330Y25776000D01*
X18669038Y25776000D01*
X18636581Y25769102D01*
X18483881Y25736645D01*
X18483876Y25736643D01*
X18310954Y25659652D01*
X18310949Y25659649D01*
X18157813Y25548389D01*
X18031150Y25407715D01*
X17936505Y25243785D01*
X17936502Y25243778D01*
X17887799Y25093884D01*
X17878010Y25063756D01*
X17858224Y24875500D01*
X17878010Y24687244D01*
X17878011Y24687241D01*
X17936502Y24507223D01*
X17936505Y24507216D01*
X18031151Y24343284D01*
X18132869Y24230315D01*
X18157813Y24202612D01*
X18310949Y24091352D01*
X18310954Y24091349D01*
X18483876Y24014358D01*
X18483881Y24014356D01*
X18669038Y23975000D01*
X18669039Y23975000D01*
X18858328Y23975000D01*
X18858330Y23975000D01*
X19043487Y24014356D01*
X19216414Y24091349D01*
X19369555Y24202612D01*
X19372472Y24205853D01*
X19375284Y24208974D01*
X19434771Y24245621D01*
X19467432Y24250000D01*
X22736169Y24250000D01*
X22803208Y24230315D01*
X22848963Y24177511D01*
X22859488Y24138966D01*
X22878010Y23962744D01*
X22878011Y23962741D01*
X22936502Y23782723D01*
X22936505Y23782716D01*
X23031151Y23618784D01*
X23132869Y23505815D01*
X23157813Y23478112D01*
X23310949Y23366852D01*
X23310954Y23366849D01*
X23483876Y23289858D01*
X23483881Y23289856D01*
X23669038Y23250500D01*
X23669039Y23250500D01*
X23858328Y23250500D01*
X23858330Y23250500D01*
X24043487Y23289856D01*
X24216414Y23366849D01*
X24369555Y23478112D01*
X24372472Y23481353D01*
X24375284Y23484474D01*
X24434771Y23521121D01*
X24467432Y23525500D01*
X60662732Y23525500D01*
X60729771Y23505815D01*
X60750413Y23489181D01*
X69626913Y14612681D01*
X69660398Y14551358D01*
X69655414Y14481666D01*
X69613542Y14425733D01*
X69548078Y14401316D01*
X69539232Y14401000D01*
X48103613Y14401000D01*
X48036574Y14420685D01*
X47996226Y14463000D01*
X47983368Y14485271D01*
X47934606Y14569729D01*
X47807944Y14710401D01*
X47807943Y14710402D01*
X47654807Y14821662D01*
X47654802Y14821665D01*
X47481880Y14898656D01*
X47481875Y14898658D01*
X47336074Y14929648D01*
X47296719Y14938013D01*
X47107427Y14938013D01*
X47074970Y14931115D01*
X46922270Y14898658D01*
X46922265Y14898656D01*
X46749343Y14821665D01*
X46749338Y14821662D01*
X46596202Y14710402D01*
X46469539Y14569728D01*
X46456572Y14547269D01*
X46406004Y14499055D01*
X46349186Y14485271D01*
X46215883Y14485271D01*
X46198923Y14481666D01*
X46030726Y14445916D01*
X46030721Y14445914D01*
X45857799Y14368923D01*
X45857794Y14368920D01*
X45704658Y14257660D01*
X45577995Y14116986D01*
X45483350Y13953056D01*
X45483347Y13953049D01*
X45458456Y13876441D01*
X45424855Y13773027D01*
X45406358Y13597037D01*
X45379775Y13532424D01*
X45322477Y13492439D01*
X45283038Y13486000D01*
X40339137Y13486000D01*
X40272098Y13505685D01*
X40251456Y13522319D01*
X38129276Y15644499D01*
X40063764Y15644499D01*
X41125839Y14582425D01*
X42187914Y15644499D01*
X43599298Y15644499D01*
X44661372Y14582425D01*
X44743233Y14664286D01*
X44752450Y14678477D01*
X44754289Y14681152D01*
X44786926Y14726070D01*
X44788902Y14728645D01*
X44815659Y14761686D01*
X44817766Y14764153D01*
X44981577Y14946084D01*
X44983812Y14948438D01*
X45013884Y14978510D01*
X45016239Y14980746D01*
X45057500Y15017896D01*
X45059967Y15020003D01*
X45093012Y15046764D01*
X45095589Y15048741D01*
X45212976Y15134029D01*
X45723447Y15644500D01*
X45439289Y15928658D01*
X47418990Y15928658D01*
X47428674Y15927639D01*
X47431889Y15927216D01*
X47473873Y15920566D01*
X47477065Y15919975D01*
X47716520Y15869078D01*
X47719677Y15868320D01*
X47760745Y15857316D01*
X47763856Y15856395D01*
X47816664Y15839238D01*
X47819727Y15838154D01*
X47859440Y15822909D01*
X47862440Y15821666D01*
X48086083Y15722092D01*
X48089011Y15720695D01*
X48126883Y15701400D01*
X48129737Y15699851D01*
X48177821Y15672091D01*
X48180589Y15670395D01*
X48216269Y15647226D01*
X48218946Y15645386D01*
X48417013Y15501483D01*
X48419590Y15499506D01*
X48452635Y15472745D01*
X48455102Y15470638D01*
X48496363Y15433488D01*
X48498718Y15431252D01*
X48528790Y15401180D01*
X48530859Y15399000D01*
X49013483Y15399000D01*
X49258982Y15644499D01*
X50670366Y15644499D01*
X50915865Y15399000D01*
X52549017Y15399000D01*
X52794516Y15644499D01*
X54205900Y15644499D01*
X54451399Y15399000D01*
X56084551Y15399000D01*
X56330050Y15644499D01*
X57741434Y15644499D01*
X57986933Y15399000D01*
X59620085Y15399000D01*
X59865584Y15644499D01*
X61276968Y15644499D01*
X61522467Y15399000D01*
X63155619Y15399000D01*
X63401118Y15644499D01*
X64812502Y15644499D01*
X65058001Y15399000D01*
X66691153Y15399000D01*
X66936652Y15644499D01*
X65874577Y16706574D01*
X64812502Y15644499D01*
X63401118Y15644499D01*
X62339043Y16706574D01*
X61276968Y15644499D01*
X59865584Y15644499D01*
X58803509Y16706574D01*
X57741434Y15644499D01*
X56330050Y15644499D01*
X55267975Y16706574D01*
X54205900Y15644499D01*
X52794516Y15644499D01*
X51732441Y16706574D01*
X50670366Y15644499D01*
X49258982Y15644499D01*
X48196907Y16706574D01*
X47418990Y15928658D01*
X45439289Y15928658D01*
X44661373Y16706574D01*
X43599298Y15644499D01*
X42187914Y15644499D01*
X41125839Y16706574D01*
X40063764Y15644499D01*
X38129276Y15644499D01*
X37105463Y16668312D01*
X37071978Y16729635D01*
X37070475Y16743606D01*
X37069823Y16743537D01*
X37069144Y16750000D01*
X37049358Y16938256D01*
X36990863Y17118284D01*
X36896217Y17282216D01*
X36779119Y17412266D01*
X38295998Y17412266D01*
X39358072Y16350192D01*
X40420147Y17412266D01*
X41831531Y17412266D01*
X42893606Y16350192D01*
X43955680Y17412266D01*
X45367065Y17412266D01*
X46429140Y16350191D01*
X47491214Y17412266D01*
X48902599Y17412266D01*
X49964674Y16350191D01*
X51026748Y17412266D01*
X52438133Y17412266D01*
X53500208Y16350191D01*
X54562282Y17412266D01*
X55973667Y17412266D01*
X57035742Y16350191D01*
X58097816Y17412266D01*
X59509201Y17412266D01*
X60571276Y16350191D01*
X61633350Y17412266D01*
X63044735Y17412266D01*
X64106810Y16350191D01*
X65168884Y17412266D01*
X64106810Y18474341D01*
X63044735Y17412266D01*
X61633350Y17412266D01*
X60571276Y18474341D01*
X59509201Y17412266D01*
X58097816Y17412266D01*
X57035742Y18474341D01*
X55973667Y17412266D01*
X54562282Y17412266D01*
X53500208Y18474341D01*
X52438133Y17412266D01*
X51026748Y17412266D01*
X49964674Y18474341D01*
X48902599Y17412266D01*
X47491214Y17412266D01*
X46429140Y18474341D01*
X45367065Y17412266D01*
X43955680Y17412266D01*
X42893606Y18474341D01*
X41831531Y17412266D01*
X40420147Y17412266D01*
X39358072Y18474341D01*
X38295998Y17412266D01*
X36779119Y17412266D01*
X36769555Y17422888D01*
X36728880Y17452440D01*
X36697923Y17474932D01*
X36655257Y17530262D01*
X36649278Y17599875D01*
X36657253Y17625061D01*
X36667840Y17649198D01*
X36724817Y17874192D01*
X36724819Y17874203D01*
X36743984Y18105494D01*
X36743984Y18105507D01*
X36724819Y18336798D01*
X36724817Y18336809D01*
X36667841Y18561801D01*
X36574608Y18774349D01*
X36447667Y18968648D01*
X36447664Y18968651D01*
X36447663Y18968653D01*
X36290468Y19139413D01*
X36290463Y19139417D01*
X36290461Y19139419D01*
X36107318Y19281965D01*
X36107312Y19281969D01*
X35903188Y19392436D01*
X35903179Y19392439D01*
X35683668Y19467798D01*
X35511966Y19496450D01*
X35454733Y19506000D01*
X35222635Y19506000D01*
X35176848Y19498360D01*
X34993699Y19467798D01*
X34774188Y19392439D01*
X34774179Y19392436D01*
X34570055Y19281969D01*
X34570049Y19281965D01*
X34386906Y19139419D01*
X34386903Y19139416D01*
X34386900Y19139414D01*
X34386900Y19139413D01*
X34337003Y19085210D01*
X34229703Y18968651D01*
X34225475Y18962179D01*
X34172329Y18916822D01*
X34121666Y18906000D01*
X28461623Y18906000D01*
X28394584Y18925685D01*
X28373942Y18942319D01*
X27573200Y19743061D01*
X37091257Y19743061D01*
X37197613Y19627527D01*
X37220941Y19599987D01*
X37249438Y19563380D01*
X37270459Y19533941D01*
X37422786Y19300787D01*
X37441282Y19269748D01*
X37463360Y19228949D01*
X37479232Y19196486D01*
X37591097Y18941457D01*
X37604228Y18907807D01*
X37619292Y18863930D01*
X37629607Y18829289D01*
X37697976Y18559306D01*
X37705394Y18523925D01*
X37713028Y18478167D01*
X37717495Y18442326D01*
X37732582Y18260236D01*
X38652380Y19180033D01*
X40063764Y19180033D01*
X41125839Y18117959D01*
X42187913Y19180033D01*
X43599298Y19180033D01*
X44661373Y18117959D01*
X45723447Y19180033D01*
X47134832Y19180033D01*
X48196907Y18117958D01*
X49258981Y19180033D01*
X50670366Y19180033D01*
X51732441Y18117958D01*
X52794515Y19180033D01*
X54205900Y19180033D01*
X55267975Y18117958D01*
X56330049Y19180033D01*
X57741434Y19180033D01*
X58803509Y18117958D01*
X59865583Y19180033D01*
X61276968Y19180033D01*
X62339043Y18117958D01*
X63401117Y19180033D01*
X62339043Y20242108D01*
X61276968Y19180033D01*
X59865583Y19180033D01*
X58803509Y20242108D01*
X57741434Y19180033D01*
X56330049Y19180033D01*
X55267975Y20242108D01*
X54205900Y19180033D01*
X52794515Y19180033D01*
X51732441Y20242108D01*
X50670366Y19180033D01*
X49258981Y19180033D01*
X48196907Y20242108D01*
X47134832Y19180033D01*
X45723447Y19180033D01*
X44661373Y20242108D01*
X43599298Y19180033D01*
X42187913Y19180033D01*
X41125839Y20242108D01*
X40063764Y19180033D01*
X38652380Y19180033D01*
X37590305Y20242108D01*
X37091257Y19743061D01*
X27573200Y19743061D01*
X26323237Y20993025D01*
X27734620Y20993025D01*
X28796695Y19930950D01*
X29813545Y20947800D01*
X31224930Y20947800D01*
X32268730Y19904000D01*
X32305280Y19904000D01*
X33349079Y20947800D01*
X34760464Y20947800D01*
X35204264Y20504000D01*
X35477928Y20504000D01*
X35514030Y20502507D01*
X35560262Y20498676D01*
X35596118Y20494207D01*
X35870806Y20448370D01*
X35906163Y20440956D01*
X35951135Y20429569D01*
X35985774Y20419257D01*
X36249175Y20328831D01*
X36261021Y20324209D01*
X36884612Y20947800D01*
X38295998Y20947800D01*
X39358072Y19885726D01*
X40420147Y20947800D01*
X41831531Y20947800D01*
X42893606Y19885726D01*
X43955680Y20947800D01*
X45367065Y20947800D01*
X46429140Y19885725D01*
X47491214Y20947800D01*
X48902599Y20947800D01*
X49964674Y19885725D01*
X51026748Y20947800D01*
X52438133Y20947800D01*
X53500208Y19885725D01*
X54562282Y20947800D01*
X55973667Y20947800D01*
X57035742Y19885725D01*
X58097816Y20947800D01*
X59509201Y20947800D01*
X60571276Y19885725D01*
X61633350Y20947800D01*
X60571276Y22009875D01*
X59509201Y20947800D01*
X58097816Y20947800D01*
X57035742Y22009875D01*
X55973667Y20947800D01*
X54562282Y20947800D01*
X53500208Y22009875D01*
X52438133Y20947800D01*
X51026748Y20947800D01*
X49964674Y22009875D01*
X48902599Y20947800D01*
X47491214Y20947800D01*
X46429140Y22009875D01*
X45367065Y20947800D01*
X43955680Y20947800D01*
X42893606Y22009875D01*
X41831531Y20947800D01*
X40420147Y20947800D01*
X39358072Y22009875D01*
X38295998Y20947800D01*
X36884612Y20947800D01*
X36884613Y20947801D01*
X35822539Y22009875D01*
X34760464Y20947800D01*
X33349079Y20947800D01*
X32287005Y22009875D01*
X31224930Y20947800D01*
X29813545Y20947800D01*
X28751470Y22009875D01*
X27734620Y20993025D01*
X26323237Y20993025D01*
X26133718Y21182544D01*
X26100233Y21243867D01*
X26097823Y21280465D01*
X26113984Y21475495D01*
X26113984Y21475507D01*
X26094819Y21706798D01*
X26094817Y21706809D01*
X26037841Y21931801D01*
X25944608Y22144349D01*
X25817667Y22338648D01*
X25817664Y22338651D01*
X25817663Y22338653D01*
X25660468Y22509413D01*
X25660463Y22509417D01*
X25660461Y22509419D01*
X25637231Y22527500D01*
X29645229Y22527500D01*
X30519238Y21653492D01*
X31393247Y22527500D01*
X33180763Y22527500D01*
X34054772Y21653492D01*
X34928781Y22527500D01*
X36716297Y22527500D01*
X37590305Y21653492D01*
X38464314Y22527500D01*
X40251831Y22527500D01*
X41125839Y21653492D01*
X41999848Y22527500D01*
X43787365Y22527500D01*
X44661373Y21653492D01*
X45535382Y22527500D01*
X47322898Y22527500D01*
X48196907Y21653492D01*
X49070916Y22527500D01*
X50858432Y22527500D01*
X51732441Y21653492D01*
X52606450Y22527500D01*
X54393966Y22527500D01*
X55267975Y21653492D01*
X56141984Y22527500D01*
X57929500Y22527500D01*
X58803509Y21653492D01*
X59677518Y22527500D01*
X57929500Y22527500D01*
X56141984Y22527500D01*
X54393966Y22527500D01*
X52606450Y22527500D01*
X50858432Y22527500D01*
X49070916Y22527500D01*
X47322898Y22527500D01*
X45535382Y22527500D01*
X43787365Y22527500D01*
X41999848Y22527500D01*
X40251831Y22527500D01*
X38464314Y22527500D01*
X36716297Y22527500D01*
X34928781Y22527500D01*
X33180763Y22527500D01*
X31393247Y22527500D01*
X29645229Y22527500D01*
X25637231Y22527500D01*
X25477318Y22651965D01*
X25477312Y22651969D01*
X25273188Y22762436D01*
X25273179Y22762439D01*
X25053668Y22837798D01*
X24881966Y22866450D01*
X24824733Y22876000D01*
X24592635Y22876000D01*
X24546848Y22868360D01*
X24363699Y22837798D01*
X24144188Y22762439D01*
X24144179Y22762436D01*
X23940055Y22651969D01*
X23940049Y22651965D01*
X23756906Y22509419D01*
X23756903Y22509416D01*
X23599700Y22338648D01*
X23472759Y22144349D01*
X23379526Y21931801D01*
X23322550Y21706809D01*
X23322548Y21706798D01*
X23303384Y21475507D01*
X23303384Y21475494D01*
X23322548Y21244203D01*
X23322550Y21244192D01*
X23379526Y21019200D01*
X23472759Y20806652D01*
X23599700Y20612353D01*
X23599703Y20612349D01*
X23599705Y20612347D01*
X23756900Y20441587D01*
X23756903Y20441585D01*
X23756906Y20441582D01*
X23940049Y20299036D01*
X23940055Y20299032D01*
X23940058Y20299030D01*
X24144181Y20188564D01*
X24258171Y20149432D01*
X24363699Y20113203D01*
X24363701Y20113203D01*
X24363703Y20113202D01*
X24592635Y20075000D01*
X24592636Y20075000D01*
X24824735Y20075000D01*
X24851416Y20079453D01*
X24892356Y20086285D01*
X24961720Y20077905D01*
X25000448Y20051658D01*
X25546106Y19506000D01*
X25934426Y19117681D01*
X25967911Y19056358D01*
X25962927Y18986667D01*
X25921055Y18930733D01*
X25855591Y18906316D01*
X25846745Y18906000D01*
X8124739Y18906000D01*
X8057700Y18925685D01*
X8040940Y18939782D01*
X8040383Y18939176D01*
X8036599Y18942659D01*
X7853456Y19085205D01*
X7853450Y19085209D01*
X7649326Y19195676D01*
X7649317Y19195679D01*
X7429806Y19271038D01*
X7251527Y19300787D01*
X7200871Y19309240D01*
X6968773Y19309240D01*
X6922986Y19301600D01*
X6739837Y19271038D01*
X6520326Y19195679D01*
X6520317Y19195676D01*
X6316193Y19085209D01*
X6316187Y19085205D01*
X6133044Y18942659D01*
X6133041Y18942656D01*
X5975838Y18771888D01*
X5848897Y18577589D01*
X5755664Y18365041D01*
X5698688Y18140049D01*
X5698686Y18140038D01*
X5679522Y17908747D01*
X5679522Y17908734D01*
X4500000Y17908734D01*
X4500000Y20947800D01*
X6476192Y20947800D01*
X7116752Y20307240D01*
X7224066Y20307240D01*
X7260168Y20305747D01*
X7306400Y20301916D01*
X7342256Y20297447D01*
X7616944Y20251610D01*
X7652301Y20244196D01*
X7697273Y20232809D01*
X7731912Y20222497D01*
X7838459Y20185919D01*
X8600340Y20947800D01*
X10011726Y20947800D01*
X11055526Y19904000D01*
X11092076Y19904000D01*
X12135875Y20947800D01*
X13547260Y20947800D01*
X14591060Y19904000D01*
X14627610Y19904000D01*
X15671409Y20947800D01*
X17082794Y20947800D01*
X18126594Y19904000D01*
X18163144Y19904000D01*
X19206943Y20947800D01*
X20618328Y20947800D01*
X21662128Y19904000D01*
X21698678Y19904000D01*
X22450081Y20655405D01*
X22443140Y20673193D01*
X22428076Y20717070D01*
X22417761Y20751711D01*
X22349392Y21021694D01*
X22341974Y21057075D01*
X22334340Y21102833D01*
X22329873Y21138674D01*
X22309840Y21380437D01*
X21680402Y22009875D01*
X20618328Y20947800D01*
X19206943Y20947800D01*
X18144869Y22009875D01*
X17082794Y20947800D01*
X15671409Y20947800D01*
X14609335Y22009875D01*
X13547260Y20947800D01*
X12135875Y20947800D01*
X11073801Y22009875D01*
X10011726Y20947800D01*
X8600340Y20947800D01*
X8600341Y20947801D01*
X7538267Y22009875D01*
X6476192Y20947800D01*
X4500000Y20947800D01*
X4500000Y21799992D01*
X5624000Y21799992D01*
X5770500Y21653492D01*
X6832574Y22715567D01*
X8243959Y22715567D01*
X9306034Y21653492D01*
X10368108Y22715567D01*
X11779493Y22715567D01*
X12841568Y21653492D01*
X13903642Y22715567D01*
X15315027Y22715567D01*
X16377102Y21653492D01*
X17439176Y22715567D01*
X18850560Y22715567D01*
X19912636Y21653492D01*
X20974710Y22715567D01*
X20438277Y23252000D01*
X19756648Y23252000D01*
X19742200Y23242618D01*
X19739432Y23240922D01*
X19691348Y23213162D01*
X19688494Y23211613D01*
X19650622Y23192318D01*
X19647694Y23190921D01*
X19424051Y23091347D01*
X19421051Y23090104D01*
X19381338Y23074859D01*
X19378275Y23073775D01*
X19325467Y23056618D01*
X19322356Y23055697D01*
X19281288Y23044693D01*
X19278131Y23043935D01*
X19152152Y23017159D01*
X18850560Y22715567D01*
X17439176Y22715567D01*
X16377102Y23777641D01*
X15315027Y22715567D01*
X13903642Y22715567D01*
X12841568Y23777641D01*
X11779493Y22715567D01*
X10368108Y22715567D01*
X9306034Y23777641D01*
X8243959Y22715567D01*
X6832574Y22715567D01*
X5770500Y23777641D01*
X5624000Y23631141D01*
X5624000Y21799992D01*
X4500000Y21799992D01*
X4500000Y24483334D01*
X6476192Y24483334D01*
X7538267Y23421259D01*
X8600341Y24483334D01*
X10011726Y24483334D01*
X11073801Y23421259D01*
X12135875Y24483334D01*
X13547260Y24483334D01*
X14609335Y23421259D01*
X15671409Y24483334D01*
X14609335Y25545408D01*
X13547260Y24483334D01*
X12135875Y24483334D01*
X11073801Y25545408D01*
X10011726Y24483334D01*
X8600341Y24483334D01*
X7538267Y25545408D01*
X6476192Y24483334D01*
X4500000Y24483334D01*
X4500000Y25757749D01*
X4493531Y25790234D01*
X4493530Y25793355D01*
X4493562Y25818020D01*
X4493444Y25818303D01*
X4493403Y25818403D01*
X4476248Y25835644D01*
X4475901Y25835876D01*
X3622110Y26691126D01*
X5148449Y26691126D01*
X5435440Y26404135D01*
X5462320Y26363907D01*
X5614561Y25996365D01*
X5624000Y25948912D01*
X5624000Y25335526D01*
X5770500Y25189026D01*
X6832574Y26251101D01*
X8243959Y26251101D01*
X9306034Y25189026D01*
X10368108Y26251101D01*
X11779493Y26251101D01*
X12841568Y25189026D01*
X13903642Y26251101D01*
X15315027Y26251101D01*
X16377102Y25189026D01*
X17439176Y26251101D01*
X16989143Y26701134D01*
X19300594Y26701134D01*
X19322356Y26695303D01*
X19325467Y26694382D01*
X19378275Y26677225D01*
X19381338Y26676141D01*
X19421051Y26660896D01*
X19424051Y26659653D01*
X19647694Y26560079D01*
X19650622Y26558682D01*
X19688494Y26539387D01*
X19691348Y26537838D01*
X19739432Y26510078D01*
X19742200Y26508382D01*
X19756648Y26499000D01*
X20726811Y26499000D01*
X22633995Y26499000D01*
X24262345Y26499000D01*
X26169529Y26499000D01*
X27797879Y26499000D01*
X29705063Y26499000D01*
X31333413Y26499000D01*
X33240597Y26499000D01*
X34868947Y26499000D01*
X36776131Y26499000D01*
X38404481Y26499000D01*
X37590306Y27313175D01*
X36776131Y26499000D01*
X34868947Y26499000D01*
X34054772Y27313175D01*
X33240597Y26499000D01*
X31333413Y26499000D01*
X30519238Y27313175D01*
X29705063Y26499000D01*
X27797879Y26499000D01*
X26983704Y27313175D01*
X26169529Y26499000D01*
X24262345Y26499000D01*
X23448170Y27313175D01*
X22633995Y26499000D01*
X20726811Y26499000D01*
X19912635Y27313176D01*
X19300594Y26701134D01*
X16989143Y26701134D01*
X16377102Y27313175D01*
X15315027Y26251101D01*
X13903642Y26251101D01*
X12841568Y27313175D01*
X11779493Y26251101D01*
X10368108Y26251101D01*
X9306034Y27313175D01*
X8243959Y26251101D01*
X6832574Y26251101D01*
X5770499Y27313176D01*
X5148449Y26691126D01*
X3622110Y26691126D01*
X1987007Y28329023D01*
X1857359Y28458893D01*
X3380682Y28458893D01*
X4442757Y27396818D01*
X5064806Y28018867D01*
X6476192Y28018867D01*
X7538267Y26956793D01*
X8600342Y28018867D01*
X10011726Y28018867D01*
X11073801Y26956792D01*
X12135876Y28018867D01*
X13547260Y28018867D01*
X14609335Y26956792D01*
X15671410Y28018867D01*
X17082794Y28018867D01*
X18144869Y26956792D01*
X19206944Y28018867D01*
X20618328Y28018867D01*
X21680403Y26956792D01*
X22742478Y28018867D01*
X24153862Y28018867D01*
X25215937Y26956792D01*
X26278012Y28018867D01*
X27689396Y28018867D01*
X28751471Y26956792D01*
X29813546Y28018867D01*
X31224930Y28018867D01*
X32287005Y26956792D01*
X33349080Y28018867D01*
X34760464Y28018867D01*
X35822539Y26956792D01*
X36884614Y28018867D01*
X38295998Y28018867D01*
X38761753Y27553112D01*
X38793971Y27622202D01*
X38811586Y27656038D01*
X38836069Y27698445D01*
X38856559Y27730606D01*
X39015161Y27957116D01*
X39038374Y27987371D01*
X39069853Y28024886D01*
X39095627Y28053015D01*
X39291169Y28248557D01*
X39319298Y28274331D01*
X39356813Y28305810D01*
X39387068Y28329023D01*
X39571326Y28458040D01*
X77626042Y28458040D01*
X77810300Y28329023D01*
X77840555Y28305810D01*
X77878070Y28274331D01*
X77906199Y28248557D01*
X78101741Y28053015D01*
X78127515Y28024886D01*
X78158994Y27987371D01*
X78182207Y27957116D01*
X78340809Y27730606D01*
X78361299Y27698445D01*
X78385782Y27656038D01*
X78403397Y27622202D01*
X78520260Y27371590D01*
X78534848Y27336373D01*
X78551601Y27290356D01*
X78559010Y27266858D01*
X79311020Y28018868D01*
X78248945Y29080943D01*
X77626042Y28458040D01*
X39571326Y28458040D01*
X39613578Y28487625D01*
X39645739Y28508115D01*
X39688146Y28532598D01*
X39721982Y28550213D01*
X39835749Y28603265D01*
X39358072Y29080942D01*
X38295998Y28018867D01*
X36884614Y28018867D01*
X35822539Y29080942D01*
X34760464Y28018867D01*
X33349080Y28018867D01*
X32287005Y29080942D01*
X31224930Y28018867D01*
X29813546Y28018867D01*
X28751471Y29080942D01*
X27689396Y28018867D01*
X26278012Y28018867D01*
X25215937Y29080942D01*
X24153862Y28018867D01*
X22742478Y28018867D01*
X21680403Y29080942D01*
X20618328Y28018867D01*
X19206944Y28018867D01*
X18144869Y29080942D01*
X17082794Y28018867D01*
X15671410Y28018867D01*
X14609335Y29080942D01*
X13547260Y28018867D01*
X12135876Y28018867D01*
X11073801Y29080942D01*
X10011726Y28018867D01*
X8600342Y28018867D01*
X7538267Y29080942D01*
X6476192Y28018867D01*
X5064806Y28018867D01*
X5064807Y28018868D01*
X4002732Y29080943D01*
X3380682Y28458893D01*
X1857359Y28458893D01*
X531884Y29786634D01*
X4708425Y29786634D01*
X5770500Y28724560D01*
X6404511Y29358570D01*
X8672023Y29358570D01*
X9306033Y28724560D01*
X10163739Y29582266D01*
X10110634Y29607029D01*
X15494632Y29607029D01*
X16377101Y28724560D01*
X16972227Y29319686D01*
X16918965Y29317942D01*
X16884458Y29324806D01*
X19312389Y29324806D01*
X19912635Y28724560D01*
X20526669Y29338594D01*
X22834135Y29338594D01*
X23448169Y28724560D01*
X24122502Y29398893D01*
X23952610Y29444413D01*
X23916209Y29455891D01*
X23870192Y29472643D01*
X23834976Y29487231D01*
X23576522Y29607750D01*
X23545395Y29623953D01*
X26084310Y29623953D01*
X26983703Y28724560D01*
X27610950Y29351807D01*
X27584838Y29348369D01*
X27300652Y29323505D01*
X27262545Y29321841D01*
X27213573Y29321841D01*
X27175466Y29323505D01*
X26891280Y29348369D01*
X26853472Y29353346D01*
X26805248Y29361849D01*
X26768006Y29370105D01*
X26578783Y29420806D01*
X33358525Y29420806D01*
X34054771Y28724560D01*
X34656811Y29326600D01*
X40523799Y29326600D01*
X41036690Y28813708D01*
X41156746Y28803203D01*
X41194554Y28798226D01*
X41198762Y28797484D01*
X41928758Y29527480D01*
X47393986Y29527480D01*
X48116843Y28804623D01*
X48292322Y28819976D01*
X48800775Y29328429D01*
X51128571Y29328429D01*
X51732440Y28724560D01*
X52334881Y29327001D01*
X54665533Y29327001D01*
X55267974Y28724560D01*
X55983027Y29439613D01*
X55965110Y29444414D01*
X55928709Y29455891D01*
X55882692Y29472643D01*
X55847476Y29487231D01*
X55589022Y29607750D01*
X55555202Y29625355D01*
X55543648Y29632026D01*
X55447537Y29560075D01*
X55443900Y29557551D01*
X55395109Y29526193D01*
X55391301Y29523933D01*
X55324825Y29487634D01*
X55320866Y29485653D01*
X55268101Y29461555D01*
X55264010Y29459861D01*
X55062637Y29384754D01*
X55058967Y29383514D01*
X55010409Y29368785D01*
X55006670Y29367777D01*
X54942185Y29352538D01*
X54938389Y29351765D01*
X54888365Y29343201D01*
X54884527Y29342666D01*
X54777026Y29331111D01*
X54753678Y29329232D01*
X54723680Y29327626D01*
X54700313Y29327001D01*
X54665533Y29327001D01*
X52334881Y29327001D01*
X52425124Y29417244D01*
X52310858Y29459861D01*
X52306767Y29461555D01*
X52254002Y29485653D01*
X52250043Y29487634D01*
X52186718Y29522213D01*
X52110690Y29486759D01*
X52075473Y29472171D01*
X52029457Y29455419D01*
X51993057Y29443942D01*
X51717487Y29370105D01*
X51680245Y29361849D01*
X51632021Y29353346D01*
X51594213Y29348369D01*
X51310027Y29323505D01*
X51271920Y29321841D01*
X51222948Y29321841D01*
X51184841Y29323505D01*
X51128571Y29328429D01*
X48800775Y29328429D01*
X48813711Y29341365D01*
X48707434Y29362506D01*
X48483403Y29317942D01*
X48427119Y29319784D01*
X47961985Y29444414D01*
X47925584Y29455891D01*
X47879567Y29472643D01*
X47844351Y29487231D01*
X47585897Y29607750D01*
X47552077Y29625355D01*
X47540523Y29632026D01*
X47444412Y29560075D01*
X47440775Y29557551D01*
X47393986Y29527480D01*
X41928758Y29527480D01*
X42040102Y29638824D01*
X57889244Y29638824D01*
X58704550Y28823518D01*
X58886544Y28807596D01*
X59411016Y29332068D01*
X59313152Y29323505D01*
X59275045Y29321841D01*
X59226073Y29321841D01*
X59187966Y29323505D01*
X58903780Y29348369D01*
X58865972Y29353346D01*
X58817748Y29361849D01*
X58780506Y29370105D01*
X58743256Y29380086D01*
X65219050Y29380086D01*
X65807190Y28791946D01*
X65842814Y28798226D01*
X65880622Y28803203D01*
X65960181Y28810165D01*
X66501305Y29351289D01*
X72318915Y29351289D01*
X72945644Y28724560D01*
X73683342Y29462258D01*
X79279014Y29462258D01*
X80016712Y28724560D01*
X81078787Y29786634D01*
X80143742Y30721679D01*
X80143071Y30709164D01*
X80141195Y30685864D01*
X80129640Y30578400D01*
X80129107Y30574565D01*
X80120546Y30524562D01*
X80119773Y30520766D01*
X80104538Y30456285D01*
X80103530Y30452545D01*
X80088797Y30403974D01*
X80087557Y30400304D01*
X80012448Y30198924D01*
X80010754Y30194833D01*
X79986656Y30142068D01*
X79984675Y30138109D01*
X79948376Y30071633D01*
X79946116Y30067825D01*
X79914759Y30019034D01*
X79912234Y30015397D01*
X79780597Y29839555D01*
X79777820Y29836108D01*
X79739841Y29792278D01*
X79736824Y29789037D01*
X79683272Y29735485D01*
X79680031Y29732468D01*
X79636201Y29694489D01*
X79632754Y29691712D01*
X79456912Y29560075D01*
X79453275Y29557550D01*
X79404484Y29526193D01*
X79400676Y29523933D01*
X79334200Y29487634D01*
X79330241Y29485653D01*
X79279014Y29462258D01*
X73683342Y29462258D01*
X73820525Y29599441D01*
X73579892Y29487231D01*
X73544676Y29472643D01*
X73498659Y29455891D01*
X73462258Y29444414D01*
X72997124Y29319784D01*
X72940840Y29317942D01*
X72716809Y29362506D01*
X72492778Y29317942D01*
X72436494Y29319784D01*
X72318915Y29351289D01*
X66501305Y29351289D01*
X66575806Y29425790D01*
X66508061Y29443942D01*
X66471661Y29455419D01*
X66425645Y29472171D01*
X66390428Y29486758D01*
X66131896Y29607315D01*
X66098077Y29624920D01*
X66055666Y29649403D01*
X66023486Y29669904D01*
X65983247Y29698080D01*
X65943632Y29670339D01*
X65911450Y29649839D01*
X65869041Y29625355D01*
X65835221Y29607750D01*
X65576767Y29487231D01*
X65541551Y29472643D01*
X65495534Y29455891D01*
X65459133Y29444413D01*
X65219050Y29380086D01*
X58743256Y29380086D01*
X58504936Y29443942D01*
X58468536Y29455419D01*
X58422520Y29472171D01*
X58387303Y29486758D01*
X58128771Y29607315D01*
X58094952Y29624920D01*
X58052541Y29649403D01*
X58020361Y29669904D01*
X57980122Y29698080D01*
X57940507Y29670339D01*
X57908325Y29649839D01*
X57889244Y29638824D01*
X42040102Y29638824D01*
X42049074Y29647796D01*
X42046291Y29649403D01*
X42014111Y29669904D01*
X41973872Y29698080D01*
X41934257Y29670339D01*
X41902075Y29649839D01*
X41859666Y29625355D01*
X41825846Y29607750D01*
X41567392Y29487231D01*
X41532176Y29472643D01*
X41486159Y29455891D01*
X41449758Y29444414D01*
X40984624Y29319784D01*
X40928340Y29317942D01*
X40704309Y29362506D01*
X40523799Y29326600D01*
X34656811Y29326600D01*
X34715281Y29385070D01*
X34495561Y29443942D01*
X34459161Y29455419D01*
X34413145Y29472171D01*
X34377928Y29486758D01*
X34119396Y29607315D01*
X34085577Y29624920D01*
X34043166Y29649403D01*
X34010986Y29669904D01*
X33970747Y29698080D01*
X33931132Y29670339D01*
X33898950Y29649839D01*
X33856541Y29625355D01*
X33822721Y29607750D01*
X33564267Y29487231D01*
X33529051Y29472643D01*
X33483034Y29455891D01*
X33446633Y29444414D01*
X33358525Y29420806D01*
X26578783Y29420806D01*
X26492436Y29443942D01*
X26456036Y29455419D01*
X26410020Y29472171D01*
X26374803Y29486758D01*
X26116271Y29607315D01*
X26084310Y29623953D01*
X23545395Y29623953D01*
X23542702Y29625355D01*
X23531148Y29632026D01*
X23435037Y29560075D01*
X23431400Y29557551D01*
X23382609Y29526193D01*
X23378801Y29523933D01*
X23312325Y29487634D01*
X23308366Y29485653D01*
X23255601Y29461555D01*
X23251510Y29459861D01*
X23050137Y29384754D01*
X23046467Y29383514D01*
X22997909Y29368785D01*
X22994170Y29367777D01*
X22929685Y29352538D01*
X22925889Y29351765D01*
X22875865Y29343201D01*
X22872027Y29342666D01*
X22834135Y29338594D01*
X20526669Y29338594D01*
X20555822Y29367747D01*
X20555719Y29367771D01*
X20551979Y29368779D01*
X20503408Y29383512D01*
X20499738Y29384752D01*
X20298358Y29459861D01*
X20294267Y29461555D01*
X20241502Y29485653D01*
X20237543Y29487634D01*
X20174218Y29522213D01*
X20098190Y29486759D01*
X20062973Y29472171D01*
X20016957Y29455419D01*
X19980557Y29443942D01*
X19704987Y29370105D01*
X19667745Y29361849D01*
X19619521Y29353346D01*
X19581713Y29348369D01*
X19312389Y29324806D01*
X16884458Y29324806D01*
X16694934Y29362506D01*
X16470903Y29317942D01*
X16414619Y29319784D01*
X15949485Y29444414D01*
X15913084Y29455891D01*
X15867067Y29472643D01*
X15831851Y29487231D01*
X15573397Y29607750D01*
X15539577Y29625355D01*
X15528023Y29632026D01*
X15494632Y29607029D01*
X10110634Y29607029D01*
X10110021Y29607315D01*
X10076202Y29624920D01*
X10033791Y29649403D01*
X10001611Y29669904D01*
X9961372Y29698080D01*
X9921757Y29670339D01*
X9889575Y29649839D01*
X9847166Y29625355D01*
X9813346Y29607750D01*
X9554892Y29487231D01*
X9519676Y29472643D01*
X9473659Y29455891D01*
X9437258Y29444414D01*
X8972124Y29319784D01*
X8915840Y29317942D01*
X8691809Y29362506D01*
X8672023Y29358570D01*
X6404511Y29358570D01*
X6832575Y29786634D01*
X5770500Y30848709D01*
X4708425Y29786634D01*
X531884Y29786634D01*
X410593Y29908132D01*
X408244Y29910618D01*
X402029Y29917572D01*
X388157Y29936404D01*
X-130991Y30801652D01*
X-142079Y30825585D01*
X-147794Y30842422D01*
X-148647Y30845142D01*
X-181081Y30957723D01*
X-182300Y30962737D01*
X-213595Y31120068D01*
X-218377Y31148207D01*
X-218441Y31189356D01*
X-166667Y31500000D01*
X644341Y31500000D01*
X664936Y31264597D01*
X664938Y31264587D01*
X726094Y31036345D01*
X726096Y31036341D01*
X726097Y31036337D01*
X744128Y30997670D01*
X825964Y30822172D01*
X825965Y30822170D01*
X961505Y30628598D01*
X1128597Y30461506D01*
X1322169Y30325966D01*
X1322171Y30325965D01*
X1536337Y30226097D01*
X1764592Y30164937D01*
X1941034Y30149500D01*
X2058966Y30149500D01*
X2235408Y30164937D01*
X2463663Y30226097D01*
X2677829Y30325965D01*
X2871401Y30461505D01*
X3038495Y30628599D01*
X3174035Y30822170D01*
X3273903Y31036337D01*
X3335063Y31264592D01*
X3355659Y31500000D01*
X3335063Y31735408D01*
X3273903Y31963663D01*
X3174035Y32177829D01*
X3174034Y32177831D01*
X3038494Y32371403D01*
X2920703Y32489194D01*
X4130015Y32489194D01*
X4188742Y32363256D01*
X4203329Y32328039D01*
X4220081Y32282023D01*
X4231558Y32245623D01*
X4305395Y31970053D01*
X4313651Y31932811D01*
X4322154Y31884587D01*
X4327131Y31846779D01*
X4351995Y31562593D01*
X4353659Y31524486D01*
X4353659Y31475514D01*
X4351995Y31437407D01*
X4327131Y31153221D01*
X4322154Y31115413D01*
X4313651Y31067189D01*
X4305395Y31029947D01*
X4231558Y30754377D01*
X4220081Y30717977D01*
X4215327Y30704921D01*
X4935907Y31425500D01*
X7361173Y31425500D01*
X7418376Y31212014D01*
X7418379Y31212008D01*
X7518208Y30997922D01*
X7653703Y30804418D01*
X7820726Y30637395D01*
X8014230Y30501900D01*
X8228316Y30402071D01*
X8228325Y30402067D01*
X8441809Y30344866D01*
X8441809Y31239999D01*
X8549494Y31190820D01*
X8656046Y31175500D01*
X8727572Y31175500D01*
X8834124Y31190820D01*
X8941809Y31239999D01*
X8941809Y30344867D01*
X9155292Y30402067D01*
X9155301Y30402071D01*
X9369387Y30501900D01*
X9562891Y30637395D01*
X9729914Y30804418D01*
X9859928Y30990095D01*
X9914505Y31033719D01*
X9984004Y31040912D01*
X10046358Y31009390D01*
X10063078Y30990095D01*
X10193314Y30804099D01*
X10360408Y30637005D01*
X10457193Y30569235D01*
X10553974Y30501468D01*
X10553976Y30501467D01*
X10553979Y30501465D01*
X10768146Y30401597D01*
X10768152Y30401596D01*
X10768153Y30401595D01*
X10823094Y30386874D01*
X10996401Y30340437D01*
X11172843Y30325000D01*
X11231808Y30319841D01*
X11231809Y30319841D01*
X11231810Y30319841D01*
X11290775Y30325000D01*
X11467217Y30340437D01*
X11695472Y30401597D01*
X11909639Y30501465D01*
X12103210Y30637005D01*
X12225138Y30758934D01*
X12286457Y30792416D01*
X12356149Y30787432D01*
X12412083Y30745561D01*
X12428998Y30714583D01*
X12478011Y30583172D01*
X12478015Y30583165D01*
X12564261Y30467956D01*
X12564264Y30467953D01*
X12679473Y30381707D01*
X12679480Y30381703D01*
X12814326Y30331409D01*
X12814325Y30331409D01*
X12821253Y30330665D01*
X12873936Y30325000D01*
X14669681Y30325001D01*
X14729292Y30331409D01*
X14864140Y30381704D01*
X14979355Y30467954D01*
X15065605Y30583169D01*
X15115900Y30718017D01*
X15122309Y30777627D01*
X15122308Y31386747D01*
X15141992Y31453783D01*
X15194796Y31499538D01*
X15263955Y31509482D01*
X15327511Y31480457D01*
X15365285Y31421679D01*
X15366083Y31418838D01*
X15421501Y31212014D01*
X15421504Y31212008D01*
X15521333Y30997922D01*
X15656828Y30804418D01*
X15823851Y30637395D01*
X16017355Y30501900D01*
X16231441Y30402071D01*
X16231450Y30402067D01*
X16444934Y30344866D01*
X16444934Y31239999D01*
X16552619Y31190820D01*
X16659171Y31175500D01*
X16730697Y31175500D01*
X16837249Y31190820D01*
X16944934Y31239999D01*
X16944934Y30344867D01*
X17158417Y30402067D01*
X17158426Y30402071D01*
X17372512Y30501900D01*
X17566016Y30637395D01*
X17733039Y30804418D01*
X17863053Y30990095D01*
X17917630Y31033719D01*
X17987129Y31040912D01*
X18049483Y31009390D01*
X18066203Y30990095D01*
X18196439Y30804099D01*
X18363533Y30637005D01*
X18460318Y30569235D01*
X18557099Y30501468D01*
X18557101Y30501467D01*
X18557104Y30501465D01*
X18771271Y30401597D01*
X18771277Y30401596D01*
X18771278Y30401595D01*
X18826219Y30386874D01*
X18999526Y30340437D01*
X19175968Y30325000D01*
X19234933Y30319841D01*
X19234934Y30319841D01*
X19234935Y30319841D01*
X19293900Y30325000D01*
X19470342Y30340437D01*
X19698597Y30401597D01*
X19912764Y30501465D01*
X20106335Y30637005D01*
X20228263Y30758934D01*
X20289582Y30792416D01*
X20359274Y30787432D01*
X20415208Y30745561D01*
X20432123Y30714583D01*
X20481136Y30583172D01*
X20481140Y30583165D01*
X20567386Y30467956D01*
X20567389Y30467953D01*
X20682598Y30381707D01*
X20682605Y30381703D01*
X20817451Y30331409D01*
X20817450Y30331409D01*
X20824378Y30330665D01*
X20877061Y30325000D01*
X22672806Y30325001D01*
X22732417Y30331409D01*
X22867265Y30381704D01*
X22982480Y30467954D01*
X23068730Y30583169D01*
X23119025Y30718017D01*
X23125434Y30777627D01*
X23125433Y31386747D01*
X23145117Y31453783D01*
X23197921Y31499538D01*
X23267080Y31509482D01*
X23330636Y31480457D01*
X23368410Y31421679D01*
X23369208Y31418838D01*
X23424626Y31212014D01*
X23424629Y31212008D01*
X23524458Y30997922D01*
X23659953Y30804418D01*
X23826976Y30637395D01*
X24020480Y30501900D01*
X24234566Y30402071D01*
X24234575Y30402067D01*
X24448059Y30344866D01*
X24448059Y31239999D01*
X24555744Y31190820D01*
X24662296Y31175500D01*
X24733822Y31175500D01*
X24840374Y31190820D01*
X24948059Y31239999D01*
X24948059Y30344867D01*
X25161542Y30402067D01*
X25161551Y30402071D01*
X25375637Y30501900D01*
X25569141Y30637395D01*
X25736164Y30804418D01*
X25866178Y30990095D01*
X25920755Y31033719D01*
X25990254Y31040912D01*
X26052608Y31009390D01*
X26069328Y30990095D01*
X26199564Y30804099D01*
X26366658Y30637005D01*
X26463443Y30569235D01*
X26560224Y30501468D01*
X26560226Y30501467D01*
X26560229Y30501465D01*
X26774396Y30401597D01*
X26774402Y30401596D01*
X26774403Y30401595D01*
X26829344Y30386874D01*
X27002651Y30340437D01*
X27179093Y30325000D01*
X27238058Y30319841D01*
X27238059Y30319841D01*
X27238060Y30319841D01*
X27297025Y30325000D01*
X27473467Y30340437D01*
X27701722Y30401597D01*
X27915889Y30501465D01*
X28109460Y30637005D01*
X28231388Y30758934D01*
X28292707Y30792416D01*
X28362399Y30787432D01*
X28418333Y30745561D01*
X28435248Y30714583D01*
X28484261Y30583172D01*
X28484265Y30583165D01*
X28570511Y30467956D01*
X28570514Y30467953D01*
X28685723Y30381707D01*
X28685730Y30381703D01*
X28820576Y30331409D01*
X28820575Y30331409D01*
X28827503Y30330665D01*
X28880186Y30325000D01*
X30675931Y30325001D01*
X30735542Y30331409D01*
X30870390Y30381704D01*
X30985605Y30467954D01*
X31071855Y30583169D01*
X31122150Y30718017D01*
X31128559Y30777627D01*
X31128558Y31386747D01*
X31148242Y31453783D01*
X31201046Y31499538D01*
X31270205Y31509482D01*
X31333761Y31480457D01*
X31371535Y31421679D01*
X31372333Y31418838D01*
X31427751Y31212014D01*
X31427754Y31212008D01*
X31527583Y30997922D01*
X31663078Y30804418D01*
X31830101Y30637395D01*
X32023605Y30501900D01*
X32237691Y30402071D01*
X32237700Y30402067D01*
X32451184Y30344866D01*
X32451184Y31239999D01*
X32558869Y31190820D01*
X32665421Y31175500D01*
X32736947Y31175500D01*
X32843499Y31190820D01*
X32951184Y31239999D01*
X32951184Y30344867D01*
X33164667Y30402067D01*
X33164676Y30402071D01*
X33378762Y30501900D01*
X33572266Y30637395D01*
X33739289Y30804418D01*
X33869303Y30990095D01*
X33923880Y31033719D01*
X33993379Y31040912D01*
X34055733Y31009390D01*
X34072453Y30990095D01*
X34202689Y30804099D01*
X34369783Y30637005D01*
X34466568Y30569235D01*
X34563349Y30501468D01*
X34563351Y30501467D01*
X34563354Y30501465D01*
X34777521Y30401597D01*
X34777527Y30401596D01*
X34777528Y30401595D01*
X34832469Y30386874D01*
X35005776Y30340437D01*
X35182218Y30325000D01*
X35241183Y30319841D01*
X35241184Y30319841D01*
X35241185Y30319841D01*
X35300150Y30325000D01*
X35476592Y30340437D01*
X35704847Y30401597D01*
X35919014Y30501465D01*
X36112585Y30637005D01*
X36234513Y30758934D01*
X36295832Y30792416D01*
X36365524Y30787432D01*
X36421458Y30745561D01*
X36438373Y30714583D01*
X36487386Y30583172D01*
X36487390Y30583165D01*
X36573636Y30467956D01*
X36573639Y30467953D01*
X36688848Y30381707D01*
X36688855Y30381703D01*
X36823701Y30331409D01*
X36823700Y30331409D01*
X36830628Y30330665D01*
X36883311Y30325000D01*
X38679056Y30325001D01*
X38738667Y30331409D01*
X38873515Y30381704D01*
X38988730Y30467954D01*
X39074980Y30583169D01*
X39125275Y30718017D01*
X39131684Y30777627D01*
X39131683Y31386747D01*
X39151367Y31453783D01*
X39204171Y31499538D01*
X39273330Y31509482D01*
X39336886Y31480457D01*
X39374660Y31421679D01*
X39375458Y31418838D01*
X39430876Y31212014D01*
X39430879Y31212008D01*
X39530708Y30997922D01*
X39666203Y30804418D01*
X39833226Y30637395D01*
X40026730Y30501900D01*
X40240816Y30402071D01*
X40240825Y30402067D01*
X40454309Y30344866D01*
X40454309Y31239999D01*
X40561994Y31190820D01*
X40668546Y31175500D01*
X40740072Y31175500D01*
X40846624Y31190820D01*
X40954309Y31239999D01*
X40954309Y30344867D01*
X41167792Y30402067D01*
X41167801Y30402071D01*
X41381887Y30501900D01*
X41575391Y30637395D01*
X41742414Y30804418D01*
X41872428Y30990095D01*
X41927005Y31033719D01*
X41996504Y31040912D01*
X42058858Y31009390D01*
X42075578Y30990095D01*
X42205814Y30804099D01*
X42372908Y30637005D01*
X42469693Y30569235D01*
X42566474Y30501468D01*
X42566476Y30501467D01*
X42566479Y30501465D01*
X42780646Y30401597D01*
X42780652Y30401596D01*
X42780653Y30401595D01*
X42835594Y30386874D01*
X43008901Y30340437D01*
X43185343Y30325000D01*
X43244308Y30319841D01*
X43244309Y30319841D01*
X43244310Y30319841D01*
X43303275Y30325000D01*
X43479717Y30340437D01*
X43707972Y30401597D01*
X43922139Y30501465D01*
X44115710Y30637005D01*
X44237638Y30758934D01*
X44298957Y30792416D01*
X44368649Y30787432D01*
X44424583Y30745561D01*
X44441498Y30714583D01*
X44490511Y30583172D01*
X44490515Y30583165D01*
X44576761Y30467956D01*
X44576764Y30467953D01*
X44691973Y30381707D01*
X44691980Y30381703D01*
X44826826Y30331409D01*
X44826825Y30331409D01*
X44833753Y30330665D01*
X44886436Y30325000D01*
X46682181Y30325001D01*
X46741792Y30331409D01*
X46876640Y30381704D01*
X46991855Y30467954D01*
X47078105Y30583169D01*
X47128400Y30718017D01*
X47134809Y30777627D01*
X47134808Y31386747D01*
X47154492Y31453783D01*
X47207296Y31499538D01*
X47276455Y31509482D01*
X47340011Y31480457D01*
X47377785Y31421679D01*
X47378583Y31418838D01*
X47434001Y31212014D01*
X47434004Y31212008D01*
X47533833Y30997922D01*
X47669328Y30804418D01*
X47836351Y30637395D01*
X48029855Y30501900D01*
X48243941Y30402071D01*
X48243950Y30402067D01*
X48457434Y30344866D01*
X48457434Y31239999D01*
X48565119Y31190820D01*
X48671671Y31175500D01*
X48743197Y31175500D01*
X48849749Y31190820D01*
X48957434Y31239999D01*
X48957434Y30344867D01*
X49170917Y30402067D01*
X49170926Y30402071D01*
X49385012Y30501900D01*
X49578516Y30637395D01*
X49745539Y30804418D01*
X49875553Y30990095D01*
X49930130Y31033719D01*
X49999629Y31040912D01*
X50061983Y31009390D01*
X50078703Y30990095D01*
X50208939Y30804099D01*
X50376033Y30637005D01*
X50472818Y30569235D01*
X50569599Y30501468D01*
X50569601Y30501467D01*
X50569604Y30501465D01*
X50783771Y30401597D01*
X50783777Y30401596D01*
X50783778Y30401595D01*
X50838719Y30386874D01*
X51012026Y30340437D01*
X51188468Y30325000D01*
X51247433Y30319841D01*
X51247434Y30319841D01*
X51247435Y30319841D01*
X51306400Y30325000D01*
X51482842Y30340437D01*
X51711097Y30401597D01*
X51925264Y30501465D01*
X52118835Y30637005D01*
X52240763Y30758934D01*
X52302082Y30792416D01*
X52371774Y30787432D01*
X52427708Y30745561D01*
X52444623Y30714583D01*
X52493636Y30583172D01*
X52493640Y30583165D01*
X52579886Y30467956D01*
X52579889Y30467953D01*
X52695098Y30381707D01*
X52695105Y30381703D01*
X52829951Y30331409D01*
X52829950Y30331409D01*
X52836878Y30330665D01*
X52889561Y30325000D01*
X54685306Y30325001D01*
X54744917Y30331409D01*
X54879765Y30381704D01*
X54994980Y30467954D01*
X55081230Y30583169D01*
X55131525Y30718017D01*
X55137934Y30777627D01*
X55137933Y31386747D01*
X55157617Y31453783D01*
X55210421Y31499538D01*
X55279580Y31509482D01*
X55343136Y31480457D01*
X55380910Y31421679D01*
X55381708Y31418838D01*
X55437126Y31212014D01*
X55437129Y31212008D01*
X55536958Y30997922D01*
X55672453Y30804418D01*
X55839476Y30637395D01*
X56032980Y30501900D01*
X56247066Y30402071D01*
X56247075Y30402067D01*
X56460559Y30344866D01*
X56460559Y31239999D01*
X56568244Y31190820D01*
X56674796Y31175500D01*
X56746322Y31175500D01*
X56852874Y31190820D01*
X56960559Y31239999D01*
X56960559Y30344866D01*
X57174042Y30402067D01*
X57174051Y30402071D01*
X57388137Y30501900D01*
X57581641Y30637395D01*
X57748664Y30804418D01*
X57878678Y30990095D01*
X57933255Y31033719D01*
X58002754Y31040912D01*
X58065108Y31009390D01*
X58081828Y30990095D01*
X58212064Y30804099D01*
X58379158Y30637005D01*
X58475943Y30569235D01*
X58572724Y30501468D01*
X58572726Y30501467D01*
X58572729Y30501465D01*
X58786896Y30401597D01*
X58786902Y30401596D01*
X58786903Y30401595D01*
X58841844Y30386874D01*
X59015151Y30340437D01*
X59191593Y30325000D01*
X59250558Y30319841D01*
X59250559Y30319841D01*
X59250560Y30319841D01*
X59309525Y30325000D01*
X59485967Y30340437D01*
X59714222Y30401597D01*
X59928389Y30501465D01*
X60121960Y30637005D01*
X60243888Y30758934D01*
X60305207Y30792416D01*
X60374899Y30787432D01*
X60430833Y30745561D01*
X60447748Y30714583D01*
X60496761Y30583172D01*
X60496765Y30583165D01*
X60583011Y30467956D01*
X60583014Y30467953D01*
X60698223Y30381707D01*
X60698230Y30381703D01*
X60833076Y30331409D01*
X60833075Y30331409D01*
X60840003Y30330665D01*
X60892686Y30325000D01*
X62688431Y30325001D01*
X62748042Y30331409D01*
X62882890Y30381704D01*
X62998105Y30467954D01*
X63084355Y30583169D01*
X63134650Y30718017D01*
X63141059Y30777627D01*
X63141058Y31386747D01*
X63160742Y31453783D01*
X63213546Y31499538D01*
X63282705Y31509482D01*
X63346261Y31480457D01*
X63384035Y31421679D01*
X63384833Y31418838D01*
X63440251Y31212014D01*
X63440254Y31212008D01*
X63540083Y30997922D01*
X63675578Y30804418D01*
X63842601Y30637395D01*
X64036105Y30501900D01*
X64250191Y30402071D01*
X64250200Y30402067D01*
X64463684Y30344866D01*
X64463684Y31239999D01*
X64571369Y31190820D01*
X64677921Y31175500D01*
X64749447Y31175500D01*
X64855999Y31190820D01*
X64963684Y31239999D01*
X64963684Y30344867D01*
X65177167Y30402067D01*
X65177176Y30402071D01*
X65391262Y30501900D01*
X65584766Y30637395D01*
X65751789Y30804418D01*
X65881803Y30990095D01*
X65936380Y31033719D01*
X66005879Y31040912D01*
X66068233Y31009390D01*
X66084953Y30990095D01*
X66215189Y30804099D01*
X66382283Y30637005D01*
X66479068Y30569235D01*
X66575849Y30501468D01*
X66575851Y30501467D01*
X66575854Y30501465D01*
X66790021Y30401597D01*
X66790027Y30401596D01*
X66790028Y30401595D01*
X66844969Y30386874D01*
X67018276Y30340437D01*
X67194718Y30325000D01*
X67253683Y30319841D01*
X67253684Y30319841D01*
X67253685Y30319841D01*
X67312650Y30325000D01*
X67489092Y30340437D01*
X67717347Y30401597D01*
X67931514Y30501465D01*
X68125085Y30637005D01*
X68247013Y30758934D01*
X68308332Y30792416D01*
X68378024Y30787432D01*
X68433958Y30745561D01*
X68450873Y30714583D01*
X68499886Y30583172D01*
X68499890Y30583165D01*
X68586136Y30467956D01*
X68586139Y30467953D01*
X68701348Y30381707D01*
X68701355Y30381703D01*
X68836201Y30331409D01*
X68836200Y30331409D01*
X68843128Y30330665D01*
X68895811Y30325000D01*
X70691556Y30325001D01*
X70751167Y30331409D01*
X70886015Y30381704D01*
X71001230Y30467954D01*
X71087480Y30583169D01*
X71137775Y30718017D01*
X71144184Y30777627D01*
X71144183Y31386747D01*
X71163867Y31453783D01*
X71216671Y31499538D01*
X71285830Y31509482D01*
X71349386Y31480457D01*
X71387160Y31421679D01*
X71387958Y31418838D01*
X71443376Y31212014D01*
X71443379Y31212008D01*
X71543208Y30997922D01*
X71678703Y30804418D01*
X71845726Y30637395D01*
X72039230Y30501900D01*
X72253316Y30402071D01*
X72253325Y30402067D01*
X72466809Y30344866D01*
X72466809Y31239999D01*
X72574494Y31190820D01*
X72681046Y31175500D01*
X72752572Y31175500D01*
X72859124Y31190820D01*
X72966809Y31239999D01*
X72966809Y30344867D01*
X73180292Y30402067D01*
X73180301Y30402071D01*
X73394387Y30501900D01*
X73587891Y30637395D01*
X73754914Y30804418D01*
X73884928Y30990095D01*
X73939505Y31033719D01*
X74009004Y31040912D01*
X74071358Y31009390D01*
X74088078Y30990095D01*
X74218314Y30804099D01*
X74385408Y30637005D01*
X74482193Y30569235D01*
X74578974Y30501468D01*
X74578976Y30501467D01*
X74578979Y30501465D01*
X74793146Y30401597D01*
X74793152Y30401596D01*
X74793153Y30401595D01*
X74848094Y30386874D01*
X75021401Y30340437D01*
X75197843Y30325000D01*
X75256808Y30319841D01*
X75256809Y30319841D01*
X75256810Y30319841D01*
X75315775Y30325000D01*
X75492217Y30340437D01*
X75720472Y30401597D01*
X75934639Y30501465D01*
X76128210Y30637005D01*
X76250138Y30758934D01*
X76311457Y30792416D01*
X76381149Y30787432D01*
X76437083Y30745561D01*
X76453998Y30714583D01*
X76503011Y30583172D01*
X76503015Y30583165D01*
X76589261Y30467956D01*
X76589264Y30467953D01*
X76704473Y30381707D01*
X76704480Y30381703D01*
X76839326Y30331409D01*
X76839325Y30331409D01*
X76846253Y30330665D01*
X76898936Y30325000D01*
X78694681Y30325001D01*
X78754292Y30331409D01*
X78889140Y30381704D01*
X79004355Y30467954D01*
X79090605Y30583169D01*
X79140900Y30718017D01*
X79147309Y30777627D01*
X79147309Y31500000D01*
X81644341Y31500000D01*
X81664936Y31264597D01*
X81664938Y31264587D01*
X81726094Y31036345D01*
X81726096Y31036341D01*
X81726097Y31036337D01*
X81744128Y30997670D01*
X81825964Y30822172D01*
X81825965Y30822170D01*
X81961505Y30628598D01*
X82128597Y30461506D01*
X82322169Y30325966D01*
X82322171Y30325965D01*
X82536337Y30226097D01*
X82764592Y30164937D01*
X82941034Y30149500D01*
X83058966Y30149500D01*
X83235408Y30164937D01*
X83463663Y30226097D01*
X83677829Y30325965D01*
X83871401Y30461505D01*
X84038495Y30628599D01*
X84174035Y30822170D01*
X84273903Y31036337D01*
X84335063Y31264592D01*
X84355659Y31500000D01*
X84335063Y31735408D01*
X84273903Y31963663D01*
X84174035Y32177829D01*
X84174034Y32177831D01*
X84038494Y32371403D01*
X83871402Y32538495D01*
X83677830Y32674035D01*
X83677828Y32674036D01*
X83570746Y32723969D01*
X83463663Y32773903D01*
X83463659Y32773904D01*
X83463655Y32773906D01*
X83235413Y32835062D01*
X83235403Y32835064D01*
X83058966Y32850500D01*
X82941034Y32850500D01*
X82764596Y32835064D01*
X82764586Y32835062D01*
X82536344Y32773906D01*
X82536335Y32773902D01*
X82322171Y32674036D01*
X82322169Y32674035D01*
X82128597Y32538495D01*
X81961506Y32371403D01*
X81961501Y32371396D01*
X81825967Y32177835D01*
X81825965Y32177831D01*
X81726098Y31963665D01*
X81726094Y31963656D01*
X81664938Y31735414D01*
X81664936Y31735404D01*
X81644341Y31500001D01*
X81644341Y31500000D01*
X79147309Y31500000D01*
X79147308Y32573372D01*
X79140900Y32632983D01*
X79139619Y32636417D01*
X79090606Y32767829D01*
X79090602Y32767836D01*
X79004356Y32883045D01*
X79004353Y32883048D01*
X78889144Y32969294D01*
X78889137Y32969298D01*
X78754291Y33019592D01*
X78754292Y33019592D01*
X78694692Y33025999D01*
X78694690Y33026000D01*
X78694682Y33026000D01*
X78694673Y33026000D01*
X76898938Y33026000D01*
X76898932Y33025999D01*
X76839325Y33019592D01*
X76704480Y32969298D01*
X76704473Y32969294D01*
X76589264Y32883048D01*
X76589261Y32883045D01*
X76503015Y32767836D01*
X76503012Y32767831D01*
X76453998Y32636417D01*
X76412126Y32580484D01*
X76346662Y32556067D01*
X76278389Y32570919D01*
X76250135Y32592070D01*
X76128211Y32713994D01*
X76128204Y32713999D01*
X75934643Y32849533D01*
X75934639Y32849535D01*
X75932570Y32850500D01*
X75720472Y32949403D01*
X75720468Y32949404D01*
X75720464Y32949406D01*
X75492222Y33010562D01*
X75492212Y33010564D01*
X75256810Y33031159D01*
X75256808Y33031159D01*
X75021405Y33010564D01*
X75021395Y33010562D01*
X74793153Y32949406D01*
X74793144Y32949402D01*
X74578980Y32849536D01*
X74578978Y32849535D01*
X74385406Y32713995D01*
X74218317Y32546906D01*
X74088078Y32360905D01*
X74033501Y32317281D01*
X73964002Y32310088D01*
X73901648Y32341610D01*
X73884928Y32360906D01*
X73754922Y32546574D01*
X73754917Y32546580D01*
X73587891Y32713606D01*
X73394387Y32849101D01*
X73180301Y32948930D01*
X73180295Y32948933D01*
X72966809Y33006136D01*
X72966809Y32111002D01*
X72859124Y32160180D01*
X72752572Y32175500D01*
X72681046Y32175500D01*
X72574494Y32160180D01*
X72466809Y32111002D01*
X72466809Y33006136D01*
X72466808Y33006136D01*
X72253322Y32948933D01*
X72253316Y32948930D01*
X72039231Y32849101D01*
X72039229Y32849100D01*
X71845735Y32713614D01*
X71845729Y32713609D01*
X71678700Y32546580D01*
X71678695Y32546574D01*
X71543209Y32353080D01*
X71543208Y32353078D01*
X71443379Y32138993D01*
X71443376Y32138987D01*
X71387958Y31932161D01*
X71351593Y31872501D01*
X71288746Y31841972D01*
X71219370Y31850267D01*
X71165493Y31894752D01*
X71144218Y31961304D01*
X71144183Y31964255D01*
X71144183Y32573371D01*
X71144182Y32573377D01*
X71137775Y32632984D01*
X71087481Y32767829D01*
X71087477Y32767836D01*
X71001231Y32883045D01*
X71001228Y32883048D01*
X70886019Y32969294D01*
X70886012Y32969298D01*
X70751166Y33019592D01*
X70751167Y33019592D01*
X70691567Y33025999D01*
X70691565Y33026000D01*
X70691557Y33026000D01*
X70691548Y33026000D01*
X68895813Y33026000D01*
X68895807Y33025999D01*
X68836200Y33019592D01*
X68701355Y32969298D01*
X68701348Y32969294D01*
X68586139Y32883048D01*
X68586136Y32883045D01*
X68499890Y32767836D01*
X68499887Y32767831D01*
X68450873Y32636417D01*
X68409001Y32580484D01*
X68343537Y32556067D01*
X68275264Y32570919D01*
X68247010Y32592070D01*
X68125086Y32713994D01*
X68125079Y32713999D01*
X67931518Y32849533D01*
X67931514Y32849535D01*
X67929445Y32850500D01*
X67717347Y32949403D01*
X67717343Y32949404D01*
X67717339Y32949406D01*
X67489097Y33010562D01*
X67489087Y33010564D01*
X67253685Y33031159D01*
X67253683Y33031159D01*
X67018280Y33010564D01*
X67018270Y33010562D01*
X66790028Y32949406D01*
X66790019Y32949402D01*
X66575855Y32849536D01*
X66575853Y32849535D01*
X66382281Y32713995D01*
X66215192Y32546906D01*
X66084953Y32360905D01*
X66030376Y32317281D01*
X65960877Y32310088D01*
X65898523Y32341610D01*
X65881803Y32360906D01*
X65751797Y32546574D01*
X65751792Y32546580D01*
X65584766Y32713606D01*
X65391262Y32849101D01*
X65177176Y32948930D01*
X65177170Y32948933D01*
X64963684Y33006136D01*
X64963684Y32111002D01*
X64855999Y32160180D01*
X64749447Y32175500D01*
X64677921Y32175500D01*
X64571369Y32160180D01*
X64463684Y32111002D01*
X64463684Y33006136D01*
X64463683Y33006136D01*
X64250197Y32948933D01*
X64250191Y32948930D01*
X64036106Y32849101D01*
X64036104Y32849100D01*
X63842610Y32713614D01*
X63842604Y32713609D01*
X63675575Y32546580D01*
X63675570Y32546574D01*
X63540084Y32353080D01*
X63540083Y32353078D01*
X63440254Y32138993D01*
X63440251Y32138987D01*
X63384833Y31932161D01*
X63348468Y31872501D01*
X63285621Y31841972D01*
X63216245Y31850267D01*
X63162368Y31894752D01*
X63141093Y31961304D01*
X63141058Y31964255D01*
X63141058Y32573371D01*
X63141057Y32573377D01*
X63134650Y32632984D01*
X63084356Y32767829D01*
X63084352Y32767836D01*
X62998106Y32883045D01*
X62998103Y32883048D01*
X62882894Y32969294D01*
X62882887Y32969298D01*
X62748041Y33019592D01*
X62748042Y33019592D01*
X62688442Y33025999D01*
X62688440Y33026000D01*
X62688432Y33026000D01*
X62688423Y33026000D01*
X60892688Y33026000D01*
X60892682Y33025999D01*
X60833075Y33019592D01*
X60698230Y32969298D01*
X60698223Y32969294D01*
X60583014Y32883048D01*
X60583011Y32883045D01*
X60496765Y32767836D01*
X60496762Y32767831D01*
X60447748Y32636417D01*
X60405876Y32580484D01*
X60340412Y32556067D01*
X60272139Y32570919D01*
X60243885Y32592070D01*
X60121961Y32713994D01*
X60121954Y32713999D01*
X59928393Y32849533D01*
X59928389Y32849535D01*
X59926320Y32850500D01*
X59714222Y32949403D01*
X59714218Y32949404D01*
X59714214Y32949406D01*
X59485972Y33010562D01*
X59485962Y33010564D01*
X59250560Y33031159D01*
X59250558Y33031159D01*
X59015155Y33010564D01*
X59015145Y33010562D01*
X58786903Y32949406D01*
X58786894Y32949402D01*
X58572730Y32849536D01*
X58572728Y32849535D01*
X58379156Y32713995D01*
X58212067Y32546906D01*
X58081828Y32360905D01*
X58027251Y32317281D01*
X57957752Y32310088D01*
X57895398Y32341610D01*
X57878678Y32360906D01*
X57748672Y32546574D01*
X57748667Y32546580D01*
X57581641Y32713606D01*
X57388137Y32849101D01*
X57174051Y32948930D01*
X57174045Y32948933D01*
X56960559Y33006136D01*
X56960559Y32111002D01*
X56852874Y32160180D01*
X56746322Y32175500D01*
X56674796Y32175500D01*
X56568244Y32160180D01*
X56460559Y32111002D01*
X56460559Y33006136D01*
X56460558Y33006136D01*
X56247072Y32948933D01*
X56247066Y32948930D01*
X56032981Y32849101D01*
X56032979Y32849100D01*
X55839485Y32713614D01*
X55839479Y32713609D01*
X55672450Y32546580D01*
X55672445Y32546574D01*
X55536959Y32353080D01*
X55536958Y32353078D01*
X55437129Y32138993D01*
X55437126Y32138987D01*
X55381708Y31932161D01*
X55345343Y31872501D01*
X55282496Y31841972D01*
X55213120Y31850267D01*
X55159243Y31894752D01*
X55137968Y31961304D01*
X55137933Y31964255D01*
X55137933Y32573371D01*
X55137932Y32573377D01*
X55131525Y32632984D01*
X55081231Y32767829D01*
X55081227Y32767836D01*
X54994981Y32883045D01*
X54994978Y32883048D01*
X54879769Y32969294D01*
X54879762Y32969298D01*
X54744916Y33019592D01*
X54744917Y33019592D01*
X54685317Y33025999D01*
X54685315Y33026000D01*
X54685307Y33026000D01*
X54685298Y33026000D01*
X52889563Y33026000D01*
X52889557Y33025999D01*
X52829950Y33019592D01*
X52695105Y32969298D01*
X52695098Y32969294D01*
X52579889Y32883048D01*
X52579886Y32883045D01*
X52493640Y32767836D01*
X52493637Y32767831D01*
X52444623Y32636417D01*
X52402751Y32580484D01*
X52337287Y32556067D01*
X52269014Y32570919D01*
X52240760Y32592070D01*
X52118836Y32713994D01*
X52118829Y32713999D01*
X51925268Y32849533D01*
X51925264Y32849535D01*
X51923195Y32850500D01*
X51711097Y32949403D01*
X51711093Y32949404D01*
X51711089Y32949406D01*
X51482847Y33010562D01*
X51482837Y33010564D01*
X51247435Y33031159D01*
X51247433Y33031159D01*
X51012030Y33010564D01*
X51012020Y33010562D01*
X50783778Y32949406D01*
X50783769Y32949402D01*
X50569605Y32849536D01*
X50569603Y32849535D01*
X50376031Y32713995D01*
X50208942Y32546906D01*
X50078703Y32360905D01*
X50024126Y32317281D01*
X49954627Y32310088D01*
X49892273Y32341610D01*
X49875553Y32360906D01*
X49745547Y32546574D01*
X49745542Y32546580D01*
X49578516Y32713606D01*
X49385012Y32849101D01*
X49170926Y32948930D01*
X49170920Y32948933D01*
X48957434Y33006136D01*
X48957434Y32111002D01*
X48849749Y32160180D01*
X48743197Y32175500D01*
X48671671Y32175500D01*
X48565119Y32160180D01*
X48457434Y32111002D01*
X48457434Y33006136D01*
X48457433Y33006136D01*
X48243947Y32948933D01*
X48243941Y32948930D01*
X48029856Y32849101D01*
X48029854Y32849100D01*
X47836360Y32713614D01*
X47836354Y32713609D01*
X47669325Y32546580D01*
X47669320Y32546574D01*
X47533834Y32353080D01*
X47533833Y32353078D01*
X47434004Y32138993D01*
X47434001Y32138987D01*
X47378583Y31932161D01*
X47342218Y31872501D01*
X47279371Y31841972D01*
X47209995Y31850267D01*
X47156118Y31894752D01*
X47134843Y31961304D01*
X47134808Y31964255D01*
X47134808Y32573371D01*
X47134807Y32573377D01*
X47128400Y32632984D01*
X47078106Y32767829D01*
X47078102Y32767836D01*
X46991856Y32883045D01*
X46991853Y32883048D01*
X46876644Y32969294D01*
X46876637Y32969298D01*
X46741791Y33019592D01*
X46741792Y33019592D01*
X46682192Y33025999D01*
X46682190Y33026000D01*
X46682182Y33026000D01*
X46682173Y33026000D01*
X44886438Y33026000D01*
X44886432Y33025999D01*
X44826825Y33019592D01*
X44691980Y32969298D01*
X44691973Y32969294D01*
X44576764Y32883048D01*
X44576761Y32883045D01*
X44490515Y32767836D01*
X44490512Y32767831D01*
X44441498Y32636417D01*
X44399626Y32580484D01*
X44334162Y32556067D01*
X44265889Y32570919D01*
X44237635Y32592070D01*
X44115711Y32713994D01*
X44115704Y32713999D01*
X43922143Y32849533D01*
X43922139Y32849535D01*
X43920070Y32850500D01*
X43707972Y32949403D01*
X43707968Y32949404D01*
X43707964Y32949406D01*
X43479722Y33010562D01*
X43479712Y33010564D01*
X43244310Y33031159D01*
X43244308Y33031159D01*
X43008905Y33010564D01*
X43008895Y33010562D01*
X42780653Y32949406D01*
X42780644Y32949402D01*
X42566480Y32849536D01*
X42566478Y32849535D01*
X42372906Y32713995D01*
X42205817Y32546906D01*
X42075578Y32360905D01*
X42021001Y32317281D01*
X41951502Y32310088D01*
X41889148Y32341610D01*
X41872428Y32360906D01*
X41742422Y32546574D01*
X41742417Y32546580D01*
X41575391Y32713606D01*
X41381887Y32849101D01*
X41167801Y32948930D01*
X41167795Y32948933D01*
X40954309Y33006136D01*
X40954309Y32111002D01*
X40846624Y32160180D01*
X40740072Y32175500D01*
X40668546Y32175500D01*
X40561994Y32160180D01*
X40454309Y32111002D01*
X40454309Y33006136D01*
X40454308Y33006136D01*
X40240822Y32948933D01*
X40240816Y32948930D01*
X40026731Y32849101D01*
X40026729Y32849100D01*
X39833235Y32713614D01*
X39833229Y32713609D01*
X39666200Y32546580D01*
X39666195Y32546574D01*
X39530709Y32353080D01*
X39530708Y32353078D01*
X39430879Y32138993D01*
X39430876Y32138987D01*
X39375458Y31932161D01*
X39339093Y31872501D01*
X39276246Y31841972D01*
X39206870Y31850267D01*
X39152993Y31894752D01*
X39131718Y31961304D01*
X39131683Y31964255D01*
X39131683Y32573371D01*
X39131682Y32573377D01*
X39125275Y32632984D01*
X39074981Y32767829D01*
X39074977Y32767836D01*
X38988731Y32883045D01*
X38988728Y32883048D01*
X38873519Y32969294D01*
X38873512Y32969298D01*
X38738666Y33019592D01*
X38738667Y33019592D01*
X38679067Y33025999D01*
X38679065Y33026000D01*
X38679057Y33026000D01*
X38679048Y33026000D01*
X36883313Y33026000D01*
X36883307Y33025999D01*
X36823700Y33019592D01*
X36688855Y32969298D01*
X36688848Y32969294D01*
X36573639Y32883048D01*
X36573636Y32883045D01*
X36487390Y32767836D01*
X36487387Y32767831D01*
X36438373Y32636417D01*
X36396501Y32580484D01*
X36331037Y32556067D01*
X36262764Y32570919D01*
X36234510Y32592070D01*
X36112586Y32713994D01*
X36112579Y32713999D01*
X35919018Y32849533D01*
X35919014Y32849535D01*
X35916945Y32850500D01*
X35704847Y32949403D01*
X35704843Y32949404D01*
X35704839Y32949406D01*
X35476597Y33010562D01*
X35476587Y33010564D01*
X35241185Y33031159D01*
X35241183Y33031159D01*
X35005780Y33010564D01*
X35005770Y33010562D01*
X34777528Y32949406D01*
X34777519Y32949402D01*
X34563355Y32849536D01*
X34563353Y32849535D01*
X34369781Y32713995D01*
X34202692Y32546906D01*
X34072453Y32360905D01*
X34017876Y32317281D01*
X33948377Y32310088D01*
X33886023Y32341610D01*
X33869303Y32360906D01*
X33739297Y32546574D01*
X33739292Y32546580D01*
X33572266Y32713606D01*
X33378762Y32849101D01*
X33164676Y32948930D01*
X33164670Y32948933D01*
X32951184Y33006136D01*
X32951184Y32111002D01*
X32843499Y32160180D01*
X32736947Y32175500D01*
X32665421Y32175500D01*
X32558869Y32160180D01*
X32451184Y32111002D01*
X32451184Y33006136D01*
X32451183Y33006136D01*
X32237697Y32948933D01*
X32237691Y32948930D01*
X32023606Y32849101D01*
X32023604Y32849100D01*
X31830110Y32713614D01*
X31830104Y32713609D01*
X31663075Y32546580D01*
X31663070Y32546574D01*
X31527584Y32353080D01*
X31527583Y32353078D01*
X31427754Y32138993D01*
X31427751Y32138987D01*
X31372333Y31932161D01*
X31335968Y31872501D01*
X31273121Y31841972D01*
X31203745Y31850267D01*
X31149868Y31894752D01*
X31128593Y31961304D01*
X31128558Y31964255D01*
X31128558Y32573371D01*
X31128557Y32573377D01*
X31122150Y32632984D01*
X31071856Y32767829D01*
X31071852Y32767836D01*
X30985606Y32883045D01*
X30985603Y32883048D01*
X30870394Y32969294D01*
X30870387Y32969298D01*
X30735541Y33019592D01*
X30735542Y33019592D01*
X30675942Y33025999D01*
X30675940Y33026000D01*
X30675932Y33026000D01*
X30675923Y33026000D01*
X28880188Y33026000D01*
X28880182Y33025999D01*
X28820575Y33019592D01*
X28685730Y32969298D01*
X28685723Y32969294D01*
X28570514Y32883048D01*
X28570511Y32883045D01*
X28484265Y32767836D01*
X28484262Y32767831D01*
X28435248Y32636417D01*
X28393376Y32580484D01*
X28327912Y32556067D01*
X28259639Y32570919D01*
X28231385Y32592070D01*
X28109461Y32713994D01*
X28109454Y32713999D01*
X27915893Y32849533D01*
X27915889Y32849535D01*
X27913820Y32850500D01*
X27701722Y32949403D01*
X27701718Y32949404D01*
X27701714Y32949406D01*
X27473472Y33010562D01*
X27473462Y33010564D01*
X27238060Y33031159D01*
X27238058Y33031159D01*
X27002655Y33010564D01*
X27002645Y33010562D01*
X26774403Y32949406D01*
X26774394Y32949402D01*
X26560230Y32849536D01*
X26560228Y32849535D01*
X26366656Y32713995D01*
X26199567Y32546906D01*
X26069328Y32360905D01*
X26014751Y32317281D01*
X25945252Y32310088D01*
X25882898Y32341610D01*
X25866178Y32360906D01*
X25736172Y32546574D01*
X25736167Y32546580D01*
X25569141Y32713606D01*
X25375637Y32849101D01*
X25161551Y32948930D01*
X25161545Y32948933D01*
X24948059Y33006136D01*
X24948059Y32111002D01*
X24840374Y32160180D01*
X24733822Y32175500D01*
X24662296Y32175500D01*
X24555744Y32160180D01*
X24448059Y32111002D01*
X24448059Y33006136D01*
X24448058Y33006136D01*
X24234572Y32948933D01*
X24234566Y32948930D01*
X24020481Y32849101D01*
X24020479Y32849100D01*
X23826985Y32713614D01*
X23826979Y32713609D01*
X23659950Y32546580D01*
X23659945Y32546574D01*
X23524459Y32353080D01*
X23524458Y32353078D01*
X23424629Y32138993D01*
X23424626Y32138987D01*
X23369208Y31932161D01*
X23332843Y31872501D01*
X23269996Y31841972D01*
X23200620Y31850267D01*
X23146743Y31894752D01*
X23125468Y31961304D01*
X23125433Y31964255D01*
X23125433Y32573371D01*
X23125432Y32573377D01*
X23119025Y32632984D01*
X23068731Y32767829D01*
X23068727Y32767836D01*
X22982481Y32883045D01*
X22982478Y32883048D01*
X22867269Y32969294D01*
X22867262Y32969298D01*
X22732416Y33019592D01*
X22732417Y33019592D01*
X22672817Y33025999D01*
X22672815Y33026000D01*
X22672807Y33026000D01*
X22672798Y33026000D01*
X20877063Y33026000D01*
X20877057Y33025999D01*
X20817450Y33019592D01*
X20682605Y32969298D01*
X20682598Y32969294D01*
X20567389Y32883048D01*
X20567386Y32883045D01*
X20481140Y32767836D01*
X20481137Y32767831D01*
X20432123Y32636417D01*
X20390251Y32580484D01*
X20324787Y32556067D01*
X20256514Y32570919D01*
X20228260Y32592070D01*
X20106336Y32713994D01*
X20106329Y32713999D01*
X19912768Y32849533D01*
X19912764Y32849535D01*
X19910695Y32850500D01*
X19698597Y32949403D01*
X19698593Y32949404D01*
X19698589Y32949406D01*
X19470347Y33010562D01*
X19470337Y33010564D01*
X19234935Y33031159D01*
X19234933Y33031159D01*
X18999530Y33010564D01*
X18999520Y33010562D01*
X18771278Y32949406D01*
X18771269Y32949402D01*
X18557105Y32849536D01*
X18557103Y32849535D01*
X18363531Y32713995D01*
X18196442Y32546906D01*
X18066203Y32360905D01*
X18011626Y32317281D01*
X17942127Y32310088D01*
X17879773Y32341610D01*
X17863053Y32360906D01*
X17733047Y32546574D01*
X17733042Y32546580D01*
X17566016Y32713606D01*
X17372512Y32849101D01*
X17158426Y32948930D01*
X17158420Y32948933D01*
X16944934Y33006136D01*
X16944934Y32111002D01*
X16837249Y32160180D01*
X16730697Y32175500D01*
X16659171Y32175500D01*
X16552619Y32160180D01*
X16444934Y32111002D01*
X16444934Y33006136D01*
X16444933Y33006136D01*
X16231447Y32948933D01*
X16231441Y32948930D01*
X16017356Y32849101D01*
X16017354Y32849100D01*
X15823860Y32713614D01*
X15823854Y32713609D01*
X15656825Y32546580D01*
X15656820Y32546574D01*
X15521334Y32353080D01*
X15521333Y32353078D01*
X15421504Y32138993D01*
X15421501Y32138987D01*
X15366083Y31932161D01*
X15329718Y31872501D01*
X15266871Y31841972D01*
X15197495Y31850267D01*
X15143618Y31894752D01*
X15122343Y31961304D01*
X15122308Y31964255D01*
X15122308Y32573371D01*
X15122307Y32573377D01*
X15115900Y32632984D01*
X15065606Y32767829D01*
X15065602Y32767836D01*
X14979356Y32883045D01*
X14979353Y32883048D01*
X14864144Y32969294D01*
X14864137Y32969298D01*
X14729291Y33019592D01*
X14729292Y33019592D01*
X14669692Y33025999D01*
X14669690Y33026000D01*
X14669682Y33026000D01*
X14669673Y33026000D01*
X12873938Y33026000D01*
X12873932Y33025999D01*
X12814325Y33019592D01*
X12679480Y32969298D01*
X12679473Y32969294D01*
X12564264Y32883048D01*
X12564261Y32883045D01*
X12478015Y32767836D01*
X12478012Y32767831D01*
X12428998Y32636417D01*
X12387126Y32580484D01*
X12321662Y32556067D01*
X12253389Y32570919D01*
X12225135Y32592070D01*
X12103211Y32713994D01*
X12103204Y32713999D01*
X11909643Y32849533D01*
X11909639Y32849535D01*
X11907570Y32850500D01*
X11695472Y32949403D01*
X11695468Y32949404D01*
X11695464Y32949406D01*
X11467222Y33010562D01*
X11467212Y33010564D01*
X11231810Y33031159D01*
X11231808Y33031159D01*
X10996405Y33010564D01*
X10996395Y33010562D01*
X10768153Y32949406D01*
X10768144Y32949402D01*
X10553980Y32849536D01*
X10553978Y32849535D01*
X10360406Y32713995D01*
X10193317Y32546906D01*
X10063078Y32360905D01*
X10008501Y32317281D01*
X9939002Y32310088D01*
X9876648Y32341610D01*
X9859928Y32360906D01*
X9729922Y32546574D01*
X9729917Y32546580D01*
X9562891Y32713606D01*
X9369387Y32849101D01*
X9155301Y32948930D01*
X9155295Y32948933D01*
X8941809Y33006136D01*
X8941809Y32111002D01*
X8834124Y32160180D01*
X8727572Y32175500D01*
X8656046Y32175500D01*
X8549494Y32160180D01*
X8441809Y32111002D01*
X8441809Y33006136D01*
X8441808Y33006136D01*
X8228322Y32948933D01*
X8228316Y32948930D01*
X8014231Y32849101D01*
X8014229Y32849100D01*
X7820735Y32713614D01*
X7820729Y32713609D01*
X7653700Y32546580D01*
X7653695Y32546574D01*
X7518209Y32353080D01*
X7518208Y32353078D01*
X7418379Y32138993D01*
X7418376Y32138987D01*
X7361173Y31925501D01*
X7361173Y31925500D01*
X8258123Y31925500D01*
X8232316Y31885344D01*
X8191809Y31747389D01*
X8191809Y31603611D01*
X8232316Y31465656D01*
X8258123Y31425500D01*
X7361173Y31425500D01*
X4935907Y31425500D01*
X5064808Y31554401D01*
X4130015Y32489194D01*
X2920703Y32489194D01*
X2871402Y32538495D01*
X2677830Y32674035D01*
X2677828Y32674036D01*
X2570746Y32723969D01*
X2463663Y32773903D01*
X2463659Y32773904D01*
X2463655Y32773906D01*
X2235413Y32835062D01*
X2235403Y32835064D01*
X2058966Y32850500D01*
X1941034Y32850500D01*
X1764596Y32835064D01*
X1764586Y32835062D01*
X1536344Y32773906D01*
X1536335Y32773902D01*
X1322171Y32674036D01*
X1322169Y32674035D01*
X1128597Y32538495D01*
X961506Y32371403D01*
X961501Y32371396D01*
X825967Y32177835D01*
X825965Y32177831D01*
X726098Y31963665D01*
X726094Y31963656D01*
X664938Y31735414D01*
X664936Y31735404D01*
X644341Y31500001D01*
X644341Y31500000D01*
X-166667Y31500000D01*
X-6533Y32460807D01*
X23905Y32523696D01*
X28079Y32528080D01*
X973452Y33473452D01*
X1034775Y33506937D01*
X1036815Y33507363D01*
X2235460Y33747092D01*
X2259778Y33749500D01*
X82986736Y33749500D01*
X83016806Y33745799D01*
G37*
%TD.AperFunction*%
%TD*%
M02*
