%TF.GenerationSoftware,KiCad,Pcbnew,7.0.9*%
%TF.CreationDate,2024-01-21T19:27:47-06:00*%
%TF.ProjectId,Tei,5465692e-6b69-4636-9164-5f7063625858,1*%
%TF.SameCoordinates,Original*%
%TF.FileFunction,Copper,L1,Top*%
%TF.FilePolarity,Positive*%
%FSLAX46Y46*%
G04 Gerber Fmt 4.6, Leading zero omitted, Abs format (unit mm)*
G04 Created by KiCad (PCBNEW 7.0.9) date 2024-01-21 19:27:47*
%MOMM*%
%LPD*%
G01*
G04 APERTURE LIST*
G04 Aperture macros list*
%AMRoundRect*
0 Rectangle with rounded corners*
0 $1 Rounding radius*
0 $2 $3 $4 $5 $6 $7 $8 $9 X,Y pos of 4 corners*
0 Add a 4 corners polygon primitive as box body*
4,1,4,$2,$3,$4,$5,$6,$7,$8,$9,$2,$3,0*
0 Add four circle primitives for the rounded corners*
1,1,$1+$1,$2,$3*
1,1,$1+$1,$4,$5*
1,1,$1+$1,$6,$7*
1,1,$1+$1,$8,$9*
0 Add four rect primitives between the rounded corners*
20,1,$1+$1,$2,$3,$4,$5,0*
20,1,$1+$1,$4,$5,$6,$7,0*
20,1,$1+$1,$6,$7,$8,$9,0*
20,1,$1+$1,$8,$9,$2,$3,0*%
G04 Aperture macros list end*
%TA.AperFunction,ComponentPad*%
%ADD10R,1.700000X1.700000*%
%TD*%
%TA.AperFunction,ComponentPad*%
%ADD11O,1.700000X1.700000*%
%TD*%
%TA.AperFunction,SMDPad,CuDef*%
%ADD12RoundRect,0.250000X-0.450000X-0.425000X0.450000X-0.425000X0.450000X0.425000X-0.450000X0.425000X0*%
%TD*%
%TA.AperFunction,SMDPad,CuDef*%
%ADD13RoundRect,0.250000X0.337500X0.475000X-0.337500X0.475000X-0.337500X-0.475000X0.337500X-0.475000X0*%
%TD*%
%TA.AperFunction,SMDPad,CuDef*%
%ADD14RoundRect,0.250000X-0.450000X0.350000X-0.450000X-0.350000X0.450000X-0.350000X0.450000X0.350000X0*%
%TD*%
%TA.AperFunction,SMDPad,CuDef*%
%ADD15RoundRect,0.250000X-0.337500X-0.475000X0.337500X-0.475000X0.337500X0.475000X-0.337500X0.475000X0*%
%TD*%
%TA.AperFunction,SMDPad,CuDef*%
%ADD16R,0.450000X1.750000*%
%TD*%
%TA.AperFunction,ComponentPad*%
%ADD17R,1.600000X1.600000*%
%TD*%
%TA.AperFunction,ComponentPad*%
%ADD18O,1.600000X1.600000*%
%TD*%
%TA.AperFunction,SMDPad,CuDef*%
%ADD19RoundRect,0.250000X0.450000X-0.350000X0.450000X0.350000X-0.450000X0.350000X-0.450000X-0.350000X0*%
%TD*%
%TA.AperFunction,SMDPad,CuDef*%
%ADD20RoundRect,0.250000X-0.450000X0.325000X-0.450000X-0.325000X0.450000X-0.325000X0.450000X0.325000X0*%
%TD*%
%TA.AperFunction,SMDPad,CuDef*%
%ADD21R,1.500000X2.000000*%
%TD*%
%TA.AperFunction,SMDPad,CuDef*%
%ADD22R,3.800000X2.000000*%
%TD*%
%TA.AperFunction,SMDPad,CuDef*%
%ADD23R,0.800000X1.000000*%
%TD*%
%TA.AperFunction,SMDPad,CuDef*%
%ADD24R,1.500000X0.700000*%
%TD*%
%TA.AperFunction,SMDPad,CuDef*%
%ADD25R,1.000000X2.500000*%
%TD*%
%TA.AperFunction,ComponentPad*%
%ADD26R,3.800000X3.800000*%
%TD*%
%TA.AperFunction,ComponentPad*%
%ADD27C,4.000000*%
%TD*%
%TA.AperFunction,ComponentPad*%
%ADD28RoundRect,0.250000X-0.600000X-0.750000X0.600000X-0.750000X0.600000X0.750000X-0.600000X0.750000X0*%
%TD*%
%TA.AperFunction,ComponentPad*%
%ADD29O,1.700000X2.000000*%
%TD*%
%TA.AperFunction,ViaPad*%
%ADD30C,0.800000*%
%TD*%
%TA.AperFunction,ViaPad*%
%ADD31C,1.800000*%
%TD*%
%TA.AperFunction,Conductor*%
%ADD32C,0.250000*%
%TD*%
%TA.AperFunction,Conductor*%
%ADD33C,0.600000*%
%TD*%
%TA.AperFunction,Conductor*%
%ADD34C,0.500000*%
%TD*%
G04 APERTURE END LIST*
D10*
%TO.P,J7,1,Pin_1*%
%TO.N,+5V*%
X29778059Y31675500D03*
D11*
%TO.P,J7,2,Pin_2*%
%TO.N,SENS5*%
X27238059Y31675500D03*
%TO.P,J7,3,Pin_3*%
%TO.N,GND*%
X24698059Y31675500D03*
%TD*%
D12*
%TO.P,C5,1*%
%TO.N,VM*%
X29208684Y24025500D03*
%TO.P,C5,2*%
%TO.N,GND*%
X31908684Y24025500D03*
%TD*%
D13*
%TO.P,C3,1*%
%TO.N,GND*%
X33596184Y21525500D03*
%TO.P,C3,2*%
%TO.N,+5V*%
X31521184Y21525500D03*
%TD*%
D10*
%TO.P,J6,1,Pin_1*%
%TO.N,+5V*%
X37781184Y31675500D03*
D11*
%TO.P,J6,2,Pin_2*%
%TO.N,SENS4*%
X35241184Y31675500D03*
%TO.P,J6,3,Pin_3*%
%TO.N,GND*%
X32701184Y31675500D03*
%TD*%
D14*
%TO.P,R5,1*%
%TO.N,Net-(A1-D10)*%
X17458684Y12895500D03*
%TO.P,R5,2*%
%TO.N,GND*%
X17458684Y10895500D03*
%TD*%
D10*
%TO.P,J5,1,Pin_1*%
%TO.N,+5V*%
X45784309Y31675500D03*
D11*
%TO.P,J5,2,Pin_2*%
%TO.N,SENS3*%
X43244309Y31675500D03*
%TO.P,J5,3,Pin_3*%
%TO.N,GND*%
X40704309Y31675500D03*
%TD*%
D13*
%TO.P,C4,1*%
%TO.N,GND*%
X29596184Y21525500D03*
%TO.P,C4,2*%
%TO.N,VM*%
X27521184Y21525500D03*
%TD*%
D15*
%TO.P,C1,1*%
%TO.N,VM*%
X5421184Y23664113D03*
%TO.P,C1,2*%
%TO.N,GND*%
X7496184Y23664113D03*
%TD*%
D10*
%TO.P,J4,1,Pin_1*%
%TO.N,+5V*%
X53787434Y31675500D03*
D11*
%TO.P,J4,2,Pin_2*%
%TO.N,SENS2*%
X51247434Y31675500D03*
%TO.P,J4,3,Pin_3*%
%TO.N,GND*%
X48707434Y31675500D03*
%TD*%
D16*
%TO.P,U1,1,AO1*%
%TO.N,Net-(J13-Pin_1)*%
X26983684Y10905500D03*
%TO.P,U1,2,AO1*%
X27633684Y10905500D03*
%TO.P,U1,3,PGND1*%
%TO.N,GND*%
X28283684Y10905500D03*
%TO.P,U1,4,PGND1*%
X28933684Y10905500D03*
%TO.P,U1,5,AO2*%
%TO.N,Net-(J13-Pin_2)*%
X29583684Y10905500D03*
%TO.P,U1,6,AO2*%
X30233684Y10905500D03*
%TO.P,U1,7,BO2*%
%TO.N,Net-(J14-Pin_1)*%
X30883684Y10905500D03*
%TO.P,U1,8,BO2*%
X31533684Y10905500D03*
%TO.P,U1,9,PGND2*%
%TO.N,GND*%
X32183684Y10905500D03*
%TO.P,U1,10,PGND2*%
X32833684Y10905500D03*
%TO.P,U1,11,BO1*%
%TO.N,Net-(J14-Pin_2)*%
X33483684Y10905500D03*
%TO.P,U1,12,BO1*%
X34133684Y10905500D03*
%TO.P,U1,13,VM2*%
%TO.N,VM*%
X34133684Y18105500D03*
%TO.P,U1,14,VM3*%
X33483684Y18105500D03*
%TO.P,U1,15,PWMB*%
%TO.N,PWMB*%
X32833684Y18105500D03*
%TO.P,U1,16,BIN2*%
%TO.N,MB2*%
X32183684Y18105500D03*
%TO.P,U1,17,BIN1*%
%TO.N,MB1*%
X31533684Y18105500D03*
%TO.P,U1,18,GND*%
%TO.N,GND*%
X30883684Y18105500D03*
%TO.P,U1,19,STBY*%
%TO.N,STBY*%
X30233684Y18105500D03*
%TO.P,U1,20,VCC*%
%TO.N,+5V*%
X29583684Y18105500D03*
%TO.P,U1,21,AIN1*%
%TO.N,MA1*%
X28933684Y18105500D03*
%TO.P,U1,22,AIN2*%
%TO.N,MA2*%
X28283684Y18105500D03*
%TO.P,U1,23,PWMA*%
%TO.N,PWMA*%
X27633684Y18105500D03*
%TO.P,U1,24,VM1*%
%TO.N,VM*%
X26983684Y18105500D03*
%TD*%
D17*
%TO.P,A1,1,D1/TX*%
%TO.N,TX*%
X40818684Y11285500D03*
D18*
%TO.P,A1,2,D0/RX*%
%TO.N,RX*%
X43358684Y11285500D03*
%TO.P,A1,3,~{RESET}*%
%TO.N,unconnected-(A1-~{RESET}-Pad3)*%
X45898684Y11285500D03*
%TO.P,A1,4,GND*%
%TO.N,GND*%
X48438684Y11285500D03*
%TO.P,A1,5,D2*%
%TO.N,MA2*%
X50978684Y11285500D03*
%TO.P,A1,6,D3*%
%TO.N,MA1*%
X53518684Y11285500D03*
%TO.P,A1,7,D4*%
%TO.N,STBY*%
X56058684Y11285500D03*
%TO.P,A1,8,D5*%
%TO.N,PWMA*%
X58598684Y11285500D03*
%TO.P,A1,9,D6*%
%TO.N,PWMB*%
X61138684Y11285500D03*
%TO.P,A1,10,D7*%
%TO.N,MB1*%
X63678684Y11285500D03*
%TO.P,A1,11,D8*%
%TO.N,MB2*%
X66218684Y11285500D03*
%TO.P,A1,12,D9*%
%TO.N,REMOTE*%
X68758684Y11285500D03*
%TO.P,A1,13,D10*%
%TO.N,Net-(A1-D10)*%
X71298684Y11285500D03*
%TO.P,A1,14,D11*%
%TO.N,Net-(A1-D11)*%
X73838684Y11285500D03*
%TO.P,A1,15,D12*%
%TO.N,Net-(A1-D12)*%
X76378684Y11285500D03*
%TO.P,A1,16,D13*%
%TO.N,Net-(A1-D13)*%
X76378684Y26525500D03*
%TO.P,A1,17,3V3*%
%TO.N,+3.3V*%
X73838684Y26525500D03*
%TO.P,A1,18,AREF*%
%TO.N,unconnected-(A1-AREF-Pad18)*%
X71298684Y26525500D03*
%TO.P,A1,19,A0*%
%TO.N,SENS0*%
X68758684Y26525500D03*
%TO.P,A1,20,A1*%
%TO.N,SENS1*%
X66218684Y26525500D03*
%TO.P,A1,21,A2*%
%TO.N,SENS2*%
X63678684Y26525500D03*
%TO.P,A1,22,A3*%
%TO.N,SENS3*%
X61138684Y26525500D03*
%TO.P,A1,23,A4*%
%TO.N,SENS4*%
X58598684Y26525500D03*
%TO.P,A1,24,A5*%
%TO.N,SENS5*%
X56058684Y26525500D03*
%TO.P,A1,25,A6*%
%TO.N,SENS6*%
X53518684Y26525500D03*
%TO.P,A1,26,A7*%
%TO.N,SENS7*%
X50978684Y26525500D03*
%TO.P,A1,27,+5V*%
%TO.N,unconnected-(A1-+5V-Pad27)*%
X48438684Y26525500D03*
%TO.P,A1,28,~{RESET}*%
%TO.N,unconnected-(A1-~{RESET}-Pad28)*%
X45898684Y26525500D03*
%TO.P,A1,29,GND*%
%TO.N,GND*%
X43358684Y26525500D03*
%TO.P,A1,30,VIN*%
%TO.N,+5V*%
X40818684Y26525500D03*
%TD*%
D19*
%TO.P,R2,1*%
%TO.N,Net-(A1-D13)*%
X17458684Y24895500D03*
%TO.P,R2,2*%
%TO.N,GND*%
X17458684Y26895500D03*
%TD*%
D10*
%TO.P,Bluetooth Adapter,1,Pin_1*%
%TO.N,RX*%
X53518684Y5125500D03*
D11*
%TO.P,Bluetooth Adapter,2,Pin_2*%
%TO.N,TX*%
X50978684Y5125500D03*
%TO.P,Bluetooth Adapter,3,Pin_3*%
%TO.N,GND*%
X48438684Y5125500D03*
%TO.P,Bluetooth Adapter,4,Pin_4*%
%TO.N,+5V*%
X45898684Y5125500D03*
%TD*%
D20*
%TO.P,D1,1,K*%
%TO.N,GND*%
X13058684Y19814113D03*
%TO.P,D1,2,A*%
%TO.N,Net-(D1-A)*%
X13058684Y17764113D03*
%TD*%
D21*
%TO.P,U2,1,GND*%
%TO.N,GND*%
X10758684Y19814113D03*
%TO.P,U2,2,VO*%
%TO.N,+5V*%
X8458684Y19814113D03*
D22*
X8458684Y13514113D03*
D21*
%TO.P,U2,3,VI*%
%TO.N,VM*%
X6158684Y19814113D03*
%TD*%
D19*
%TO.P,R1,1*%
%TO.N,+5V*%
X13058684Y13514113D03*
%TO.P,R1,2*%
%TO.N,Net-(D1-A)*%
X13058684Y15514113D03*
%TD*%
D10*
%TO.P,J2,1,Pin_1*%
%TO.N,+5V*%
X69793684Y31675500D03*
D11*
%TO.P,J2,2,Pin_2*%
%TO.N,SENS0*%
X67253684Y31675500D03*
%TO.P,J2,3,Pin_3*%
%TO.N,GND*%
X64713684Y31675500D03*
%TD*%
D23*
%TO.P,SW1,*%
%TO.N,*%
X7723684Y11345500D03*
X5513684Y11345500D03*
X7723684Y4045500D03*
X5513684Y4045500D03*
D24*
%TO.P,SW1,1,A*%
%TO.N,VM*%
X8373684Y9945500D03*
%TO.P,SW1,2,B*%
%TO.N,Net-(J1-Pin_2)*%
X8373684Y6945500D03*
%TO.P,SW1,3,C*%
%TO.N,unconnected-(SW1-C-Pad3)*%
X8373684Y5445500D03*
%TD*%
D25*
%TO.P,SW2,1,1*%
%TO.N,Net-(A1-D10)*%
X17418684Y15645500D03*
%TO.P,SW2,2,2*%
%TO.N,Net-(A1-D11)*%
X22498684Y22145500D03*
%TO.P,SW2,4,4*%
%TO.N,Net-(A1-D12)*%
X22498684Y15645500D03*
%TO.P,SW2,8,8*%
%TO.N,Net-(A1-D13)*%
X17418684Y22145500D03*
%TO.P,SW2,C,C*%
%TO.N,+5V*%
X19958684Y15645500D03*
X19958684Y22145500D03*
%TD*%
D10*
%TO.P,J12,1,Pin_1*%
%TO.N,+5V*%
X77796809Y31675500D03*
D11*
%TO.P,J12,2,Pin_2*%
%TO.N,+3.3V*%
X75256809Y31675500D03*
%TO.P,J12,3,Pin_3*%
%TO.N,GND*%
X72716809Y31675500D03*
%TD*%
D19*
%TO.P,R4,1*%
%TO.N,Net-(A1-D11)*%
X22458684Y24895500D03*
%TO.P,R4,2*%
%TO.N,GND*%
X22458684Y26895500D03*
%TD*%
D15*
%TO.P,C2,1*%
%TO.N,+5V*%
X9421184Y23664113D03*
%TO.P,C2,2*%
%TO.N,GND*%
X11496184Y23664113D03*
%TD*%
D10*
%TO.P,J3,1,Pin_1*%
%TO.N,+5V*%
X61790559Y31675500D03*
D11*
%TO.P,J3,2,Pin_2*%
%TO.N,SENS1*%
X59250559Y31675500D03*
%TO.P,J3,3,Pin_3*%
%TO.N,GND*%
X56710559Y31675500D03*
%TD*%
D10*
%TO.P,J8,1,Pin_1*%
%TO.N,+5V*%
X21774934Y31675500D03*
D11*
%TO.P,J8,2,Pin_2*%
%TO.N,SENS6*%
X19234934Y31675500D03*
%TO.P,J8,3,Pin_3*%
%TO.N,GND*%
X16694934Y31675500D03*
%TD*%
D10*
%TO.P,J9,1,Pin_1*%
%TO.N,+5V*%
X13771809Y31675500D03*
D11*
%TO.P,J9,2,Pin_2*%
%TO.N,SENS7*%
X11231809Y31675500D03*
%TO.P,J9,3,Pin_3*%
%TO.N,GND*%
X8691809Y31675500D03*
%TD*%
D26*
%TO.P,J1,1,Pin_1*%
%TO.N,GND*%
X18468684Y4295500D03*
D27*
%TO.P,J1,2,Pin_2*%
%TO.N,Net-(J1-Pin_2)*%
X13468684Y4295500D03*
%TD*%
D14*
%TO.P,R3,1*%
%TO.N,Net-(A1-D12)*%
X22458684Y12895500D03*
%TO.P,R3,2*%
%TO.N,GND*%
X22458684Y10895500D03*
%TD*%
D28*
%TO.P,J14,1,Pin_1*%
%TO.N,Net-(J14-Pin_1)*%
X33683684Y5125500D03*
D29*
%TO.P,J14,2,Pin_2*%
%TO.N,Net-(J14-Pin_2)*%
X36183684Y5125500D03*
%TD*%
D28*
%TO.P,J13,1,Pin_1*%
%TO.N,Net-(J13-Pin_1)*%
X24933684Y5100500D03*
D29*
%TO.P,J13,2,Pin_2*%
%TO.N,Net-(J13-Pin_2)*%
X27433684Y5100500D03*
%TD*%
D10*
%TO.P,REMOTE,1,Pin_1*%
%TO.N,unconnected-(J11-Pin_1-Pad1)*%
X66218684Y5125500D03*
D11*
%TO.P,REMOTE,2,Pin_2*%
%TO.N,REMOTE*%
X68758684Y5125500D03*
%TO.P,REMOTE,3,Pin_3*%
%TO.N,GND*%
X71298684Y5125500D03*
%TO.P,REMOTE,4,Pin_4*%
%TO.N,+5V*%
X73838684Y5125500D03*
%TD*%
D30*
%TO.N,PWMA*%
X27943689Y16315895D03*
%TO.N,PWMB*%
X36163684Y16750000D03*
%TO.N,Net-(A1-D10)*%
X46310529Y13584771D03*
%TO.N,Net-(A1-D11)*%
X23763684Y24151000D03*
%TO.N,Net-(A1-D12)*%
X47202073Y14037513D03*
%TO.N,Net-(A1-D13)*%
X18763684Y24875500D03*
D31*
%TO.N,VM*%
X10568684Y9895500D03*
X7084822Y17908740D03*
X24708684Y21475500D03*
X35338684Y18105500D03*
%TD*%
D32*
%TO.N,TX*%
X42393684Y9710500D02*
X48297288Y9710500D01*
X40818684Y11285500D02*
X42393684Y9710500D01*
X50978684Y7029104D02*
X50978684Y5125500D01*
X48297288Y9710500D02*
X50978684Y7029104D01*
%TO.N,RX*%
X48483684Y10160500D02*
X53518684Y5125500D01*
X43358684Y11285500D02*
X44483684Y10160500D01*
X44483684Y10160500D02*
X48483684Y10160500D01*
%TO.N,GND*%
X17458684Y10895500D02*
X17458684Y5305500D01*
X10758684Y22926613D02*
X11496184Y23664113D01*
X32183684Y10905500D02*
X32833684Y10905500D01*
X42233684Y25400500D02*
X43358684Y26525500D01*
X31908684Y24025500D02*
X35533684Y27650500D01*
X17458684Y10895500D02*
X22458684Y10895500D01*
X10758684Y19814113D02*
X10758684Y22926613D01*
X29596184Y21525500D02*
X29596184Y21713000D01*
X27888684Y12425500D02*
X28933684Y11380500D01*
X47298684Y12425500D02*
X31713684Y12425500D01*
X28933684Y11380500D02*
X28933684Y10905500D01*
X33596184Y21763000D02*
X37233684Y25400500D01*
X26753684Y12425500D02*
X27888684Y12425500D01*
X31713684Y12425500D02*
X32833684Y11305500D01*
X22458684Y10895500D02*
X25223684Y10895500D01*
X33596184Y21525500D02*
X33178684Y21525500D01*
X42233684Y27650500D02*
X43358684Y26525500D01*
X32833684Y11305500D02*
X32833684Y10905500D01*
X13058684Y19814113D02*
X10758684Y19814113D01*
X11496184Y23664113D02*
X10446184Y24714113D01*
X48438684Y11285500D02*
X47298684Y12425500D01*
X32833684Y10905500D02*
X32833684Y11355500D01*
X29596184Y21713000D02*
X31908684Y24025500D01*
X17458684Y5305500D02*
X18468684Y4295500D01*
X32833684Y11355500D02*
X31763684Y12425500D01*
X30883684Y19230500D02*
X30883684Y18105500D01*
X10446184Y24714113D02*
X8546184Y24714113D01*
X14727571Y26895500D02*
X22458684Y26895500D01*
X23213684Y27650500D02*
X42233684Y27650500D01*
X8546184Y24714113D02*
X7496184Y23664113D01*
X37233684Y25400500D02*
X42233684Y25400500D01*
X33596184Y21525500D02*
X33596184Y21763000D01*
X35533684Y27650500D02*
X42233684Y27650500D01*
X11496184Y23664113D02*
X14727571Y26895500D01*
X25223684Y10895500D02*
X26753684Y12425500D01*
X31763684Y12425500D02*
X27433684Y12425500D01*
X33178684Y21525500D02*
X30883684Y19230500D01*
X28283684Y10905500D02*
X28933684Y10905500D01*
X22458684Y26895500D02*
X23213684Y27650500D01*
%TO.N,MA1*%
X30838100Y16455500D02*
X32343600Y14950000D01*
X37573677Y15225500D02*
X49578684Y15225500D01*
X49578684Y15225500D02*
X53518684Y11285500D01*
X35029191Y14950000D02*
X35304191Y14675000D01*
X37023177Y14675000D02*
X37573677Y15225500D01*
X29483684Y16455500D02*
X30838100Y16455500D01*
X32343600Y14950000D02*
X35029191Y14950000D01*
X35304191Y14675000D02*
X37023177Y14675000D01*
X28933684Y17005500D02*
X29483684Y16455500D01*
X28933684Y18125500D02*
X28933684Y17005500D01*
%TO.N,MA2*%
X28283684Y18125500D02*
X28283684Y17019104D01*
X37760073Y14775500D02*
X47488684Y14775500D01*
X32157204Y14500000D02*
X34842795Y14500000D01*
X37209573Y14225000D02*
X37760073Y14775500D01*
X30651704Y16005500D02*
X32157204Y14500000D01*
X47488684Y14775500D02*
X50978684Y11285500D01*
X34842795Y14500000D02*
X35117795Y14225000D01*
X35117795Y14225000D02*
X37209573Y14225000D01*
X29297288Y16005500D02*
X30651704Y16005500D01*
X28283684Y17019104D02*
X29297288Y16005500D01*
%TO.N,MB1*%
X31533684Y18125500D02*
X31533684Y17032708D01*
X37200885Y16125500D02*
X58838684Y16125500D01*
X36650385Y15575000D02*
X37200885Y16125500D01*
X58838684Y16125500D02*
X63678684Y11285500D01*
X35401983Y15850000D02*
X35676983Y15575000D01*
X35676983Y15575000D02*
X36650385Y15575000D01*
X31533684Y17032708D02*
X32716392Y15850000D01*
X32716392Y15850000D02*
X35401983Y15850000D01*
%TO.N,PWMA*%
X27633684Y16625900D02*
X27943689Y16315895D01*
X27633684Y18125500D02*
X27633684Y16625900D01*
%TO.N,PWMB*%
X33089184Y16750000D02*
X32833684Y17005500D01*
X32833684Y17005500D02*
X32833684Y18125500D01*
X36163684Y16750000D02*
X33089184Y16750000D01*
%TO.N,MB2*%
X35588379Y16300000D02*
X35863379Y16025000D01*
X36463989Y16025000D02*
X37014489Y16575500D01*
X32902788Y16300000D02*
X35588379Y16300000D01*
X32183684Y17019104D02*
X32902788Y16300000D01*
X37014489Y16575500D02*
X60928684Y16575500D01*
X32183684Y18125500D02*
X32183684Y17019104D01*
X35863379Y16025000D02*
X36463989Y16025000D01*
X60928684Y16575500D02*
X66218684Y11285500D01*
%TO.N,STBY*%
X30233684Y17005500D02*
X30333684Y16905500D01*
X37387281Y15675500D02*
X51668684Y15675500D01*
X35215587Y15400000D02*
X35490587Y15125000D01*
X35490587Y15125000D02*
X36836781Y15125000D01*
X31024496Y16905500D02*
X32529996Y15400000D01*
X51668684Y15675500D02*
X56058684Y11285500D01*
X36836781Y15125000D02*
X37387281Y15675500D01*
X30333684Y16905500D02*
X31024496Y16905500D01*
X32529996Y15400000D02*
X35215587Y15400000D01*
X30233684Y18125500D02*
X30233684Y17005500D01*
%TO.N,REMOTE*%
X68758684Y11285500D02*
X68758684Y5125500D01*
%TO.N,Net-(A1-D10)*%
X46019800Y13875500D02*
X38132865Y13875500D01*
X18383684Y11970500D02*
X17458684Y12895500D01*
X34544503Y13525500D02*
X24708784Y13525500D01*
X46310529Y13584771D02*
X46019800Y13875500D01*
X23153784Y11970500D02*
X18383684Y11970500D01*
X24708784Y13525500D02*
X23153784Y11970500D01*
X38132865Y13875500D02*
X37582365Y13325000D01*
X34745003Y13325000D02*
X34544503Y13525500D01*
X17418684Y15645500D02*
X17418684Y12935500D01*
X17418684Y12935500D02*
X17458684Y12895500D01*
X37582365Y13325000D02*
X34745003Y13325000D01*
%TO.N,Net-(A1-D11)*%
X23019184Y24895500D02*
X22458684Y24895500D01*
X22498684Y22145500D02*
X22498684Y24855500D01*
X23763684Y24151000D02*
X23019184Y24895500D01*
X22498684Y24855500D02*
X22458684Y24895500D01*
%TO.N,Net-(A1-D12)*%
X34730899Y13975500D02*
X23538684Y13975500D01*
X37395969Y13775000D02*
X34931399Y13775000D01*
X22498684Y12935500D02*
X22458684Y12895500D01*
X47202073Y14037513D02*
X46914086Y14325500D01*
X23538684Y13975500D02*
X22458684Y12895500D01*
X34931399Y13775000D02*
X34730899Y13975500D01*
X46914086Y14325500D02*
X37946469Y14325500D01*
X22498684Y15645500D02*
X22498684Y12935500D01*
X37946469Y14325500D02*
X37395969Y13775000D01*
%TO.N,Net-(A1-D13)*%
X17418684Y24855500D02*
X17458684Y24895500D01*
X18743684Y24895500D02*
X18763684Y24875500D01*
X17458684Y24895500D02*
X18743684Y24895500D01*
X17418684Y22145500D02*
X17418684Y24855500D01*
%TO.N,+3.3V*%
X75256809Y27943625D02*
X73838684Y26525500D01*
X75256809Y31675500D02*
X75256809Y27943625D01*
%TO.N,SENS0*%
X67253684Y31675500D02*
X67253684Y28030500D01*
X67253684Y28030500D02*
X68758684Y26525500D01*
%TO.N,SENS1*%
X62368684Y30375500D02*
X66218684Y26525500D01*
X59250559Y31675500D02*
X60550559Y30375500D01*
X60550559Y30375500D02*
X62368684Y30375500D01*
%TO.N,SENS2*%
X51247434Y31675500D02*
X52572434Y30350500D01*
X52572434Y30350500D02*
X59853684Y30350500D01*
X59853684Y30350500D02*
X63678684Y26525500D01*
%TO.N,SENS3*%
X57763684Y29900500D02*
X61138684Y26525500D01*
X45019309Y29900500D02*
X57763684Y29900500D01*
X43244309Y31675500D02*
X45019309Y29900500D01*
%TO.N,SENS4*%
X37466184Y29450500D02*
X55673684Y29450500D01*
X55673684Y29450500D02*
X58598684Y26525500D01*
X35241184Y31675500D02*
X37466184Y29450500D01*
%TO.N,SENS5*%
X29913059Y29000500D02*
X53583684Y29000500D01*
X27238059Y31675500D02*
X29913059Y29000500D01*
X53583684Y29000500D02*
X56058684Y26525500D01*
%TO.N,SENS6*%
X22359934Y28550500D02*
X51493684Y28550500D01*
X19234934Y31675500D02*
X22359934Y28550500D01*
X51493684Y28550500D02*
X53518684Y26525500D01*
%TO.N,SENS7*%
X49403684Y28100500D02*
X50978684Y26525500D01*
X14806809Y28100500D02*
X49403684Y28100500D01*
X11231809Y31675500D02*
X14806809Y28100500D01*
%TO.N,+5V*%
X13058684Y13514113D02*
X8458684Y13514113D01*
X28603059Y32850500D02*
X29778059Y31675500D01*
X44609309Y32850500D02*
X36606184Y32850500D01*
X45784309Y31675500D02*
X44609309Y32850500D01*
X29013584Y22575500D02*
X28683684Y22245600D01*
X20599934Y32850500D02*
X28313684Y32850500D01*
X31521184Y21525500D02*
X29583684Y19588000D01*
X29583684Y19588000D02*
X29583684Y18105500D01*
X30233684Y25345600D02*
X30233684Y22986896D01*
X19958684Y24165600D02*
X21618584Y25825500D01*
X18383684Y17220500D02*
X19958684Y15645500D01*
X73838684Y5125500D02*
X77796809Y9083625D01*
X28313684Y32850500D02*
X28603059Y32850500D01*
X28683684Y20805400D02*
X29013584Y20475500D01*
X8458684Y13514113D02*
X8458684Y19814113D01*
X72663684Y3950500D02*
X73838684Y5125500D01*
X47073684Y3950500D02*
X72663684Y3950500D01*
X30471184Y20475500D02*
X31521184Y21525500D01*
X13771809Y31675500D02*
X14946809Y32850500D01*
X61790559Y31675500D02*
X60615559Y32850500D01*
X28683684Y22245600D02*
X28683684Y20805400D01*
X29753784Y25825500D02*
X30233684Y25345600D01*
X19958684Y22145500D02*
X19958684Y24165600D01*
X52612434Y32850500D02*
X52588684Y32850500D01*
X29822288Y22575500D02*
X29013584Y22575500D01*
X13058684Y13514113D02*
X16765071Y17220500D01*
X68618684Y32850500D02*
X60615559Y32850500D01*
X60615559Y32850500D02*
X52588684Y32850500D01*
X36521184Y26525500D02*
X40818684Y26525500D01*
X36606184Y32850500D02*
X28313684Y32850500D01*
X31521184Y21525500D02*
X36521184Y26525500D01*
X76621809Y32850500D02*
X68618684Y32850500D01*
X14946809Y32850500D02*
X20599934Y32850500D01*
X8458684Y22701613D02*
X9421184Y23664113D01*
X19958684Y15645500D02*
X19958684Y22145500D01*
X21618584Y25825500D02*
X29753784Y25825500D01*
X8458684Y19814113D02*
X8458684Y22701613D01*
X30233684Y22986896D02*
X29822288Y22575500D01*
X52588684Y32850500D02*
X44609309Y32850500D01*
X19958684Y21762726D02*
X19958684Y22145500D01*
X77796809Y9083625D02*
X77796809Y31675500D01*
X69793684Y31675500D02*
X68618684Y32850500D01*
X45898684Y5125500D02*
X47073684Y3950500D01*
X16765071Y17220500D02*
X18383684Y17220500D01*
X20599934Y32850500D02*
X21774934Y31675500D01*
X37781184Y31675500D02*
X36606184Y32850500D01*
X53787434Y31675500D02*
X52612434Y32850500D01*
X77796809Y31675500D02*
X76621809Y32850500D01*
X29013584Y20475500D02*
X30471184Y20475500D01*
D33*
%TO.N,VM*%
X6158684Y22926613D02*
X5421184Y23664113D01*
X27521184Y22338000D02*
X29208684Y24025500D01*
X35338684Y18105500D02*
X34133684Y18105500D01*
X10518684Y9945500D02*
X10568684Y9895500D01*
X34133684Y18105500D02*
X33558684Y18105500D01*
X26908684Y20913000D02*
X26908684Y18105500D01*
X6158684Y18834878D02*
X7084822Y17908740D01*
X8373684Y9945500D02*
X10518684Y9945500D01*
X27521184Y21525500D02*
X27521184Y22338000D01*
X24708684Y21475500D02*
X24758684Y21525500D01*
X27521184Y21525500D02*
X26908684Y20913000D01*
X6158684Y19814113D02*
X6158684Y22926613D01*
X24758684Y21525500D02*
X27521184Y21525500D01*
X6158684Y19814113D02*
X6158684Y18834878D01*
D32*
%TO.N,Net-(D1-A)*%
X13058684Y17764113D02*
X13058684Y15514113D01*
D33*
%TO.N,Net-(J1-Pin_2)*%
X8373684Y6945500D02*
X10818684Y6945500D01*
X10818684Y6945500D02*
X13468684Y4295500D01*
D34*
%TO.N,Net-(J13-Pin_1)*%
X24933684Y8230500D02*
X27608684Y10905500D01*
X24933684Y8855500D02*
X26983684Y10905500D01*
X24933684Y5100500D02*
X24933684Y8855500D01*
X24933684Y5100500D02*
X24933684Y8230500D01*
%TO.N,Net-(J13-Pin_2)*%
X30208684Y7875500D02*
X30208684Y10880500D01*
X29608684Y7275500D02*
X29608684Y10905500D01*
X27433684Y5100500D02*
X30208684Y7875500D01*
X27433684Y5100500D02*
X29608684Y7275500D01*
%TO.N,Net-(J14-Pin_1)*%
X33683684Y5125500D02*
X31508684Y7300500D01*
X30908684Y7900500D02*
X30908684Y10905500D01*
X31508684Y7300500D02*
X31508684Y10905500D01*
X33683684Y5125500D02*
X30908684Y7900500D01*
%TO.N,Net-(J14-Pin_2)*%
X36183684Y8855500D02*
X34133684Y10905500D01*
X36183684Y5125500D02*
X36183684Y8230500D01*
X36183684Y8230500D02*
X33508684Y10905500D01*
X36183684Y5125500D02*
X36183684Y8855500D01*
%TD*%
%TA.AperFunction,Conductor*%
%TO.N,GND*%
G36*
X28801223Y11110815D02*
G01*
X28846978Y11058011D01*
X28858184Y11006500D01*
X28858184Y10804500D01*
X28838499Y10737461D01*
X28785695Y10691706D01*
X28734184Y10680500D01*
X28483183Y10680500D01*
X28416144Y10700185D01*
X28370389Y10752989D01*
X28359183Y10804500D01*
X28359183Y10816156D01*
X28360847Y10832446D01*
X28360787Y10832451D01*
X28361414Y10839635D01*
X28361417Y10839644D01*
X28359183Y10916415D01*
X28359183Y11006500D01*
X28378868Y11073539D01*
X28431672Y11119294D01*
X28483183Y11130500D01*
X28734184Y11130500D01*
X28801223Y11110815D01*
G37*
%TD.AperFunction*%
%TA.AperFunction,Conductor*%
G36*
X32701223Y11110815D02*
G01*
X32746978Y11058011D01*
X32758184Y11006500D01*
X32758184Y10969209D01*
X32756875Y10951238D01*
X32753395Y10927480D01*
X32753394Y10927473D01*
X32757948Y10875432D01*
X32758184Y10870026D01*
X32758184Y10804500D01*
X32738499Y10737461D01*
X32685695Y10691706D01*
X32634184Y10680500D01*
X32383184Y10680500D01*
X32316145Y10700185D01*
X32270390Y10752989D01*
X32259184Y10804500D01*
X32259184Y10952511D01*
X32259183Y10952533D01*
X32259183Y11006500D01*
X32278868Y11073539D01*
X32331672Y11119294D01*
X32383183Y11130500D01*
X32634184Y11130500D01*
X32701223Y11110815D01*
G37*
%TD.AperFunction*%
%TA.AperFunction,Conductor*%
G36*
X83016806Y33745799D02*
G01*
X83966681Y33508330D01*
X84024286Y33475714D01*
X84741316Y32758684D01*
X84756809Y32739786D01*
X84855286Y32592070D01*
X85137973Y32168039D01*
X85138859Y32166711D01*
X85154069Y32134822D01*
X85168022Y32090046D01*
X85177494Y32059649D01*
X85179111Y32053295D01*
X85208110Y31907505D01*
X85231093Y31782086D01*
X85231977Y31774960D01*
X85243517Y31598898D01*
X85249281Y31503612D01*
X85249297Y31496386D01*
X85246508Y31446735D01*
X85232777Y31237251D01*
X85219952Y31189907D01*
X84758188Y30266378D01*
X84737429Y30236691D01*
X81750728Y27074303D01*
X80516909Y25842589D01*
X80516396Y25842244D01*
X80499616Y25825383D01*
X80499530Y25825173D01*
X80499458Y25825000D01*
X80499454Y25800452D01*
X80499510Y25800171D01*
X80500000Y24632550D01*
X80500000Y9242245D01*
X80506467Y9209758D01*
X80506468Y9206300D01*
X80506340Y9205641D01*
X80506438Y9181978D01*
X80506539Y9181737D01*
X80506597Y9181597D01*
X80506598Y9181597D01*
X80517541Y9170694D01*
X84589414Y5091861D01*
X84591755Y5089383D01*
X84595319Y5085396D01*
X84597971Y5082428D01*
X84611842Y5063596D01*
X84698850Y4918584D01*
X85130987Y4198353D01*
X85142076Y4174418D01*
X85147785Y4157601D01*
X85148653Y4154833D01*
X85181076Y4042293D01*
X85182308Y4037222D01*
X85213594Y3879937D01*
X85231786Y3772869D01*
X85232530Y3766534D01*
X85246501Y3553378D01*
X85246917Y3545976D01*
X85249296Y3503598D01*
X85249281Y3496384D01*
X85243517Y3401103D01*
X85231977Y3225042D01*
X85231093Y3217916D01*
X85208110Y3092496D01*
X85179111Y2946706D01*
X85177494Y2940352D01*
X85137846Y2813120D01*
X85099643Y2700577D01*
X85096384Y2692770D01*
X84908902Y2317807D01*
X84906504Y2313455D01*
X84898410Y2300068D01*
X84896904Y2297699D01*
X84819408Y2181718D01*
X84816661Y2177925D01*
X84732618Y2070652D01*
X84730426Y2068008D01*
X84638739Y1963460D01*
X84635966Y1960498D01*
X84574468Y1898999D01*
X84550583Y1880351D01*
X83699697Y1369820D01*
X83672791Y1357764D01*
X83559648Y1322506D01*
X83553294Y1320889D01*
X83407504Y1291890D01*
X83282084Y1268907D01*
X83274958Y1268023D01*
X83098897Y1256483D01*
X83001866Y1250613D01*
X82998121Y1250500D01*
X2013267Y1250500D01*
X1983193Y1254202D01*
X1020836Y1494791D01*
X982128Y1511915D01*
X557500Y1795000D01*
X483825Y1844117D01*
X477332Y1849094D01*
X463460Y1861259D01*
X460511Y1864020D01*
X364033Y1960498D01*
X361259Y1963459D01*
X361258Y1963460D01*
X269566Y2068015D01*
X267380Y2070652D01*
X209375Y2144690D01*
X189350Y2181948D01*
X0Y2750000D01*
X-219954Y3189908D01*
X-232780Y3237252D01*
X-234328Y3260877D01*
X-236588Y3295359D01*
X-234446Y3327775D01*
X-200001Y3500000D01*
X644341Y3500000D01*
X664936Y3264597D01*
X664938Y3264587D01*
X726094Y3036345D01*
X726096Y3036341D01*
X726097Y3036337D01*
X760920Y2961659D01*
X825964Y2822172D01*
X825965Y2822170D01*
X961505Y2628598D01*
X1128597Y2461506D01*
X1322169Y2325966D01*
X1322171Y2325965D01*
X1536337Y2226097D01*
X1764592Y2164937D01*
X1941034Y2149500D01*
X2058966Y2149500D01*
X2235408Y2164937D01*
X2463663Y2226097D01*
X2677829Y2325965D01*
X2871401Y2461505D01*
X3038495Y2628599D01*
X3174035Y2822170D01*
X3273903Y3036337D01*
X3335063Y3264592D01*
X3355452Y3497630D01*
X4613184Y3497630D01*
X4613185Y3497624D01*
X4619592Y3438017D01*
X4669886Y3303172D01*
X4669890Y3303165D01*
X4756136Y3187956D01*
X4756139Y3187953D01*
X4871348Y3101707D01*
X4871355Y3101703D01*
X5006201Y3051409D01*
X5006200Y3051409D01*
X5013128Y3050665D01*
X5065811Y3045000D01*
X5961556Y3045001D01*
X6021167Y3051409D01*
X6156015Y3101704D01*
X6271230Y3187954D01*
X6357480Y3303169D01*
X6407775Y3438017D01*
X6414184Y3497627D01*
X6414183Y4593372D01*
X6407913Y4651703D01*
X6407775Y4652984D01*
X6357481Y4787829D01*
X6357477Y4787836D01*
X6271231Y4903045D01*
X6271228Y4903048D01*
X6156019Y4989294D01*
X6156012Y4989298D01*
X6021166Y5039592D01*
X6021167Y5039592D01*
X5961567Y5045999D01*
X5961565Y5046000D01*
X5961557Y5046000D01*
X5961548Y5046000D01*
X5065813Y5046000D01*
X5065807Y5045999D01*
X5006200Y5039592D01*
X4871355Y4989298D01*
X4871348Y4989294D01*
X4756139Y4903048D01*
X4756136Y4903045D01*
X4669890Y4787836D01*
X4669886Y4787829D01*
X4619592Y4652983D01*
X4613359Y4595002D01*
X4613185Y4593377D01*
X4613184Y4593365D01*
X4613184Y3497630D01*
X3355452Y3497630D01*
X3355659Y3500000D01*
X3335063Y3735408D01*
X3281045Y3937007D01*
X3273905Y3963656D01*
X3273904Y3963657D01*
X3273903Y3963663D01*
X3174035Y4177829D01*
X3174034Y4177831D01*
X3038494Y4371403D01*
X2871402Y4538495D01*
X2677830Y4674035D01*
X2677828Y4674036D01*
X2536170Y4740092D01*
X2463663Y4773903D01*
X2463659Y4773904D01*
X2463655Y4773906D01*
X2235413Y4835062D01*
X2235403Y4835064D01*
X2058966Y4850500D01*
X1941034Y4850500D01*
X1764596Y4835064D01*
X1764586Y4835062D01*
X1536344Y4773906D01*
X1536335Y4773902D01*
X1322171Y4674036D01*
X1322169Y4674035D01*
X1128597Y4538495D01*
X961506Y4371403D01*
X961501Y4371396D01*
X825967Y4177835D01*
X825965Y4177831D01*
X726098Y3963665D01*
X726094Y3963656D01*
X664938Y3735414D01*
X664936Y3735404D01*
X644341Y3500001D01*
X644341Y3500000D01*
X-200001Y3500000D01*
X-83531Y4082343D01*
X-5516Y4472425D01*
X16872Y4522498D01*
X537832Y5217112D01*
X549390Y5230427D01*
X1774427Y6453374D01*
X3292948Y6453374D01*
X4002732Y5743590D01*
X4369586Y6110444D01*
X5913184Y6110444D01*
X5930939Y6038410D01*
X5953894Y5945274D01*
X6032947Y5794651D01*
X6032950Y5794648D01*
X6145755Y5667317D01*
X6196257Y5632458D01*
X6285752Y5570683D01*
X6285753Y5570683D01*
X6285754Y5570682D01*
X6339097Y5550452D01*
X6443377Y5510904D01*
X6444812Y5510360D01*
X6520712Y5501144D01*
X6571310Y5495000D01*
X6571312Y5495000D01*
X6656058Y5495000D01*
X6698222Y5500120D01*
X6782556Y5510360D01*
X6941614Y5570682D01*
X6941615Y5570683D01*
X6948627Y5573342D01*
X6949075Y5572159D01*
X7010061Y5584379D01*
X7075115Y5558890D01*
X7116062Y5502276D01*
X7123184Y5460857D01*
X7123184Y5082681D01*
X7103499Y5015642D01*
X7073496Y4983415D01*
X6966136Y4903045D01*
X6879890Y4787836D01*
X6879886Y4787829D01*
X6829592Y4652983D01*
X6823359Y4595002D01*
X6823185Y4593377D01*
X6823184Y4593365D01*
X6823184Y3497630D01*
X6823185Y3497624D01*
X6829592Y3438017D01*
X6879886Y3303172D01*
X6879890Y3303165D01*
X6966136Y3187956D01*
X6966139Y3187953D01*
X7081348Y3101707D01*
X7081355Y3101703D01*
X7216201Y3051409D01*
X7216200Y3051409D01*
X7223128Y3050665D01*
X7275811Y3045000D01*
X8171556Y3045001D01*
X8231167Y3051409D01*
X8366015Y3101704D01*
X8481230Y3187954D01*
X8567480Y3303169D01*
X8617775Y3438017D01*
X8624184Y3497627D01*
X8624183Y4471002D01*
X8643867Y4538040D01*
X8696671Y4583795D01*
X8748183Y4595001D01*
X9171555Y4595001D01*
X9171556Y4595001D01*
X9231167Y4601409D01*
X9366015Y4651704D01*
X9481230Y4737954D01*
X9567480Y4853169D01*
X9617775Y4988017D01*
X9624184Y5047627D01*
X9624183Y5843372D01*
X9617775Y5902983D01*
X9602001Y5945274D01*
X9589920Y5977667D01*
X9584936Y6047359D01*
X9618421Y6108682D01*
X9679745Y6142166D01*
X9706102Y6145000D01*
X10435744Y6145000D01*
X10502783Y6125315D01*
X10523425Y6108681D01*
X11165589Y5466517D01*
X11199074Y5405194D01*
X11194090Y5335502D01*
X11190107Y5326040D01*
X11139181Y5217816D01*
X11041954Y4918584D01*
X10982995Y4609512D01*
X10982994Y4609505D01*
X10963240Y4295506D01*
X10963240Y4295500D01*
X10982994Y3981496D01*
X10982995Y3981489D01*
X11002004Y3881843D01*
X11041156Y3676597D01*
X11041954Y3672417D01*
X11139181Y3373184D01*
X11139183Y3373179D01*
X11273145Y3088497D01*
X11273148Y3088491D01*
X11441735Y2822839D01*
X11441738Y2822835D01*
X11642290Y2580410D01*
X11642292Y2580408D01*
X11642294Y2580406D01*
X11862094Y2374000D01*
X11871652Y2365024D01*
X11871662Y2365016D01*
X12126188Y2180092D01*
X12126193Y2180090D01*
X12126200Y2180084D01*
X12401918Y2028506D01*
X12401923Y2028504D01*
X12401925Y2028503D01*
X12401926Y2028502D01*
X12694455Y1912682D01*
X12694458Y1912681D01*
X12942114Y1849094D01*
X12999211Y1834434D01*
X13064694Y1826162D01*
X13311354Y1795001D01*
X13311363Y1795001D01*
X13311366Y1795000D01*
X13311368Y1795000D01*
X13626000Y1795000D01*
X13626002Y1795000D01*
X13626005Y1795001D01*
X13626013Y1795001D01*
X13812277Y1818532D01*
X13938157Y1834434D01*
X14242909Y1912681D01*
X14242912Y1912682D01*
X14535441Y2028502D01*
X14535442Y2028503D01*
X14535440Y2028503D01*
X14535450Y2028506D01*
X14811168Y2180084D01*
X15065714Y2365022D01*
X15295074Y2580406D01*
X15495631Y2822837D01*
X15664221Y3088493D01*
X15798187Y3373185D01*
X15826753Y3461103D01*
X15866190Y3518777D01*
X15930549Y3545976D01*
X15999395Y3534061D01*
X16050871Y3486817D01*
X16068684Y3422784D01*
X16068684Y2347656D01*
X16075085Y2288128D01*
X16075087Y2288121D01*
X16125329Y2153414D01*
X16125333Y2153407D01*
X16211493Y2038313D01*
X16211496Y2038310D01*
X16326590Y1952150D01*
X16326597Y1952146D01*
X16461304Y1901904D01*
X16461311Y1901902D01*
X16520839Y1895501D01*
X16520856Y1895500D01*
X18218684Y1895500D01*
X18218684Y2964865D01*
X18233363Y2960931D01*
X18409739Y2945500D01*
X18527629Y2945500D01*
X18704005Y2960931D01*
X18718684Y2964865D01*
X18718684Y1895500D01*
X20416512Y1895500D01*
X20416528Y1895501D01*
X20476056Y1901902D01*
X20476063Y1901904D01*
X20610770Y1952146D01*
X20610777Y1952150D01*
X20725871Y2038310D01*
X20725874Y2038313D01*
X20812034Y2153407D01*
X20812038Y2153414D01*
X20862280Y2288121D01*
X20862282Y2288128D01*
X20868683Y2347656D01*
X20868684Y2347673D01*
X20868684Y4045500D01*
X19799320Y4045500D01*
X19803253Y4060179D01*
X19810755Y4145924D01*
X21866684Y4145924D01*
X21866684Y2394336D01*
X22206344Y2733996D01*
X28225530Y2733996D01*
X28585526Y2374000D01*
X28917416Y2374000D01*
X29813546Y3270130D01*
X29813545Y3270131D01*
X31224929Y3270131D01*
X32121060Y2374000D01*
X32452950Y2374000D01*
X32735636Y2656687D01*
X32693673Y2665672D01*
X32690389Y2666469D01*
X32647652Y2678087D01*
X32644414Y2679063D01*
X32421154Y2753044D01*
X32417764Y2754278D01*
X32373862Y2771720D01*
X32370552Y2773147D01*
X32314637Y2799219D01*
X32311412Y2800838D01*
X32269811Y2823268D01*
X32266687Y2825072D01*
X32064845Y2949569D01*
X32061829Y2951552D01*
X32023114Y2978662D01*
X32020222Y2980816D01*
X31971825Y3019083D01*
X31969061Y3021402D01*
X31933768Y3052811D01*
X31931146Y3055286D01*
X31763470Y3222962D01*
X31760995Y3225584D01*
X31729586Y3260877D01*
X31727267Y3263641D01*
X31722136Y3270130D01*
X38295998Y3270130D01*
X39192128Y2374000D01*
X39524018Y2374000D01*
X40420147Y3270130D01*
X41831531Y3270130D01*
X42727661Y2374000D01*
X43059551Y2374000D01*
X43478903Y2793352D01*
X74128115Y2793352D01*
X74547467Y2374000D01*
X74879357Y2374000D01*
X75775486Y3270130D01*
X77186871Y3270130D01*
X78083001Y2374000D01*
X78414891Y2374000D01*
X79311020Y3270130D01*
X79081150Y3500000D01*
X81644341Y3500000D01*
X81664936Y3264597D01*
X81664938Y3264587D01*
X81726094Y3036345D01*
X81726096Y3036341D01*
X81726097Y3036337D01*
X81760920Y2961659D01*
X81825964Y2822172D01*
X81825965Y2822170D01*
X81961505Y2628598D01*
X82128597Y2461506D01*
X82322169Y2325966D01*
X82322171Y2325965D01*
X82536337Y2226097D01*
X82764592Y2164937D01*
X82941034Y2149500D01*
X83058966Y2149500D01*
X83235408Y2164937D01*
X83463663Y2226097D01*
X83677829Y2325965D01*
X83871401Y2461505D01*
X84038495Y2628599D01*
X84174035Y2822170D01*
X84273903Y3036337D01*
X84335063Y3264592D01*
X84355659Y3500000D01*
X84335063Y3735408D01*
X84281045Y3937007D01*
X84273905Y3963656D01*
X84273904Y3963657D01*
X84273903Y3963663D01*
X84174035Y4177829D01*
X84174034Y4177831D01*
X84038494Y4371403D01*
X83871402Y4538495D01*
X83677830Y4674035D01*
X83677828Y4674036D01*
X83536170Y4740092D01*
X83463663Y4773903D01*
X83463659Y4773904D01*
X83463655Y4773906D01*
X83235413Y4835062D01*
X83235403Y4835064D01*
X83058966Y4850500D01*
X82941034Y4850500D01*
X82764596Y4835064D01*
X82764586Y4835062D01*
X82536344Y4773906D01*
X82536335Y4773902D01*
X82322171Y4674036D01*
X82322169Y4674035D01*
X82128597Y4538495D01*
X81961506Y4371403D01*
X81961501Y4371396D01*
X81825967Y4177835D01*
X81825965Y4177831D01*
X81726098Y3963665D01*
X81726094Y3963656D01*
X81664938Y3735414D01*
X81664936Y3735404D01*
X81644341Y3500001D01*
X81644341Y3500000D01*
X79081150Y3500000D01*
X78248945Y4332205D01*
X77186871Y3270130D01*
X75775486Y3270130D01*
X75540041Y3505575D01*
X75398471Y3364005D01*
X75370365Y3338252D01*
X75332854Y3306773D01*
X75302579Y3283541D01*
X75068882Y3119904D01*
X75036702Y3099403D01*
X74994291Y3074920D01*
X74960472Y3057315D01*
X74701940Y2936758D01*
X74666723Y2922171D01*
X74620707Y2905419D01*
X74584307Y2893942D01*
X74308737Y2820105D01*
X74271495Y2811849D01*
X74223271Y2803346D01*
X74185463Y2798369D01*
X74128115Y2793352D01*
X43478903Y2793352D01*
X43955681Y3270130D01*
X42893606Y4332205D01*
X41831531Y3270130D01*
X40420147Y3270130D01*
X39358072Y4332205D01*
X38295998Y3270130D01*
X31722136Y3270130D01*
X31689000Y3312038D01*
X31686846Y3314930D01*
X31659736Y3353645D01*
X31657753Y3356661D01*
X31533256Y3558503D01*
X31531452Y3561627D01*
X31526188Y3571390D01*
X31224929Y3270131D01*
X29813545Y3270131D01*
X29408018Y3675658D01*
X29275654Y3486619D01*
X29252440Y3456366D01*
X29220963Y3418852D01*
X29195189Y3390723D01*
X28993461Y3188995D01*
X28965332Y3163221D01*
X28927818Y3131744D01*
X28897565Y3108530D01*
X28663886Y2944908D01*
X28631724Y2924419D01*
X28589319Y2899935D01*
X28555482Y2882320D01*
X28296940Y2761758D01*
X28261723Y2747171D01*
X28225530Y2733996D01*
X22206344Y2733996D01*
X22742478Y3270130D01*
X21866684Y4145924D01*
X19810755Y4145924D01*
X19823841Y4295500D01*
X19823404Y4300499D01*
X23583184Y4300499D01*
X23583185Y4300482D01*
X23593684Y4197704D01*
X23593685Y4197701D01*
X23648869Y4031169D01*
X23648871Y4031164D01*
X23679511Y3981489D01*
X23740972Y3881844D01*
X23865028Y3757788D01*
X24014350Y3665686D01*
X24180887Y3610501D01*
X24283675Y3600000D01*
X25583692Y3600001D01*
X25686481Y3610501D01*
X25853018Y3665686D01*
X26002340Y3757788D01*
X26126396Y3881844D01*
X26218498Y4031166D01*
X26218498Y4031169D01*
X26221862Y4036621D01*
X26273810Y4083346D01*
X26342772Y4094569D01*
X26406854Y4066726D01*
X26415082Y4059206D01*
X26562283Y3912005D01*
X26648557Y3851595D01*
X26755849Y3776468D01*
X26755851Y3776467D01*
X26755854Y3776465D01*
X26970021Y3676597D01*
X27198276Y3615437D01*
X27374718Y3600000D01*
X27433683Y3594841D01*
X27433684Y3594841D01*
X27433685Y3594841D01*
X27492650Y3600000D01*
X27669092Y3615437D01*
X27897347Y3676597D01*
X28111513Y3776465D01*
X28305085Y3912005D01*
X28472179Y4079099D01*
X28607719Y4272671D01*
X28707587Y4486837D01*
X28768747Y4715092D01*
X28769504Y4723745D01*
X29771315Y4723745D01*
X30519237Y3975823D01*
X31335184Y4791769D01*
X31335184Y5001249D01*
X30571182Y5765250D01*
X29782184Y4976250D01*
X29782184Y4869759D01*
X29780284Y4826246D01*
X29771315Y4723745D01*
X28769504Y4723745D01*
X28784184Y4891534D01*
X28784184Y5309466D01*
X28782774Y5325580D01*
X28796540Y5394080D01*
X28818621Y5424070D01*
X28904912Y5510360D01*
X29027010Y5632458D01*
X30094325Y6699776D01*
X30107944Y6711546D01*
X30127214Y6725890D01*
X30160800Y6765918D01*
X30164441Y6769892D01*
X30483502Y7088952D01*
X30544825Y7122437D01*
X30614517Y7117453D01*
X30658864Y7088952D01*
X30914825Y6832991D01*
X30925166Y6820298D01*
X30925212Y6820336D01*
X30929857Y6814800D01*
X30985702Y6762114D01*
X32060563Y5687254D01*
X32296865Y5450952D01*
X32330350Y5389629D01*
X32333184Y5363271D01*
X32333184Y4325499D01*
X32333185Y4325481D01*
X32343684Y4222704D01*
X32343685Y4222701D01*
X32388650Y4087007D01*
X32398870Y4056166D01*
X32490972Y3906844D01*
X32615028Y3782788D01*
X32764350Y3690686D01*
X32930887Y3635501D01*
X33033675Y3625000D01*
X34333692Y3625001D01*
X34436481Y3635501D01*
X34603018Y3690686D01*
X34752340Y3782788D01*
X34876396Y3906844D01*
X34968498Y4056166D01*
X34968498Y4056169D01*
X34971862Y4061621D01*
X35023810Y4108346D01*
X35092772Y4119569D01*
X35156854Y4091726D01*
X35165082Y4084206D01*
X35312283Y3937005D01*
X35397169Y3877567D01*
X35505849Y3801468D01*
X35505851Y3801467D01*
X35505854Y3801465D01*
X35720021Y3701597D01*
X35948276Y3640437D01*
X36124718Y3625000D01*
X36183683Y3619841D01*
X36183684Y3619841D01*
X36183685Y3619841D01*
X36242650Y3625000D01*
X36419092Y3640437D01*
X36647347Y3701597D01*
X36861513Y3801465D01*
X37055085Y3937005D01*
X37222179Y4104099D01*
X37357719Y4297671D01*
X37457587Y4511837D01*
X37518747Y4740092D01*
X37534184Y4916534D01*
X37534184Y5037897D01*
X40063764Y5037897D01*
X41125839Y3975823D01*
X42187914Y5037897D01*
X41125839Y6099972D01*
X40063764Y5037897D01*
X37534184Y5037897D01*
X37534184Y5334466D01*
X37518747Y5510908D01*
X37471496Y5687254D01*
X37457589Y5739156D01*
X37457588Y5739157D01*
X37457587Y5739163D01*
X37357719Y5953329D01*
X37356294Y5955365D01*
X37222178Y6146903D01*
X37055088Y6313993D01*
X36987059Y6361628D01*
X36943435Y6416206D01*
X36934184Y6463202D01*
X36934184Y6805664D01*
X38295998Y6805664D01*
X39358072Y5743590D01*
X40420147Y6805664D01*
X41831531Y6805664D01*
X42893606Y5743590D01*
X43955681Y6805664D01*
X42893606Y7867739D01*
X41831531Y6805664D01*
X40420147Y6805664D01*
X39358072Y7867739D01*
X38295998Y6805664D01*
X36934184Y6805664D01*
X36934184Y8166795D01*
X36935493Y8184765D01*
X36938973Y8208526D01*
X36934420Y8260561D01*
X36934184Y8265968D01*
X36934184Y8791795D01*
X36935493Y8809765D01*
X36937586Y8824057D01*
X36938973Y8833523D01*
X36938818Y8835290D01*
X36934420Y8885566D01*
X36934184Y8890972D01*
X36934184Y8899203D01*
X36934184Y8899209D01*
X36930377Y8931776D01*
X36923683Y9008297D01*
X36923683Y9008299D01*
X36922223Y9015371D01*
X36922281Y9015384D01*
X36920649Y9022743D01*
X36920590Y9022728D01*
X36918926Y9029747D01*
X36918925Y9029755D01*
X36892658Y9101924D01*
X36868498Y9174834D01*
X36868495Y9174838D01*
X36865444Y9181382D01*
X36865499Y9181409D01*
X36862217Y9188187D01*
X36862164Y9188160D01*
X36858919Y9194620D01*
X36848962Y9209758D01*
X36816712Y9258792D01*
X36776396Y9324155D01*
X36776395Y9324156D01*
X36776394Y9324158D01*
X36771918Y9329818D01*
X36771965Y9329856D01*
X36767203Y9335701D01*
X36767158Y9335662D01*
X36762518Y9341192D01*
X36734190Y9367919D01*
X37857892Y9367919D01*
X37867291Y9342097D01*
X37868426Y9338672D01*
X37881977Y9293404D01*
X37882911Y9289921D01*
X37892595Y9249061D01*
X37893989Y9243858D01*
X37894822Y9240346D01*
X37895914Y9235054D01*
X37897145Y9229863D01*
X37897875Y9226323D01*
X37898796Y9221095D01*
X37907305Y9179892D01*
X37907932Y9176338D01*
X37914779Y9129582D01*
X37915198Y9126000D01*
X37923315Y9033215D01*
X37927329Y8998874D01*
X37929544Y8973565D01*
X37931444Y8940963D01*
X37931472Y8939961D01*
X37935865Y8889763D01*
X37936075Y8886159D01*
X37937449Y8838899D01*
X37937449Y8835290D01*
X37935651Y8773622D01*
X37935441Y8770022D01*
X37932184Y8732809D01*
X37932184Y8306838D01*
X37935865Y8264768D01*
X37936075Y8261164D01*
X37937449Y8213903D01*
X37937449Y8210294D01*
X37935651Y8148623D01*
X37935441Y8145023D01*
X37932184Y8107810D01*
X37932184Y7853235D01*
X38652380Y8573432D01*
X40063764Y8573432D01*
X41125838Y7511357D01*
X41806141Y8191660D01*
X41763224Y8208652D01*
X41759649Y8210199D01*
X41713462Y8231933D01*
X41709990Y8233702D01*
X41678654Y8250930D01*
X41645838Y8265129D01*
X41642311Y8266789D01*
X41596828Y8289963D01*
X41593413Y8291840D01*
X41536044Y8325768D01*
X41532754Y8327856D01*
X41500063Y8350074D01*
X41466679Y8371259D01*
X41463455Y8373449D01*
X41409542Y8412620D01*
X41406464Y8415007D01*
X41367138Y8447539D01*
X41364215Y8450116D01*
X41329618Y8482606D01*
X41306000Y8503427D01*
X41285975Y8522233D01*
X41263707Y8544500D01*
X41200430Y8603921D01*
X41197675Y8606677D01*
X41162732Y8643888D01*
X41160155Y8646811D01*
X41154202Y8654007D01*
X40821208Y8987001D01*
X40477334Y8987001D01*
X40063764Y8573432D01*
X38652380Y8573432D01*
X37857892Y9367919D01*
X36734190Y9367919D01*
X36706648Y9393904D01*
X34895502Y11205050D01*
X34862017Y11266373D01*
X34859183Y11292731D01*
X34859183Y11701500D01*
X36935696Y11701500D01*
X37590305Y11046891D01*
X38520184Y11976769D01*
X38520184Y11994611D01*
X38508760Y11986847D01*
X38505469Y11984758D01*
X38474695Y11966561D01*
X38445777Y11945548D01*
X38442555Y11943358D01*
X38399467Y11916011D01*
X38396112Y11914027D01*
X38337706Y11881916D01*
X38334233Y11880147D01*
X38298419Y11863294D01*
X38263217Y11845356D01*
X38259688Y11843695D01*
X38198519Y11817226D01*
X38194897Y11815792D01*
X38146880Y11798505D01*
X38143174Y11797301D01*
X38108831Y11787325D01*
X38075571Y11774155D01*
X38071905Y11772835D01*
X38023361Y11757062D01*
X38019618Y11755975D01*
X37955055Y11739399D01*
X37951250Y11738548D01*
X37912399Y11731140D01*
X37873905Y11722531D01*
X37870076Y11721801D01*
X37804237Y11711369D01*
X37800368Y11710880D01*
X37749529Y11706074D01*
X37745638Y11705829D01*
X37698208Y11704341D01*
X37666823Y11702364D01*
X37639353Y11701500D01*
X37607857Y11701500D01*
X37521069Y11698773D01*
X37517172Y11698773D01*
X37466147Y11700377D01*
X37462258Y11700622D01*
X37452976Y11701500D01*
X36935696Y11701500D01*
X34859183Y11701500D01*
X34859183Y11828371D01*
X34859182Y11828377D01*
X34859181Y11828384D01*
X34852775Y11887983D01*
X34843061Y11914027D01*
X34802481Y12022829D01*
X34802477Y12022836D01*
X34716231Y12138045D01*
X34716228Y12138048D01*
X34601019Y12224294D01*
X34601012Y12224298D01*
X34466170Y12274590D01*
X34466169Y12274591D01*
X34466167Y12274591D01*
X34406557Y12281000D01*
X34406547Y12281000D01*
X33860814Y12281000D01*
X33860803Y12280999D01*
X33821937Y12276821D01*
X33795432Y12276821D01*
X33756558Y12281000D01*
X33210816Y12281000D01*
X33210801Y12280999D01*
X33169588Y12276569D01*
X33143086Y12276569D01*
X33106518Y12280500D01*
X33058684Y12280500D01*
X33043072Y12264889D01*
X33038999Y12251015D01*
X33008997Y12218790D01*
X32901138Y12138046D01*
X32901137Y12138045D01*
X32901136Y12138044D01*
X32831950Y12045624D01*
X32776016Y12003753D01*
X32706325Y11998769D01*
X32645002Y12032255D01*
X32611518Y12093578D01*
X32608684Y12119935D01*
X32608684Y12280500D01*
X32560848Y12280500D01*
X32521936Y12276317D01*
X32495432Y12276317D01*
X32456519Y12280500D01*
X32408684Y12280500D01*
X32408684Y12119935D01*
X32388999Y12052896D01*
X32336195Y12007141D01*
X32267037Y11997197D01*
X32203481Y12026222D01*
X32185418Y12045624D01*
X32135518Y12112281D01*
X32116230Y12138046D01*
X32008371Y12218789D01*
X31972572Y12266612D01*
X31958684Y12280500D01*
X31910849Y12280500D01*
X31874282Y12276569D01*
X31847776Y12276569D01*
X31806557Y12281000D01*
X31260814Y12281000D01*
X31260803Y12280999D01*
X31221937Y12276821D01*
X31195432Y12276821D01*
X31156558Y12281000D01*
X30610814Y12281000D01*
X30610803Y12280999D01*
X30571937Y12276821D01*
X30545432Y12276821D01*
X30506558Y12281000D01*
X29960814Y12281000D01*
X29960803Y12280999D01*
X29921937Y12276821D01*
X29895432Y12276821D01*
X29856558Y12281000D01*
X29310816Y12281000D01*
X29310801Y12280999D01*
X29269588Y12276569D01*
X29243086Y12276569D01*
X29206518Y12280500D01*
X29158684Y12280500D01*
X29143072Y12264889D01*
X29138999Y12251015D01*
X29108997Y12218790D01*
X29001138Y12138046D01*
X29001137Y12138045D01*
X29001136Y12138044D01*
X28931950Y12045624D01*
X28876016Y12003753D01*
X28806325Y11998769D01*
X28745002Y12032255D01*
X28711518Y12093578D01*
X28708684Y12119935D01*
X28708684Y12280500D01*
X28660848Y12280500D01*
X28621936Y12276317D01*
X28595432Y12276317D01*
X28556519Y12280500D01*
X28508684Y12280500D01*
X28508684Y12119935D01*
X28488999Y12052896D01*
X28436195Y12007141D01*
X28367037Y11997197D01*
X28303481Y12026222D01*
X28285418Y12045624D01*
X28235518Y12112281D01*
X28216230Y12138046D01*
X28108371Y12218789D01*
X28072572Y12266612D01*
X28058684Y12280500D01*
X28010849Y12280500D01*
X27974282Y12276569D01*
X27947776Y12276569D01*
X27906557Y12281000D01*
X27360814Y12281000D01*
X27360803Y12280999D01*
X27321937Y12276821D01*
X27295432Y12276821D01*
X27256558Y12281000D01*
X26710813Y12281000D01*
X26710807Y12280999D01*
X26651200Y12274592D01*
X26516355Y12224298D01*
X26516348Y12224294D01*
X26401139Y12138048D01*
X26401136Y12138045D01*
X26314890Y12022836D01*
X26314886Y12022829D01*
X26264592Y11887983D01*
X26261658Y11860686D01*
X26258185Y11828377D01*
X26258184Y11828365D01*
X26258184Y11292731D01*
X26238499Y11225692D01*
X26221865Y11205050D01*
X24448042Y9431228D01*
X24434413Y9419449D01*
X24415152Y9405110D01*
X24381582Y9365103D01*
X24377937Y9361124D01*
X24372093Y9355278D01*
X24351743Y9329541D01*
X24302379Y9270711D01*
X24298413Y9264681D01*
X24298366Y9264712D01*
X24294314Y9258353D01*
X24294363Y9258323D01*
X24290573Y9252179D01*
X24258108Y9182559D01*
X24223644Y9113934D01*
X24221172Y9107143D01*
X24221116Y9107164D01*
X24218644Y9100050D01*
X24218699Y9100031D01*
X24216426Y9093173D01*
X24210366Y9063821D01*
X24200891Y9017935D01*
X24189454Y8969676D01*
X24183182Y8943214D01*
X24182345Y8936046D01*
X24182285Y8936053D01*
X24181519Y8928555D01*
X24181579Y8928549D01*
X24180949Y8921360D01*
X24183184Y8844584D01*
X24183184Y8319845D01*
X24181519Y8303555D01*
X24181579Y8303549D01*
X24180949Y8296360D01*
X24183184Y8219584D01*
X24183184Y6680801D01*
X24163499Y6613762D01*
X24110695Y6568007D01*
X24098191Y6563097D01*
X24096389Y6562499D01*
X24014352Y6535315D01*
X24014347Y6535313D01*
X23865026Y6443211D01*
X23740973Y6319158D01*
X23648871Y6169837D01*
X23648869Y6169832D01*
X23630745Y6115136D01*
X23593685Y6003297D01*
X23593685Y6003296D01*
X23593684Y6003296D01*
X23583184Y5900517D01*
X23583184Y4300499D01*
X19823404Y4300499D01*
X19803253Y4530821D01*
X19799320Y4545500D01*
X20868684Y4545500D01*
X20868684Y6243328D01*
X20868683Y6243345D01*
X20862282Y6302873D01*
X20862280Y6302880D01*
X20812038Y6437587D01*
X20812034Y6437594D01*
X20725874Y6552688D01*
X20725871Y6552691D01*
X20610777Y6638851D01*
X20610770Y6638855D01*
X20476063Y6689097D01*
X20476056Y6689099D01*
X20416528Y6695500D01*
X18718684Y6695500D01*
X18718684Y5626136D01*
X18704005Y5630069D01*
X18527629Y5645500D01*
X18409739Y5645500D01*
X18233363Y5630069D01*
X18218684Y5626136D01*
X18218684Y6695500D01*
X16520839Y6695500D01*
X16461311Y6689099D01*
X16461304Y6689097D01*
X16326597Y6638855D01*
X16326590Y6638851D01*
X16211496Y6552691D01*
X16211493Y6552688D01*
X16125333Y6437594D01*
X16125329Y6437587D01*
X16075087Y6302880D01*
X16075085Y6302873D01*
X16068684Y6243345D01*
X16068684Y5168217D01*
X16048999Y5101178D01*
X15996195Y5055423D01*
X15927037Y5045479D01*
X15863481Y5074504D01*
X15826753Y5129899D01*
X15798186Y5217816D01*
X15792243Y5230446D01*
X15730850Y5360914D01*
X15664221Y5502507D01*
X15595890Y5610180D01*
X15495632Y5768162D01*
X15495629Y5768166D01*
X15295077Y6010591D01*
X15295075Y6010593D01*
X15281462Y6023377D01*
X15065714Y6225978D01*
X15065711Y6225980D01*
X15065705Y6225985D01*
X14811179Y6410909D01*
X14811172Y6410914D01*
X14811168Y6410916D01*
X14535450Y6562494D01*
X14535447Y6562496D01*
X14535442Y6562498D01*
X14535441Y6562499D01*
X14242912Y6678319D01*
X14242909Y6678320D01*
X13938160Y6756566D01*
X13938147Y6756568D01*
X13626013Y6796000D01*
X13626002Y6796000D01*
X13311366Y6796000D01*
X13311354Y6796000D01*
X12999220Y6756568D01*
X12999207Y6756566D01*
X12694458Y6678320D01*
X12694455Y6678319D01*
X12428829Y6573150D01*
X12359251Y6566773D01*
X12297271Y6599026D01*
X12295501Y6600761D01*
X11476279Y7419983D01*
X21232645Y7419983D01*
X21354272Y7328931D01*
X21357719Y7326154D01*
X21401549Y7288175D01*
X21404790Y7285158D01*
X21458342Y7231606D01*
X21461359Y7228365D01*
X21499338Y7184535D01*
X21502115Y7181088D01*
X21633666Y7005361D01*
X21636191Y7001724D01*
X21667548Y6952933D01*
X21669808Y6949125D01*
X21706107Y6882649D01*
X21708088Y6878691D01*
X21732185Y6825927D01*
X21733880Y6821836D01*
X21808940Y6620589D01*
X21810180Y6616918D01*
X21824915Y6568341D01*
X21825923Y6564598D01*
X21841157Y6500117D01*
X21841929Y6496324D01*
X21850488Y6446330D01*
X21851022Y6442494D01*
X21862573Y6335063D01*
X21864453Y6311701D01*
X21866059Y6281698D01*
X21866684Y6258334D01*
X21866684Y5929870D01*
X22742478Y6805664D01*
X21680402Y7867740D01*
X21232645Y7419983D01*
X11476279Y7419983D01*
X11320946Y7575316D01*
X11320943Y7575318D01*
X11285588Y7597534D01*
X11279913Y7601560D01*
X11247273Y7627590D01*
X11209643Y7645713D01*
X11203556Y7649078D01*
X11168209Y7671288D01*
X11128798Y7685079D01*
X11122372Y7687741D01*
X11084745Y7705861D01*
X11044029Y7715155D01*
X11037346Y7717080D01*
X10997943Y7730868D01*
X10956447Y7735545D01*
X10949592Y7736709D01*
X10908884Y7745999D01*
X10908880Y7746000D01*
X10908878Y7746000D01*
X10908875Y7746000D01*
X9370413Y7746000D01*
X9327080Y7753818D01*
X9231166Y7789592D01*
X9231167Y7789592D01*
X9171567Y7795999D01*
X9171565Y7796000D01*
X9171557Y7796000D01*
X9171548Y7796000D01*
X7575813Y7796000D01*
X7575807Y7795999D01*
X7516200Y7789592D01*
X7381355Y7739298D01*
X7381348Y7739294D01*
X7266139Y7653048D01*
X7266136Y7653045D01*
X7179890Y7537836D01*
X7179886Y7537829D01*
X7129592Y7402983D01*
X7123185Y7343384D01*
X7123184Y7343365D01*
X7123184Y6930144D01*
X7103499Y6863105D01*
X7050695Y6817350D01*
X6981537Y6807406D01*
X6948761Y6818014D01*
X6948627Y6817658D01*
X6941614Y6820318D01*
X6895919Y6837648D01*
X6782558Y6880640D01*
X6782552Y6880641D01*
X6656058Y6896000D01*
X6656056Y6896000D01*
X6571312Y6896000D01*
X6571310Y6896000D01*
X6444815Y6880641D01*
X6444809Y6880640D01*
X6285752Y6820318D01*
X6145756Y6723684D01*
X6032947Y6596350D01*
X5953894Y6445727D01*
X5926280Y6333688D01*
X5913184Y6280556D01*
X5913184Y6110444D01*
X4369586Y6110444D01*
X5000422Y6741280D01*
X5008168Y6766135D01*
X5009391Y6769677D01*
X5032113Y6829587D01*
X5033547Y6833048D01*
X5034750Y6835722D01*
X4355023Y7515449D01*
X3292948Y6453374D01*
X1774427Y6453374D01*
X3465268Y8141329D01*
X12211595Y8141329D01*
X12654494Y7698430D01*
X12768076Y7727591D01*
X12794845Y7733576D01*
X12829476Y7740185D01*
X12856627Y7744486D01*
X13106229Y7776019D01*
X13903642Y8573432D01*
X15315026Y8573432D01*
X16228813Y7659645D01*
X16264067Y7667973D01*
X16267860Y7668745D01*
X16317854Y7677304D01*
X16321690Y7677838D01*
X16429121Y7689389D01*
X16452483Y7691269D01*
X16482486Y7692875D01*
X16505850Y7693500D01*
X16559246Y7693500D01*
X17439177Y8573431D01*
X18850561Y8573431D01*
X19730492Y7693500D01*
X20094780Y7693500D01*
X20974711Y8573431D01*
X22386095Y8573431D01*
X23185184Y7774342D01*
X23185184Y8205064D01*
X23182474Y8298162D01*
X23182474Y8301770D01*
X23183849Y8349009D01*
X23184059Y8352610D01*
X23185184Y8365470D01*
X23185184Y8815448D01*
X23045870Y8801215D01*
X23023677Y8799519D01*
X22995157Y8798066D01*
X22972932Y8797501D01*
X22610165Y8797501D01*
X22386095Y8573431D01*
X20974711Y8573431D01*
X19912636Y9635506D01*
X18850561Y8573431D01*
X17439177Y8573431D01*
X17215107Y8797501D01*
X16944438Y8797500D01*
X16922215Y8798065D01*
X16893691Y8799518D01*
X16871490Y8801216D01*
X16725777Y8816102D01*
X16722422Y8816538D01*
X16678646Y8823439D01*
X16675320Y8824057D01*
X16618764Y8836167D01*
X16615480Y8836965D01*
X16572750Y8848582D01*
X16569513Y8849557D01*
X16346367Y8923500D01*
X16342978Y8924734D01*
X16299075Y8942175D01*
X16295763Y8943604D01*
X16239847Y8969676D01*
X16236623Y8971295D01*
X16195022Y8993725D01*
X16191898Y8995529D01*
X15990156Y9119964D01*
X15987141Y9121947D01*
X15948426Y9149057D01*
X15945532Y9151211D01*
X15916087Y9174493D01*
X15315026Y8573432D01*
X13903642Y8573432D01*
X12944270Y9532804D01*
X12943028Y9522833D01*
X12935394Y9477075D01*
X12927976Y9441694D01*
X12859607Y9171711D01*
X12849292Y9137070D01*
X12834228Y9093193D01*
X12821097Y9059543D01*
X12709232Y8804514D01*
X12693360Y8772051D01*
X12671282Y8731252D01*
X12652786Y8700213D01*
X12500459Y8467059D01*
X12479438Y8437620D01*
X12450941Y8401013D01*
X12427613Y8373473D01*
X12239017Y8168601D01*
X12213475Y8143058D01*
X12211595Y8141329D01*
X3465268Y8141329D01*
X4482705Y9157030D01*
X4482877Y9157143D01*
X4500381Y9174617D01*
X4500381Y9174618D01*
X4500383Y9174618D01*
X4500472Y9174834D01*
X4500542Y9175000D01*
X4500542Y9175001D01*
X4500542Y9199874D01*
X4500488Y9200144D01*
X4500487Y9201987D01*
X4500000Y10364962D01*
X4500000Y10457554D01*
X4519685Y10524593D01*
X4572489Y10570348D01*
X4641647Y10580292D01*
X4705203Y10551267D01*
X4723262Y10531870D01*
X4756138Y10487954D01*
X4796747Y10457554D01*
X4871348Y10401707D01*
X4871355Y10401703D01*
X5006201Y10351409D01*
X5006200Y10351409D01*
X5013128Y10350665D01*
X5065811Y10345000D01*
X5961556Y10345001D01*
X6021167Y10351409D01*
X6156015Y10401704D01*
X6271230Y10487954D01*
X6357480Y10603169D01*
X6407775Y10738017D01*
X6414184Y10797627D01*
X6414183Y11889615D01*
X6433868Y11956653D01*
X6486671Y12002408D01*
X6538178Y12013614D01*
X6699185Y12013614D01*
X6766223Y11993929D01*
X6811978Y11941125D01*
X6823184Y11889614D01*
X6823184Y10797630D01*
X6823185Y10797624D01*
X6829592Y10738017D01*
X6879886Y10603172D01*
X6879890Y10603165D01*
X6933266Y10531865D01*
X6966138Y10487954D01*
X7073495Y10407586D01*
X7115366Y10351653D01*
X7123184Y10308320D01*
X7123184Y9930144D01*
X7103499Y9863105D01*
X7050695Y9817350D01*
X6981537Y9807406D01*
X6948761Y9818014D01*
X6948627Y9817658D01*
X6941614Y9820318D01*
X6895919Y9837648D01*
X6782558Y9880640D01*
X6782552Y9880641D01*
X6656058Y9896000D01*
X6656056Y9896000D01*
X6571312Y9896000D01*
X6571310Y9896000D01*
X6444815Y9880641D01*
X6444809Y9880640D01*
X6285752Y9820318D01*
X6145756Y9723684D01*
X6032947Y9596350D01*
X5953894Y9445727D01*
X5916351Y9293404D01*
X5913184Y9280556D01*
X5913184Y9110444D01*
X5925730Y9059543D01*
X5953894Y8945274D01*
X6032947Y8794651D01*
X6038247Y8788669D01*
X6145755Y8667317D01*
X6230871Y8608565D01*
X6285752Y8570683D01*
X6285753Y8570683D01*
X6285754Y8570682D01*
X6444812Y8510360D01*
X6520712Y8501144D01*
X6571310Y8495000D01*
X6571312Y8495000D01*
X6656058Y8495000D01*
X6698222Y8500120D01*
X6782556Y8510360D01*
X6941614Y8570682D01*
X7081613Y8667317D01*
X7194418Y8794648D01*
X7195916Y8797501D01*
X7273474Y8945275D01*
X7294935Y9032347D01*
X7295841Y9036024D01*
X7330997Y9096404D01*
X7393216Y9128193D01*
X7459569Y9122532D01*
X7516201Y9101409D01*
X7575811Y9095000D01*
X9171556Y9095001D01*
X9231167Y9101409D01*
X9285739Y9121764D01*
X9355429Y9126749D01*
X9416752Y9093264D01*
X9432880Y9073404D01*
X9459699Y9032355D01*
X9459701Y9032353D01*
X9459705Y9032347D01*
X9616900Y8861587D01*
X9616903Y8861585D01*
X9616906Y8861582D01*
X9800049Y8719036D01*
X9800055Y8719032D01*
X9800058Y8719030D01*
X10004181Y8608564D01*
X10118171Y8569432D01*
X10223699Y8533203D01*
X10223701Y8533203D01*
X10223703Y8533202D01*
X10452635Y8495000D01*
X10452636Y8495000D01*
X10684732Y8495000D01*
X10684733Y8495000D01*
X10913665Y8533202D01*
X11133187Y8608564D01*
X11337310Y8719030D01*
X11352168Y8730594D01*
X11407450Y8773622D01*
X11520468Y8861587D01*
X11677663Y9032347D01*
X11804608Y9226651D01*
X11897841Y9439200D01*
X11954818Y9664195D01*
X11957045Y9691066D01*
X11973984Y9895494D01*
X11973984Y9895507D01*
X11954819Y10126798D01*
X11954817Y10126809D01*
X11900526Y10341198D01*
X13547260Y10341198D01*
X14609334Y9279124D01*
X15343553Y10013343D01*
X15312736Y10106342D01*
X15311760Y10109581D01*
X15300137Y10152340D01*
X15299339Y10155627D01*
X15287232Y10212187D01*
X15286614Y10215513D01*
X15279719Y10259264D01*
X15279284Y10262616D01*
X15264399Y10408314D01*
X15262703Y10430507D01*
X15261250Y10459027D01*
X15260685Y10481252D01*
X15260685Y10645500D01*
X16258685Y10645500D01*
X16258685Y10495514D01*
X16269178Y10392803D01*
X16324325Y10226381D01*
X16324327Y10226376D01*
X16416368Y10077155D01*
X16540338Y9953185D01*
X16689559Y9861144D01*
X16689564Y9861142D01*
X16855986Y9805995D01*
X16855993Y9805994D01*
X16958703Y9795501D01*
X17208683Y9795501D01*
X17208684Y9795502D01*
X17208684Y10645500D01*
X17708684Y10645500D01*
X17708684Y9795501D01*
X17958656Y9795501D01*
X17958670Y9795502D01*
X18061381Y9805995D01*
X18227803Y9861142D01*
X18227808Y9861144D01*
X18377029Y9953185D01*
X18500999Y10077155D01*
X18593040Y10226376D01*
X18593042Y10226381D01*
X18648189Y10392803D01*
X18648190Y10392810D01*
X18658683Y10495514D01*
X18658684Y10495527D01*
X18658684Y10645500D01*
X21258685Y10645500D01*
X21258685Y10495514D01*
X21269178Y10392803D01*
X21324325Y10226381D01*
X21324327Y10226376D01*
X21416368Y10077155D01*
X21540338Y9953185D01*
X21689559Y9861144D01*
X21689564Y9861142D01*
X21855986Y9805995D01*
X21855993Y9805994D01*
X21958703Y9795501D01*
X22208683Y9795501D01*
X22208684Y9795502D01*
X22208684Y10645500D01*
X22708684Y10645500D01*
X22708684Y9795501D01*
X22958656Y9795501D01*
X22958670Y9795502D01*
X23061381Y9805995D01*
X23227803Y9861142D01*
X23227808Y9861144D01*
X23377029Y9953185D01*
X23500999Y10077155D01*
X23593040Y10226376D01*
X23593042Y10226381D01*
X23648189Y10392803D01*
X23648190Y10392810D01*
X23658683Y10495514D01*
X23658684Y10495527D01*
X23658684Y10645500D01*
X22708684Y10645500D01*
X22208684Y10645500D01*
X21258685Y10645500D01*
X18658684Y10645500D01*
X17708684Y10645500D01*
X17208684Y10645500D01*
X16258685Y10645500D01*
X15260685Y10645500D01*
X15260685Y10751923D01*
X14609335Y11403273D01*
X13547260Y10341198D01*
X11900526Y10341198D01*
X11897841Y10351801D01*
X11804608Y10564349D01*
X11677667Y10758648D01*
X11677664Y10758651D01*
X11677663Y10758653D01*
X11520468Y10929413D01*
X11520463Y10929417D01*
X11520461Y10929419D01*
X11337318Y11071965D01*
X11337312Y11071969D01*
X11133188Y11182436D01*
X11133179Y11182439D01*
X10913668Y11257798D01*
X10741966Y11286450D01*
X10684733Y11296000D01*
X10452635Y11296000D01*
X10406848Y11288360D01*
X10223699Y11257798D01*
X10004188Y11182439D01*
X10004179Y11182436D01*
X9800055Y11071969D01*
X9800049Y11071965D01*
X9616906Y10929419D01*
X9616903Y10929416D01*
X9616900Y10929414D01*
X9616900Y10929413D01*
X9484894Y10786016D01*
X9425009Y10750027D01*
X9393666Y10746000D01*
X9370413Y10746000D01*
X9327080Y10753818D01*
X9231166Y10789592D01*
X9231167Y10789592D01*
X9171567Y10795999D01*
X9171565Y10796000D01*
X9171557Y10796000D01*
X9171549Y10796000D01*
X8748184Y10796000D01*
X8681145Y10815685D01*
X8635390Y10868489D01*
X8624184Y10920000D01*
X8624183Y11889614D01*
X8643867Y11956653D01*
X8696671Y12002408D01*
X8748183Y12013614D01*
X10406555Y12013614D01*
X10406556Y12013614D01*
X10466167Y12020022D01*
X10601015Y12070317D01*
X10716230Y12156567D01*
X10802480Y12271782D01*
X10852775Y12406630D01*
X10859184Y12466240D01*
X10859184Y12764613D01*
X10878869Y12831652D01*
X10931673Y12877407D01*
X10983184Y12888613D01*
X11827626Y12888613D01*
X11894665Y12868928D01*
X11933163Y12829712D01*
X12015972Y12695457D01*
X12140028Y12571401D01*
X12289350Y12479299D01*
X12455887Y12424114D01*
X12558675Y12413613D01*
X13558692Y12413614D01*
X13558700Y12413615D01*
X13558703Y12413615D01*
X13614986Y12419365D01*
X13661481Y12424114D01*
X13828018Y12479299D01*
X13977340Y12571401D01*
X14101396Y12695457D01*
X14193498Y12844779D01*
X14248683Y13011316D01*
X14259184Y13114104D01*
X14259183Y13778663D01*
X14278867Y13845701D01*
X14295497Y13866338D01*
X16206505Y15777346D01*
X16267826Y15810829D01*
X16337518Y15805845D01*
X16393451Y15763973D01*
X16417868Y15698509D01*
X16418184Y15689663D01*
X16418184Y14347630D01*
X16418185Y14347624D01*
X16424592Y14288017D01*
X16474886Y14153172D01*
X16474890Y14153165D01*
X16561136Y14037956D01*
X16565734Y14033358D01*
X16599219Y13972035D01*
X16594235Y13902343D01*
X16552363Y13846410D01*
X16543157Y13840143D01*
X16540032Y13838216D01*
X16540027Y13838212D01*
X16415973Y13714158D01*
X16323871Y13564837D01*
X16323869Y13564832D01*
X16321836Y13558696D01*
X16268685Y13398297D01*
X16268685Y13398296D01*
X16268684Y13398296D01*
X16258184Y13295517D01*
X16258184Y12495499D01*
X16258185Y12495481D01*
X16268684Y12392704D01*
X16268685Y12392701D01*
X16323869Y12226169D01*
X16323871Y12226164D01*
X16328421Y12218787D01*
X16409195Y12087831D01*
X16415973Y12076843D01*
X16509988Y11982828D01*
X16543473Y11921505D01*
X16538489Y11851813D01*
X16509989Y11807466D01*
X16416366Y11713843D01*
X16324327Y11564625D01*
X16324325Y11564620D01*
X16269178Y11398198D01*
X16269177Y11398191D01*
X16258684Y11295487D01*
X16258684Y11145500D01*
X18658683Y11145500D01*
X18658683Y11221000D01*
X18678368Y11288039D01*
X18731172Y11333794D01*
X18782683Y11345000D01*
X21134684Y11345000D01*
X21201723Y11325315D01*
X21247478Y11272511D01*
X21258684Y11221000D01*
X21258684Y11145500D01*
X23658683Y11145500D01*
X23658683Y11295472D01*
X23658682Y11295487D01*
X23648190Y11398194D01*
X23648189Y11398196D01*
X23626919Y11462387D01*
X23624517Y11532216D01*
X23656942Y11589070D01*
X24931556Y12863681D01*
X24992879Y12897166D01*
X25019237Y12900000D01*
X34234049Y12900000D01*
X34301088Y12880315D01*
X34321730Y12863681D01*
X34330525Y12854886D01*
X34330529Y12854883D01*
X34330532Y12854880D01*
X34336014Y12850627D01*
X34340446Y12846843D01*
X34374421Y12814938D01*
X34391979Y12805286D01*
X34408236Y12794607D01*
X34424067Y12782327D01*
X34443740Y12773814D01*
X34466836Y12763818D01*
X34472080Y12761250D01*
X34512911Y12738803D01*
X34525526Y12735565D01*
X34532308Y12733823D01*
X34550722Y12727519D01*
X34569107Y12719562D01*
X34615160Y12712268D01*
X34620829Y12711094D01*
X34665984Y12699500D01*
X34686019Y12699500D01*
X34705416Y12697974D01*
X34725199Y12694840D01*
X34771587Y12699225D01*
X34777425Y12699500D01*
X37499622Y12699500D01*
X37515242Y12697776D01*
X37515269Y12698061D01*
X37523025Y12697329D01*
X37523032Y12697327D01*
X37592179Y12699500D01*
X37621715Y12699500D01*
X37628593Y12700370D01*
X37634406Y12700828D01*
X37680992Y12702291D01*
X37700234Y12707883D01*
X37719277Y12711826D01*
X37739157Y12714336D01*
X37782487Y12731493D01*
X37788011Y12733383D01*
X37800447Y12736996D01*
X37832755Y12746382D01*
X37849994Y12756578D01*
X37867468Y12765138D01*
X37886092Y12772512D01*
X37886092Y12772513D01*
X37886097Y12772514D01*
X37923814Y12799918D01*
X37928670Y12803108D01*
X37968785Y12826830D01*
X37982954Y12841001D01*
X37997744Y12853632D01*
X38013952Y12865406D01*
X38043664Y12901324D01*
X38047577Y12905624D01*
X38355637Y13213684D01*
X38416959Y13247166D01*
X38443317Y13250000D01*
X45392410Y13250000D01*
X45459449Y13230315D01*
X45499796Y13188001D01*
X45577996Y13052555D01*
X45615128Y13011316D01*
X45704658Y12911883D01*
X45851427Y12805249D01*
X45894093Y12749919D01*
X45900072Y12680306D01*
X45867466Y12618511D01*
X45806628Y12584154D01*
X45789350Y12581403D01*
X45671996Y12571136D01*
X45671986Y12571134D01*
X45452195Y12512242D01*
X45452186Y12512239D01*
X45245951Y12416069D01*
X45245949Y12416068D01*
X45059542Y12285546D01*
X44898638Y12124642D01*
X44768116Y11938235D01*
X44768115Y11938233D01*
X44760315Y11921505D01*
X44741855Y11881916D01*
X44741066Y11880225D01*
X44694893Y11827786D01*
X44627700Y11808634D01*
X44560819Y11828850D01*
X44516302Y11880225D01*
X44489252Y11938234D01*
X44358731Y12124639D01*
X44358729Y12124642D01*
X44197825Y12285546D01*
X44011418Y12416068D01*
X44011416Y12416069D01*
X43805181Y12512239D01*
X43805172Y12512242D01*
X43585381Y12571134D01*
X43585377Y12571135D01*
X43585376Y12571135D01*
X43585375Y12571136D01*
X43585370Y12571136D01*
X43358686Y12590968D01*
X43358682Y12590968D01*
X43131997Y12571136D01*
X43131986Y12571134D01*
X42912195Y12512242D01*
X42912186Y12512239D01*
X42705951Y12416069D01*
X42705949Y12416068D01*
X42519542Y12285546D01*
X42358638Y12124642D01*
X42341409Y12100036D01*
X42286831Y12056412D01*
X42217332Y12049220D01*
X42154978Y12080743D01*
X42119566Y12140974D01*
X42116545Y12157909D01*
X42116413Y12159135D01*
X42112775Y12192983D01*
X42101095Y12224298D01*
X42062481Y12327829D01*
X42062477Y12327836D01*
X41976231Y12443045D01*
X41976228Y12443048D01*
X41861019Y12529294D01*
X41861012Y12529298D01*
X41726166Y12579592D01*
X41726167Y12579592D01*
X41666567Y12585999D01*
X41666565Y12586000D01*
X41666557Y12586000D01*
X41666548Y12586000D01*
X39970813Y12586000D01*
X39970807Y12585999D01*
X39911200Y12579592D01*
X39776355Y12529298D01*
X39776348Y12529294D01*
X39661139Y12443048D01*
X39661136Y12443045D01*
X39574890Y12327836D01*
X39574886Y12327829D01*
X39524592Y12192983D01*
X39518185Y12133384D01*
X39518184Y12133365D01*
X39518184Y10437630D01*
X39518185Y10437624D01*
X39524592Y10378017D01*
X39574886Y10243172D01*
X39574890Y10243165D01*
X39661136Y10127956D01*
X39661139Y10127953D01*
X39776348Y10041707D01*
X39776355Y10041703D01*
X39911201Y9991409D01*
X39911200Y9991409D01*
X39918128Y9990665D01*
X39970811Y9985000D01*
X41183230Y9985001D01*
X41250269Y9965316D01*
X41270911Y9948682D01*
X41892881Y9326712D01*
X41902706Y9314449D01*
X41902927Y9314631D01*
X41907898Y9308622D01*
X41924104Y9293404D01*
X41958319Y9261274D01*
X41979213Y9240380D01*
X41984695Y9236127D01*
X41989127Y9232343D01*
X42023102Y9200438D01*
X42040660Y9190786D01*
X42056919Y9180105D01*
X42072748Y9167827D01*
X42115522Y9149318D01*
X42120740Y9146762D01*
X42161592Y9124303D01*
X42181000Y9119320D01*
X42199401Y9113020D01*
X42217788Y9105063D01*
X42261172Y9098192D01*
X42263803Y9097775D01*
X42269523Y9096591D01*
X42314665Y9085000D01*
X42334700Y9085000D01*
X42354098Y9083474D01*
X42373878Y9080341D01*
X42373879Y9080340D01*
X42373879Y9080341D01*
X42373880Y9080340D01*
X42420268Y9084725D01*
X42426106Y9085000D01*
X47986836Y9085000D01*
X48053875Y9065315D01*
X48074517Y9048681D01*
X50316865Y6806333D01*
X50350350Y6745010D01*
X50353184Y6718652D01*
X50353184Y6400727D01*
X50333499Y6333688D01*
X50300307Y6299152D01*
X50107281Y6163995D01*
X49940192Y5996906D01*
X49809953Y5810905D01*
X49755376Y5767281D01*
X49685877Y5760088D01*
X49623523Y5791610D01*
X49606803Y5810906D01*
X49476797Y5996574D01*
X49476792Y5996580D01*
X49309766Y6163606D01*
X49116262Y6299101D01*
X48902176Y6398930D01*
X48902170Y6398933D01*
X48688684Y6456136D01*
X48688684Y5561002D01*
X48580999Y5610180D01*
X48474447Y5625500D01*
X48402921Y5625500D01*
X48296369Y5610180D01*
X48188684Y5561002D01*
X48188684Y6456136D01*
X48188683Y6456136D01*
X47975197Y6398933D01*
X47975191Y6398930D01*
X47761106Y6299101D01*
X47761104Y6299100D01*
X47567610Y6163614D01*
X47567604Y6163609D01*
X47400575Y5996580D01*
X47400574Y5996578D01*
X47270564Y5810905D01*
X47215987Y5767281D01*
X47146488Y5760088D01*
X47084134Y5791610D01*
X47067414Y5810906D01*
X46937178Y5996903D01*
X46770086Y6163994D01*
X46770079Y6163999D01*
X46766087Y6166794D01*
X46693202Y6217829D01*
X46576518Y6299533D01*
X46576514Y6299535D01*
X46545509Y6313993D01*
X46362347Y6399403D01*
X46362343Y6399404D01*
X46362339Y6399406D01*
X46134097Y6460562D01*
X46134087Y6460564D01*
X45898685Y6481159D01*
X45898683Y6481159D01*
X45663280Y6460564D01*
X45663270Y6460562D01*
X45435028Y6399406D01*
X45435019Y6399402D01*
X45220855Y6299536D01*
X45220853Y6299535D01*
X45027281Y6163995D01*
X44860189Y5996903D01*
X44724649Y5803331D01*
X44724648Y5803329D01*
X44624782Y5589165D01*
X44624778Y5589156D01*
X44563622Y5360914D01*
X44563620Y5360904D01*
X44543025Y5125501D01*
X44543025Y5125500D01*
X44563620Y4890097D01*
X44563622Y4890087D01*
X44624778Y4661845D01*
X44624780Y4661841D01*
X44624781Y4661837D01*
X44694728Y4511836D01*
X44724649Y4447670D01*
X44724651Y4447666D01*
X44810194Y4325499D01*
X44860189Y4254099D01*
X45027283Y4087005D01*
X45099239Y4036621D01*
X45220849Y3951468D01*
X45220851Y3951467D01*
X45220854Y3951465D01*
X45435021Y3851597D01*
X45663276Y3790437D01*
X45851602Y3773961D01*
X45898683Y3769841D01*
X45898684Y3769841D01*
X45898685Y3769841D01*
X45937918Y3773274D01*
X46134092Y3790437D01*
X46234559Y3817357D01*
X46304405Y3815694D01*
X46354330Y3785263D01*
X46572881Y3566712D01*
X46582706Y3554449D01*
X46582927Y3554631D01*
X46587898Y3548622D01*
X46608727Y3529063D01*
X46638319Y3501274D01*
X46659213Y3480380D01*
X46664695Y3476127D01*
X46669127Y3472343D01*
X46703102Y3440438D01*
X46720660Y3430786D01*
X46736917Y3420107D01*
X46752748Y3407827D01*
X46772421Y3399314D01*
X46795517Y3389318D01*
X46800761Y3386750D01*
X46841592Y3364303D01*
X46854207Y3361065D01*
X46860989Y3359323D01*
X46879403Y3353019D01*
X46897788Y3345062D01*
X46943841Y3337768D01*
X46949510Y3336594D01*
X46994665Y3325000D01*
X47014700Y3325000D01*
X47034097Y3323474D01*
X47053880Y3320340D01*
X47100268Y3324725D01*
X47106106Y3325000D01*
X72580941Y3325000D01*
X72596561Y3323276D01*
X72596588Y3323561D01*
X72604344Y3322829D01*
X72604351Y3322827D01*
X72673498Y3325000D01*
X72703034Y3325000D01*
X72709912Y3325870D01*
X72715725Y3326328D01*
X72762311Y3327791D01*
X72781553Y3333383D01*
X72800596Y3337326D01*
X72820476Y3339836D01*
X72863806Y3356993D01*
X72869330Y3358883D01*
X72873080Y3359973D01*
X72914074Y3371882D01*
X72931313Y3382078D01*
X72948787Y3390638D01*
X72967411Y3398012D01*
X72967411Y3398013D01*
X72967416Y3398014D01*
X73005133Y3425418D01*
X73009989Y3428608D01*
X73050104Y3452330D01*
X73064273Y3466501D01*
X73079063Y3479132D01*
X73095271Y3490906D01*
X73124983Y3526824D01*
X73128896Y3531124D01*
X73383037Y3785265D01*
X73444358Y3818748D01*
X73502809Y3817357D01*
X73509016Y3815694D01*
X73603276Y3790437D01*
X73791602Y3773961D01*
X73838683Y3769841D01*
X73838684Y3769841D01*
X73838685Y3769841D01*
X73877918Y3773274D01*
X74074092Y3790437D01*
X74302347Y3851597D01*
X74516514Y3951465D01*
X74710085Y4087005D01*
X74877179Y4254099D01*
X74969051Y4385305D01*
X76071696Y4385305D01*
X76481178Y3975823D01*
X77543252Y5037897D01*
X78954637Y5037897D01*
X80016712Y3975823D01*
X81078787Y5037897D01*
X80016712Y6099972D01*
X78954637Y5037897D01*
X77543252Y5037897D01*
X77543253Y5037898D01*
X76795152Y5785998D01*
X76190953Y5181799D01*
X76192343Y5149986D01*
X76192343Y5101014D01*
X76190679Y5062907D01*
X76165815Y4778721D01*
X76160838Y4740913D01*
X76152335Y4692689D01*
X76144079Y4655447D01*
X76071696Y4385305D01*
X74969051Y4385305D01*
X75012719Y4447670D01*
X75112587Y4661837D01*
X75173747Y4890092D01*
X75194343Y5125500D01*
X75173747Y5360908D01*
X75146827Y5461375D01*
X75148490Y5531224D01*
X75178919Y5581147D01*
X76089462Y6491690D01*
X77500845Y6491690D01*
X78248945Y5743590D01*
X79311019Y6805664D01*
X80722405Y6805664D01*
X81784478Y5743590D01*
X82100656Y6059768D01*
X81038581Y7121843D01*
X80722405Y6805664D01*
X79311019Y6805664D01*
X79311020Y6805665D01*
X78562919Y7553765D01*
X77500845Y6491690D01*
X76089462Y6491690D01*
X77900412Y8302639D01*
X79225430Y8302639D01*
X80016711Y7511357D01*
X80332889Y7827535D01*
X79564560Y8595865D01*
X79537680Y8636093D01*
X79417584Y8926030D01*
X79416981Y8916441D01*
X79416614Y8912561D01*
X79408260Y8846446D01*
X79407650Y8842598D01*
X79398087Y8792472D01*
X79397237Y8788669D01*
X79388344Y8754044D01*
X79382752Y8718717D01*
X79382021Y8714887D01*
X79370885Y8665065D01*
X79369916Y8661291D01*
X79351318Y8597279D01*
X79350114Y8593571D01*
X79336706Y8556335D01*
X79324526Y8518840D01*
X79323206Y8515173D01*
X79298671Y8453196D01*
X79297124Y8449618D01*
X79275382Y8403412D01*
X79273611Y8399937D01*
X79256372Y8368582D01*
X79242170Y8335761D01*
X79240511Y8332236D01*
X79225430Y8302639D01*
X77900412Y8302639D01*
X78180597Y8582824D01*
X78192851Y8592639D01*
X78192668Y8592861D01*
X78198675Y8597833D01*
X78198686Y8597839D01*
X78241929Y8643888D01*
X78246036Y8648261D01*
X78256480Y8658707D01*
X78266929Y8669154D01*
X78271188Y8674647D01*
X78274961Y8679064D01*
X78306871Y8713043D01*
X78316524Y8730605D01*
X78327198Y8746855D01*
X78339482Y8762689D01*
X78357989Y8805458D01*
X78360558Y8810701D01*
X78367901Y8824057D01*
X78383006Y8851533D01*
X78387986Y8870934D01*
X78394287Y8889337D01*
X78402247Y8907729D01*
X78409539Y8953776D01*
X78410720Y8959473D01*
X78413340Y8969676D01*
X78422309Y9004606D01*
X78422309Y9024642D01*
X78423836Y9044043D01*
X78426969Y9063821D01*
X78422584Y9110210D01*
X78422309Y9116048D01*
X78422309Y29320963D01*
X79420309Y29320963D01*
X80016712Y28724560D01*
X81078787Y29786634D01*
X80143742Y30721679D01*
X80143071Y30709164D01*
X80141195Y30685864D01*
X80129640Y30578400D01*
X80129107Y30574565D01*
X80120546Y30524562D01*
X80119773Y30520766D01*
X80104538Y30456285D01*
X80103530Y30452545D01*
X80088797Y30403974D01*
X80087557Y30400304D01*
X80012448Y30198924D01*
X80010754Y30194833D01*
X79986656Y30142068D01*
X79984675Y30138109D01*
X79948376Y30071633D01*
X79946116Y30067825D01*
X79914759Y30019034D01*
X79912234Y30015397D01*
X79780597Y29839555D01*
X79777820Y29836108D01*
X79739841Y29792278D01*
X79736824Y29789037D01*
X79683272Y29735485D01*
X79680031Y29732468D01*
X79636201Y29694489D01*
X79632754Y29691712D01*
X79456912Y29560075D01*
X79453275Y29557550D01*
X79420309Y29536364D01*
X79420309Y29320963D01*
X78422309Y29320963D01*
X78422309Y30201001D01*
X78441994Y30268040D01*
X78494798Y30313795D01*
X78546309Y30325001D01*
X78694680Y30325001D01*
X78694681Y30325001D01*
X78754292Y30331409D01*
X78889140Y30381704D01*
X79004355Y30467954D01*
X79090605Y30583169D01*
X79140900Y30718017D01*
X79147309Y30777627D01*
X79147309Y31500000D01*
X81644341Y31500000D01*
X81664936Y31264597D01*
X81664938Y31264587D01*
X81726094Y31036345D01*
X81726096Y31036341D01*
X81726097Y31036337D01*
X81747660Y30990095D01*
X81825964Y30822172D01*
X81825965Y30822170D01*
X81961505Y30628598D01*
X82128597Y30461506D01*
X82322169Y30325966D01*
X82322171Y30325965D01*
X82536337Y30226097D01*
X82764592Y30164937D01*
X82941034Y30149500D01*
X83058966Y30149500D01*
X83235408Y30164937D01*
X83463663Y30226097D01*
X83677829Y30325965D01*
X83871401Y30461505D01*
X84038495Y30628599D01*
X84174035Y30822170D01*
X84273903Y31036337D01*
X84335063Y31264592D01*
X84355659Y31500000D01*
X84335063Y31735408D01*
X84273903Y31963663D01*
X84174035Y32177829D01*
X84174034Y32177831D01*
X84038494Y32371403D01*
X83871402Y32538495D01*
X83677830Y32674035D01*
X83677828Y32674036D01*
X83570746Y32723969D01*
X83463663Y32773903D01*
X83463659Y32773904D01*
X83463655Y32773906D01*
X83235413Y32835062D01*
X83235403Y32835064D01*
X83058966Y32850500D01*
X82941034Y32850500D01*
X82764596Y32835064D01*
X82764586Y32835062D01*
X82536344Y32773906D01*
X82536335Y32773902D01*
X82322171Y32674036D01*
X82322169Y32674035D01*
X82128597Y32538495D01*
X81961506Y32371403D01*
X81961501Y32371396D01*
X81825967Y32177835D01*
X81825965Y32177831D01*
X81726098Y31963665D01*
X81726094Y31963656D01*
X81664938Y31735414D01*
X81664936Y31735404D01*
X81644341Y31500001D01*
X81644341Y31500000D01*
X79147309Y31500000D01*
X79147308Y32573372D01*
X79140900Y32632983D01*
X79139619Y32636417D01*
X79090606Y32767829D01*
X79090602Y32767836D01*
X79004356Y32883045D01*
X79004353Y32883048D01*
X78889144Y32969294D01*
X78889137Y32969298D01*
X78754291Y33019592D01*
X78754292Y33019592D01*
X78694692Y33025999D01*
X78694690Y33026000D01*
X78694682Y33026000D01*
X78694674Y33026000D01*
X77382262Y33026000D01*
X77315223Y33045685D01*
X77294581Y33062319D01*
X77122612Y33234288D01*
X77112789Y33246550D01*
X77112568Y33246366D01*
X77107595Y33252377D01*
X77088968Y33269869D01*
X77057173Y33299727D01*
X77046728Y33310172D01*
X77036284Y33320617D01*
X77030795Y33324875D01*
X77026370Y33328653D01*
X76992391Y33360562D01*
X76992389Y33360564D01*
X76992386Y33360565D01*
X76974838Y33370212D01*
X76958572Y33380896D01*
X76942742Y33393175D01*
X76899977Y33411682D01*
X76894731Y33414252D01*
X76853902Y33436697D01*
X76853901Y33436698D01*
X76834502Y33441678D01*
X76816090Y33447982D01*
X76797707Y33455938D01*
X76797701Y33455940D01*
X76751683Y33463228D01*
X76745961Y33464413D01*
X76700830Y33476000D01*
X76700828Y33476000D01*
X76680793Y33476000D01*
X76661395Y33477527D01*
X76653971Y33478703D01*
X76641614Y33480660D01*
X76641613Y33480660D01*
X76595225Y33476275D01*
X76589387Y33476000D01*
X68677668Y33476000D01*
X68658270Y33477527D01*
X68650846Y33478703D01*
X68638489Y33480660D01*
X68638488Y33480660D01*
X68592100Y33476275D01*
X68586262Y33476000D01*
X60674543Y33476000D01*
X60655145Y33477527D01*
X60647721Y33478703D01*
X60635364Y33480660D01*
X60635363Y33480660D01*
X60588975Y33476275D01*
X60583137Y33476000D01*
X52671418Y33476000D01*
X52652020Y33477527D01*
X52644596Y33478703D01*
X52632239Y33480660D01*
X52632238Y33480660D01*
X52585850Y33476275D01*
X52580012Y33476000D01*
X44668293Y33476000D01*
X44648895Y33477527D01*
X44641471Y33478703D01*
X44629114Y33480660D01*
X44629113Y33480660D01*
X44582725Y33476275D01*
X44576887Y33476000D01*
X36665168Y33476000D01*
X36645770Y33477527D01*
X36638346Y33478703D01*
X36625989Y33480660D01*
X36625988Y33480660D01*
X36579600Y33476275D01*
X36573762Y33476000D01*
X28662043Y33476000D01*
X28642645Y33477527D01*
X28635221Y33478703D01*
X28622864Y33480660D01*
X28622863Y33480660D01*
X28576475Y33476275D01*
X28570637Y33476000D01*
X20658918Y33476000D01*
X20639520Y33477527D01*
X20632096Y33478703D01*
X20619739Y33480660D01*
X20619738Y33480660D01*
X20573350Y33476275D01*
X20567512Y33476000D01*
X15029552Y33476000D01*
X15013931Y33477725D01*
X15013905Y33477439D01*
X15006143Y33478173D01*
X15006142Y33478173D01*
X14936995Y33476000D01*
X14907458Y33476000D01*
X14900575Y33475131D01*
X14894758Y33474674D01*
X14848182Y33473210D01*
X14828938Y33467619D01*
X14809888Y33463675D01*
X14790020Y33461166D01*
X14746693Y33444012D01*
X14741167Y33442121D01*
X14696423Y33429121D01*
X14696419Y33429119D01*
X14679175Y33418921D01*
X14661714Y33410367D01*
X14643083Y33402990D01*
X14643071Y33402983D01*
X14605379Y33375598D01*
X14600496Y33372391D01*
X14560389Y33348671D01*
X14546223Y33334505D01*
X14531433Y33321873D01*
X14515223Y33310096D01*
X14515220Y33310093D01*
X14485519Y33274191D01*
X14481586Y33269869D01*
X14274036Y33062319D01*
X14212713Y33028834D01*
X14186355Y33026000D01*
X12873938Y33026000D01*
X12873932Y33025999D01*
X12814325Y33019592D01*
X12679480Y32969298D01*
X12679473Y32969294D01*
X12564264Y32883048D01*
X12564261Y32883045D01*
X12478015Y32767836D01*
X12478012Y32767831D01*
X12428998Y32636417D01*
X12387126Y32580484D01*
X12321662Y32556067D01*
X12253389Y32570919D01*
X12225135Y32592070D01*
X12103211Y32713994D01*
X12103204Y32713999D01*
X11909643Y32849533D01*
X11909639Y32849535D01*
X11907570Y32850500D01*
X11695472Y32949403D01*
X11695468Y32949404D01*
X11695464Y32949406D01*
X11467222Y33010562D01*
X11467212Y33010564D01*
X11231810Y33031159D01*
X11231808Y33031159D01*
X10996405Y33010564D01*
X10996395Y33010562D01*
X10768153Y32949406D01*
X10768144Y32949402D01*
X10553980Y32849536D01*
X10553978Y32849535D01*
X10360406Y32713995D01*
X10193317Y32546906D01*
X10063078Y32360905D01*
X10008501Y32317281D01*
X9939002Y32310088D01*
X9876648Y32341610D01*
X9859928Y32360906D01*
X9729922Y32546574D01*
X9729917Y32546580D01*
X9562891Y32713606D01*
X9369387Y32849101D01*
X9155301Y32948930D01*
X9155295Y32948933D01*
X8941809Y33006136D01*
X8941809Y32111002D01*
X8834124Y32160180D01*
X8727572Y32175500D01*
X8656046Y32175500D01*
X8549494Y32160180D01*
X8441809Y32111002D01*
X8441809Y33006136D01*
X8441808Y33006136D01*
X8228322Y32948933D01*
X8228316Y32948930D01*
X8014231Y32849101D01*
X8014229Y32849100D01*
X7820735Y32713614D01*
X7820729Y32713609D01*
X7653700Y32546580D01*
X7653695Y32546574D01*
X7518209Y32353080D01*
X7518208Y32353078D01*
X7418379Y32138993D01*
X7418376Y32138987D01*
X7361173Y31925501D01*
X7361173Y31925500D01*
X8258123Y31925500D01*
X8232316Y31885344D01*
X8191809Y31747389D01*
X8191809Y31603611D01*
X8232316Y31465656D01*
X8258123Y31425500D01*
X7361173Y31425500D01*
X7418376Y31212014D01*
X7418379Y31212008D01*
X7518208Y30997922D01*
X7653703Y30804418D01*
X7820726Y30637395D01*
X8014230Y30501900D01*
X8228316Y30402071D01*
X8228325Y30402067D01*
X8441809Y30344866D01*
X8441809Y31239999D01*
X8549494Y31190820D01*
X8656046Y31175500D01*
X8727572Y31175500D01*
X8834124Y31190820D01*
X8941809Y31239999D01*
X8941809Y30344867D01*
X9155292Y30402067D01*
X9155301Y30402071D01*
X9369387Y30501900D01*
X9562891Y30637395D01*
X9729914Y30804418D01*
X9859928Y30990095D01*
X9914505Y31033719D01*
X9984004Y31040912D01*
X10046358Y31009390D01*
X10063078Y30990095D01*
X10075989Y30971656D01*
X10193314Y30804099D01*
X10360408Y30637005D01*
X10457193Y30569235D01*
X10553974Y30501468D01*
X10553976Y30501467D01*
X10553979Y30501465D01*
X10768146Y30401597D01*
X10768152Y30401596D01*
X10768153Y30401595D01*
X10823094Y30386874D01*
X10996401Y30340437D01*
X11172843Y30325000D01*
X11231808Y30319841D01*
X11231809Y30319841D01*
X11231810Y30319841D01*
X11290775Y30325000D01*
X11467217Y30340437D01*
X11567682Y30367357D01*
X11637531Y30365694D01*
X11687456Y30335263D01*
X14306006Y27716712D01*
X14315831Y27704449D01*
X14316052Y27704631D01*
X14321023Y27698622D01*
X14347026Y27674205D01*
X14371444Y27651274D01*
X14392338Y27630380D01*
X14397820Y27626127D01*
X14402252Y27622343D01*
X14436227Y27590438D01*
X14453785Y27580786D01*
X14470044Y27570105D01*
X14485873Y27557827D01*
X14528647Y27539318D01*
X14533865Y27536762D01*
X14574717Y27514303D01*
X14594125Y27509320D01*
X14612526Y27503020D01*
X14630913Y27495063D01*
X14674297Y27488192D01*
X14676928Y27487775D01*
X14682648Y27486591D01*
X14727790Y27475000D01*
X14747825Y27475000D01*
X14767223Y27473474D01*
X14787003Y27470341D01*
X14787004Y27470340D01*
X14787004Y27470341D01*
X14787005Y27470340D01*
X14833393Y27474725D01*
X14839231Y27475000D01*
X16139711Y27475000D01*
X16206750Y27455315D01*
X16252505Y27402511D01*
X16263069Y27338396D01*
X16258684Y27295484D01*
X16258684Y27145500D01*
X18658683Y27145500D01*
X18658683Y27295472D01*
X18658682Y27295490D01*
X18654299Y27338399D01*
X18667069Y27407092D01*
X18714950Y27457976D01*
X18777657Y27475000D01*
X21139711Y27475000D01*
X21206750Y27455315D01*
X21252505Y27402511D01*
X21263069Y27338396D01*
X21258684Y27295484D01*
X21258684Y27145500D01*
X23658683Y27145500D01*
X23658683Y27295472D01*
X23658682Y27295490D01*
X23654299Y27338399D01*
X23667069Y27407092D01*
X23714950Y27457976D01*
X23777657Y27475000D01*
X39657711Y27475000D01*
X39724750Y27455315D01*
X39770505Y27402511D01*
X39780449Y27333353D01*
X39759286Y27279877D01*
X39706071Y27203877D01*
X39651495Y27160252D01*
X39604496Y27151000D01*
X36603927Y27151000D01*
X36588306Y27152725D01*
X36588280Y27152439D01*
X36580518Y27153173D01*
X36580517Y27153173D01*
X36511370Y27151000D01*
X36481833Y27151000D01*
X36474950Y27150131D01*
X36469133Y27149674D01*
X36422557Y27148210D01*
X36403313Y27142619D01*
X36384263Y27138675D01*
X36364395Y27136166D01*
X36321068Y27119012D01*
X36315542Y27117121D01*
X36270798Y27104121D01*
X36270794Y27104119D01*
X36253550Y27093921D01*
X36236089Y27085367D01*
X36217458Y27077990D01*
X36217446Y27077983D01*
X36179754Y27050598D01*
X36174871Y27047391D01*
X36134764Y27023671D01*
X36120598Y27009505D01*
X36105808Y26996873D01*
X36089598Y26985096D01*
X36089595Y26985093D01*
X36059894Y26949191D01*
X36055961Y26944869D01*
X33320364Y24209272D01*
X33259041Y24175787D01*
X33189349Y24180771D01*
X33133416Y24222643D01*
X33108999Y24288107D01*
X33108683Y24296953D01*
X33108683Y24500472D01*
X33108682Y24500487D01*
X33098189Y24603198D01*
X33043042Y24769620D01*
X33043040Y24769625D01*
X32950999Y24918846D01*
X32827029Y25042816D01*
X32677808Y25134857D01*
X32677803Y25134859D01*
X32511381Y25190006D01*
X32511374Y25190007D01*
X32408670Y25200500D01*
X32158684Y25200500D01*
X32158684Y23899500D01*
X32138999Y23832461D01*
X32086195Y23786706D01*
X32034684Y23775500D01*
X31782684Y23775500D01*
X31715645Y23795185D01*
X31669890Y23847989D01*
X31658684Y23899500D01*
X31658684Y25200500D01*
X31408713Y25200500D01*
X31408696Y25200499D01*
X31305986Y25190006D01*
X31139564Y25134859D01*
X31139559Y25134857D01*
X31048281Y25078555D01*
X30980888Y25060115D01*
X30914225Y25081038D01*
X30869455Y25134680D01*
X30859184Y25184094D01*
X30859184Y25262862D01*
X30860908Y25278476D01*
X30860622Y25278503D01*
X30861356Y25286266D01*
X30860963Y25298759D01*
X30859184Y25355397D01*
X30859184Y25384950D01*
X30858313Y25391841D01*
X30857856Y25397655D01*
X30856393Y25444228D01*
X30850806Y25463456D01*
X30846858Y25482516D01*
X30845557Y25492816D01*
X30844348Y25502392D01*
X30844347Y25502394D01*
X30844347Y25502396D01*
X30827196Y25545713D01*
X30825303Y25551242D01*
X30812302Y25595991D01*
X30812300Y25595994D01*
X30802107Y25613229D01*
X30793545Y25630706D01*
X30786171Y25649330D01*
X30786170Y25649332D01*
X30758763Y25687055D01*
X30755572Y25691914D01*
X30731856Y25732017D01*
X30731849Y25732026D01*
X30717690Y25746185D01*
X30705052Y25760981D01*
X30694140Y25776000D01*
X30693278Y25777187D01*
X30688637Y25781026D01*
X30657372Y25806891D01*
X30653060Y25810814D01*
X30254590Y26209284D01*
X30244765Y26221548D01*
X30244544Y26221364D01*
X30239569Y26227379D01*
X30212822Y26252496D01*
X30189148Y26274727D01*
X30178703Y26285172D01*
X30168259Y26295617D01*
X30165193Y26297995D01*
X30162768Y26299876D01*
X30158345Y26303653D01*
X30124366Y26335562D01*
X30124364Y26335564D01*
X30124361Y26335565D01*
X30106813Y26345212D01*
X30090547Y26355896D01*
X30074720Y26368173D01*
X30074719Y26368174D01*
X30074717Y26368175D01*
X30031952Y26386682D01*
X30026706Y26389252D01*
X29985877Y26411697D01*
X29985876Y26411698D01*
X29966477Y26416678D01*
X29948065Y26422982D01*
X29929682Y26430938D01*
X29929676Y26430940D01*
X29883658Y26438228D01*
X29877936Y26439413D01*
X29832805Y26451000D01*
X29832803Y26451000D01*
X29812768Y26451000D01*
X29793370Y26452527D01*
X29785946Y26453703D01*
X29773589Y26455660D01*
X29773588Y26455660D01*
X29727200Y26451275D01*
X29721362Y26451000D01*
X23782684Y26451000D01*
X23715645Y26470685D01*
X23669890Y26523489D01*
X23658684Y26575000D01*
X23658684Y26645500D01*
X21258685Y26645500D01*
X21258685Y26495514D01*
X21266167Y26422280D01*
X21253397Y26353587D01*
X21230490Y26321997D01*
X21218000Y26309507D01*
X21203208Y26296873D01*
X21186998Y26285096D01*
X21186995Y26285093D01*
X21157294Y26249191D01*
X21153361Y26244869D01*
X19863894Y24955403D01*
X19802571Y24921918D01*
X19732879Y24926902D01*
X19676946Y24968774D01*
X19652893Y25030120D01*
X19649358Y25063756D01*
X19590863Y25243784D01*
X19496217Y25407716D01*
X19369555Y25548388D01*
X19369554Y25548389D01*
X19216418Y25659649D01*
X19216413Y25659652D01*
X19043491Y25736643D01*
X19043486Y25736645D01*
X18897685Y25767635D01*
X18858330Y25776000D01*
X18669038Y25776000D01*
X18583173Y25757749D01*
X18545633Y25749770D01*
X18475966Y25755087D01*
X18432172Y25783380D01*
X18407379Y25808173D01*
X18373894Y25869496D01*
X18378878Y25939188D01*
X18407379Y25983536D01*
X18501001Y26077158D01*
X18593040Y26226376D01*
X18593042Y26226381D01*
X18648189Y26392803D01*
X18648190Y26392810D01*
X18658683Y26495514D01*
X18658684Y26495527D01*
X18658684Y26645500D01*
X16258685Y26645500D01*
X16258685Y26495514D01*
X16269178Y26392803D01*
X16324325Y26226381D01*
X16324327Y26226376D01*
X16416368Y26077155D01*
X16509988Y25983535D01*
X16543473Y25922212D01*
X16538489Y25852520D01*
X16509989Y25808173D01*
X16415971Y25714155D01*
X16323871Y25564837D01*
X16323869Y25564832D01*
X16310821Y25525455D01*
X16268685Y25398297D01*
X16268685Y25398296D01*
X16268684Y25398296D01*
X16258184Y25295517D01*
X16258184Y24495499D01*
X16258185Y24495481D01*
X16268684Y24392704D01*
X16268685Y24392701D01*
X16318036Y24243773D01*
X16323870Y24226166D01*
X16415972Y24076844D01*
X16540028Y23952788D01*
X16543148Y23950864D01*
X16544839Y23948984D01*
X16545695Y23948307D01*
X16545579Y23948161D01*
X16589874Y23898916D01*
X16601097Y23829954D01*
X16573254Y23765871D01*
X16565738Y23757647D01*
X16561138Y23753047D01*
X16474890Y23637836D01*
X16474886Y23637829D01*
X16424592Y23502983D01*
X16421022Y23469771D01*
X16418185Y23443377D01*
X16418184Y23443365D01*
X16418184Y20847630D01*
X16418185Y20847624D01*
X16424592Y20788017D01*
X16474886Y20653172D01*
X16474890Y20653165D01*
X16561136Y20537956D01*
X16561139Y20537953D01*
X16676348Y20451707D01*
X16676355Y20451703D01*
X16811201Y20401409D01*
X16811200Y20401409D01*
X16818128Y20400665D01*
X16870811Y20395000D01*
X17966556Y20395001D01*
X18026167Y20401409D01*
X18161015Y20451704D01*
X18276230Y20537954D01*
X18362480Y20653169D01*
X18412775Y20788017D01*
X18419184Y20847627D01*
X18419183Y23443372D01*
X18412775Y23502983D01*
X18369583Y23618786D01*
X18362481Y23637829D01*
X18362480Y23637831D01*
X18287187Y23738409D01*
X18262770Y23803873D01*
X18277621Y23872146D01*
X18321359Y23918259D01*
X18325414Y23920760D01*
X18377340Y23952788D01*
X18399184Y23974633D01*
X18460506Y24008118D01*
X18512645Y24008242D01*
X18669038Y23975000D01*
X18669039Y23975000D01*
X18858328Y23975000D01*
X18858330Y23975000D01*
X19043487Y24014356D01*
X19043489Y24014358D01*
X19049671Y24016365D01*
X19050512Y24013775D01*
X19107795Y24021510D01*
X19171099Y23991940D01*
X19208368Y23932840D01*
X19207768Y23862973D01*
X19169490Y23804521D01*
X19163408Y23799663D01*
X19101138Y23753047D01*
X19101136Y23753045D01*
X19014890Y23637836D01*
X19014886Y23637829D01*
X18964592Y23502983D01*
X18961022Y23469771D01*
X18958185Y23443377D01*
X18958184Y23443365D01*
X18958184Y20847630D01*
X18958185Y20847624D01*
X18964592Y20788017D01*
X19014886Y20653172D01*
X19014890Y20653165D01*
X19101136Y20537956D01*
X19101139Y20537953D01*
X19216348Y20451707D01*
X19216353Y20451704D01*
X19252516Y20438216D01*
X19308450Y20396346D01*
X19332868Y20330882D01*
X19333184Y20322034D01*
X19333184Y17468968D01*
X19313499Y17401929D01*
X19260695Y17356174D01*
X19252527Y17352790D01*
X19242320Y17348982D01*
X19172629Y17343992D01*
X19111305Y17377470D01*
X18884487Y17604288D01*
X18874664Y17616550D01*
X18874443Y17616366D01*
X18869470Y17622377D01*
X18850843Y17639869D01*
X18819048Y17669727D01*
X18808603Y17680172D01*
X18798159Y17690617D01*
X18792670Y17694875D01*
X18788245Y17698653D01*
X18754266Y17730562D01*
X18754264Y17730564D01*
X18754261Y17730565D01*
X18736713Y17740212D01*
X18720447Y17750896D01*
X18704620Y17763173D01*
X18704619Y17763174D01*
X18704617Y17763175D01*
X18661852Y17781682D01*
X18656606Y17784252D01*
X18615777Y17806697D01*
X18615776Y17806698D01*
X18596377Y17811678D01*
X18577965Y17817982D01*
X18559582Y17825938D01*
X18559576Y17825940D01*
X18513558Y17833228D01*
X18507836Y17834413D01*
X18462705Y17846000D01*
X18462703Y17846000D01*
X18442668Y17846000D01*
X18423270Y17847527D01*
X18415846Y17848703D01*
X18403489Y17850660D01*
X18403488Y17850660D01*
X18357100Y17846275D01*
X18351262Y17846000D01*
X16847814Y17846000D01*
X16832193Y17847725D01*
X16832166Y17847439D01*
X16824404Y17848174D01*
X16755243Y17846000D01*
X16725720Y17846000D01*
X16718849Y17845133D01*
X16713030Y17844675D01*
X16666445Y17843211D01*
X16666439Y17843210D01*
X16647197Y17837620D01*
X16628158Y17833677D01*
X16608288Y17831166D01*
X16608274Y17831163D01*
X16564954Y17814012D01*
X16559429Y17812120D01*
X16514684Y17799120D01*
X16514681Y17799119D01*
X16497437Y17788921D01*
X16479976Y17780367D01*
X16461345Y17772990D01*
X16461333Y17772983D01*
X16423641Y17745598D01*
X16418758Y17742391D01*
X16378651Y17718671D01*
X16364485Y17704505D01*
X16349695Y17691873D01*
X16333485Y17680096D01*
X16333482Y17680093D01*
X16303781Y17644191D01*
X16299848Y17639869D01*
X14470864Y15810884D01*
X14409541Y15777399D01*
X14339849Y15782383D01*
X14283916Y15824255D01*
X14259499Y15889719D01*
X14259183Y15898565D01*
X14259183Y15914115D01*
X14259182Y15914132D01*
X14248683Y16016910D01*
X14248682Y16016913D01*
X14222885Y16094762D01*
X14193498Y16183447D01*
X14101396Y16332769D01*
X13977340Y16456825D01*
X13977339Y16456826D01*
X13832643Y16546074D01*
X13785918Y16598022D01*
X13774695Y16666984D01*
X13802538Y16731066D01*
X13832643Y16757152D01*
X13977340Y16846401D01*
X14101396Y16970457D01*
X14193498Y17119779D01*
X14248683Y17286316D01*
X14259184Y17389104D01*
X14259183Y18139121D01*
X14248683Y18241910D01*
X14193498Y18408447D01*
X14101396Y18557769D01*
X13977340Y18681825D01*
X13974026Y18683870D01*
X13972230Y18685865D01*
X13971673Y18686306D01*
X13971748Y18686402D01*
X13927302Y18735816D01*
X13916081Y18804779D01*
X13943924Y18868861D01*
X13974032Y18894948D01*
X13977026Y18896795D01*
X14100999Y19020768D01*
X14193040Y19169989D01*
X14193042Y19169994D01*
X14196369Y19180033D01*
X15315027Y19180033D01*
X15897865Y18597195D01*
X15901696Y18599978D01*
X15904917Y18602166D01*
X15948005Y18629510D01*
X15951358Y18631493D01*
X16009736Y18663586D01*
X16013205Y18665354D01*
X16049016Y18682207D01*
X16084220Y18700143D01*
X16087742Y18701801D01*
X16148882Y18728261D01*
X16152506Y18729696D01*
X16200521Y18746983D01*
X16204223Y18748186D01*
X16238611Y18758179D01*
X16271893Y18771354D01*
X16275555Y18772672D01*
X16324068Y18788434D01*
X16327806Y18789520D01*
X16392327Y18806089D01*
X16396127Y18806938D01*
X16435002Y18814357D01*
X16473584Y18822980D01*
X16477408Y18823709D01*
X16543209Y18834133D01*
X16547074Y18834621D01*
X16597890Y18839426D01*
X16601777Y18839670D01*
X16649318Y18841167D01*
X16680653Y18843138D01*
X16708097Y18844000D01*
X16739568Y18844000D01*
X16826373Y18846727D01*
X16830269Y18846727D01*
X16881295Y18845122D01*
X16885185Y18844878D01*
X16894465Y18844000D01*
X17103144Y18844000D01*
X17439177Y19180033D01*
X17222209Y19397001D01*
X16855774Y19397000D01*
X16832350Y19397628D01*
X16802348Y19399238D01*
X16779048Y19401114D01*
X16671584Y19412669D01*
X16667749Y19413202D01*
X16617746Y19421763D01*
X16613950Y19422536D01*
X16549469Y19437771D01*
X16545729Y19438779D01*
X16497158Y19453512D01*
X16493488Y19454752D01*
X16292108Y19529861D01*
X16288017Y19531555D01*
X16235252Y19555653D01*
X16231293Y19557634D01*
X16164817Y19593933D01*
X16161009Y19596193D01*
X16112218Y19627550D01*
X16108581Y19630075D01*
X15932739Y19761712D01*
X15929292Y19764489D01*
X15913321Y19778328D01*
X15315027Y19180033D01*
X14196369Y19180033D01*
X14248189Y19336416D01*
X14248190Y19336423D01*
X14258683Y19439127D01*
X14258684Y19439140D01*
X14258684Y19564113D01*
X11008684Y19564113D01*
X11008684Y18314113D01*
X11556512Y18314113D01*
X11556528Y18314114D01*
X11616056Y18320515D01*
X11616067Y18320518D01*
X11700067Y18351848D01*
X11769758Y18356833D01*
X11831082Y18323349D01*
X11864567Y18262026D01*
X11866759Y18223065D01*
X11858184Y18139132D01*
X11858184Y17389112D01*
X11858185Y17389094D01*
X11868684Y17286317D01*
X11868685Y17286314D01*
X11923869Y17119782D01*
X11923871Y17119777D01*
X11932433Y17105896D01*
X12015972Y16970457D01*
X12140028Y16846401D01*
X12284725Y16757152D01*
X12331449Y16705204D01*
X12342672Y16636241D01*
X12314828Y16572159D01*
X12284726Y16546076D01*
X12207865Y16498667D01*
X12140026Y16456824D01*
X12015973Y16332771D01*
X11923871Y16183450D01*
X11923869Y16183445D01*
X11900805Y16113843D01*
X11868685Y16016910D01*
X11868685Y16016909D01*
X11868684Y16016909D01*
X11858184Y15914130D01*
X11858184Y15114112D01*
X11858185Y15114094D01*
X11868684Y15011317D01*
X11868685Y15011314D01*
X11923869Y14844782D01*
X11923871Y14844777D01*
X11943668Y14812681D01*
X11978356Y14756442D01*
X12015973Y14695456D01*
X12109635Y14601794D01*
X12143120Y14540471D01*
X12138136Y14470779D01*
X12109635Y14426432D01*
X12015973Y14332771D01*
X12015972Y14332769D01*
X11941545Y14212102D01*
X11933165Y14198516D01*
X11881217Y14151792D01*
X11827626Y14139613D01*
X10983183Y14139613D01*
X10916144Y14159298D01*
X10870389Y14212102D01*
X10859183Y14263613D01*
X10859183Y14561984D01*
X10859182Y14561990D01*
X10859181Y14561997D01*
X10852775Y14621596D01*
X10833420Y14673489D01*
X10802481Y14756442D01*
X10802477Y14756449D01*
X10716231Y14871658D01*
X10716228Y14871661D01*
X10601019Y14957907D01*
X10601012Y14957911D01*
X10466166Y15008205D01*
X10466167Y15008205D01*
X10406567Y15014612D01*
X10406565Y15014613D01*
X10406557Y15014613D01*
X10406549Y15014613D01*
X9208184Y15014613D01*
X9141145Y15034298D01*
X9095390Y15087102D01*
X9084184Y15138613D01*
X9084184Y18189614D01*
X9103869Y18256653D01*
X9156673Y18302408D01*
X9208184Y18313614D01*
X9256555Y18313614D01*
X9256556Y18313614D01*
X9316167Y18320022D01*
X9451015Y18370317D01*
X9534789Y18433031D01*
X9600253Y18457448D01*
X9668526Y18442597D01*
X9683411Y18433031D01*
X9766594Y18370761D01*
X9766597Y18370759D01*
X9901304Y18320517D01*
X9901311Y18320515D01*
X9960839Y18314114D01*
X9960856Y18314113D01*
X10508684Y18314113D01*
X10508684Y21314113D01*
X11008684Y21314113D01*
X11008684Y20064113D01*
X12808684Y20064113D01*
X12808684Y20889113D01*
X13308684Y20889113D01*
X13308684Y20064113D01*
X14258683Y20064113D01*
X14258683Y20189085D01*
X14258682Y20189100D01*
X14248189Y20291811D01*
X14193042Y20458233D01*
X14193040Y20458238D01*
X14100999Y20607459D01*
X13977029Y20731429D01*
X13827808Y20823470D01*
X13827803Y20823472D01*
X13661381Y20878619D01*
X13661374Y20878620D01*
X13558670Y20889113D01*
X13308684Y20889113D01*
X12808684Y20889113D01*
X12558713Y20889113D01*
X12558696Y20889112D01*
X12455986Y20878619D01*
X12289564Y20823472D01*
X12289559Y20823470D01*
X12197397Y20766623D01*
X12130004Y20748183D01*
X12063341Y20769106D01*
X12018571Y20822748D01*
X12009011Y20858906D01*
X12002282Y20921486D01*
X12002280Y20921493D01*
X11952038Y21056200D01*
X11952034Y21056207D01*
X11865874Y21171301D01*
X11865871Y21171304D01*
X11750777Y21257464D01*
X11750770Y21257468D01*
X11616063Y21307710D01*
X11616056Y21307712D01*
X11556528Y21314113D01*
X11008684Y21314113D01*
X10508684Y21314113D01*
X9960839Y21314113D01*
X9901311Y21307712D01*
X9901304Y21307710D01*
X9766597Y21257468D01*
X9766594Y21257466D01*
X9683411Y21195195D01*
X9617946Y21170778D01*
X9549673Y21185630D01*
X9534790Y21195195D01*
X9451015Y21257909D01*
X9451012Y21257911D01*
X9316166Y21308205D01*
X9316167Y21308205D01*
X9256567Y21314612D01*
X9256565Y21314613D01*
X9256557Y21314613D01*
X9256549Y21314613D01*
X9208184Y21314613D01*
X9141145Y21334298D01*
X9095390Y21387102D01*
X9084184Y21438613D01*
X9084184Y21702098D01*
X14301556Y21702098D01*
X14322346Y21690888D01*
X14325470Y21689084D01*
X14527212Y21564649D01*
X14530227Y21562666D01*
X14568942Y21535556D01*
X14571836Y21533402D01*
X14620232Y21495135D01*
X14622995Y21492816D01*
X14658288Y21461407D01*
X14660910Y21458932D01*
X14828503Y21291339D01*
X14830978Y21288717D01*
X14862387Y21253424D01*
X14864706Y21250661D01*
X14902973Y21202265D01*
X14905127Y21199371D01*
X14932237Y21160656D01*
X14934220Y21157641D01*
X15058655Y20955899D01*
X15060459Y20952775D01*
X15082889Y20911174D01*
X15084508Y20907950D01*
X15110580Y20852035D01*
X15112009Y20848723D01*
X15129450Y20804820D01*
X15130683Y20801432D01*
X15204632Y20578272D01*
X15205608Y20575032D01*
X15217231Y20532273D01*
X15218029Y20528986D01*
X15224123Y20500515D01*
X15429654Y20706046D01*
X15424295Y20755906D01*
X15422415Y20779260D01*
X15420810Y20809261D01*
X15420185Y20832623D01*
X15420184Y21199025D01*
X14609334Y22009875D01*
X14301556Y21702098D01*
X9084184Y21702098D01*
X9084184Y22314614D01*
X9103869Y22381653D01*
X9156673Y22427408D01*
X9208184Y22438614D01*
X9808686Y22438614D01*
X9808692Y22438614D01*
X9911481Y22449114D01*
X10078018Y22504299D01*
X10227340Y22596401D01*
X10351396Y22720457D01*
X10353436Y22723766D01*
X10355429Y22725558D01*
X10355877Y22726124D01*
X10355973Y22726048D01*
X10405378Y22770490D01*
X10474340Y22781718D01*
X10538424Y22753879D01*
X10564513Y22723774D01*
X10566365Y22720772D01*
X10566367Y22720769D01*
X10690338Y22596798D01*
X10839559Y22504757D01*
X10839564Y22504755D01*
X11005986Y22449608D01*
X11005993Y22449607D01*
X11108703Y22439114D01*
X11246183Y22439114D01*
X11246184Y22439115D01*
X11246184Y23414113D01*
X11746184Y23414113D01*
X11746184Y22439114D01*
X11883656Y22439114D01*
X11883670Y22439115D01*
X11986381Y22449608D01*
X12152803Y22504755D01*
X12152808Y22504757D01*
X12302029Y22596798D01*
X12425999Y22720768D01*
X12518040Y22869989D01*
X12518042Y22869994D01*
X12573189Y23036416D01*
X12573190Y23036423D01*
X12583683Y23139127D01*
X12583684Y23139140D01*
X12583684Y23414113D01*
X11746184Y23414113D01*
X11246184Y23414113D01*
X11246184Y24889113D01*
X11746184Y24889113D01*
X11746184Y23914113D01*
X12583683Y23914113D01*
X12583683Y24189085D01*
X12583682Y24189100D01*
X12573189Y24291811D01*
X12518042Y24458233D01*
X12518040Y24458238D01*
X12499745Y24487899D01*
X13551824Y24487899D01*
X13554310Y24476283D01*
X14609334Y23421260D01*
X15308336Y24120262D01*
X15299641Y24152248D01*
X15298843Y24155537D01*
X15286738Y24212097D01*
X15286120Y24215420D01*
X15279225Y24259165D01*
X15278790Y24262518D01*
X15263899Y24408283D01*
X15262203Y24430472D01*
X15260750Y24458992D01*
X15260185Y24481219D01*
X15260184Y24894559D01*
X14609334Y25545409D01*
X13551824Y24487899D01*
X12499745Y24487899D01*
X12425999Y24607459D01*
X12302029Y24731429D01*
X12152808Y24823470D01*
X12152803Y24823472D01*
X11986381Y24878619D01*
X11986374Y24878620D01*
X11883670Y24889113D01*
X11746184Y24889113D01*
X11246184Y24889113D01*
X11108711Y24889113D01*
X11108696Y24889112D01*
X11005986Y24878619D01*
X10839564Y24823472D01*
X10839559Y24823470D01*
X10690338Y24731429D01*
X10566367Y24607458D01*
X10566363Y24607453D01*
X10564510Y24604448D01*
X10562702Y24602823D01*
X10561886Y24601790D01*
X10561709Y24601930D01*
X10512558Y24557728D01*
X10443595Y24546512D01*
X10379515Y24574361D01*
X10353437Y24604460D01*
X10353421Y24604485D01*
X10351396Y24607769D01*
X10227340Y24731825D01*
X10078756Y24823472D01*
X10078020Y24823926D01*
X10078015Y24823928D01*
X10048718Y24833636D01*
X9911481Y24879112D01*
X9911479Y24879113D01*
X9808694Y24889613D01*
X9033682Y24889613D01*
X9033664Y24889612D01*
X8930887Y24879113D01*
X8930884Y24879112D01*
X8764352Y24823928D01*
X8764347Y24823926D01*
X8615029Y24731826D01*
X8546011Y24662808D01*
X8484687Y24629324D01*
X8414996Y24634309D01*
X8370649Y24662809D01*
X8302029Y24731429D01*
X8152808Y24823470D01*
X8152803Y24823472D01*
X7986381Y24878619D01*
X7986374Y24878620D01*
X7883670Y24889113D01*
X7746184Y24889113D01*
X7746184Y22439114D01*
X7761564Y22423734D01*
X7776223Y22419429D01*
X7821978Y22366625D01*
X7833184Y22315114D01*
X7833184Y21438613D01*
X7813499Y21371574D01*
X7760695Y21325819D01*
X7709186Y21314613D01*
X7660815Y21314613D01*
X7660807Y21314612D01*
X7601200Y21308205D01*
X7466355Y21257911D01*
X7466353Y21257910D01*
X7394758Y21204314D01*
X7388157Y21199371D01*
X7382995Y21195507D01*
X7317531Y21171090D01*
X7249258Y21185941D01*
X7234373Y21195507D01*
X7229211Y21199371D01*
X7157006Y21253424D01*
X7151014Y21257910D01*
X7039850Y21299372D01*
X6983917Y21341244D01*
X6959500Y21406708D01*
X6959184Y21415554D01*
X6959184Y22317075D01*
X6978869Y22384114D01*
X7031673Y22429869D01*
X7095789Y22440433D01*
X7108706Y22439114D01*
X7246183Y22439114D01*
X7246184Y22439115D01*
X7246184Y24889113D01*
X7108711Y24889113D01*
X7108696Y24889112D01*
X7005986Y24878619D01*
X6839564Y24823472D01*
X6839559Y24823470D01*
X6690338Y24731429D01*
X6566367Y24607458D01*
X6566363Y24607453D01*
X6564510Y24604448D01*
X6562702Y24602823D01*
X6561886Y24601790D01*
X6561709Y24601930D01*
X6512558Y24557728D01*
X6443595Y24546512D01*
X6379515Y24574361D01*
X6353437Y24604460D01*
X6353421Y24604485D01*
X6351396Y24607769D01*
X6227340Y24731825D01*
X6078756Y24823472D01*
X6078020Y24823926D01*
X6078015Y24823928D01*
X6048718Y24833636D01*
X5911481Y24879112D01*
X5911479Y24879113D01*
X5808694Y24889613D01*
X5033682Y24889613D01*
X5033664Y24889612D01*
X4930887Y24879113D01*
X4930884Y24879112D01*
X4764352Y24823928D01*
X4764343Y24823924D01*
X4689096Y24777511D01*
X4621703Y24759071D01*
X4555040Y24779994D01*
X4510271Y24833636D01*
X4500000Y24883050D01*
X4500000Y25757749D01*
X4493531Y25790234D01*
X4493530Y25793353D01*
X4493562Y25818020D01*
X4493444Y25818303D01*
X4493403Y25818403D01*
X4476248Y25835644D01*
X4475901Y25835876D01*
X3622110Y26691126D01*
X5148449Y26691126D01*
X5435440Y26404135D01*
X5462320Y26363907D01*
X5614561Y25996365D01*
X5624000Y25948912D01*
X5624000Y25887613D01*
X5822965Y25887613D01*
X5845188Y25887048D01*
X5873712Y25885595D01*
X5895909Y25883897D01*
X6041686Y25869005D01*
X6045041Y25868570D01*
X6088812Y25861669D01*
X6092138Y25861051D01*
X6148695Y25848941D01*
X6151979Y25848144D01*
X6194716Y25836526D01*
X6197954Y25835550D01*
X6362498Y25781026D01*
X6832574Y26251101D01*
X8243959Y26251101D01*
X8656207Y25838853D01*
X8690432Y25848156D01*
X8693721Y25848954D01*
X8750281Y25861059D01*
X8753604Y25861677D01*
X8797349Y25868572D01*
X8800702Y25869007D01*
X8946467Y25883898D01*
X8968656Y25885594D01*
X8997175Y25887047D01*
X9019402Y25887612D01*
X9822964Y25887613D01*
X9845188Y25887048D01*
X9873712Y25885595D01*
X9895909Y25883897D01*
X9991173Y25874166D01*
X10368108Y26251101D01*
X11779493Y26251101D01*
X12170853Y25859741D01*
X12223604Y25848446D01*
X12226888Y25847648D01*
X12269618Y25836031D01*
X12272855Y25835056D01*
X12496001Y25761113D01*
X12499390Y25759879D01*
X12543293Y25742438D01*
X12546605Y25741009D01*
X12602521Y25714937D01*
X12605745Y25713318D01*
X12647346Y25690888D01*
X12650470Y25689084D01*
X12852212Y25564649D01*
X12855227Y25562666D01*
X12893942Y25535556D01*
X12896836Y25533402D01*
X12945232Y25495135D01*
X12947995Y25492816D01*
X12983288Y25461407D01*
X12985910Y25458932D01*
X13048692Y25396150D01*
X13903642Y26251101D01*
X12841568Y27313175D01*
X11779493Y26251101D01*
X10368108Y26251101D01*
X9306034Y27313175D01*
X8243959Y26251101D01*
X6832574Y26251101D01*
X5770499Y27313176D01*
X5148449Y26691126D01*
X3622110Y26691126D01*
X1857359Y28458893D01*
X3380682Y28458893D01*
X4442757Y27396818D01*
X5064806Y28018867D01*
X6476192Y28018867D01*
X7538267Y26956793D01*
X8600342Y28018867D01*
X10011726Y28018867D01*
X11073801Y26956792D01*
X12135876Y28018867D01*
X11073801Y29080942D01*
X10011726Y28018867D01*
X8600342Y28018867D01*
X7538267Y29080942D01*
X6476192Y28018867D01*
X5064806Y28018867D01*
X5064807Y28018868D01*
X4002732Y29080943D01*
X3380682Y28458893D01*
X1857359Y28458893D01*
X1528134Y28788681D01*
X531884Y29786634D01*
X4708425Y29786634D01*
X5770500Y28724560D01*
X6404511Y29358570D01*
X8672023Y29358570D01*
X9306033Y28724560D01*
X10163739Y29582266D01*
X10110021Y29607315D01*
X10076202Y29624920D01*
X10033791Y29649403D01*
X10001611Y29669904D01*
X9961372Y29698080D01*
X9921757Y29670339D01*
X9889575Y29649839D01*
X9847166Y29625355D01*
X9813346Y29607750D01*
X9554892Y29487231D01*
X9519676Y29472643D01*
X9473659Y29455891D01*
X9437258Y29444414D01*
X8972124Y29319784D01*
X8915840Y29317942D01*
X8691809Y29362506D01*
X8672023Y29358570D01*
X6404511Y29358570D01*
X6832575Y29786634D01*
X5770500Y30848709D01*
X4708425Y29786634D01*
X531884Y29786634D01*
X410593Y29908132D01*
X408244Y29910618D01*
X402029Y29917572D01*
X388157Y29936404D01*
X-130991Y30801652D01*
X-142079Y30825585D01*
X-147794Y30842422D01*
X-148647Y30845142D01*
X-181081Y30957723D01*
X-182300Y30962737D01*
X-213595Y31120068D01*
X-218377Y31148207D01*
X-218441Y31189356D01*
X-166667Y31500000D01*
X644341Y31500000D01*
X664936Y31264597D01*
X664938Y31264587D01*
X726094Y31036345D01*
X726096Y31036341D01*
X726097Y31036337D01*
X747660Y30990095D01*
X825964Y30822172D01*
X825965Y30822170D01*
X961505Y30628598D01*
X1128597Y30461506D01*
X1322169Y30325966D01*
X1322171Y30325965D01*
X1536337Y30226097D01*
X1764592Y30164937D01*
X1941034Y30149500D01*
X2058966Y30149500D01*
X2235408Y30164937D01*
X2463663Y30226097D01*
X2677829Y30325965D01*
X2871401Y30461505D01*
X3038495Y30628599D01*
X3174035Y30822170D01*
X3273903Y31036337D01*
X3335063Y31264592D01*
X3355659Y31500000D01*
X3335063Y31735408D01*
X3273903Y31963663D01*
X3174035Y32177829D01*
X3174034Y32177831D01*
X3038494Y32371403D01*
X2920703Y32489194D01*
X4130015Y32489194D01*
X4188742Y32363256D01*
X4203329Y32328039D01*
X4220081Y32282023D01*
X4231558Y32245623D01*
X4305395Y31970053D01*
X4313651Y31932811D01*
X4322154Y31884587D01*
X4327131Y31846779D01*
X4351995Y31562593D01*
X4353659Y31524486D01*
X4353659Y31475514D01*
X4351995Y31437407D01*
X4327131Y31153221D01*
X4322154Y31115413D01*
X4313651Y31067189D01*
X4305395Y31029947D01*
X4231558Y30754377D01*
X4220081Y30717977D01*
X4215327Y30704921D01*
X5064808Y31554401D01*
X4130015Y32489194D01*
X2920703Y32489194D01*
X2871402Y32538495D01*
X2677830Y32674035D01*
X2677828Y32674036D01*
X2570746Y32723969D01*
X2463663Y32773903D01*
X2463659Y32773904D01*
X2463655Y32773906D01*
X2235413Y32835062D01*
X2235403Y32835064D01*
X2058966Y32850500D01*
X1941034Y32850500D01*
X1764596Y32835064D01*
X1764586Y32835062D01*
X1536344Y32773906D01*
X1536335Y32773902D01*
X1322171Y32674036D01*
X1322169Y32674035D01*
X1128597Y32538495D01*
X961506Y32371403D01*
X961501Y32371396D01*
X825967Y32177835D01*
X825965Y32177831D01*
X726098Y31963665D01*
X726094Y31963656D01*
X664938Y31735414D01*
X664936Y31735404D01*
X644341Y31500001D01*
X644341Y31500000D01*
X-166667Y31500000D01*
X-6533Y32460807D01*
X23905Y32523696D01*
X28079Y32528080D01*
X973452Y33473452D01*
X1034775Y33506937D01*
X1036815Y33507363D01*
X2235460Y33747092D01*
X2259778Y33749500D01*
X82986736Y33749500D01*
X83016806Y33745799D01*
G37*
%TD.AperFunction*%
%TA.AperFunction,Conductor*%
G36*
X75176549Y10742152D02*
G01*
X75221065Y10690776D01*
X75225857Y10680500D01*
X75248113Y10632772D01*
X75248116Y10632766D01*
X75378638Y10446359D01*
X75539542Y10285455D01*
X75539545Y10285453D01*
X75725950Y10154932D01*
X75932188Y10058761D01*
X76151992Y9999865D01*
X76313914Y9985699D01*
X76378682Y9980032D01*
X76378684Y9980032D01*
X76378686Y9980032D01*
X76435491Y9985002D01*
X76605376Y9999865D01*
X76825180Y10058761D01*
X76994906Y10137907D01*
X77063981Y10148398D01*
X77127765Y10119879D01*
X77166005Y10061402D01*
X77171309Y10025524D01*
X77171309Y9394079D01*
X77151624Y9327040D01*
X77134990Y9306398D01*
X74294330Y6465739D01*
X74233007Y6432254D01*
X74174557Y6433645D01*
X74074092Y6460563D01*
X73838685Y6481159D01*
X73838683Y6481159D01*
X73603280Y6460564D01*
X73603270Y6460562D01*
X73375028Y6399406D01*
X73375019Y6399402D01*
X73160855Y6299536D01*
X73160853Y6299535D01*
X72967281Y6163995D01*
X72800192Y5996906D01*
X72669953Y5810905D01*
X72615376Y5767281D01*
X72545877Y5760088D01*
X72483523Y5791610D01*
X72466803Y5810906D01*
X72336797Y5996574D01*
X72336792Y5996580D01*
X72169766Y6163606D01*
X71976262Y6299101D01*
X71762176Y6398930D01*
X71762170Y6398933D01*
X71548684Y6456136D01*
X71548684Y5561002D01*
X71440999Y5610180D01*
X71334447Y5625500D01*
X71262921Y5625500D01*
X71156369Y5610180D01*
X71048684Y5561002D01*
X71048684Y6456136D01*
X71048683Y6456136D01*
X70835197Y6398933D01*
X70835191Y6398930D01*
X70621106Y6299101D01*
X70621104Y6299100D01*
X70427610Y6163614D01*
X70427604Y6163609D01*
X70260575Y5996580D01*
X70260574Y5996578D01*
X70130564Y5810905D01*
X70075987Y5767281D01*
X70006488Y5760088D01*
X69944134Y5791610D01*
X69927414Y5810906D01*
X69797178Y5996903D01*
X69630086Y6163994D01*
X69630085Y6163995D01*
X69451567Y6288995D01*
X69437060Y6299153D01*
X69393435Y6353730D01*
X69384184Y6400728D01*
X69384184Y8573432D01*
X71883569Y8573432D01*
X72945645Y7511356D01*
X74007720Y8573431D01*
X73580327Y9000824D01*
X73500622Y9007797D01*
X73462814Y9012774D01*
X73414589Y9021276D01*
X73377346Y9029533D01*
X73110228Y9101106D01*
X73073828Y9112583D01*
X73027811Y9129336D01*
X72992594Y9143924D01*
X72741982Y9260787D01*
X72708146Y9278402D01*
X72665739Y9302885D01*
X72633578Y9323375D01*
X72633539Y9323402D01*
X71883569Y8573432D01*
X69384184Y8573432D01*
X69384184Y10071312D01*
X69403869Y10138351D01*
X69437061Y10172887D01*
X69497937Y10215513D01*
X69597823Y10285453D01*
X69758731Y10446361D01*
X69889252Y10632766D01*
X69916302Y10690776D01*
X69962474Y10743215D01*
X70029667Y10762367D01*
X70096549Y10742152D01*
X70141065Y10690776D01*
X70145857Y10680500D01*
X70168113Y10632772D01*
X70168116Y10632766D01*
X70298638Y10446359D01*
X70459542Y10285455D01*
X70459545Y10285453D01*
X70645950Y10154932D01*
X70852188Y10058761D01*
X71071992Y9999865D01*
X71233914Y9985699D01*
X71298682Y9980032D01*
X71298684Y9980032D01*
X71298686Y9980032D01*
X71355491Y9985002D01*
X71525376Y9999865D01*
X71745180Y10058761D01*
X71951418Y10154932D01*
X72137823Y10285453D01*
X72298731Y10446361D01*
X72429252Y10632766D01*
X72456302Y10690776D01*
X72502474Y10743215D01*
X72569667Y10762367D01*
X72636549Y10742152D01*
X72681065Y10690776D01*
X72685857Y10680500D01*
X72708113Y10632772D01*
X72708116Y10632766D01*
X72838638Y10446359D01*
X72999542Y10285455D01*
X72999545Y10285453D01*
X73185950Y10154932D01*
X73392188Y10058761D01*
X73611992Y9999865D01*
X73773914Y9985699D01*
X73838682Y9980032D01*
X73838684Y9980032D01*
X73838686Y9980032D01*
X73895491Y9985002D01*
X74065376Y9999865D01*
X74285180Y10058761D01*
X74491418Y10154932D01*
X74677823Y10285453D01*
X74838731Y10446361D01*
X74969252Y10632766D01*
X74996302Y10690776D01*
X75042474Y10743215D01*
X75109667Y10762367D01*
X75176549Y10742152D01*
G37*
%TD.AperFunction*%
%TA.AperFunction,Conductor*%
G36*
X47947938Y13411776D02*
G01*
X47998428Y13381166D01*
X48660300Y12719294D01*
X48693785Y12657971D01*
X48688801Y12588279D01*
X48688684Y12588121D01*
X48688684Y11721002D01*
X48580999Y11770180D01*
X48474447Y11785500D01*
X48402921Y11785500D01*
X48296369Y11770180D01*
X48188684Y11721002D01*
X48188684Y12564373D01*
X47992355Y12511766D01*
X47786201Y12415635D01*
X47599863Y12285158D01*
X47439026Y12124321D01*
X47308551Y11937985D01*
X47281341Y11879633D01*
X47235168Y11827194D01*
X47167974Y11808043D01*
X47101093Y11828259D01*
X47056577Y11879635D01*
X47056338Y11880147D01*
X47029252Y11938234D01*
X46898731Y12124639D01*
X46898729Y12124642D01*
X46737825Y12285546D01*
X46551418Y12416068D01*
X46551416Y12416069D01*
X46446426Y12465027D01*
X46393987Y12511200D01*
X46374835Y12578393D01*
X46395051Y12645274D01*
X46448217Y12690609D01*
X46473036Y12698696D01*
X46590332Y12723627D01*
X46590336Y12723629D01*
X46590337Y12723629D01*
X46674829Y12761248D01*
X46763259Y12800620D01*
X46916400Y12911883D01*
X47043062Y13052555D01*
X47056028Y13075013D01*
X47106595Y13123229D01*
X47163415Y13137013D01*
X47296717Y13137013D01*
X47296719Y13137013D01*
X47481876Y13176369D01*
X47654803Y13253362D01*
X47807944Y13364625D01*
X47818596Y13376456D01*
X47878081Y13413105D01*
X47947938Y13411776D01*
G37*
%TD.AperFunction*%
%TA.AperFunction,Conductor*%
G36*
X43608684Y25246628D02*
G01*
X43805001Y25299231D01*
X43805010Y25299235D01*
X44011166Y25395366D01*
X44197504Y25525843D01*
X44358341Y25686680D01*
X44488816Y25873016D01*
X44516025Y25931366D01*
X44562197Y25983805D01*
X44629391Y26002958D01*
X44696272Y25982743D01*
X44740789Y25931368D01*
X44756738Y25897166D01*
X44768115Y25872768D01*
X44768116Y25872766D01*
X44898638Y25686359D01*
X45059542Y25525455D01*
X45059545Y25525453D01*
X45245950Y25394932D01*
X45452188Y25298761D01*
X45452193Y25298760D01*
X45452195Y25298759D01*
X45498816Y25286267D01*
X45671992Y25239865D01*
X45833914Y25225699D01*
X45898682Y25220032D01*
X45898684Y25220032D01*
X45898686Y25220032D01*
X45955357Y25224991D01*
X46125376Y25239865D01*
X46345180Y25298761D01*
X46551418Y25394932D01*
X46737823Y25525453D01*
X46898731Y25686361D01*
X47029252Y25872766D01*
X47056302Y25930776D01*
X47102474Y25983215D01*
X47169667Y26002367D01*
X47236549Y25982152D01*
X47281066Y25930775D01*
X47308113Y25872772D01*
X47308116Y25872766D01*
X47438638Y25686359D01*
X47599542Y25525455D01*
X47599545Y25525453D01*
X47785950Y25394932D01*
X47992188Y25298761D01*
X47992193Y25298760D01*
X47992195Y25298759D01*
X48038816Y25286267D01*
X48211992Y25239865D01*
X48373914Y25225699D01*
X48438682Y25220032D01*
X48438684Y25220032D01*
X48438686Y25220032D01*
X48495357Y25224991D01*
X48665376Y25239865D01*
X48885180Y25298761D01*
X49091418Y25394932D01*
X49277823Y25525453D01*
X49438731Y25686361D01*
X49569252Y25872766D01*
X49596302Y25930776D01*
X49642474Y25983215D01*
X49709667Y26002367D01*
X49776549Y25982152D01*
X49821066Y25930775D01*
X49848113Y25872772D01*
X49848116Y25872766D01*
X49978638Y25686359D01*
X50139542Y25525455D01*
X50139545Y25525453D01*
X50325950Y25394932D01*
X50532188Y25298761D01*
X50532193Y25298760D01*
X50532195Y25298759D01*
X50578816Y25286267D01*
X50751992Y25239865D01*
X50913914Y25225699D01*
X50978682Y25220032D01*
X50978684Y25220032D01*
X50978686Y25220032D01*
X51035357Y25224991D01*
X51205376Y25239865D01*
X51425180Y25298761D01*
X51631418Y25394932D01*
X51817823Y25525453D01*
X51978731Y25686361D01*
X52109252Y25872766D01*
X52136302Y25930776D01*
X52182474Y25983215D01*
X52249667Y26002367D01*
X52316549Y25982152D01*
X52361066Y25930775D01*
X52388113Y25872772D01*
X52388116Y25872766D01*
X52518638Y25686359D01*
X52679542Y25525455D01*
X52679545Y25525453D01*
X52865950Y25394932D01*
X53072188Y25298761D01*
X53072193Y25298760D01*
X53072195Y25298759D01*
X53118816Y25286267D01*
X53291992Y25239865D01*
X53453914Y25225699D01*
X53518682Y25220032D01*
X53518684Y25220032D01*
X53518686Y25220032D01*
X53575357Y25224991D01*
X53745376Y25239865D01*
X53965180Y25298761D01*
X54171418Y25394932D01*
X54357823Y25525453D01*
X54518731Y25686361D01*
X54649252Y25872766D01*
X54676302Y25930776D01*
X54722474Y25983215D01*
X54789667Y26002367D01*
X54856549Y25982152D01*
X54901066Y25930775D01*
X54928113Y25872772D01*
X54928116Y25872766D01*
X55058638Y25686359D01*
X55219542Y25525455D01*
X55219545Y25525453D01*
X55405950Y25394932D01*
X55612188Y25298761D01*
X55612193Y25298760D01*
X55612195Y25298759D01*
X55658816Y25286267D01*
X55831992Y25239865D01*
X55993914Y25225699D01*
X56058682Y25220032D01*
X56058684Y25220032D01*
X56058686Y25220032D01*
X56115357Y25224991D01*
X56285376Y25239865D01*
X56505180Y25298761D01*
X56711418Y25394932D01*
X56897823Y25525453D01*
X57058731Y25686361D01*
X57189252Y25872766D01*
X57216302Y25930776D01*
X57262474Y25983215D01*
X57329667Y26002367D01*
X57396549Y25982152D01*
X57441066Y25930775D01*
X57468113Y25872772D01*
X57468116Y25872766D01*
X57598638Y25686359D01*
X57759542Y25525455D01*
X57759545Y25525453D01*
X57945950Y25394932D01*
X58152188Y25298761D01*
X58152193Y25298760D01*
X58152195Y25298759D01*
X58198816Y25286267D01*
X58371992Y25239865D01*
X58533914Y25225699D01*
X58598682Y25220032D01*
X58598684Y25220032D01*
X58598686Y25220032D01*
X58655357Y25224991D01*
X58825376Y25239865D01*
X59045180Y25298761D01*
X59251418Y25394932D01*
X59437823Y25525453D01*
X59598731Y25686361D01*
X59729252Y25872766D01*
X59756302Y25930776D01*
X59802474Y25983215D01*
X59869667Y26002367D01*
X59936549Y25982152D01*
X59981066Y25930775D01*
X60008113Y25872772D01*
X60008116Y25872766D01*
X60138638Y25686359D01*
X60299542Y25525455D01*
X60299545Y25525453D01*
X60485950Y25394932D01*
X60692188Y25298761D01*
X60692193Y25298760D01*
X60692195Y25298759D01*
X60738816Y25286267D01*
X60911992Y25239865D01*
X61073914Y25225699D01*
X61138682Y25220032D01*
X61138684Y25220032D01*
X61138686Y25220032D01*
X61195357Y25224991D01*
X61365376Y25239865D01*
X61585180Y25298761D01*
X61791418Y25394932D01*
X61977823Y25525453D01*
X62138731Y25686361D01*
X62269252Y25872766D01*
X62296302Y25930776D01*
X62342474Y25983215D01*
X62409667Y26002367D01*
X62476549Y25982152D01*
X62521066Y25930775D01*
X62548113Y25872772D01*
X62548116Y25872766D01*
X62678638Y25686359D01*
X62839542Y25525455D01*
X62839545Y25525453D01*
X63025950Y25394932D01*
X63232188Y25298761D01*
X63232193Y25298760D01*
X63232195Y25298759D01*
X63278816Y25286267D01*
X63451992Y25239865D01*
X63613914Y25225699D01*
X63678682Y25220032D01*
X63678684Y25220032D01*
X63678686Y25220032D01*
X63735357Y25224991D01*
X63905376Y25239865D01*
X64125180Y25298761D01*
X64331418Y25394932D01*
X64517823Y25525453D01*
X64678731Y25686361D01*
X64809252Y25872766D01*
X64836302Y25930776D01*
X64882474Y25983215D01*
X64949667Y26002367D01*
X65016549Y25982152D01*
X65061066Y25930775D01*
X65088113Y25872772D01*
X65088116Y25872766D01*
X65218638Y25686359D01*
X65379542Y25525455D01*
X65379545Y25525453D01*
X65565950Y25394932D01*
X65772188Y25298761D01*
X65772193Y25298760D01*
X65772195Y25298759D01*
X65818816Y25286267D01*
X65991992Y25239865D01*
X66153914Y25225699D01*
X66218682Y25220032D01*
X66218684Y25220032D01*
X66218686Y25220032D01*
X66275357Y25224991D01*
X66445376Y25239865D01*
X66665180Y25298761D01*
X66871418Y25394932D01*
X67057823Y25525453D01*
X67218731Y25686361D01*
X67349252Y25872766D01*
X67376302Y25930776D01*
X67422474Y25983215D01*
X67489667Y26002367D01*
X67556549Y25982152D01*
X67601066Y25930775D01*
X67628113Y25872772D01*
X67628116Y25872766D01*
X67758638Y25686359D01*
X67919542Y25525455D01*
X67919545Y25525453D01*
X68105950Y25394932D01*
X68312188Y25298761D01*
X68312193Y25298760D01*
X68312195Y25298759D01*
X68358816Y25286267D01*
X68531992Y25239865D01*
X68693914Y25225699D01*
X68758682Y25220032D01*
X68758684Y25220032D01*
X68758686Y25220032D01*
X68815357Y25224991D01*
X68985376Y25239865D01*
X69205180Y25298761D01*
X69411418Y25394932D01*
X69597823Y25525453D01*
X69758731Y25686361D01*
X69889252Y25872766D01*
X69916302Y25930776D01*
X69962474Y25983215D01*
X70029667Y26002367D01*
X70096549Y25982152D01*
X70141066Y25930775D01*
X70168113Y25872772D01*
X70168116Y25872766D01*
X70298638Y25686359D01*
X70459542Y25525455D01*
X70459545Y25525453D01*
X70645950Y25394932D01*
X70852188Y25298761D01*
X70852193Y25298760D01*
X70852195Y25298759D01*
X70898816Y25286267D01*
X71071992Y25239865D01*
X71233914Y25225699D01*
X71298682Y25220032D01*
X71298684Y25220032D01*
X71298686Y25220032D01*
X71355357Y25224991D01*
X71525376Y25239865D01*
X71745180Y25298761D01*
X71951418Y25394932D01*
X72137823Y25525453D01*
X72298731Y25686361D01*
X72429252Y25872766D01*
X72456302Y25930776D01*
X72502474Y25983215D01*
X72569667Y26002367D01*
X72636549Y25982152D01*
X72681066Y25930775D01*
X72708113Y25872772D01*
X72708116Y25872766D01*
X72838638Y25686359D01*
X72999542Y25525455D01*
X72999545Y25525453D01*
X73185950Y25394932D01*
X73392188Y25298761D01*
X73392193Y25298760D01*
X73392195Y25298759D01*
X73438816Y25286267D01*
X73611992Y25239865D01*
X73773914Y25225699D01*
X73838682Y25220032D01*
X73838684Y25220032D01*
X73838686Y25220032D01*
X73895357Y25224991D01*
X74065376Y25239865D01*
X74285180Y25298761D01*
X74491418Y25394932D01*
X74677823Y25525453D01*
X74838731Y25686361D01*
X74969252Y25872766D01*
X74996302Y25930776D01*
X75042474Y25983215D01*
X75109667Y26002367D01*
X75176549Y25982152D01*
X75221066Y25930775D01*
X75248113Y25872772D01*
X75248116Y25872766D01*
X75378638Y25686359D01*
X75539542Y25525455D01*
X75539545Y25525453D01*
X75725950Y25394932D01*
X75932188Y25298761D01*
X75932193Y25298760D01*
X75932195Y25298759D01*
X75978816Y25286267D01*
X76151992Y25239865D01*
X76313914Y25225699D01*
X76378682Y25220032D01*
X76378684Y25220032D01*
X76378686Y25220032D01*
X76435357Y25224991D01*
X76605376Y25239865D01*
X76825180Y25298761D01*
X76994906Y25377907D01*
X77063981Y25388398D01*
X77127765Y25359879D01*
X77166005Y25301402D01*
X77171309Y25265524D01*
X77171309Y12545477D01*
X77151624Y12478438D01*
X77098820Y12432683D01*
X77029662Y12422739D01*
X76994904Y12433095D01*
X76961938Y12448468D01*
X76825180Y12512239D01*
X76825176Y12512240D01*
X76825172Y12512242D01*
X76605381Y12571134D01*
X76605377Y12571135D01*
X76605376Y12571135D01*
X76605375Y12571136D01*
X76605370Y12571136D01*
X76378686Y12590968D01*
X76378682Y12590968D01*
X76151997Y12571136D01*
X76151986Y12571134D01*
X75932195Y12512242D01*
X75932186Y12512239D01*
X75725951Y12416069D01*
X75725949Y12416068D01*
X75539542Y12285546D01*
X75378638Y12124642D01*
X75248116Y11938235D01*
X75248115Y11938233D01*
X75240315Y11921505D01*
X75221855Y11881916D01*
X75221066Y11880225D01*
X75174893Y11827786D01*
X75107700Y11808634D01*
X75040819Y11828850D01*
X74996302Y11880225D01*
X74969252Y11938234D01*
X74838731Y12124639D01*
X74838729Y12124642D01*
X74677825Y12285546D01*
X74491418Y12416068D01*
X74491416Y12416069D01*
X74285181Y12512239D01*
X74285172Y12512242D01*
X74065381Y12571134D01*
X74065377Y12571135D01*
X74065376Y12571135D01*
X74065375Y12571136D01*
X74065370Y12571136D01*
X73838686Y12590968D01*
X73838682Y12590968D01*
X73611997Y12571136D01*
X73611986Y12571134D01*
X73392195Y12512242D01*
X73392186Y12512239D01*
X73185951Y12416069D01*
X73185949Y12416068D01*
X72999542Y12285546D01*
X72838638Y12124642D01*
X72708116Y11938235D01*
X72708115Y11938233D01*
X72700315Y11921505D01*
X72681855Y11881916D01*
X72681066Y11880225D01*
X72634893Y11827786D01*
X72567700Y11808634D01*
X72500819Y11828850D01*
X72456302Y11880225D01*
X72429252Y11938234D01*
X72298731Y12124639D01*
X72298729Y12124642D01*
X72137825Y12285546D01*
X71951418Y12416068D01*
X71951416Y12416069D01*
X71745181Y12512239D01*
X71745172Y12512242D01*
X71525381Y12571134D01*
X71525377Y12571135D01*
X71525376Y12571135D01*
X71525375Y12571136D01*
X71525370Y12571136D01*
X71298686Y12590968D01*
X71298682Y12590968D01*
X71071997Y12571136D01*
X71071986Y12571134D01*
X70852195Y12512242D01*
X70852186Y12512239D01*
X70645951Y12416069D01*
X70645949Y12416068D01*
X70459542Y12285546D01*
X70298638Y12124642D01*
X70168116Y11938235D01*
X70168115Y11938233D01*
X70160315Y11921505D01*
X70141855Y11881916D01*
X70141066Y11880225D01*
X70094893Y11827786D01*
X70027700Y11808634D01*
X69960819Y11828850D01*
X69916302Y11880225D01*
X69889252Y11938234D01*
X69758731Y12124639D01*
X69758729Y12124642D01*
X69597825Y12285546D01*
X69411418Y12416068D01*
X69411416Y12416069D01*
X69205181Y12512239D01*
X69205172Y12512242D01*
X68985381Y12571134D01*
X68985377Y12571135D01*
X68985376Y12571135D01*
X68985375Y12571136D01*
X68985370Y12571136D01*
X68758686Y12590968D01*
X68758682Y12590968D01*
X68531997Y12571136D01*
X68531986Y12571134D01*
X68312195Y12512242D01*
X68312186Y12512239D01*
X68105951Y12416069D01*
X68105949Y12416068D01*
X67919542Y12285546D01*
X67758638Y12124642D01*
X67628116Y11938235D01*
X67628115Y11938233D01*
X67620315Y11921505D01*
X67601855Y11881916D01*
X67601066Y11880225D01*
X67554893Y11827786D01*
X67487700Y11808634D01*
X67420819Y11828850D01*
X67376302Y11880225D01*
X67349252Y11938234D01*
X67218731Y12124639D01*
X67218729Y12124642D01*
X67057825Y12285546D01*
X66871418Y12416068D01*
X66871416Y12416069D01*
X66665181Y12512239D01*
X66665172Y12512242D01*
X66445381Y12571134D01*
X66445377Y12571135D01*
X66445376Y12571135D01*
X66445375Y12571136D01*
X66445370Y12571136D01*
X66218686Y12590968D01*
X66218683Y12590968D01*
X65991997Y12571136D01*
X65991980Y12571133D01*
X65923633Y12552820D01*
X65853783Y12554484D01*
X65803861Y12584914D01*
X64512043Y13876732D01*
X66580269Y13876732D01*
X67007196Y13449805D01*
X67029557Y13441664D01*
X67064774Y13427076D01*
X67315386Y13310213D01*
X67349222Y13292598D01*
X67391629Y13268115D01*
X67423790Y13247625D01*
X67488684Y13202187D01*
X67553578Y13247625D01*
X67585739Y13268115D01*
X67628146Y13292598D01*
X67661982Y13310213D01*
X67912594Y13427076D01*
X67947811Y13441664D01*
X67993828Y13458417D01*
X68030228Y13469894D01*
X68297346Y13541467D01*
X68334589Y13549724D01*
X68382814Y13558226D01*
X68386381Y13558696D01*
X68704417Y13876732D01*
X70115803Y13876732D01*
X70534048Y13458487D01*
X70570228Y13469894D01*
X70837346Y13541467D01*
X70874589Y13549724D01*
X70922814Y13558226D01*
X70960622Y13563203D01*
X71236093Y13587304D01*
X71274199Y13588968D01*
X71323169Y13588968D01*
X71361275Y13587304D01*
X71636746Y13563203D01*
X71674554Y13558226D01*
X71722779Y13549724D01*
X71760021Y13541467D01*
X71874116Y13510897D01*
X72239951Y13876732D01*
X73651337Y13876732D01*
X73944551Y13583518D01*
X74176746Y13563203D01*
X74214554Y13558226D01*
X74262779Y13549724D01*
X74300022Y13541467D01*
X74567140Y13469894D01*
X74603540Y13458417D01*
X74649557Y13441664D01*
X74684774Y13427076D01*
X74935386Y13310213D01*
X74969222Y13292598D01*
X75011629Y13268115D01*
X75043790Y13247625D01*
X75104129Y13205376D01*
X75775486Y13876733D01*
X74713411Y14938807D01*
X73651337Y13876732D01*
X72239951Y13876732D01*
X72239952Y13876733D01*
X71177878Y14938807D01*
X70115803Y13876732D01*
X68704417Y13876732D01*
X68704418Y13876733D01*
X67642344Y14938807D01*
X66580269Y13876732D01*
X64512043Y13876732D01*
X62744276Y15644499D01*
X64812502Y15644499D01*
X65874577Y14582424D01*
X66936652Y15644499D01*
X68348036Y15644499D01*
X69410111Y14582424D01*
X70472186Y15644499D01*
X71883570Y15644499D01*
X72945645Y14582424D01*
X74007720Y15644499D01*
X75419104Y15644499D01*
X76173309Y14890294D01*
X76173309Y16398704D01*
X75419104Y15644499D01*
X74007720Y15644499D01*
X72945645Y16706574D01*
X71883570Y15644499D01*
X70472186Y15644499D01*
X69410111Y16706574D01*
X68348036Y15644499D01*
X66936652Y15644499D01*
X65874577Y16706574D01*
X64812502Y15644499D01*
X62744276Y15644499D01*
X61429487Y16959288D01*
X61419664Y16971550D01*
X61419443Y16971366D01*
X61414470Y16977377D01*
X61402978Y16988169D01*
X61364048Y17024727D01*
X61353603Y17035172D01*
X61343159Y17045617D01*
X61337670Y17049875D01*
X61333245Y17053653D01*
X61299266Y17085562D01*
X61299264Y17085564D01*
X61299261Y17085565D01*
X61281713Y17095212D01*
X61265447Y17105896D01*
X61249620Y17118173D01*
X61249619Y17118174D01*
X61249617Y17118175D01*
X61206852Y17136682D01*
X61201606Y17139252D01*
X61160777Y17161697D01*
X61160776Y17161698D01*
X61141377Y17166678D01*
X61122965Y17172982D01*
X61104582Y17180938D01*
X61104576Y17180940D01*
X61058558Y17188228D01*
X61052836Y17189413D01*
X61007705Y17201000D01*
X61007703Y17201000D01*
X60987668Y17201000D01*
X60968270Y17202527D01*
X60960846Y17203703D01*
X60948489Y17205660D01*
X60948488Y17205660D01*
X60902100Y17201275D01*
X60896262Y17201000D01*
X37097232Y17201000D01*
X37081611Y17202725D01*
X37081584Y17202439D01*
X37073822Y17203174D01*
X37018378Y17201431D01*
X36950753Y17219001D01*
X36907095Y17263374D01*
X36896218Y17282215D01*
X36779119Y17412266D01*
X63044735Y17412266D01*
X64106810Y16350191D01*
X65168884Y17412266D01*
X66580269Y17412266D01*
X67642344Y16350191D01*
X68704418Y17412266D01*
X70115803Y17412266D01*
X71177878Y16350191D01*
X72239952Y17412266D01*
X73651337Y17412266D01*
X74713411Y16350192D01*
X75775486Y17412266D01*
X74713411Y18474341D01*
X73651337Y17412266D01*
X72239952Y17412266D01*
X71177878Y18474341D01*
X70115803Y17412266D01*
X68704418Y17412266D01*
X67642344Y18474341D01*
X66580269Y17412266D01*
X65168884Y17412266D01*
X64106810Y18474341D01*
X63044735Y17412266D01*
X36779119Y17412266D01*
X36769554Y17422889D01*
X36697923Y17474932D01*
X36655257Y17530262D01*
X36649278Y17599875D01*
X36657253Y17625061D01*
X36667840Y17649198D01*
X36672198Y17666404D01*
X36724818Y17874195D01*
X36727680Y17908736D01*
X36743984Y18105494D01*
X36743984Y18105507D01*
X36724819Y18336798D01*
X36724817Y18336809D01*
X36667841Y18561801D01*
X36574608Y18774349D01*
X36447667Y18968648D01*
X36447664Y18968651D01*
X36447663Y18968653D01*
X36290468Y19139413D01*
X36290463Y19139417D01*
X36290461Y19139419D01*
X36107318Y19281965D01*
X36107312Y19281969D01*
X35903188Y19392436D01*
X35903179Y19392439D01*
X35683668Y19467798D01*
X35486584Y19500685D01*
X35454733Y19506000D01*
X35222635Y19506000D01*
X35190784Y19500685D01*
X34993699Y19467798D01*
X34774185Y19392438D01*
X34774168Y19392431D01*
X34768170Y19389184D01*
X34699842Y19374589D01*
X34634843Y19398973D01*
X34601019Y19424294D01*
X34601012Y19424298D01*
X34466170Y19474590D01*
X34466169Y19474591D01*
X34466167Y19474591D01*
X34406557Y19481000D01*
X34406547Y19481000D01*
X33860814Y19481000D01*
X33860803Y19480999D01*
X33821937Y19476821D01*
X33795432Y19476821D01*
X33756558Y19481000D01*
X33210814Y19481000D01*
X33210803Y19480999D01*
X33171937Y19476821D01*
X33145432Y19476821D01*
X33106558Y19481000D01*
X32560814Y19481000D01*
X32560803Y19480999D01*
X32521937Y19476821D01*
X32495432Y19476821D01*
X32456558Y19481000D01*
X31910814Y19481000D01*
X31910803Y19480999D01*
X31871937Y19476821D01*
X31845432Y19476821D01*
X31806558Y19481000D01*
X31260816Y19481000D01*
X31260801Y19480999D01*
X31219588Y19476569D01*
X31193086Y19476569D01*
X31156518Y19480500D01*
X31108684Y19480500D01*
X31093072Y19464889D01*
X31088999Y19451015D01*
X31058997Y19418790D01*
X30968993Y19351412D01*
X30957995Y19343179D01*
X30892530Y19318762D01*
X30824257Y19333614D01*
X30809373Y19343179D01*
X30798375Y19351412D01*
X30708371Y19418789D01*
X30672572Y19466612D01*
X30658080Y19481104D01*
X30593096Y19500185D01*
X30547341Y19552989D01*
X30537397Y19622147D01*
X30566422Y19685703D01*
X30572454Y19692181D01*
X30623334Y19743061D01*
X37091257Y19743061D01*
X37197613Y19627527D01*
X37220941Y19599987D01*
X37249438Y19563380D01*
X37270459Y19533941D01*
X37422786Y19300787D01*
X37441282Y19269748D01*
X37463360Y19228949D01*
X37479232Y19196486D01*
X37591097Y18941457D01*
X37604228Y18907807D01*
X37619292Y18863930D01*
X37629607Y18829289D01*
X37697976Y18559306D01*
X37705394Y18523925D01*
X37713028Y18478167D01*
X37717495Y18442326D01*
X37732583Y18260236D01*
X38652380Y19180033D01*
X40063764Y19180033D01*
X41044797Y18199000D01*
X41206881Y18199000D01*
X42187913Y19180033D01*
X43599298Y19180033D01*
X44580331Y18199000D01*
X44742415Y18199000D01*
X45723447Y19180033D01*
X47134832Y19180033D01*
X48115865Y18199000D01*
X48277949Y18199000D01*
X49258981Y19180033D01*
X50670366Y19180033D01*
X51651399Y18199000D01*
X51813483Y18199000D01*
X52794515Y19180033D01*
X54205900Y19180033D01*
X55186933Y18199000D01*
X55349017Y18199000D01*
X56330049Y19180033D01*
X57741434Y19180033D01*
X58722467Y18199000D01*
X58884551Y18199000D01*
X59865583Y19180033D01*
X61276968Y19180033D01*
X62339043Y18117958D01*
X63401117Y19180033D01*
X64812502Y19180033D01*
X65874577Y18117958D01*
X66936651Y19180033D01*
X68348036Y19180033D01*
X69410111Y18117958D01*
X70472185Y19180033D01*
X71883570Y19180033D01*
X72945645Y18117958D01*
X74007719Y19180033D01*
X75419104Y19180033D01*
X76173309Y18425828D01*
X76173309Y19934238D01*
X75419104Y19180033D01*
X74007719Y19180033D01*
X72945645Y20242108D01*
X71883570Y19180033D01*
X70472185Y19180033D01*
X69410111Y20242108D01*
X68348036Y19180033D01*
X66936651Y19180033D01*
X65874577Y20242108D01*
X64812502Y19180033D01*
X63401117Y19180033D01*
X62339043Y20242108D01*
X61276968Y19180033D01*
X59865583Y19180033D01*
X58803509Y20242108D01*
X57741434Y19180033D01*
X56330049Y19180033D01*
X55267975Y20242108D01*
X54205900Y19180033D01*
X52794515Y19180033D01*
X51732441Y20242108D01*
X50670366Y19180033D01*
X49258981Y19180033D01*
X48196907Y20242108D01*
X47134832Y19180033D01*
X45723447Y19180033D01*
X44661373Y20242108D01*
X43599298Y19180033D01*
X42187913Y19180033D01*
X41125839Y20242108D01*
X40063764Y19180033D01*
X38652380Y19180033D01*
X37590305Y20242108D01*
X37091257Y19743061D01*
X30623334Y19743061D01*
X30715491Y19835218D01*
X30871769Y19991497D01*
X30886560Y20004129D01*
X30902771Y20015906D01*
X30932483Y20051824D01*
X30936396Y20056124D01*
X31143955Y20263682D01*
X31205278Y20297167D01*
X31231636Y20300001D01*
X31908686Y20300001D01*
X31908692Y20300001D01*
X32011481Y20310501D01*
X32178018Y20365686D01*
X32327340Y20457788D01*
X32451396Y20581844D01*
X32453436Y20585153D01*
X32455429Y20586945D01*
X32455877Y20587511D01*
X32455973Y20587435D01*
X32505378Y20631877D01*
X32574340Y20643105D01*
X32638424Y20615266D01*
X32664513Y20585161D01*
X32666365Y20582159D01*
X32666367Y20582156D01*
X32790338Y20458185D01*
X32939559Y20366144D01*
X32939564Y20366142D01*
X33105986Y20310995D01*
X33105993Y20310994D01*
X33208703Y20300501D01*
X33346183Y20300501D01*
X33346184Y20300502D01*
X33346184Y21275500D01*
X33846184Y21275500D01*
X33846184Y20300501D01*
X33983656Y20300501D01*
X33983670Y20300502D01*
X34086381Y20310995D01*
X34252803Y20366142D01*
X34252808Y20366144D01*
X34402029Y20458185D01*
X34438686Y20494842D01*
X35591027Y20494842D01*
X35596118Y20494207D01*
X35870806Y20448370D01*
X35906163Y20440956D01*
X35951135Y20429569D01*
X35985774Y20419257D01*
X36249175Y20328831D01*
X36261021Y20324209D01*
X36884612Y20947800D01*
X38295998Y20947800D01*
X39358072Y19885726D01*
X40420147Y20947800D01*
X41831531Y20947800D01*
X42893606Y19885726D01*
X43955680Y20947800D01*
X45367065Y20947800D01*
X46429140Y19885725D01*
X47491214Y20947800D01*
X48902599Y20947800D01*
X49964674Y19885725D01*
X51026748Y20947800D01*
X52438133Y20947800D01*
X53500208Y19885725D01*
X54562282Y20947800D01*
X55973667Y20947800D01*
X57035742Y19885725D01*
X58097816Y20947800D01*
X59509201Y20947800D01*
X60571276Y19885725D01*
X61633350Y20947800D01*
X63044735Y20947800D01*
X64106810Y19885725D01*
X65168884Y20947800D01*
X66580269Y20947800D01*
X67642344Y19885725D01*
X68704418Y20947800D01*
X70115803Y20947800D01*
X71177878Y19885725D01*
X72239952Y20947800D01*
X73651337Y20947800D01*
X74713411Y19885726D01*
X75775486Y20947800D01*
X74713411Y22009875D01*
X73651337Y20947800D01*
X72239952Y20947800D01*
X71177878Y22009875D01*
X70115803Y20947800D01*
X68704418Y20947800D01*
X67642344Y22009875D01*
X66580269Y20947800D01*
X65168884Y20947800D01*
X64106810Y22009875D01*
X63044735Y20947800D01*
X61633350Y20947800D01*
X60571276Y22009875D01*
X59509201Y20947800D01*
X58097816Y20947800D01*
X57035742Y22009875D01*
X55973667Y20947800D01*
X54562282Y20947800D01*
X53500208Y22009875D01*
X52438133Y20947800D01*
X51026748Y20947800D01*
X49964674Y22009875D01*
X48902599Y20947800D01*
X47491214Y20947800D01*
X46429140Y22009875D01*
X45367065Y20947800D01*
X43955680Y20947800D01*
X42893606Y22009875D01*
X41831531Y20947800D01*
X40420147Y20947800D01*
X39358072Y22009875D01*
X38295998Y20947800D01*
X36884612Y20947800D01*
X36884613Y20947801D01*
X35822538Y22009875D01*
X35681683Y21869019D01*
X35681683Y21574954D01*
X35672243Y21527499D01*
X35671415Y21525502D01*
X35672245Y21523500D01*
X35681684Y21476046D01*
X35681684Y20986250D01*
X35681119Y20964025D01*
X35679666Y20935501D01*
X35677968Y20913303D01*
X35663082Y20767593D01*
X35662646Y20764238D01*
X35655745Y20720462D01*
X35655127Y20717136D01*
X35643017Y20660580D01*
X35642219Y20657296D01*
X35630602Y20614566D01*
X35629627Y20611329D01*
X35591027Y20494842D01*
X34438686Y20494842D01*
X34525999Y20582155D01*
X34618040Y20731376D01*
X34618042Y20731381D01*
X34673189Y20897803D01*
X34673190Y20897810D01*
X34683683Y21000514D01*
X34683684Y21000527D01*
X34683684Y21275500D01*
X33846184Y21275500D01*
X33346184Y21275500D01*
X33346184Y21651500D01*
X33365869Y21718539D01*
X33418673Y21764294D01*
X33470184Y21775500D01*
X34683683Y21775500D01*
X34683683Y22050472D01*
X34683682Y22050487D01*
X34673189Y22153198D01*
X34618042Y22319620D01*
X34618040Y22319625D01*
X34525999Y22468846D01*
X34402029Y22592816D01*
X34252808Y22684857D01*
X34252803Y22684859D01*
X34160133Y22715567D01*
X36528231Y22715567D01*
X37590305Y21653492D01*
X38652380Y22715567D01*
X40063764Y22715567D01*
X41125839Y21653492D01*
X42187913Y22715567D01*
X43599298Y22715567D01*
X44661373Y21653492D01*
X45723447Y22715567D01*
X47134832Y22715567D01*
X48196907Y21653492D01*
X49258981Y22715567D01*
X50670366Y22715567D01*
X51732441Y21653492D01*
X52794515Y22715567D01*
X54205900Y22715567D01*
X55267975Y21653492D01*
X56330049Y22715567D01*
X57741434Y22715567D01*
X58803509Y21653492D01*
X59865583Y22715567D01*
X61276968Y22715567D01*
X62339043Y21653492D01*
X63401117Y22715567D01*
X64812502Y22715567D01*
X65874577Y21653492D01*
X66936651Y22715567D01*
X68348036Y22715567D01*
X69410111Y21653492D01*
X70472185Y22715567D01*
X71883570Y22715567D01*
X72945645Y21653492D01*
X74007719Y22715567D01*
X75419104Y22715567D01*
X76173309Y21961362D01*
X76173309Y23469771D01*
X75419104Y22715567D01*
X74007719Y22715567D01*
X72945645Y23777641D01*
X71883570Y22715567D01*
X70472185Y22715567D01*
X69410111Y23777641D01*
X68348036Y22715567D01*
X66936651Y22715567D01*
X65874577Y23777641D01*
X64812502Y22715567D01*
X63401117Y22715567D01*
X62339043Y23777641D01*
X61276968Y22715567D01*
X59865583Y22715567D01*
X58803509Y23777641D01*
X57741434Y22715567D01*
X56330049Y22715567D01*
X55267975Y23777641D01*
X54205900Y22715567D01*
X52794515Y22715567D01*
X51732441Y23777641D01*
X50670366Y22715567D01*
X49258981Y22715567D01*
X48196907Y23777641D01*
X47134832Y22715567D01*
X45723447Y22715567D01*
X44661373Y23777641D01*
X43599298Y22715567D01*
X42187913Y22715567D01*
X41125839Y23777641D01*
X40063764Y22715567D01*
X38652380Y22715567D01*
X37590305Y23777641D01*
X36528231Y22715567D01*
X34160133Y22715567D01*
X34086381Y22740006D01*
X34086374Y22740007D01*
X33983670Y22750500D01*
X33930135Y22750500D01*
X33863096Y22770185D01*
X33817341Y22822989D01*
X33807397Y22892147D01*
X33836422Y22955703D01*
X33842446Y22962173D01*
X35363608Y24483334D01*
X38295998Y24483334D01*
X39358072Y23421260D01*
X40238255Y24301443D01*
X40090228Y24341106D01*
X40053828Y24352583D01*
X40007811Y24369336D01*
X39972594Y24383924D01*
X39791071Y24468570D01*
X41846295Y24468570D01*
X42893606Y23421259D01*
X43713984Y24241637D01*
X43639001Y24221545D01*
X43582715Y24219703D01*
X43461711Y24243773D01*
X45606626Y24243773D01*
X46429139Y23421259D01*
X47323139Y24315259D01*
X49070673Y24315259D01*
X49964673Y23421259D01*
X50779096Y24235682D01*
X50640622Y24247797D01*
X50602814Y24252774D01*
X50554589Y24261276D01*
X50517346Y24269533D01*
X50250228Y24341106D01*
X50213828Y24352583D01*
X50167811Y24369336D01*
X50132594Y24383924D01*
X49919412Y24483333D01*
X52438133Y24483333D01*
X53500208Y23421259D01*
X54311658Y24232709D01*
X56224291Y24232709D01*
X57035741Y23421259D01*
X57937550Y24323068D01*
X57870228Y24341106D01*
X57833828Y24352583D01*
X57787811Y24369336D01*
X57752594Y24383924D01*
X57640859Y24436027D01*
X59556507Y24436027D01*
X60571275Y23421259D01*
X61390246Y24240230D01*
X61201275Y24223696D01*
X61163169Y24222032D01*
X61114199Y24222032D01*
X61076093Y24223696D01*
X60800622Y24247797D01*
X60762814Y24252774D01*
X60729399Y24258665D01*
X63269404Y24258665D01*
X64106810Y23421259D01*
X64979185Y24293634D01*
X66769968Y24293634D01*
X67642344Y23421259D01*
X68465000Y24243915D01*
X68420622Y24247797D01*
X68382814Y24252774D01*
X68334589Y24261276D01*
X68297346Y24269533D01*
X68030228Y24341106D01*
X67993828Y24352583D01*
X67947811Y24369336D01*
X67912594Y24383924D01*
X67699410Y24483334D01*
X70115802Y24483334D01*
X71177878Y23421259D01*
X71981096Y24224477D01*
X73910194Y24224477D01*
X74713411Y23421260D01*
X75637326Y24345174D01*
X75613828Y24352583D01*
X75567811Y24369336D01*
X75532594Y24383924D01*
X75281982Y24500787D01*
X75248146Y24518402D01*
X75205739Y24542885D01*
X75173578Y24563375D01*
X75108684Y24608814D01*
X75043790Y24563375D01*
X75011629Y24542885D01*
X74969222Y24518402D01*
X74935386Y24500787D01*
X74684774Y24383924D01*
X74649557Y24369336D01*
X74603540Y24352583D01*
X74567140Y24341106D01*
X74300022Y24269533D01*
X74262779Y24261276D01*
X74214554Y24252774D01*
X74176746Y24247797D01*
X73910194Y24224477D01*
X71981096Y24224477D01*
X72137552Y24380933D01*
X72109557Y24369336D01*
X72063540Y24352583D01*
X72027140Y24341106D01*
X71760022Y24269533D01*
X71722779Y24261276D01*
X71674554Y24252774D01*
X71636746Y24247797D01*
X71361275Y24223696D01*
X71323169Y24222032D01*
X71274199Y24222032D01*
X71236093Y24223696D01*
X70960622Y24247797D01*
X70922814Y24252774D01*
X70874589Y24261276D01*
X70837346Y24269533D01*
X70570228Y24341106D01*
X70533828Y24352583D01*
X70487811Y24369336D01*
X70452594Y24383924D01*
X70201982Y24500787D01*
X70168146Y24518402D01*
X70157194Y24524725D01*
X70115802Y24483334D01*
X67699410Y24483334D01*
X67661982Y24500787D01*
X67628146Y24518402D01*
X67585739Y24542885D01*
X67553578Y24563375D01*
X67488684Y24608814D01*
X67423790Y24563375D01*
X67391629Y24542885D01*
X67349222Y24518402D01*
X67315386Y24500787D01*
X67064774Y24383924D01*
X67029557Y24369336D01*
X66983540Y24352583D01*
X66947140Y24341106D01*
X66769968Y24293634D01*
X64979185Y24293634D01*
X65165872Y24480321D01*
X65121982Y24500787D01*
X65088146Y24518402D01*
X65045739Y24542885D01*
X65013578Y24563375D01*
X64948684Y24608814D01*
X64883790Y24563375D01*
X64851629Y24542885D01*
X64809222Y24518402D01*
X64775386Y24500787D01*
X64524774Y24383924D01*
X64489557Y24369336D01*
X64443540Y24352583D01*
X64407140Y24341106D01*
X64140022Y24269533D01*
X64102779Y24261276D01*
X64054554Y24252774D01*
X64016746Y24247797D01*
X63741275Y24223696D01*
X63703169Y24222032D01*
X63654199Y24222032D01*
X63616093Y24223696D01*
X63340622Y24247797D01*
X63302814Y24252774D01*
X63269404Y24258665D01*
X60729399Y24258665D01*
X60714589Y24261276D01*
X60677346Y24269533D01*
X60410228Y24341106D01*
X60373828Y24352583D01*
X60327811Y24369336D01*
X60292594Y24383924D01*
X60041982Y24500787D01*
X60008146Y24518402D01*
X59965739Y24542885D01*
X59933578Y24563375D01*
X59868684Y24608814D01*
X59803790Y24563375D01*
X59771629Y24542885D01*
X59729222Y24518402D01*
X59695386Y24500787D01*
X59556507Y24436027D01*
X57640859Y24436027D01*
X57501982Y24500787D01*
X57468146Y24518402D01*
X57425739Y24542885D01*
X57393578Y24563375D01*
X57328684Y24608814D01*
X57263790Y24563375D01*
X57231629Y24542885D01*
X57189222Y24518402D01*
X57155386Y24500787D01*
X56904774Y24383924D01*
X56869557Y24369336D01*
X56823540Y24352583D01*
X56787140Y24341106D01*
X56520022Y24269533D01*
X56482779Y24261276D01*
X56434554Y24252774D01*
X56396746Y24247797D01*
X56224291Y24232709D01*
X54311658Y24232709D01*
X54548588Y24469639D01*
X54364774Y24383924D01*
X54329557Y24369336D01*
X54283540Y24352583D01*
X54247140Y24341106D01*
X53980022Y24269533D01*
X53942779Y24261276D01*
X53894554Y24252774D01*
X53856746Y24247797D01*
X53581275Y24223696D01*
X53543169Y24222032D01*
X53494199Y24222032D01*
X53456093Y24223696D01*
X53180622Y24247797D01*
X53142814Y24252774D01*
X53094589Y24261276D01*
X53057346Y24269533D01*
X52790228Y24341106D01*
X52753828Y24352583D01*
X52707811Y24369336D01*
X52672594Y24383924D01*
X52444900Y24490100D01*
X52438133Y24483333D01*
X49919412Y24483333D01*
X49881982Y24500787D01*
X49848146Y24518402D01*
X49805739Y24542885D01*
X49773578Y24563375D01*
X49708684Y24608814D01*
X49643790Y24563375D01*
X49611629Y24542885D01*
X49569222Y24518402D01*
X49535386Y24500787D01*
X49284774Y24383924D01*
X49249557Y24369336D01*
X49203540Y24352583D01*
X49167140Y24341106D01*
X49070673Y24315259D01*
X47323139Y24315259D01*
X47455659Y24447779D01*
X47341982Y24500787D01*
X47308146Y24518402D01*
X47265739Y24542885D01*
X47233578Y24563375D01*
X47168684Y24608814D01*
X47103790Y24563375D01*
X47071629Y24542885D01*
X47029222Y24518402D01*
X46995386Y24500787D01*
X46744774Y24383924D01*
X46709557Y24369336D01*
X46663540Y24352583D01*
X46627140Y24341106D01*
X46360022Y24269533D01*
X46322779Y24261276D01*
X46274554Y24252774D01*
X46236746Y24247797D01*
X45961275Y24223696D01*
X45923169Y24222032D01*
X45874199Y24222032D01*
X45836093Y24223696D01*
X45606626Y24243773D01*
X43461711Y24243773D01*
X43358684Y24264267D01*
X43134653Y24219703D01*
X43078367Y24221545D01*
X42630396Y24341579D01*
X42593998Y24353056D01*
X42547983Y24369807D01*
X42512767Y24384395D01*
X42262244Y24501216D01*
X42228424Y24518821D01*
X42186014Y24543305D01*
X42153832Y24563805D01*
X42089118Y24609119D01*
X42023790Y24563375D01*
X41991629Y24542885D01*
X41949222Y24518402D01*
X41915386Y24500787D01*
X41846295Y24468570D01*
X39791071Y24468570D01*
X39721982Y24500787D01*
X39688146Y24518402D01*
X39645739Y24542885D01*
X39613578Y24563375D01*
X39387068Y24721977D01*
X39356813Y24745190D01*
X39319298Y24776669D01*
X39291169Y24802443D01*
X39191613Y24902000D01*
X38714665Y24902000D01*
X38295998Y24483334D01*
X35363608Y24483334D01*
X36743956Y25863681D01*
X36805279Y25897166D01*
X36831637Y25900000D01*
X39604496Y25900000D01*
X39671535Y25880315D01*
X39706071Y25847123D01*
X39818638Y25686359D01*
X39979542Y25525455D01*
X39979545Y25525453D01*
X40165950Y25394932D01*
X40372188Y25298761D01*
X40372193Y25298760D01*
X40372195Y25298759D01*
X40418816Y25286267D01*
X40591992Y25239865D01*
X40753914Y25225699D01*
X40818682Y25220032D01*
X40818684Y25220032D01*
X40818686Y25220032D01*
X40875357Y25224991D01*
X41045376Y25239865D01*
X41265180Y25298761D01*
X41471418Y25394932D01*
X41657823Y25525453D01*
X41818731Y25686361D01*
X41949252Y25872766D01*
X41976579Y25931371D01*
X42022748Y25983805D01*
X42089941Y26002958D01*
X42156823Y25982743D01*
X42201341Y25931367D01*
X42228549Y25873018D01*
X42359026Y25686680D01*
X42519863Y25525843D01*
X42706201Y25395366D01*
X42912357Y25299235D01*
X42912366Y25299231D01*
X43108683Y25246628D01*
X43108684Y25246629D01*
X43108684Y26089999D01*
X43216369Y26040820D01*
X43322921Y26025500D01*
X43394447Y26025500D01*
X43500999Y26040820D01*
X43608684Y26089999D01*
X43608684Y25246628D01*
G37*
%TD.AperFunction*%
%TA.AperFunction,Conductor*%
G36*
X42265361Y27455315D02*
G01*
X42311116Y27402511D01*
X42321060Y27333353D01*
X42299897Y27279876D01*
X42228551Y27177985D01*
X42201341Y27119633D01*
X42155168Y27067194D01*
X42087974Y27048043D01*
X42021093Y27068259D01*
X41976577Y27119635D01*
X41968869Y27136164D01*
X41949252Y27178234D01*
X41878080Y27279879D01*
X41855754Y27346083D01*
X41872764Y27413850D01*
X41923712Y27461663D01*
X41979656Y27475000D01*
X42198322Y27475000D01*
X42265361Y27455315D01*
G37*
%TD.AperFunction*%
%TA.AperFunction,Conductor*%
G36*
X71349386Y31480458D02*
G01*
X71387160Y31421680D01*
X71387958Y31418839D01*
X71443376Y31212014D01*
X71443379Y31212008D01*
X71543208Y30997922D01*
X71678703Y30804418D01*
X71845726Y30637395D01*
X72039230Y30501900D01*
X72253316Y30402071D01*
X72253325Y30402067D01*
X72466809Y30344866D01*
X72466809Y31239999D01*
X72574494Y31190820D01*
X72681046Y31175500D01*
X72752572Y31175500D01*
X72859124Y31190820D01*
X72966809Y31239999D01*
X72966809Y30344867D01*
X73180292Y30402067D01*
X73180301Y30402071D01*
X73394387Y30501900D01*
X73587891Y30637395D01*
X73754914Y30804418D01*
X73884928Y30990095D01*
X73939505Y31033719D01*
X74009004Y31040912D01*
X74071358Y31009390D01*
X74088078Y30990095D01*
X74100989Y30971656D01*
X74218314Y30804099D01*
X74385408Y30637005D01*
X74578433Y30501847D01*
X74622057Y30447272D01*
X74631309Y30400274D01*
X74631309Y28254079D01*
X74611624Y28187040D01*
X74594990Y28166398D01*
X74253505Y27824914D01*
X74192182Y27791429D01*
X74133732Y27792820D01*
X74065381Y27811134D01*
X74065377Y27811135D01*
X74065376Y27811135D01*
X73938594Y27822227D01*
X73838685Y27830968D01*
X73838682Y27830968D01*
X73611997Y27811136D01*
X73611986Y27811134D01*
X73392195Y27752242D01*
X73392186Y27752239D01*
X73185951Y27656069D01*
X73185949Y27656068D01*
X72999542Y27525546D01*
X72838638Y27364642D01*
X72708116Y27178235D01*
X72708115Y27178233D01*
X72681066Y27120225D01*
X72634893Y27067786D01*
X72567700Y27048634D01*
X72500819Y27068850D01*
X72456302Y27120225D01*
X72429252Y27178234D01*
X72331523Y27317807D01*
X72298729Y27364642D01*
X72137825Y27525546D01*
X71951418Y27656068D01*
X71951416Y27656069D01*
X71745181Y27752239D01*
X71745172Y27752242D01*
X71525381Y27811134D01*
X71525377Y27811135D01*
X71525376Y27811135D01*
X71525375Y27811136D01*
X71525370Y27811136D01*
X71298686Y27830968D01*
X71298682Y27830968D01*
X71071997Y27811136D01*
X71071986Y27811134D01*
X70852195Y27752242D01*
X70852186Y27752239D01*
X70645951Y27656069D01*
X70645949Y27656068D01*
X70459542Y27525546D01*
X70298638Y27364642D01*
X70168116Y27178235D01*
X70168115Y27178233D01*
X70141066Y27120225D01*
X70094893Y27067786D01*
X70027700Y27048634D01*
X69960819Y27068850D01*
X69916302Y27120225D01*
X69889252Y27178234D01*
X69791523Y27317807D01*
X69758729Y27364642D01*
X69597825Y27525546D01*
X69411418Y27656068D01*
X69411416Y27656069D01*
X69205181Y27752239D01*
X69205172Y27752242D01*
X68985381Y27811134D01*
X68985377Y27811135D01*
X68985376Y27811135D01*
X68985375Y27811136D01*
X68985370Y27811136D01*
X68758686Y27830968D01*
X68758683Y27830968D01*
X68531997Y27811136D01*
X68531980Y27811133D01*
X68463633Y27792820D01*
X68393783Y27794484D01*
X68343861Y27824914D01*
X67915503Y28253272D01*
X67882018Y28314595D01*
X67879184Y28340953D01*
X67879184Y29351289D01*
X72318915Y29351289D01*
X72945645Y28724559D01*
X73633309Y29412223D01*
X73633309Y29512140D01*
X73579892Y29487231D01*
X73544676Y29472643D01*
X73498659Y29455891D01*
X73462258Y29444414D01*
X72997124Y29319784D01*
X72940840Y29317942D01*
X72716809Y29362506D01*
X72492778Y29317942D01*
X72436494Y29319784D01*
X72318915Y29351289D01*
X67879184Y29351289D01*
X67879184Y30400274D01*
X67898869Y30467313D01*
X67932058Y30501846D01*
X68125085Y30637005D01*
X68247013Y30758934D01*
X68308332Y30792416D01*
X68378024Y30787432D01*
X68433958Y30745561D01*
X68450873Y30714583D01*
X68499886Y30583172D01*
X68499890Y30583165D01*
X68586136Y30467956D01*
X68586139Y30467953D01*
X68701348Y30381707D01*
X68701355Y30381703D01*
X68836201Y30331409D01*
X68836200Y30331409D01*
X68843128Y30330665D01*
X68895811Y30325000D01*
X70691556Y30325001D01*
X70751167Y30331409D01*
X70886015Y30381704D01*
X71001230Y30467954D01*
X71087480Y30583169D01*
X71137775Y30718017D01*
X71144184Y30777627D01*
X71144183Y31386747D01*
X71163867Y31453784D01*
X71216671Y31499539D01*
X71285830Y31509483D01*
X71349386Y31480458D01*
G37*
%TD.AperFunction*%
%TA.AperFunction,Conductor*%
G36*
X63346261Y31480458D02*
G01*
X63384035Y31421680D01*
X63384833Y31418839D01*
X63440251Y31212014D01*
X63440254Y31212008D01*
X63540083Y30997922D01*
X63675578Y30804418D01*
X63842601Y30637395D01*
X64036105Y30501900D01*
X64250191Y30402071D01*
X64250200Y30402067D01*
X64463684Y30344866D01*
X64463684Y31239999D01*
X64571369Y31190820D01*
X64677921Y31175500D01*
X64749447Y31175500D01*
X64855999Y31190820D01*
X64963684Y31239999D01*
X64963684Y30344867D01*
X65177167Y30402067D01*
X65177176Y30402071D01*
X65391262Y30501900D01*
X65584766Y30637395D01*
X65751789Y30804418D01*
X65881803Y30990095D01*
X65936380Y31033719D01*
X66005879Y31040912D01*
X66068233Y31009390D01*
X66084953Y30990095D01*
X66097864Y30971656D01*
X66215189Y30804099D01*
X66382283Y30637005D01*
X66575308Y30501847D01*
X66618932Y30447272D01*
X66628184Y30400274D01*
X66628184Y28113245D01*
X66626459Y28097628D01*
X66626745Y28097601D01*
X66626010Y28089835D01*
X66628184Y28020686D01*
X66628184Y27991157D01*
X66628185Y27991140D01*
X66629052Y27984269D01*
X66629510Y27978450D01*
X66631133Y27926843D01*
X66613565Y27859218D01*
X66562225Y27811826D01*
X66493413Y27799714D01*
X66475103Y27803170D01*
X66445377Y27811135D01*
X66445370Y27811136D01*
X66218686Y27830968D01*
X66218683Y27830968D01*
X65991997Y27811136D01*
X65991980Y27811133D01*
X65923633Y27792820D01*
X65853783Y27794484D01*
X65803861Y27824914D01*
X63130178Y30498597D01*
X63096693Y30559920D01*
X63101677Y30629611D01*
X63125443Y30693332D01*
X63134650Y30718017D01*
X63141059Y30777627D01*
X63141058Y31386747D01*
X63160742Y31453784D01*
X63213546Y31499539D01*
X63282705Y31509483D01*
X63346261Y31480458D01*
G37*
%TD.AperFunction*%
%TA.AperFunction,Conductor*%
G36*
X15327511Y31480458D02*
G01*
X15365285Y31421680D01*
X15366083Y31418839D01*
X15421501Y31212014D01*
X15421504Y31212008D01*
X15521333Y30997922D01*
X15656828Y30804418D01*
X15823851Y30637395D01*
X16017355Y30501900D01*
X16231441Y30402071D01*
X16231450Y30402067D01*
X16444934Y30344866D01*
X16444934Y31239999D01*
X16552619Y31190820D01*
X16659171Y31175500D01*
X16730697Y31175500D01*
X16837249Y31190820D01*
X16944934Y31239999D01*
X16944934Y30344867D01*
X17158417Y30402067D01*
X17158426Y30402071D01*
X17372512Y30501900D01*
X17566016Y30637395D01*
X17733039Y30804418D01*
X17863053Y30990095D01*
X17917630Y31033719D01*
X17987129Y31040912D01*
X18049483Y31009390D01*
X18066203Y30990095D01*
X18079114Y30971656D01*
X18196439Y30804099D01*
X18363533Y30637005D01*
X18460318Y30569235D01*
X18557099Y30501468D01*
X18557101Y30501467D01*
X18557104Y30501465D01*
X18771271Y30401597D01*
X18771277Y30401596D01*
X18771278Y30401595D01*
X18826219Y30386874D01*
X18999526Y30340437D01*
X19175968Y30325000D01*
X19234933Y30319841D01*
X19234934Y30319841D01*
X19234935Y30319841D01*
X19293900Y30325000D01*
X19470342Y30340437D01*
X19570807Y30367357D01*
X19640656Y30365694D01*
X19690581Y30335263D01*
X21088162Y28937681D01*
X21121647Y28876358D01*
X21116663Y28806666D01*
X21074791Y28750733D01*
X21009327Y28726316D01*
X21000481Y28726000D01*
X15117262Y28726000D01*
X15050223Y28745685D01*
X15029581Y28762319D01*
X13678580Y30113320D01*
X13645095Y30174643D01*
X13650079Y30244335D01*
X13691951Y30300268D01*
X13757415Y30324685D01*
X13766261Y30325001D01*
X14669680Y30325001D01*
X14669681Y30325001D01*
X14729292Y30331409D01*
X14864140Y30381704D01*
X14979355Y30467954D01*
X15065605Y30583169D01*
X15115900Y30718017D01*
X15122309Y30777627D01*
X15122308Y31386747D01*
X15141992Y31453784D01*
X15194796Y31499539D01*
X15263955Y31509483D01*
X15327511Y31480458D01*
G37*
%TD.AperFunction*%
%TA.AperFunction,Conductor*%
G36*
X23330636Y31480458D02*
G01*
X23368410Y31421680D01*
X23369208Y31418839D01*
X23424626Y31212014D01*
X23424629Y31212008D01*
X23524458Y30997922D01*
X23659953Y30804418D01*
X23826976Y30637395D01*
X24020480Y30501900D01*
X24234566Y30402071D01*
X24234575Y30402067D01*
X24448059Y30344866D01*
X24448059Y31239999D01*
X24555744Y31190820D01*
X24662296Y31175500D01*
X24733822Y31175500D01*
X24840374Y31190820D01*
X24948059Y31239999D01*
X24948059Y30344867D01*
X25161542Y30402067D01*
X25161551Y30402071D01*
X25375637Y30501900D01*
X25569141Y30637395D01*
X25736164Y30804418D01*
X25866178Y30990095D01*
X25920755Y31033719D01*
X25990254Y31040912D01*
X26052608Y31009390D01*
X26069328Y30990095D01*
X26082239Y30971656D01*
X26199564Y30804099D01*
X26366658Y30637005D01*
X26463443Y30569235D01*
X26560224Y30501468D01*
X26560226Y30501467D01*
X26560229Y30501465D01*
X26774396Y30401597D01*
X26774402Y30401596D01*
X26774403Y30401595D01*
X26829344Y30386874D01*
X27002651Y30340437D01*
X27179093Y30325000D01*
X27238058Y30319841D01*
X27238059Y30319841D01*
X27238060Y30319841D01*
X27297025Y30325000D01*
X27473467Y30340437D01*
X27573932Y30367357D01*
X27643781Y30365694D01*
X27693706Y30335263D01*
X28641287Y29387681D01*
X28674772Y29326358D01*
X28669788Y29256666D01*
X28627916Y29200733D01*
X28562452Y29176316D01*
X28553606Y29176000D01*
X22670387Y29176000D01*
X22603348Y29195685D01*
X22582706Y29212319D01*
X21681705Y30113320D01*
X21648220Y30174643D01*
X21653204Y30244335D01*
X21695076Y30300268D01*
X21760540Y30324685D01*
X21769386Y30325001D01*
X22672805Y30325001D01*
X22672806Y30325001D01*
X22732417Y30331409D01*
X22867265Y30381704D01*
X22982480Y30467954D01*
X23068730Y30583169D01*
X23119025Y30718017D01*
X23125434Y30777627D01*
X23125433Y31386747D01*
X23145117Y31453784D01*
X23197921Y31499539D01*
X23267080Y31509483D01*
X23330636Y31480458D01*
G37*
%TD.AperFunction*%
%TA.AperFunction,Conductor*%
G36*
X31333761Y31480458D02*
G01*
X31371535Y31421680D01*
X31372333Y31418839D01*
X31427751Y31212014D01*
X31427754Y31212008D01*
X31527583Y30997922D01*
X31663078Y30804418D01*
X31830101Y30637395D01*
X32023605Y30501900D01*
X32237691Y30402071D01*
X32237700Y30402067D01*
X32451184Y30344866D01*
X32451184Y31239999D01*
X32558869Y31190820D01*
X32665421Y31175500D01*
X32736947Y31175500D01*
X32843499Y31190820D01*
X32951184Y31239999D01*
X32951184Y30344867D01*
X33164667Y30402067D01*
X33164676Y30402071D01*
X33378762Y30501900D01*
X33572266Y30637395D01*
X33739289Y30804418D01*
X33869303Y30990095D01*
X33923880Y31033719D01*
X33993379Y31040912D01*
X34055733Y31009390D01*
X34072453Y30990095D01*
X34085364Y30971656D01*
X34202689Y30804099D01*
X34369783Y30637005D01*
X34466568Y30569235D01*
X34563349Y30501468D01*
X34563351Y30501467D01*
X34563354Y30501465D01*
X34777521Y30401597D01*
X34777527Y30401596D01*
X34777528Y30401595D01*
X34832469Y30386874D01*
X35005776Y30340437D01*
X35182218Y30325000D01*
X35241183Y30319841D01*
X35241184Y30319841D01*
X35241185Y30319841D01*
X35300150Y30325000D01*
X35476592Y30340437D01*
X35577057Y30367357D01*
X35646906Y30365694D01*
X35696831Y30335263D01*
X36194412Y29837681D01*
X36227897Y29776358D01*
X36222913Y29706666D01*
X36181041Y29650733D01*
X36115577Y29626316D01*
X36106731Y29626000D01*
X30223512Y29626000D01*
X30156473Y29645685D01*
X30135831Y29662319D01*
X29684830Y30113320D01*
X29651345Y30174643D01*
X29656329Y30244335D01*
X29698201Y30300268D01*
X29763665Y30324685D01*
X29772511Y30325001D01*
X30675930Y30325001D01*
X30675931Y30325001D01*
X30735542Y30331409D01*
X30870390Y30381704D01*
X30985605Y30467954D01*
X31071855Y30583169D01*
X31122150Y30718017D01*
X31128559Y30777627D01*
X31128558Y31386747D01*
X31148242Y31453784D01*
X31201046Y31499539D01*
X31270205Y31509483D01*
X31333761Y31480458D01*
G37*
%TD.AperFunction*%
%TA.AperFunction,Conductor*%
G36*
X39336886Y31480458D02*
G01*
X39374660Y31421680D01*
X39375458Y31418839D01*
X39430876Y31212014D01*
X39430879Y31212008D01*
X39530708Y30997922D01*
X39666203Y30804418D01*
X39833226Y30637395D01*
X40026730Y30501900D01*
X40240816Y30402071D01*
X40240825Y30402067D01*
X40454309Y30344866D01*
X40454309Y31239999D01*
X40561994Y31190820D01*
X40668546Y31175500D01*
X40740072Y31175500D01*
X40846624Y31190820D01*
X40954309Y31239999D01*
X40954309Y30344867D01*
X41167792Y30402067D01*
X41167801Y30402071D01*
X41381887Y30501900D01*
X41575391Y30637395D01*
X41742414Y30804418D01*
X41872428Y30990095D01*
X41927005Y31033719D01*
X41996504Y31040912D01*
X42058858Y31009390D01*
X42075578Y30990095D01*
X42088489Y30971656D01*
X42205814Y30804099D01*
X42372908Y30637005D01*
X42469693Y30569235D01*
X42566474Y30501468D01*
X42566476Y30501467D01*
X42566479Y30501465D01*
X42780646Y30401597D01*
X42780652Y30401596D01*
X42780653Y30401595D01*
X42835594Y30386874D01*
X43008901Y30340437D01*
X43174302Y30325966D01*
X43202167Y30323528D01*
X43243964Y30307178D01*
X43262324Y30318977D01*
X43286451Y30323528D01*
X43314316Y30325966D01*
X43479717Y30340437D01*
X43580182Y30367357D01*
X43650031Y30365694D01*
X43699956Y30335263D01*
X43747538Y30287681D01*
X43781023Y30226358D01*
X43776039Y30156666D01*
X43734167Y30100733D01*
X43668703Y30076316D01*
X43659857Y30076000D01*
X43297259Y30076000D01*
X43242023Y30092220D01*
X43215791Y30078431D01*
X43191359Y30076000D01*
X37776637Y30076000D01*
X37709598Y30095685D01*
X37688956Y30112319D01*
X37687955Y30113320D01*
X37654470Y30174643D01*
X37659454Y30244335D01*
X37701326Y30300268D01*
X37766790Y30324685D01*
X37775636Y30325001D01*
X38679055Y30325001D01*
X38679056Y30325001D01*
X38738667Y30331409D01*
X38873515Y30381704D01*
X38988730Y30467954D01*
X39074980Y30583169D01*
X39125275Y30718017D01*
X39131684Y30777627D01*
X39131683Y31386747D01*
X39151367Y31453784D01*
X39204171Y31499539D01*
X39273330Y31509483D01*
X39336886Y31480458D01*
G37*
%TD.AperFunction*%
%TD*%
M02*
