%TF.GenerationSoftware,KiCad,Pcbnew,7.0.9*%
%TF.CreationDate,2024-01-21T19:27:48-06:00*%
%TF.ProjectId,Tei,5465692e-6b69-4636-9164-5f7063625858,1*%
%TF.SameCoordinates,Original*%
%TF.FileFunction,Legend,Bot*%
%TF.FilePolarity,Positive*%
%FSLAX46Y46*%
G04 Gerber Fmt 4.6, Leading zero omitted, Abs format (unit mm)*
G04 Created by KiCad (PCBNEW 7.0.9) date 2024-01-21 19:27:48*
%MOMM*%
%LPD*%
G01*
G04 APERTURE LIST*
G04 Aperture macros list*
%AMRoundRect*
0 Rectangle with rounded corners*
0 $1 Rounding radius*
0 $2 $3 $4 $5 $6 $7 $8 $9 X,Y pos of 4 corners*
0 Add a 4 corners polygon primitive as box body*
4,1,4,$2,$3,$4,$5,$6,$7,$8,$9,$2,$3,0*
0 Add four circle primitives for the rounded corners*
1,1,$1+$1,$2,$3*
1,1,$1+$1,$4,$5*
1,1,$1+$1,$6,$7*
1,1,$1+$1,$8,$9*
0 Add four rect primitives between the rounded corners*
20,1,$1+$1,$2,$3,$4,$5,0*
20,1,$1+$1,$4,$5,$6,$7,0*
20,1,$1+$1,$6,$7,$8,$9,0*
20,1,$1+$1,$8,$9,$2,$3,0*%
G04 Aperture macros list end*
%ADD10R,1.700000X1.700000*%
%ADD11O,1.700000X1.700000*%
%ADD12R,1.600000X1.600000*%
%ADD13O,1.600000X1.600000*%
%ADD14C,2.200000*%
%ADD15C,0.900000*%
%ADD16R,3.800000X3.800000*%
%ADD17C,4.000000*%
%ADD18RoundRect,0.250000X-0.600000X-0.750000X0.600000X-0.750000X0.600000X0.750000X-0.600000X0.750000X0*%
%ADD19O,1.700000X2.000000*%
G04 APERTURE END LIST*
%TO.C,G\u002A\u002A\u002A*%
G36*
X41098630Y21857500D02*
G01*
X43000937Y21857500D01*
X43000937Y20210469D01*
X43000937Y18563437D01*
X42207187Y18563437D01*
X41413437Y18563437D01*
X41413437Y19496094D01*
X41413437Y20428750D01*
X39607656Y20428750D01*
X37801875Y20428750D01*
X37801875Y19853281D01*
X37801875Y19277812D01*
X39448906Y19277812D01*
X41095937Y19277812D01*
X41095937Y15944062D01*
X41095937Y12610312D01*
X40322031Y12610312D01*
X39548125Y12610312D01*
X39548125Y15190000D01*
X39548125Y17769687D01*
X38675000Y17769687D01*
X37801875Y17769687D01*
X37801875Y14634375D01*
X37801875Y11499062D01*
X37008125Y11499062D01*
X36214375Y11499062D01*
X36214375Y14634375D01*
X36214375Y17769687D01*
X35341250Y17769687D01*
X34468125Y17769687D01*
X34468125Y15864687D01*
X34468125Y13959687D01*
X35242031Y13959687D01*
X35274828Y13959661D01*
X35509440Y13957843D01*
X35712629Y13953498D01*
X35872407Y13947088D01*
X35976788Y13939075D01*
X36013784Y13929922D01*
X35995093Y13889518D01*
X35942555Y13791356D01*
X35862471Y13647013D01*
X35761136Y13467832D01*
X35644846Y13265156D01*
X35278061Y12630156D01*
X34099187Y12619644D01*
X32920312Y12609131D01*
X32920312Y15943472D01*
X32920312Y19277812D01*
X34567344Y19277812D01*
X36214375Y19277812D01*
X36214375Y19853281D01*
X36214375Y20428750D01*
X34408594Y20428750D01*
X32602812Y20428750D01*
X32602812Y19496094D01*
X32602812Y18563437D01*
X31789696Y18563437D01*
X30976579Y18563437D01*
X30966180Y20061641D01*
X30965099Y20215983D01*
X30962393Y20571114D01*
X30959584Y20856229D01*
X30956272Y21078114D01*
X30952055Y21243554D01*
X30946532Y21359336D01*
X30939303Y21432244D01*
X30929967Y21469066D01*
X30918123Y21476585D01*
X30903371Y21461587D01*
X30885309Y21430859D01*
X30838224Y21357565D01*
X30770839Y21312305D01*
X30661636Y21301875D01*
X30508435Y21301875D01*
X30145972Y21917031D01*
X30037878Y22099322D01*
X29933740Y22272453D01*
X29849669Y22409529D01*
X29792314Y22499718D01*
X29768325Y22532188D01*
X29767438Y22531596D01*
X29739174Y22490469D01*
X29676607Y22390764D01*
X29585015Y22241159D01*
X29469676Y22050327D01*
X29335867Y21826945D01*
X29188867Y21579688D01*
X28624593Y20627188D01*
X28311828Y20627187D01*
X27999062Y20627187D01*
X27999062Y20785937D01*
X27999062Y20944687D01*
X28174954Y20944687D01*
X28198281Y20944333D01*
X28244185Y20943056D01*
X28283646Y20946292D01*
X28321393Y20960396D01*
X28362152Y20991723D01*
X28410651Y21046629D01*
X28471617Y21131470D01*
X28549780Y21252600D01*
X28649865Y21416375D01*
X28776601Y21629150D01*
X28934715Y21897280D01*
X29128935Y22227122D01*
X29206030Y22357281D01*
X29355956Y22606604D01*
X29491402Y22826885D01*
X29607309Y23010194D01*
X29698619Y23148603D01*
X29760272Y23234180D01*
X29787210Y23258997D01*
X29796703Y23245886D01*
X29842752Y23173344D01*
X29919710Y23047579D01*
X30021419Y22878779D01*
X30141722Y22677128D01*
X30274465Y22452812D01*
X30367652Y22295067D01*
X30495225Y22081610D01*
X30593050Y21923426D01*
X30667333Y21812082D01*
X30724279Y21739146D01*
X30770094Y21696187D01*
X30810982Y21674772D01*
X30853149Y21666470D01*
X30919516Y21663239D01*
X30965649Y21685516D01*
X30975625Y21755389D01*
X30975625Y21856745D01*
X32895577Y21867044D01*
X34815528Y21877344D01*
X34295414Y22779717D01*
X33786141Y23663281D01*
X35583965Y23663281D01*
X36103484Y22760391D01*
X36623004Y21857500D01*
X37533176Y21857500D01*
X38443349Y21857500D01*
X38365429Y21986484D01*
X38346150Y22018858D01*
X38279284Y22133854D01*
X38193342Y22283986D01*
X38102088Y22445278D01*
X37916666Y22775086D01*
X38160386Y23212418D01*
X38172088Y23233472D01*
X38261038Y23397492D01*
X38331023Y23533506D01*
X38375244Y23627873D01*
X38386902Y23666952D01*
X38353993Y23670245D01*
X38249794Y23673211D01*
X38083308Y23675281D01*
X37863653Y23676410D01*
X37599944Y23676555D01*
X37301298Y23675672D01*
X36976833Y23673718D01*
X35583965Y23663281D01*
X33786141Y23663281D01*
X33775299Y23682091D01*
X32444915Y23692530D01*
X31114531Y23702969D01*
X31103694Y24407422D01*
X31092856Y25111875D01*
X33633772Y25111875D01*
X36174687Y25111875D01*
X36174687Y25806406D01*
X36174687Y26500937D01*
X37008125Y26500937D01*
X37841562Y26500937D01*
X37841562Y25806406D01*
X37841562Y25111875D01*
X40361719Y25111875D01*
X42881875Y25111875D01*
X42881875Y24397500D01*
X42881875Y23683125D01*
X41560758Y23683125D01*
X40239642Y23683125D01*
X39717982Y22770313D01*
X39196322Y21857500D01*
X41098630Y21857500D01*
G37*
G36*
X29497266Y13713815D02*
G01*
X29685781Y13701719D01*
X29685781Y12690220D01*
X29685781Y11678722D01*
X29507187Y11591235D01*
X29443208Y11560058D01*
X29356784Y11518633D01*
X29318672Y11501405D01*
X29318260Y11502262D01*
X29315726Y11551108D01*
X29313453Y11667768D01*
X29311529Y11842240D01*
X29310045Y12064519D01*
X29309089Y12324602D01*
X29308750Y12612487D01*
X29308750Y13725912D01*
X29497266Y13713815D01*
G37*
G36*
X30816875Y16003594D02*
G01*
X30816875Y15825000D01*
X29827373Y15825000D01*
X28837871Y15825000D01*
X29256818Y15110625D01*
X29675764Y14396250D01*
X30047882Y14396250D01*
X30138828Y14395140D01*
X30283789Y14387842D01*
X30383136Y14375174D01*
X30420000Y14358831D01*
X30418050Y14347484D01*
X30389162Y14277552D01*
X30336705Y14180237D01*
X30253410Y14039062D01*
X29849947Y14039062D01*
X29446484Y14039062D01*
X28831914Y15077225D01*
X28771409Y15179487D01*
X28622020Y15432452D01*
X28487814Y15660376D01*
X28373856Y15854616D01*
X28285211Y16006528D01*
X28226942Y16107467D01*
X28204115Y16148788D01*
X28220286Y16154356D01*
X28304681Y16161884D01*
X28453044Y16168569D01*
X28656259Y16174176D01*
X28905212Y16178471D01*
X29190791Y16181219D01*
X29503880Y16182187D01*
X30816875Y16182187D01*
X30816875Y16003594D01*
G37*
G36*
X30578750Y16744427D02*
G01*
X30578370Y16718670D01*
X30569208Y16619239D01*
X30551647Y16565189D01*
X30512862Y16558827D01*
X30404217Y16553253D01*
X30236837Y16549281D01*
X30021495Y16547079D01*
X29768960Y16546813D01*
X29490006Y16548652D01*
X28455469Y16559219D01*
X28443265Y16727891D01*
X28431061Y16896562D01*
X29504906Y16896562D01*
X30578750Y16896562D01*
X30578750Y16744427D01*
G37*
G36*
X28425703Y20103503D02*
G01*
X28614219Y20091406D01*
X28634062Y19535781D01*
X28653906Y18980156D01*
X29062912Y18295547D01*
X29471917Y17610937D01*
X30008029Y17610937D01*
X30544141Y17610937D01*
X30454348Y17451172D01*
X30364554Y17291406D01*
X29789088Y17302344D01*
X29213621Y17313281D01*
X28725404Y18140014D01*
X28237187Y18966748D01*
X28237187Y19541173D01*
X28237187Y20115599D01*
X28425703Y20103503D01*
G37*
G36*
X30777187Y19800365D02*
G01*
X30776814Y19774512D01*
X30767866Y19675365D01*
X30750729Y19621771D01*
X30733035Y19616499D01*
X30647544Y19608105D01*
X30504972Y19601387D01*
X30319553Y19596928D01*
X30105518Y19595312D01*
X29486766Y19595312D01*
X29378891Y19773906D01*
X29271017Y19952500D01*
X30024102Y19952500D01*
X30777187Y19952500D01*
X30777187Y19800365D01*
G37*
G36*
X29110312Y22909219D02*
G01*
X29110312Y22571875D01*
X28753125Y22571875D01*
X28395937Y22571875D01*
X28395937Y22909219D01*
X28395937Y22929062D01*
X28634062Y22929062D01*
X28637710Y22866222D01*
X28668793Y22819834D01*
X28753125Y22810000D01*
X28815966Y22813648D01*
X28862353Y22844731D01*
X28872187Y22929062D01*
X28868540Y22991903D01*
X28837457Y23038291D01*
X28753125Y23048125D01*
X28690284Y23044477D01*
X28643897Y23013394D01*
X28634062Y22929062D01*
X28395937Y22929062D01*
X28395937Y23246562D01*
X28753125Y23246562D01*
X29110312Y23246562D01*
X29110312Y22929062D01*
X29110312Y22909219D01*
G37*
G36*
X30618437Y26322344D02*
G01*
X30618437Y26143750D01*
X30162031Y26143750D01*
X29705625Y26143750D01*
X29705625Y25151562D01*
X29705625Y24159375D01*
X30201719Y24159375D01*
X30697812Y24159375D01*
X30697812Y23980781D01*
X30697812Y23802187D01*
X29507187Y23802187D01*
X28316562Y23802187D01*
X28316562Y23980781D01*
X28316562Y24159375D01*
X28812656Y24159375D01*
X29308750Y24159375D01*
X29308750Y25150303D01*
X29308750Y26141231D01*
X28842422Y26152412D01*
X28376094Y26163594D01*
X28363890Y26332266D01*
X28351686Y26500937D01*
X29485062Y26500937D01*
X30618437Y26500937D01*
X30618437Y26322344D01*
G37*
G36*
X62154833Y17579893D02*
G01*
X62154835Y17542700D01*
X62154879Y17369658D01*
X62155003Y17213996D01*
X62155237Y17074569D01*
X62155610Y16950229D01*
X62156154Y16839829D01*
X62156898Y16742224D01*
X62157873Y16656265D01*
X62159108Y16580807D01*
X62160635Y16514704D01*
X62162482Y16456807D01*
X62164681Y16405970D01*
X62167261Y16361048D01*
X62170253Y16320893D01*
X62173686Y16284358D01*
X62177592Y16250296D01*
X62182000Y16217562D01*
X62186940Y16185008D01*
X62192443Y16151488D01*
X62225618Y15989952D01*
X62276014Y15806965D01*
X62341350Y15615133D01*
X62421291Y15415284D01*
X62515505Y15208248D01*
X62623658Y14994852D01*
X62745416Y14775927D01*
X62780490Y14715470D01*
X62841735Y14826328D01*
X62929183Y14987960D01*
X63015831Y15156816D01*
X63091801Y15315707D01*
X63157954Y15466839D01*
X63215154Y15612419D01*
X63264261Y15754657D01*
X63306139Y15895758D01*
X63341648Y16037931D01*
X63371651Y16183384D01*
X63396353Y16315990D01*
X63399694Y17500166D01*
X63403034Y18684343D01*
X63688740Y18684343D01*
X63974446Y18684343D01*
X63974423Y17603342D01*
X63974407Y17479791D01*
X63974303Y17305673D01*
X63974055Y17148381D01*
X63973606Y17006750D01*
X63972899Y16879610D01*
X63971878Y16765794D01*
X63970488Y16664133D01*
X63968671Y16573461D01*
X63966371Y16492609D01*
X63963532Y16420410D01*
X63960098Y16355695D01*
X63956012Y16297296D01*
X63951217Y16244047D01*
X63945659Y16194778D01*
X63939280Y16148322D01*
X63932023Y16103512D01*
X63923833Y16059178D01*
X63914654Y16014155D01*
X63904428Y15967272D01*
X63893100Y15917364D01*
X63883213Y15875293D01*
X63859066Y15780322D01*
X63832464Y15686788D01*
X63802771Y15593254D01*
X63769352Y15498282D01*
X63731570Y15400434D01*
X63688789Y15298272D01*
X63640373Y15190359D01*
X63585686Y15075256D01*
X63524092Y14951526D01*
X63454954Y14817731D01*
X63377637Y14672434D01*
X63291504Y14514197D01*
X63195920Y14341581D01*
X63154825Y14267732D01*
X63114969Y14195834D01*
X63077687Y14128314D01*
X63044297Y14067572D01*
X63016117Y14016003D01*
X62994465Y13976007D01*
X62980659Y13949982D01*
X62940598Y13872600D01*
X62779845Y13872692D01*
X62619091Y13872785D01*
X62573044Y13959454D01*
X62570141Y13964892D01*
X62551778Y13998745D01*
X62526192Y14045312D01*
X62495029Y14101625D01*
X62459934Y14164717D01*
X62422553Y14231622D01*
X62384530Y14299372D01*
X62357227Y14347954D01*
X62276470Y14492366D01*
X62204334Y14622676D01*
X62140067Y14740415D01*
X62082921Y14847112D01*
X62032145Y14944300D01*
X61986990Y15033506D01*
X61946705Y15116263D01*
X61910542Y15194101D01*
X61877748Y15268549D01*
X61847576Y15341137D01*
X61819275Y15413398D01*
X61792095Y15486859D01*
X61765286Y15563053D01*
X61751154Y15605116D01*
X61715035Y15721976D01*
X61682215Y15841513D01*
X61654403Y15957248D01*
X61633313Y16062704D01*
X61628888Y16088068D01*
X61623047Y16122219D01*
X61617812Y16154506D01*
X61613147Y16186073D01*
X61609014Y16218067D01*
X61605376Y16251634D01*
X61602195Y16287919D01*
X61599434Y16328067D01*
X61597055Y16373226D01*
X61595021Y16424540D01*
X61593295Y16483155D01*
X61591839Y16550217D01*
X61590615Y16626873D01*
X61589587Y16714267D01*
X61588716Y16813545D01*
X61587966Y16925853D01*
X61587298Y17052338D01*
X61586676Y17194144D01*
X61586061Y17352418D01*
X61585418Y17528305D01*
X61581226Y18684343D01*
X61868013Y18684343D01*
X62154800Y18684343D01*
X62154833Y17579893D01*
G37*
G36*
X57994667Y18751315D02*
G01*
X58065672Y18745882D01*
X58123534Y18737548D01*
X58234670Y18710291D01*
X58366237Y18662464D01*
X58486470Y18600242D01*
X58594823Y18524024D01*
X58690748Y18434207D01*
X58773698Y18331187D01*
X58843126Y18215362D01*
X58868756Y18162458D01*
X58910862Y18055508D01*
X58939362Y17947526D01*
X58955387Y17833612D01*
X58960068Y17708863D01*
X58958907Y17655792D01*
X58947911Y17532552D01*
X58924361Y17415446D01*
X58887029Y17299293D01*
X58834692Y17178915D01*
X58827687Y17164671D01*
X58820107Y17149893D01*
X58811623Y17134255D01*
X58801655Y17116905D01*
X58789619Y17096991D01*
X58774934Y17073663D01*
X58757018Y17046067D01*
X58735287Y17013353D01*
X58709160Y16974669D01*
X58678055Y16929164D01*
X58641389Y16875985D01*
X58598581Y16814281D01*
X58549047Y16743201D01*
X58492206Y16661892D01*
X58427476Y16569504D01*
X58354273Y16465184D01*
X58272017Y16348081D01*
X58180124Y16217344D01*
X58078013Y16072120D01*
X58031987Y16006644D01*
X57955352Y15897484D01*
X57888351Y15801801D01*
X57830192Y15718413D01*
X57780084Y15646142D01*
X57737234Y15583805D01*
X57700852Y15530225D01*
X57670144Y15484220D01*
X57644320Y15444610D01*
X57622586Y15410216D01*
X57604152Y15379856D01*
X57588226Y15352352D01*
X57574016Y15326522D01*
X57560729Y15301187D01*
X57557671Y15295201D01*
X57508403Y15187066D01*
X57472133Y15082921D01*
X57449306Y14984658D01*
X57440369Y14894165D01*
X57445765Y14813335D01*
X57450945Y14786944D01*
X57478643Y14702714D01*
X57520900Y14629623D01*
X57576840Y14568334D01*
X57645587Y14519510D01*
X57726264Y14483814D01*
X57817995Y14461910D01*
X57919904Y14454462D01*
X57982450Y14457271D01*
X58089282Y14475463D01*
X58189902Y14509852D01*
X58281506Y14559622D01*
X58301384Y14573441D01*
X58378827Y14639323D01*
X58453912Y14722257D01*
X58525739Y14820913D01*
X58593412Y14933964D01*
X58656031Y15060079D01*
X58712700Y15197929D01*
X58720886Y15219006D01*
X58733996Y15248998D01*
X58744401Y15268128D01*
X58750378Y15272966D01*
X58754264Y15267041D01*
X58766174Y15245995D01*
X58784460Y15212238D01*
X58807960Y15168024D01*
X58835511Y15115609D01*
X58865954Y15057248D01*
X58898124Y14995196D01*
X58930861Y14931708D01*
X58963003Y14869039D01*
X58993387Y14809445D01*
X59020853Y14755180D01*
X59044237Y14708500D01*
X59062379Y14671659D01*
X59074116Y14646913D01*
X59078286Y14636517D01*
X59077398Y14631759D01*
X59068366Y14610469D01*
X59050830Y14577518D01*
X59026325Y14535574D01*
X58996387Y14487305D01*
X58962551Y14435377D01*
X58908227Y14358231D01*
X58813475Y14243002D01*
X58713322Y14145084D01*
X58606680Y14063793D01*
X58492459Y13998449D01*
X58369570Y13948368D01*
X58236922Y13912868D01*
X58093427Y13891269D01*
X58093111Y13891237D01*
X58023531Y13887132D01*
X57942764Y13886855D01*
X57857894Y13890135D01*
X57776003Y13896698D01*
X57704173Y13906272D01*
X57580237Y13934589D01*
X57451389Y13980840D01*
X57332024Y14042166D01*
X57223510Y14117853D01*
X57127216Y14207187D01*
X57086240Y14254022D01*
X57010675Y14360758D01*
X56950239Y14476884D01*
X56905030Y14601117D01*
X56875145Y14732174D01*
X56860680Y14868769D01*
X56861731Y15009620D01*
X56878397Y15153441D01*
X56910772Y15298950D01*
X56958955Y15444863D01*
X57023042Y15589895D01*
X57036347Y15616185D01*
X57051984Y15645963D01*
X57068337Y15675490D01*
X57086349Y15706164D01*
X57106964Y15739383D01*
X57131128Y15776543D01*
X57159785Y15819043D01*
X57193879Y15868278D01*
X57234355Y15925647D01*
X57282157Y15992546D01*
X57338229Y16070374D01*
X57403517Y16160527D01*
X57478964Y16264402D01*
X57554499Y16368404D01*
X57665859Y16522237D01*
X57766771Y16662449D01*
X57857729Y16789894D01*
X57939227Y16905425D01*
X58011760Y17009894D01*
X58075823Y17104155D01*
X58131909Y17189060D01*
X58180514Y17265462D01*
X58222132Y17334214D01*
X58257258Y17396168D01*
X58286386Y17452178D01*
X58310011Y17503096D01*
X58328627Y17549775D01*
X58342729Y17593068D01*
X58352811Y17633828D01*
X58359368Y17672907D01*
X58362894Y17711158D01*
X58363885Y17749435D01*
X58362834Y17788590D01*
X58356703Y17850862D01*
X58335554Y17935957D01*
X58300000Y18009118D01*
X58249854Y18070613D01*
X58184933Y18120709D01*
X58105050Y18159672D01*
X58094814Y18163262D01*
X58044499Y18175193D01*
X57983621Y18183052D01*
X57918455Y18186454D01*
X57855274Y18185014D01*
X57800352Y18178349D01*
X57796198Y18177529D01*
X57704656Y18149860D01*
X57621769Y18105769D01*
X57548212Y18045800D01*
X57484657Y17970498D01*
X57431778Y17880407D01*
X57414646Y17845817D01*
X57398245Y17814091D01*
X57386286Y17792536D01*
X57380576Y17784537D01*
X57377606Y17788614D01*
X57366966Y17807095D01*
X57349821Y17838441D01*
X57327339Y17880403D01*
X57300688Y17930731D01*
X57271034Y17987175D01*
X57239546Y18047485D01*
X57207390Y18109412D01*
X57175733Y18170705D01*
X57145745Y18229114D01*
X57118590Y18282390D01*
X57095438Y18328283D01*
X57077456Y18364542D01*
X57065810Y18388918D01*
X57061669Y18399161D01*
X57062072Y18400629D01*
X57071500Y18413514D01*
X57091140Y18435135D01*
X57117924Y18462488D01*
X57148788Y18492568D01*
X57180665Y18522373D01*
X57210488Y18548899D01*
X57235192Y18569142D01*
X57257497Y18585304D01*
X57340319Y18634577D01*
X57435769Y18677645D01*
X57539470Y18712712D01*
X57647040Y18737984D01*
X57687052Y18743926D01*
X57756712Y18750151D01*
X57834796Y18753455D01*
X57915911Y18753841D01*
X57994667Y18751315D01*
G37*
G36*
X68748670Y16315510D02*
G01*
X68748670Y13946677D01*
X68108512Y13949806D01*
X67468353Y13952936D01*
X67375226Y13978310D01*
X67354963Y13984058D01*
X67226783Y14031568D01*
X67106036Y14096131D01*
X66993440Y14177307D01*
X66889713Y14274659D01*
X66855207Y14312949D01*
X66763610Y14432296D01*
X66682967Y14564873D01*
X66614197Y14708594D01*
X66558222Y14861371D01*
X66515959Y15021118D01*
X66488328Y15185746D01*
X66486597Y15206421D01*
X66485011Y15239962D01*
X66483652Y15286285D01*
X66482514Y15345986D01*
X66481594Y15419664D01*
X66480888Y15507916D01*
X66480394Y15611340D01*
X66480106Y15730533D01*
X66480022Y15866094D01*
X66480138Y16018620D01*
X66480450Y16188708D01*
X66480927Y16367161D01*
X67060441Y16367161D01*
X67060467Y16242291D01*
X67060634Y16118431D01*
X67060943Y15997192D01*
X67061394Y15880183D01*
X67061987Y15769015D01*
X67062721Y15665298D01*
X67063597Y15570642D01*
X67064614Y15486657D01*
X67065773Y15414954D01*
X67067073Y15357142D01*
X67068514Y15314832D01*
X67070096Y15289634D01*
X67086434Y15179571D01*
X67119106Y15048600D01*
X67164543Y14924900D01*
X67221383Y14812756D01*
X67230697Y14798240D01*
X67256280Y14763441D01*
X67287942Y14724621D01*
X67320894Y14687794D01*
X67344038Y14664446D01*
X67418450Y14603734D01*
X67497663Y14560397D01*
X67583185Y14533550D01*
X67607685Y14529463D01*
X67643531Y14525878D01*
X67690368Y14523214D01*
X67750138Y14521392D01*
X67824779Y14520332D01*
X67916230Y14519956D01*
X68185894Y14519793D01*
X68185894Y16315990D01*
X68185894Y18112186D01*
X67901786Y18112186D01*
X67899763Y18112186D01*
X67813070Y18111980D01*
X67742886Y18111313D01*
X67687008Y18110094D01*
X67643235Y18108229D01*
X67609367Y18105624D01*
X67583202Y18102187D01*
X67562539Y18097824D01*
X67498722Y18075924D01*
X67417501Y18031570D01*
X67342408Y17971358D01*
X67274326Y17896626D01*
X67214139Y17808711D01*
X67162729Y17708951D01*
X67120981Y17598682D01*
X67089776Y17479243D01*
X67069999Y17351970D01*
X67069547Y17346901D01*
X67068006Y17317189D01*
X67066609Y17270776D01*
X67065354Y17209271D01*
X67064242Y17134285D01*
X67063272Y17047428D01*
X67062445Y16950310D01*
X67061760Y16844541D01*
X67061217Y16731731D01*
X67060816Y16613491D01*
X67060558Y16491431D01*
X67060441Y16367161D01*
X66480927Y16367161D01*
X66480953Y16376957D01*
X66484295Y17479062D01*
X66509794Y17594139D01*
X66515944Y17621092D01*
X66561955Y17786330D01*
X66619353Y17939835D01*
X66687580Y18080950D01*
X66766078Y18209017D01*
X66854288Y18323380D01*
X66951650Y18423380D01*
X67057607Y18508361D01*
X67171599Y18577665D01*
X67293068Y18630636D01*
X67421455Y18666615D01*
X67435521Y18669386D01*
X67454125Y18672496D01*
X67474758Y18675139D01*
X67498940Y18677353D01*
X67528193Y18679175D01*
X67564037Y18680644D01*
X67607994Y18681798D01*
X67661584Y18682674D01*
X67726329Y18683310D01*
X67803749Y18683745D01*
X67895366Y18684016D01*
X68002699Y18684162D01*
X68127271Y18684220D01*
X68748670Y18684343D01*
X68748670Y18112186D01*
X68748670Y16315510D01*
G37*
G36*
X65503323Y16315990D02*
G01*
X65503323Y13947637D01*
X65221935Y13947637D01*
X64940546Y13947637D01*
X64940546Y16315990D01*
X64940546Y18684343D01*
X65221935Y18684343D01*
X65503323Y18684343D01*
X65503323Y16315990D01*
G37*
G36*
X60616543Y16315990D02*
G01*
X60616543Y13947637D01*
X60335155Y13947637D01*
X60053767Y13947637D01*
X60053767Y16315990D01*
X60053767Y18684343D01*
X60335155Y18684343D01*
X60616543Y18684343D01*
X60616543Y16315990D01*
G37*
G36*
X55889217Y16320680D02*
G01*
X55889217Y13947637D01*
X55607829Y13947637D01*
X55326440Y13947637D01*
X55326440Y16320680D01*
X55326440Y18693723D01*
X55607829Y18693723D01*
X55889217Y18693723D01*
X55889217Y16320680D01*
G37*
G36*
X52765805Y17582323D02*
G01*
X52765805Y17240326D01*
X52723617Y17177421D01*
X52713221Y17161306D01*
X52669482Y17078283D01*
X52632239Y16981379D01*
X52602877Y16874077D01*
X52600265Y16862232D01*
X52597088Y16846591D01*
X52594324Y16830340D01*
X52591944Y16812180D01*
X52589920Y16790817D01*
X52588223Y16764954D01*
X52586824Y16733294D01*
X52585694Y16694542D01*
X52584805Y16647401D01*
X52584128Y16590574D01*
X52583633Y16522766D01*
X52583294Y16442681D01*
X52583079Y16349021D01*
X52582962Y16240491D01*
X52582912Y16115794D01*
X52582902Y15973634D01*
X52582902Y15957524D01*
X52582908Y15811057D01*
X52582979Y15681887D01*
X52583193Y15568688D01*
X52583629Y15470134D01*
X52584365Y15384901D01*
X52585478Y15311662D01*
X52587046Y15249092D01*
X52589147Y15195865D01*
X52591860Y15150655D01*
X52595261Y15112136D01*
X52599429Y15078984D01*
X52604442Y15049871D01*
X52610377Y15023473D01*
X52617313Y14998464D01*
X52625328Y14973518D01*
X52634499Y14947309D01*
X52644904Y14918512D01*
X52683503Y14827774D01*
X52738296Y14735613D01*
X52803160Y14659144D01*
X52877948Y14598483D01*
X52962513Y14553746D01*
X53056709Y14525048D01*
X53160388Y14512505D01*
X53234364Y14513001D01*
X53329024Y14526295D01*
X53414210Y14554839D01*
X53491511Y14599218D01*
X53562522Y14660014D01*
X53573808Y14671629D01*
X53619402Y14724319D01*
X53656477Y14779257D01*
X53688346Y14841928D01*
X53718325Y14917817D01*
X53721580Y14926918D01*
X53732255Y14956989D01*
X53741585Y14984523D01*
X53749669Y15010938D01*
X53756604Y15037656D01*
X53762487Y15066094D01*
X53767416Y15097674D01*
X53771489Y15133815D01*
X53774803Y15175937D01*
X53777455Y15225460D01*
X53779543Y15283803D01*
X53781165Y15352386D01*
X53782418Y15432629D01*
X53783399Y15525952D01*
X53784207Y15633774D01*
X53784938Y15757516D01*
X53785690Y15898597D01*
X53785725Y15905263D01*
X53786430Y16053863D01*
X53786857Y16185111D01*
X53786967Y16300356D01*
X53786718Y16400946D01*
X53786071Y16488229D01*
X53784984Y16563555D01*
X53783417Y16628272D01*
X53781329Y16683728D01*
X53778679Y16731273D01*
X53775428Y16772255D01*
X53771533Y16808022D01*
X53766955Y16839924D01*
X53761653Y16869309D01*
X53755586Y16897526D01*
X53754025Y16904175D01*
X53732810Y16978658D01*
X53705419Y17053547D01*
X53674415Y17122474D01*
X53642359Y17179071D01*
X53600591Y17242663D01*
X53600591Y17579571D01*
X53600591Y17916479D01*
X53621695Y17909922D01*
X53625022Y17908775D01*
X53646549Y17899767D01*
X53677772Y17885367D01*
X53713146Y17868107D01*
X53723560Y17862807D01*
X53837019Y17793727D01*
X53940982Y17709037D01*
X54034788Y17609626D01*
X54117780Y17496381D01*
X54189299Y17370192D01*
X54248686Y17231948D01*
X54295283Y17082537D01*
X54297184Y17075166D01*
X54306451Y17038492D01*
X54314605Y17004058D01*
X54321717Y16970464D01*
X54327858Y16936310D01*
X54333100Y16900196D01*
X54337515Y16860722D01*
X54341173Y16816489D01*
X54344145Y16766096D01*
X54346504Y16708143D01*
X54348321Y16641230D01*
X54349667Y16563959D01*
X54350613Y16474927D01*
X54351231Y16372737D01*
X54351592Y16255987D01*
X54351767Y16123277D01*
X54351828Y15973209D01*
X54351834Y15904328D01*
X54351781Y15765550D01*
X54351596Y15643474D01*
X54351226Y15536684D01*
X54350619Y15443766D01*
X54349722Y15363305D01*
X54348482Y15293885D01*
X54346848Y15234092D01*
X54344768Y15182511D01*
X54342187Y15137726D01*
X54339055Y15098322D01*
X54335319Y15062884D01*
X54330926Y15029998D01*
X54325824Y14998248D01*
X54319961Y14966219D01*
X54313284Y14932497D01*
X54311347Y14923080D01*
X54271209Y14769594D01*
X54217505Y14627004D01*
X54150906Y14496007D01*
X54072085Y14377303D01*
X53981714Y14271593D01*
X53880467Y14179574D01*
X53769017Y14101947D01*
X53648035Y14039411D01*
X53518195Y13992666D01*
X53380170Y13962410D01*
X53335768Y13956438D01*
X53197606Y13948006D01*
X53058969Y13954076D01*
X52923446Y13974178D01*
X52794623Y14007842D01*
X52676090Y14054599D01*
X52598398Y14094387D01*
X52525627Y14139846D01*
X52458498Y14192224D01*
X52390248Y14256294D01*
X52379104Y14267671D01*
X52290873Y14371300D01*
X52214833Y14487106D01*
X52150273Y14616309D01*
X52096482Y14760127D01*
X52092174Y14773691D01*
X52077406Y14822987D01*
X52064331Y14872168D01*
X52052863Y14922583D01*
X52042913Y14975580D01*
X52034394Y15032505D01*
X52027219Y15094706D01*
X52021301Y15163532D01*
X52016552Y15240329D01*
X52012885Y15326446D01*
X52010213Y15423230D01*
X52008448Y15532029D01*
X52007503Y15654191D01*
X52007291Y15791063D01*
X52007723Y15943993D01*
X52008714Y16114328D01*
X52009438Y16215721D01*
X52010462Y16341157D01*
X52011600Y16450571D01*
X52012954Y16545553D01*
X52014627Y16627690D01*
X52016719Y16698574D01*
X52019331Y16759793D01*
X52022566Y16812937D01*
X52026525Y16859595D01*
X52031309Y16901358D01*
X52037020Y16939813D01*
X52043759Y16976551D01*
X52051628Y17013161D01*
X52060728Y17051233D01*
X52071161Y17092355D01*
X52106291Y17209674D01*
X52161890Y17348364D01*
X52229302Y17475552D01*
X52307755Y17590267D01*
X52396479Y17691538D01*
X52494702Y17778393D01*
X52601654Y17849862D01*
X52716562Y17904973D01*
X52765805Y17924320D01*
X52765805Y17582323D01*
G37*
G36*
X49307035Y17518926D02*
G01*
X49307082Y17495673D01*
X49307434Y17326200D01*
X49307769Y17174444D01*
X49308103Y17039479D01*
X49308454Y16920382D01*
X49308838Y16816229D01*
X49309271Y16726096D01*
X49309771Y16649059D01*
X49310353Y16584194D01*
X49311035Y16530578D01*
X49311833Y16487285D01*
X49312764Y16453393D01*
X49313844Y16427976D01*
X49315090Y16410113D01*
X49316518Y16398877D01*
X49318145Y16393346D01*
X49319988Y16392595D01*
X49322064Y16395701D01*
X49324389Y16401739D01*
X49326979Y16409786D01*
X49343016Y16459183D01*
X49365137Y16524166D01*
X49391662Y16599918D01*
X49421355Y16683031D01*
X49452979Y16770100D01*
X49485295Y16857718D01*
X49517066Y16942480D01*
X49547056Y17020978D01*
X49574026Y17089808D01*
X49597220Y17147422D01*
X49685067Y17355572D01*
X49775961Y17555860D01*
X49869156Y17746952D01*
X49963904Y17927514D01*
X50059458Y18096214D01*
X50155071Y18251718D01*
X50249996Y18392692D01*
X50343485Y18517804D01*
X50434791Y18625720D01*
X50488132Y18684343D01*
X50764044Y18684343D01*
X51039956Y18684343D01*
X51039956Y16315990D01*
X51039956Y13947637D01*
X50758589Y13947637D01*
X50477223Y13947637D01*
X50474856Y15910321D01*
X50472489Y17873006D01*
X50397933Y17746517D01*
X50353688Y17669732D01*
X50267899Y17511711D01*
X50182129Y17342366D01*
X50098632Y17166370D01*
X50019661Y16988394D01*
X49947473Y16813110D01*
X49925452Y16756579D01*
X49821180Y16466920D01*
X49725138Y16162413D01*
X49637744Y15844926D01*
X49559418Y15516328D01*
X49490580Y15178487D01*
X49431648Y14833272D01*
X49383042Y14482552D01*
X49345180Y14128194D01*
X49328752Y13947637D01*
X49035351Y13947637D01*
X48741950Y13947637D01*
X48741950Y16315990D01*
X48741950Y18684343D01*
X49023302Y18684343D01*
X49304653Y18684343D01*
X49307035Y17518926D01*
G37*
G36*
X53469276Y17563479D02*
G01*
X53469276Y16667725D01*
X53183198Y16667725D01*
X52897120Y16667725D01*
X52897120Y17563479D01*
X52897120Y18459232D01*
X53183198Y18459232D01*
X53469276Y18459232D01*
X53469276Y17563479D01*
G37*
G36*
X59868538Y21903896D02*
G01*
X59868618Y21857050D01*
X59868989Y21648287D01*
X59869357Y21457275D01*
X59869731Y21283184D01*
X59870120Y21125182D01*
X59870532Y20982439D01*
X59870975Y20854124D01*
X59871459Y20739405D01*
X59871992Y20637452D01*
X59872582Y20547434D01*
X59873238Y20468520D01*
X59873969Y20399880D01*
X59874784Y20340681D01*
X59875690Y20290094D01*
X59876697Y20247287D01*
X59877814Y20211430D01*
X59879048Y20181691D01*
X59880409Y20157241D01*
X59881905Y20137246D01*
X59883544Y20120878D01*
X59885336Y20107305D01*
X59887289Y20095695D01*
X59900594Y20031294D01*
X59937776Y19897791D01*
X59984984Y19780134D01*
X60042229Y19678309D01*
X60109524Y19592303D01*
X60186880Y19522102D01*
X60274309Y19467692D01*
X60371823Y19429059D01*
X60479435Y19406189D01*
X60579479Y19401440D01*
X60682048Y19412871D01*
X60782525Y19439494D01*
X60877558Y19480152D01*
X60963794Y19533688D01*
X61037880Y19598943D01*
X61043647Y19605006D01*
X61066380Y19628155D01*
X61082850Y19643729D01*
X61089818Y19648629D01*
X61091279Y19646049D01*
X61100218Y19629533D01*
X61116325Y19599492D01*
X61138529Y19557930D01*
X61165761Y19506850D01*
X61196952Y19448256D01*
X61231031Y19384149D01*
X61370017Y19122545D01*
X61337981Y19095865D01*
X61227704Y19015380D01*
X61103928Y18946128D01*
X60970923Y18890436D01*
X60831656Y18849544D01*
X60689094Y18824691D01*
X60672066Y18822894D01*
X60540627Y18818577D01*
X60404734Y18829792D01*
X60268511Y18855781D01*
X60136079Y18895788D01*
X60011561Y18949056D01*
X59947872Y18983508D01*
X59830262Y19062745D01*
X59724098Y19156588D01*
X59629335Y19265109D01*
X59545929Y19388376D01*
X59473836Y19526461D01*
X59413011Y19679433D01*
X59363409Y19847362D01*
X59324987Y20030318D01*
X59323820Y20037416D01*
X59321936Y20050814D01*
X59320209Y20066369D01*
X59318631Y20084911D01*
X59317193Y20107270D01*
X59315887Y20134276D01*
X59314704Y20166759D01*
X59313635Y20205550D01*
X59312673Y20251478D01*
X59311808Y20305373D01*
X59311031Y20368066D01*
X59310335Y20440388D01*
X59309710Y20523167D01*
X59309148Y20617234D01*
X59308641Y20723419D01*
X59308179Y20842553D01*
X59307755Y20975465D01*
X59307359Y21122986D01*
X59306984Y21285945D01*
X59306620Y21465174D01*
X59306258Y21661501D01*
X59305891Y21875757D01*
X59302969Y23627400D01*
X59584285Y23627400D01*
X59865602Y23627400D01*
X59868538Y21903896D01*
G37*
G36*
X57364475Y21842929D02*
G01*
X57364826Y21663618D01*
X57365240Y21462249D01*
X57365651Y21278154D01*
X57366066Y21110517D01*
X57366493Y20958525D01*
X57366942Y20821363D01*
X57367421Y20698215D01*
X57367938Y20588267D01*
X57368502Y20490704D01*
X57369122Y20404712D01*
X57369806Y20329475D01*
X57370562Y20264179D01*
X57371399Y20208010D01*
X57372326Y20160152D01*
X57373351Y20119791D01*
X57374482Y20086111D01*
X57375729Y20058299D01*
X57377099Y20035540D01*
X57378602Y20017018D01*
X57380245Y20001918D01*
X57382038Y19989427D01*
X57383988Y19978730D01*
X57410304Y19867550D01*
X57441743Y19771868D01*
X57479505Y19689147D01*
X57524821Y19616687D01*
X57578926Y19551790D01*
X57619732Y19512496D01*
X57695692Y19457074D01*
X57778579Y19418308D01*
X57869982Y19395535D01*
X57971492Y19388091D01*
X58026463Y19390070D01*
X58119567Y19404588D01*
X58203275Y19434026D01*
X58279994Y19479352D01*
X58352133Y19541539D01*
X58376201Y19566898D01*
X58433606Y19640797D01*
X58479569Y19723645D01*
X58516672Y19819806D01*
X58519955Y19829938D01*
X58526177Y19848946D01*
X58531881Y19866727D01*
X58537088Y19884114D01*
X58541821Y19901938D01*
X58546104Y19921033D01*
X58549957Y19942232D01*
X58553405Y19966368D01*
X58556469Y19994273D01*
X58559172Y20026779D01*
X58561537Y20064721D01*
X58563586Y20108930D01*
X58565341Y20160240D01*
X58566827Y20219482D01*
X58568063Y20287491D01*
X58569075Y20365098D01*
X58569883Y20453137D01*
X58570511Y20552439D01*
X58570982Y20663839D01*
X58571317Y20788169D01*
X58571539Y20926261D01*
X58571671Y21078949D01*
X58571736Y21247065D01*
X58571755Y21431441D01*
X58571752Y21632911D01*
X58571749Y21852308D01*
X58571787Y23627400D01*
X58857865Y23627400D01*
X59143944Y23627400D01*
X59143936Y21880447D01*
X59143912Y21722171D01*
X59143786Y21491030D01*
X59143551Y21275876D01*
X59143210Y21076938D01*
X59142764Y20894447D01*
X59142213Y20728636D01*
X59141559Y20579734D01*
X59140803Y20447974D01*
X59139947Y20333586D01*
X59138991Y20236801D01*
X59137938Y20157850D01*
X59136787Y20096966D01*
X59135540Y20054378D01*
X59134199Y20030318D01*
X59113955Y19879585D01*
X59078398Y19720970D01*
X59029609Y19572590D01*
X58968112Y19435219D01*
X58894430Y19309632D01*
X58809085Y19196604D01*
X58712600Y19096910D01*
X58605498Y19011325D01*
X58488303Y18940624D01*
X58361538Y18885580D01*
X58356090Y18883654D01*
X58267861Y18857077D01*
X58172151Y18835594D01*
X58079357Y18821564D01*
X58073268Y18820979D01*
X58029742Y18819213D01*
X57974347Y18819790D01*
X57912762Y18822406D01*
X57850666Y18826753D01*
X57793740Y18832527D01*
X57747662Y18839421D01*
X57738866Y18841126D01*
X57602326Y18877277D01*
X57474554Y18929581D01*
X57356093Y18997359D01*
X57247488Y19079929D01*
X57149281Y19176609D01*
X57062016Y19286720D01*
X56986238Y19409580D01*
X56922491Y19544509D01*
X56871317Y19690825D01*
X56833261Y19847848D01*
X56808866Y20014897D01*
X56808157Y20024392D01*
X56806823Y20057335D01*
X56805592Y20108864D01*
X56804465Y20178866D01*
X56803442Y20267227D01*
X56802525Y20373831D01*
X56801713Y20498565D01*
X56801007Y20641314D01*
X56800409Y20801963D01*
X56799918Y20980399D01*
X56799534Y21176507D01*
X56799260Y21390172D01*
X56799095Y21621280D01*
X56799040Y21869716D01*
X56799040Y23627400D01*
X57080044Y23627400D01*
X57361048Y23627400D01*
X57364475Y21842929D01*
G37*
G36*
X56095569Y20489919D02*
G01*
X56095569Y20278878D01*
X56095569Y19603545D01*
X55485894Y19603545D01*
X54876219Y19603545D01*
X54876219Y19209601D01*
X54876219Y18815658D01*
X53797563Y18815658D01*
X52718907Y18815658D01*
X52718907Y19195532D01*
X52718907Y19575406D01*
X52958087Y19575406D01*
X53197267Y19575406D01*
X53197267Y19420643D01*
X53197267Y19265879D01*
X53797563Y19265879D01*
X54397858Y19265879D01*
X54397858Y19434712D01*
X54397858Y19603545D01*
X53783493Y19603545D01*
X53169128Y19603545D01*
X53169128Y20025628D01*
X53656868Y20025628D01*
X54027363Y20025628D01*
X54397858Y20025628D01*
X54397858Y20152253D01*
X54397858Y20278878D01*
X54876219Y20278878D01*
X54876219Y20152253D01*
X54876219Y20025628D01*
X55242024Y20025628D01*
X55607829Y20025628D01*
X55607829Y20152253D01*
X55607829Y20278878D01*
X55242024Y20278878D01*
X54876219Y20278878D01*
X54397858Y20278878D01*
X54027363Y20278878D01*
X53656868Y20278878D01*
X53656868Y20152253D01*
X53656868Y20025628D01*
X53169128Y20025628D01*
X53169128Y20489919D01*
X53169128Y20700960D01*
X53656868Y20700960D01*
X54027363Y20700960D01*
X54397858Y20700960D01*
X54397858Y20827585D01*
X54397858Y20954210D01*
X54876219Y20954210D01*
X54876219Y20827585D01*
X54876219Y20700960D01*
X55242024Y20700960D01*
X55607829Y20700960D01*
X55607829Y20827585D01*
X55607829Y20954210D01*
X55242024Y20954210D01*
X54876219Y20954210D01*
X54397858Y20954210D01*
X54027363Y20954210D01*
X53656868Y20954210D01*
X53656868Y20827585D01*
X53656868Y20700960D01*
X53169128Y20700960D01*
X53169128Y21376293D01*
X54632348Y21376293D01*
X56095569Y21376293D01*
X56095569Y20954210D01*
X56095569Y20489919D01*
G37*
G36*
X52343722Y18815556D02*
G01*
X51515971Y18817951D01*
X50688220Y18820347D01*
X50683530Y19045403D01*
X50679326Y19247120D01*
X51142928Y19247120D01*
X51518316Y19247120D01*
X51893704Y19247120D01*
X51891258Y19643409D01*
X51888811Y20039697D01*
X51518316Y20039697D01*
X51147821Y20039697D01*
X51145374Y19643409D01*
X51142928Y19247120D01*
X50679326Y19247120D01*
X50678840Y19270459D01*
X50642389Y19200167D01*
X50628937Y19174741D01*
X50606287Y19132881D01*
X50578634Y19082455D01*
X50548294Y19027678D01*
X50517579Y18972766D01*
X50429220Y18815658D01*
X50328432Y18815658D01*
X50227645Y18815658D01*
X49974882Y19270263D01*
X49943980Y19325733D01*
X49898393Y19407148D01*
X49855972Y19482421D01*
X49817559Y19550084D01*
X49783997Y19608667D01*
X49756129Y19656701D01*
X49734799Y19692719D01*
X49720848Y19715251D01*
X49715120Y19722829D01*
X49712680Y19719655D01*
X49701844Y19702124D01*
X49683273Y19670581D01*
X49657816Y19626517D01*
X49626326Y19571423D01*
X49589653Y19506791D01*
X49548647Y19434110D01*
X49504160Y19354872D01*
X49457042Y19270569D01*
X49205964Y18820347D01*
X48973957Y18817839D01*
X48741950Y18815330D01*
X48741950Y19044942D01*
X48741950Y19274555D01*
X48827893Y19277252D01*
X48913837Y19279949D01*
X49189008Y19775073D01*
X49464180Y20270197D01*
X49464180Y21034286D01*
X49464180Y21798375D01*
X49131204Y21798375D01*
X48798227Y21798375D01*
X48798227Y22023486D01*
X48798227Y22248597D01*
X49131204Y22248597D01*
X49464180Y22248597D01*
X49464180Y22611799D01*
X49464100Y22704010D01*
X49463820Y22780103D01*
X49463284Y22840446D01*
X49462437Y22886553D01*
X49461225Y22919937D01*
X49459592Y22942111D01*
X49457483Y22954587D01*
X49454843Y22958879D01*
X49451616Y22956500D01*
X49444504Y22944637D01*
X49429322Y22918217D01*
X49407236Y22879290D01*
X49379353Y22829822D01*
X49346784Y22771781D01*
X49310636Y22707135D01*
X49272018Y22637851D01*
X49233690Y22569177D01*
X49197731Y22505131D01*
X49165401Y22447930D01*
X49137790Y22399488D01*
X49115990Y22361719D01*
X49101091Y22336536D01*
X49094184Y22325853D01*
X49089004Y22325833D01*
X49080026Y22334537D01*
X49066438Y22353291D01*
X49047413Y22383403D01*
X49022124Y22426184D01*
X48989743Y22482942D01*
X48949445Y22554987D01*
X48923720Y22601403D01*
X48889797Y22663298D01*
X48863875Y22711812D01*
X48845108Y22748710D01*
X48832653Y22775754D01*
X48825664Y22794708D01*
X48823296Y22807334D01*
X48824706Y22815398D01*
X48830145Y22825666D01*
X48844041Y22850917D01*
X48865083Y22888724D01*
X48892154Y22937091D01*
X48924136Y22994023D01*
X48959911Y23057522D01*
X48998361Y23125591D01*
X49162817Y23416359D01*
X49313498Y23418936D01*
X49464180Y23421514D01*
X49464180Y23524457D01*
X49464180Y23627400D01*
X49703360Y23627400D01*
X49942541Y23627400D01*
X49942541Y22937999D01*
X49942541Y22248597D01*
X50280207Y22248597D01*
X50617873Y22248597D01*
X50617873Y22023486D01*
X50617873Y21798375D01*
X50280207Y21798375D01*
X49942541Y21798375D01*
X49942518Y21055041D01*
X49942496Y20311706D01*
X50230941Y19793506D01*
X50519387Y19275305D01*
X50601459Y19275282D01*
X50683530Y19275259D01*
X50683530Y19870864D01*
X50683530Y20466470D01*
X51513626Y20466470D01*
X52343722Y20466470D01*
X52343722Y19641013D01*
X52343722Y19247120D01*
X52343722Y18815556D01*
G37*
G36*
X68748670Y21259524D02*
G01*
X68748670Y18890694D01*
X68129220Y18890694D01*
X68040932Y18890718D01*
X67926344Y18890855D01*
X67828067Y18891140D01*
X67744646Y18891605D01*
X67674626Y18892281D01*
X67616551Y18893199D01*
X67568967Y18894391D01*
X67530418Y18895887D01*
X67499449Y18897719D01*
X67474606Y18899918D01*
X67454432Y18902516D01*
X67437474Y18905544D01*
X67355154Y18925396D01*
X67240073Y18965260D01*
X67133880Y19018447D01*
X67033185Y19086756D01*
X66934595Y19171983D01*
X66918934Y19187185D01*
X66822050Y19293511D01*
X66737219Y19409950D01*
X66663768Y19537807D01*
X66601023Y19678383D01*
X66548310Y19832980D01*
X66504957Y20002903D01*
X66503241Y20010813D01*
X66500338Y20024911D01*
X66497747Y20039324D01*
X66495447Y20055136D01*
X66493416Y20073434D01*
X66491632Y20095301D01*
X66490074Y20121823D01*
X66488720Y20154085D01*
X66487549Y20193171D01*
X66486539Y20240167D01*
X66485668Y20296158D01*
X66484914Y20362228D01*
X66484257Y20439462D01*
X66483674Y20528946D01*
X66483144Y20631764D01*
X66482644Y20749002D01*
X66482154Y20881744D01*
X66481652Y21031075D01*
X66481116Y21198080D01*
X66480956Y21254358D01*
X67065029Y21254358D01*
X67065040Y21114637D01*
X67065091Y20966227D01*
X67065198Y20834539D01*
X67065378Y20718468D01*
X67065647Y20616912D01*
X67066022Y20528767D01*
X67066519Y20452930D01*
X67067155Y20388298D01*
X67067946Y20333768D01*
X67068909Y20288236D01*
X67070060Y20250599D01*
X67071416Y20219755D01*
X67072993Y20194600D01*
X67074807Y20174030D01*
X67076876Y20156943D01*
X67079215Y20142235D01*
X67081842Y20128804D01*
X67103679Y20038514D01*
X67144438Y19914017D01*
X67194376Y19803128D01*
X67252984Y19706534D01*
X67319755Y19624922D01*
X67394180Y19558978D01*
X67475752Y19509389D01*
X67563962Y19476842D01*
X67581529Y19473089D01*
X67607544Y19469593D01*
X67641664Y19466931D01*
X67686018Y19465013D01*
X67742736Y19463753D01*
X67813948Y19463062D01*
X67901786Y19462851D01*
X68185894Y19462851D01*
X68185894Y21259737D01*
X68185894Y23056623D01*
X67883401Y23053299D01*
X67842922Y23052847D01*
X67767111Y23051898D01*
X67706733Y23050867D01*
X67659507Y23049594D01*
X67623154Y23047916D01*
X67595391Y23045669D01*
X67573938Y23042693D01*
X67556514Y23038825D01*
X67540839Y23033902D01*
X67524631Y23027761D01*
X67523897Y23027471D01*
X67433231Y22981542D01*
X67351030Y22919284D01*
X67277717Y22841312D01*
X67213717Y22748241D01*
X67159454Y22640689D01*
X67115351Y22519271D01*
X67081833Y22384601D01*
X67079694Y22373228D01*
X67077301Y22358116D01*
X67075181Y22340866D01*
X67073318Y22320371D01*
X67071697Y22295521D01*
X67070300Y22265209D01*
X67069110Y22228326D01*
X67068113Y22183766D01*
X67067290Y22130418D01*
X67066626Y22067177D01*
X67066103Y21992932D01*
X67065706Y21906577D01*
X67065419Y21807003D01*
X67065224Y21693102D01*
X67065105Y21563766D01*
X67065046Y21417888D01*
X67065029Y21254358D01*
X66480956Y21254358D01*
X66480603Y21378786D01*
X66480258Y21549614D01*
X66480111Y21702854D01*
X66480166Y21839106D01*
X66480427Y21958967D01*
X66480897Y22063035D01*
X66481580Y22151909D01*
X66482480Y22226186D01*
X66483599Y22286465D01*
X66484942Y22333343D01*
X66486513Y22367419D01*
X66488314Y22389291D01*
X66497813Y22457466D01*
X66531174Y22619772D01*
X66578419Y22775969D01*
X66638661Y22924035D01*
X66711010Y23061952D01*
X66794579Y23187700D01*
X66888479Y23299258D01*
X66953145Y23363046D01*
X67050605Y23443240D01*
X67153281Y23508327D01*
X67264760Y23560476D01*
X67388626Y23601857D01*
X67399882Y23604912D01*
X67414219Y23608344D01*
X67429858Y23611288D01*
X67448252Y23613792D01*
X67470857Y23615902D01*
X67499127Y23617666D01*
X67534517Y23619131D01*
X67578482Y23620343D01*
X67632478Y23621350D01*
X67697957Y23622198D01*
X67776377Y23622935D01*
X67869191Y23623607D01*
X67977854Y23624261D01*
X68103822Y23624945D01*
X68748670Y23628353D01*
X68748670Y23056623D01*
X68748670Y21259524D01*
G37*
G36*
X66188035Y21259047D02*
G01*
X66188035Y18890694D01*
X65221935Y18890694D01*
X64255834Y18890694D01*
X64255834Y19172083D01*
X64255834Y19453471D01*
X64940546Y19453471D01*
X65625258Y19453471D01*
X65625258Y20278878D01*
X65625258Y21104284D01*
X65062481Y21104284D01*
X64499704Y21104284D01*
X64499704Y21390362D01*
X64499704Y21676440D01*
X65062542Y21676440D01*
X65625379Y21676440D01*
X65622974Y22368187D01*
X65620569Y23059934D01*
X64938202Y23062340D01*
X64255834Y23064746D01*
X64255834Y23346073D01*
X64255834Y23627400D01*
X65221935Y23627400D01*
X66188035Y23627400D01*
X66188035Y21259047D01*
G37*
G36*
X62194627Y22461983D02*
G01*
X62197009Y21296566D01*
X62247553Y21446640D01*
X62249819Y21453360D01*
X62345998Y21727309D01*
X62445476Y21989125D01*
X62547879Y22238070D01*
X62652835Y22473410D01*
X62759973Y22694407D01*
X62868919Y22900327D01*
X62979303Y23090432D01*
X63090751Y23263986D01*
X63202891Y23420253D01*
X63315351Y23558497D01*
X63375444Y23627400D01*
X63651496Y23627400D01*
X63927548Y23627400D01*
X63927548Y21259047D01*
X63927548Y18890694D01*
X63646159Y18890694D01*
X63364771Y18890694D01*
X63364593Y20853379D01*
X63364415Y22816064D01*
X63337323Y22772935D01*
X63301848Y22715355D01*
X63199758Y22537511D01*
X63099027Y22344469D01*
X63000783Y22138875D01*
X62906158Y21923372D01*
X62816280Y21700606D01*
X62732280Y21473222D01*
X62655287Y21243864D01*
X62586431Y21015177D01*
X62576054Y20978190D01*
X62505878Y20709008D01*
X62441032Y20426665D01*
X62382302Y20135595D01*
X62330476Y19840235D01*
X62286340Y19545020D01*
X62250679Y19254385D01*
X62224281Y18972766D01*
X62217878Y18890694D01*
X61923710Y18890694D01*
X61629542Y18890694D01*
X61629542Y21259047D01*
X61629542Y23627400D01*
X61910894Y23627400D01*
X62192246Y23627400D01*
X62194627Y22461983D01*
G37*
G36*
X52568833Y20804096D02*
G01*
X52568833Y20597703D01*
X51520661Y20600089D01*
X50472489Y20602474D01*
X50469961Y20806481D01*
X50467433Y21010488D01*
X51518133Y21010488D01*
X52568833Y21010488D01*
X52568833Y20804096D01*
G37*
G36*
X52381241Y22070384D02*
G01*
X52381241Y21883352D01*
X52381241Y21141802D01*
X51523006Y21141802D01*
X50664771Y21141802D01*
X50664771Y21516987D01*
X51086854Y21516987D01*
X51204099Y21516987D01*
X51321344Y21516987D01*
X51714883Y21516987D01*
X51837020Y21516987D01*
X51959158Y21516987D01*
X51959158Y21700170D01*
X51959158Y21883352D01*
X51933645Y21882792D01*
X51839568Y21880727D01*
X51719978Y21878102D01*
X51717430Y21697545D01*
X51714883Y21516987D01*
X51321344Y21516987D01*
X51321344Y21699889D01*
X51321344Y21882792D01*
X51204099Y21882792D01*
X51086854Y21882792D01*
X51086854Y21699889D01*
X51086854Y21516987D01*
X50664771Y21516987D01*
X50664771Y22069990D01*
X50664771Y22286115D01*
X51086854Y22286115D01*
X51204099Y22286115D01*
X51321344Y22286115D01*
X51714855Y22286115D01*
X51837007Y22286115D01*
X51959158Y22286115D01*
X51959158Y22455229D01*
X51959158Y22624342D01*
X51933645Y22623782D01*
X51839568Y22621717D01*
X51719978Y22619092D01*
X51717416Y22452604D01*
X51714855Y22286115D01*
X51321344Y22286115D01*
X51321344Y22454949D01*
X51321344Y22623782D01*
X51204099Y22623782D01*
X51086854Y22623782D01*
X51086854Y22454949D01*
X51086854Y22286115D01*
X50664771Y22286115D01*
X50664771Y22998177D01*
X50733701Y23000917D01*
X50802631Y23003656D01*
X50668049Y23308494D01*
X50639608Y23373075D01*
X50610745Y23438979D01*
X50585208Y23497665D01*
X50563854Y23547149D01*
X50547541Y23585444D01*
X50537125Y23610564D01*
X50533461Y23620524D01*
X50540397Y23622167D01*
X50563770Y23623697D01*
X50601240Y23624815D01*
X50650325Y23625473D01*
X50708542Y23625622D01*
X50773410Y23625214D01*
X51013365Y23622711D01*
X51150452Y23310838D01*
X51287540Y22998966D01*
X51449826Y22998966D01*
X51494243Y22999173D01*
X51541283Y22999909D01*
X51578620Y23001084D01*
X51603236Y23002598D01*
X51612112Y23004350D01*
X51612087Y23004503D01*
X51607013Y23014883D01*
X51593946Y23039265D01*
X51574074Y23075497D01*
X51548582Y23121431D01*
X51518658Y23174914D01*
X51485487Y23233798D01*
X51483469Y23237372D01*
X51450376Y23296403D01*
X51420620Y23350298D01*
X51395395Y23396829D01*
X51375896Y23433765D01*
X51363320Y23458877D01*
X51358863Y23469935D01*
X51359220Y23472632D01*
X51364661Y23490802D01*
X51375290Y23519749D01*
X51389346Y23554582D01*
X51419830Y23627156D01*
X51666375Y23627278D01*
X51694074Y23627286D01*
X51762376Y23627193D01*
X51814633Y23626821D01*
X51852863Y23626032D01*
X51879083Y23624687D01*
X51895311Y23622648D01*
X51903562Y23619777D01*
X51905856Y23615936D01*
X51904209Y23610986D01*
X51903465Y23609524D01*
X51895825Y23593352D01*
X51882117Y23563547D01*
X51863404Y23522470D01*
X51840746Y23472487D01*
X51815206Y23415959D01*
X51787846Y23355252D01*
X51759728Y23292726D01*
X51731913Y23230747D01*
X51705464Y23171678D01*
X51681442Y23117881D01*
X51660911Y23071719D01*
X51644930Y23035558D01*
X51634563Y23011759D01*
X51630871Y23002686D01*
X51632096Y23002338D01*
X51647352Y23001434D01*
X51678240Y23000627D01*
X51722468Y22999946D01*
X51777742Y22999422D01*
X51841770Y22999085D01*
X51912260Y22998966D01*
X51938519Y22998980D01*
X52006923Y22999150D01*
X52068030Y22999495D01*
X52119549Y22999989D01*
X52159187Y23000606D01*
X52184651Y23001321D01*
X52193648Y23002108D01*
X52189951Y23009576D01*
X52178284Y23031448D01*
X52159814Y23065511D01*
X52135736Y23109572D01*
X52107246Y23161437D01*
X52075538Y23218911D01*
X51957428Y23432572D01*
X51999263Y23527641D01*
X52041098Y23622711D01*
X52281516Y23625214D01*
X52339137Y23625659D01*
X52398331Y23625758D01*
X52448688Y23625454D01*
X52487727Y23624776D01*
X52512970Y23623753D01*
X52521935Y23622414D01*
X52518946Y23614668D01*
X52509055Y23591551D01*
X52493091Y23555072D01*
X52471926Y23507201D01*
X52446429Y23449908D01*
X52417474Y23385162D01*
X52385930Y23314933D01*
X52357686Y23252027D01*
X52328395Y23186448D01*
X52302473Y23128045D01*
X52280793Y23078802D01*
X52264226Y23040702D01*
X52253647Y23015727D01*
X52249926Y23005861D01*
X52249978Y23005587D01*
X52259771Y23002241D01*
X52283221Y22999868D01*
X52315583Y22998966D01*
X52381241Y22998966D01*
X52381241Y22624342D01*
X52381241Y22070384D01*
G37*
G36*
X56283161Y23416359D02*
G01*
X56283161Y23205318D01*
X55584380Y23205318D01*
X54885598Y23205318D01*
X54885598Y23116211D01*
X54885598Y23027105D01*
X55715694Y23027105D01*
X56545790Y23027105D01*
X56545790Y22497157D01*
X56545790Y21967208D01*
X56301920Y21967208D01*
X56058050Y21967208D01*
X56058050Y22276736D01*
X56058050Y22586263D01*
X55471824Y22586263D01*
X54885598Y22586263D01*
X54885598Y22032866D01*
X54885598Y21479468D01*
X54632348Y21479468D01*
X54379099Y21479468D01*
X54379099Y22032866D01*
X54379099Y22586263D01*
X53797691Y22586263D01*
X53216283Y22586263D01*
X53213810Y22279081D01*
X53211337Y21971898D01*
X52965122Y21969398D01*
X52718907Y21966897D01*
X52718907Y22497001D01*
X52718907Y23027105D01*
X53549003Y23027105D01*
X54379099Y23027105D01*
X54379099Y23116152D01*
X54379099Y23205198D01*
X53677973Y23207603D01*
X52976846Y23210008D01*
X52974322Y23418704D01*
X52971798Y23627400D01*
X54627479Y23627400D01*
X56283161Y23627400D01*
X56283161Y23416359D01*
G37*
G36*
X55926735Y21737408D02*
G01*
X55926735Y21554505D01*
X55462445Y21554505D01*
X54998154Y21554505D01*
X54998154Y21737408D01*
X54998154Y21920310D01*
X55462445Y21920310D01*
X55926735Y21920310D01*
X55926735Y21737408D01*
G37*
G36*
X54273803Y21747103D02*
G01*
X54274346Y21698177D01*
X54274437Y21648513D01*
X54274010Y21607853D01*
X54273103Y21579447D01*
X54271752Y21566545D01*
X54270925Y21565486D01*
X54263791Y21562818D01*
X54248523Y21560591D01*
X54223793Y21558772D01*
X54188274Y21557327D01*
X54140636Y21556220D01*
X54079553Y21555419D01*
X54003695Y21554889D01*
X53911735Y21554596D01*
X53802344Y21554505D01*
X53337556Y21554505D01*
X53340104Y21735063D01*
X53342651Y21915621D01*
X53806942Y21915621D01*
X54271233Y21915621D01*
X54273803Y21747103D01*
G37*
G36*
X55926735Y22243907D02*
G01*
X55926735Y22061005D01*
X55462445Y22061005D01*
X54998154Y22061005D01*
X54998154Y22243907D01*
X54998154Y22426810D01*
X55462445Y22426810D01*
X55926735Y22426810D01*
X55926735Y22243907D01*
G37*
G36*
X54273803Y22253602D02*
G01*
X54274346Y22204676D01*
X54274437Y22155012D01*
X54274010Y22114352D01*
X54273103Y22085946D01*
X54271752Y22073044D01*
X54270925Y22071985D01*
X54263791Y22069317D01*
X54248523Y22067091D01*
X54223793Y22065272D01*
X54188274Y22063826D01*
X54140636Y22062719D01*
X54079553Y22061918D01*
X54003695Y22061388D01*
X53911735Y22061095D01*
X53802344Y22061005D01*
X53337556Y22061005D01*
X53340104Y22241562D01*
X53342651Y22422120D01*
X53806942Y22422120D01*
X54271233Y22422120D01*
X54273803Y22253602D01*
G37*
G36*
X21874201Y18660333D02*
G01*
X21925663Y18654895D01*
X21963874Y18641911D01*
X21995047Y18618836D01*
X22025397Y18583127D01*
X22034158Y18567238D01*
X22046719Y18525514D01*
X22054663Y18473319D01*
X22056952Y18418785D01*
X22052551Y18370044D01*
X22050677Y18361752D01*
X22028286Y18312773D01*
X21991321Y18268665D01*
X21946780Y18238154D01*
X21933617Y18233334D01*
X21888653Y18225369D01*
X21834742Y18223740D01*
X21779860Y18227993D01*
X21731986Y18237671D01*
X21699094Y18252317D01*
X21673726Y18272606D01*
X21645654Y18302935D01*
X21628869Y18337505D01*
X21620734Y18382621D01*
X21618609Y18444588D01*
X21619434Y18486942D01*
X21625146Y18537277D01*
X21638577Y18574845D01*
X21662369Y18605953D01*
X21699163Y18636909D01*
X21700125Y18637622D01*
X21720397Y18649505D01*
X21745534Y18656638D01*
X21781698Y18660116D01*
X21835053Y18661032D01*
X21874201Y18660333D01*
G37*
G36*
X21429613Y19104921D02*
G01*
X21481075Y19099483D01*
X21519286Y19086498D01*
X21550459Y19063423D01*
X21580809Y19027715D01*
X21589571Y19011825D01*
X21602132Y18970102D01*
X21610075Y18917907D01*
X21612364Y18863373D01*
X21607963Y18814632D01*
X21606089Y18806340D01*
X21583698Y18757361D01*
X21546733Y18713253D01*
X21502192Y18682741D01*
X21489029Y18677921D01*
X21444065Y18669956D01*
X21390154Y18668328D01*
X21335273Y18672581D01*
X21287398Y18682258D01*
X21254507Y18696905D01*
X21229138Y18717194D01*
X21201066Y18747523D01*
X21184282Y18782093D01*
X21176146Y18827209D01*
X21174021Y18889175D01*
X21174023Y18892239D01*
X21175037Y18944622D01*
X21178666Y18980112D01*
X21186004Y19004872D01*
X21198143Y19025066D01*
X21218488Y19050502D01*
X21248823Y19078578D01*
X21283393Y19095362D01*
X21328504Y19103495D01*
X21390465Y19105619D01*
X21429613Y19104921D01*
G37*
G36*
X20985026Y16881982D02*
G01*
X21036488Y16876544D01*
X21074698Y16863560D01*
X21105872Y16840485D01*
X21136221Y16804776D01*
X21144983Y16788887D01*
X21157544Y16747163D01*
X21165487Y16694968D01*
X21167777Y16640434D01*
X21163376Y16591693D01*
X21161501Y16583401D01*
X21139110Y16534422D01*
X21102145Y16490314D01*
X21057604Y16459803D01*
X21044442Y16454983D01*
X20999477Y16447018D01*
X20945566Y16445389D01*
X20890685Y16449642D01*
X20842810Y16459320D01*
X20809919Y16473966D01*
X20784551Y16494255D01*
X20756478Y16524584D01*
X20739694Y16559154D01*
X20731559Y16604270D01*
X20729433Y16666237D01*
X20730258Y16708591D01*
X20735970Y16758926D01*
X20749401Y16796494D01*
X20773193Y16827602D01*
X20809987Y16858558D01*
X20810949Y16859271D01*
X20831222Y16871154D01*
X20856359Y16878287D01*
X20892523Y16881765D01*
X20945877Y16882681D01*
X20985026Y16881982D01*
G37*
G36*
X20540438Y16437395D02*
G01*
X20591900Y16431957D01*
X20630111Y16418972D01*
X20661284Y16395897D01*
X20691634Y16360188D01*
X20700395Y16344299D01*
X20712956Y16302575D01*
X20720899Y16250380D01*
X20723189Y16195846D01*
X20718788Y16147106D01*
X20716914Y16138813D01*
X20694523Y16089834D01*
X20657558Y16045726D01*
X20613017Y16015215D01*
X20599854Y16010395D01*
X20554890Y16002430D01*
X20500978Y16000802D01*
X20446097Y16005054D01*
X20398222Y16014732D01*
X20365331Y16029378D01*
X20339963Y16049668D01*
X20311890Y16079996D01*
X20295106Y16114566D01*
X20286971Y16159682D01*
X20284846Y16221649D01*
X20285670Y16264003D01*
X20291383Y16314338D01*
X20304814Y16351906D01*
X20328605Y16383015D01*
X20365399Y16413971D01*
X20366362Y16414684D01*
X20386634Y16426566D01*
X20411771Y16433699D01*
X20447935Y16437177D01*
X20501290Y16438093D01*
X20540438Y16437395D01*
G37*
G36*
X20540438Y19104921D02*
G01*
X20591900Y19099483D01*
X20630111Y19086498D01*
X20661284Y19063423D01*
X20691634Y19027715D01*
X20700395Y19011825D01*
X20712956Y18970102D01*
X20720899Y18917907D01*
X20723189Y18863373D01*
X20718788Y18814632D01*
X20716914Y18806340D01*
X20694523Y18757361D01*
X20657558Y18713253D01*
X20613017Y18682741D01*
X20599854Y18677921D01*
X20554890Y18669956D01*
X20500978Y18668328D01*
X20446097Y18672581D01*
X20398222Y18682258D01*
X20365331Y18696905D01*
X20339963Y18717194D01*
X20311890Y18747523D01*
X20295106Y18782093D01*
X20286971Y18827209D01*
X20284846Y18889175D01*
X20284847Y18892239D01*
X20285862Y18944622D01*
X20289491Y18980112D01*
X20296828Y19004872D01*
X20308968Y19025066D01*
X20329312Y19050502D01*
X20359647Y19078578D01*
X20394217Y19095362D01*
X20439329Y19103495D01*
X20501290Y19105619D01*
X20540438Y19104921D01*
G37*
G36*
X19206675Y16437395D02*
G01*
X19258137Y16431957D01*
X19296347Y16418972D01*
X19327521Y16395897D01*
X19357870Y16360188D01*
X19366632Y16344299D01*
X19379193Y16302575D01*
X19387136Y16250380D01*
X19389426Y16195846D01*
X19385025Y16147106D01*
X19383150Y16138813D01*
X19360759Y16089834D01*
X19323794Y16045726D01*
X19279253Y16015215D01*
X19266091Y16010395D01*
X19221126Y16002430D01*
X19167215Y16000802D01*
X19112334Y16005054D01*
X19064459Y16014732D01*
X19031568Y16029378D01*
X19006200Y16049668D01*
X18978127Y16079996D01*
X18961343Y16114566D01*
X18953208Y16159682D01*
X18951082Y16221649D01*
X18951907Y16264003D01*
X18957619Y16314338D01*
X18971050Y16351906D01*
X18994842Y16383015D01*
X19031636Y16413971D01*
X19032598Y16414684D01*
X19052871Y16426566D01*
X19078008Y16433699D01*
X19114172Y16437177D01*
X19167526Y16438093D01*
X19206675Y16437395D01*
G37*
G36*
X19206675Y19994097D02*
G01*
X19258137Y19988659D01*
X19296347Y19975674D01*
X19327521Y19952599D01*
X19357870Y19916890D01*
X19366632Y19901001D01*
X19379193Y19859277D01*
X19387136Y19807082D01*
X19389426Y19752548D01*
X19385025Y19703808D01*
X19383150Y19695515D01*
X19360759Y19646536D01*
X19323794Y19602428D01*
X19279253Y19571917D01*
X19266091Y19567097D01*
X19221126Y19559132D01*
X19167215Y19557504D01*
X19112334Y19561756D01*
X19064459Y19571434D01*
X19031568Y19586080D01*
X19006200Y19606370D01*
X18978127Y19636698D01*
X18961343Y19671268D01*
X18953208Y19716384D01*
X18951082Y19778351D01*
X18951084Y19781415D01*
X18952099Y19833798D01*
X18955728Y19869288D01*
X18963065Y19894048D01*
X18975205Y19914241D01*
X18995549Y19939678D01*
X19025884Y19967754D01*
X19060454Y19984538D01*
X19105566Y19992671D01*
X19167526Y19994795D01*
X19206675Y19994097D01*
G37*
G36*
X17872911Y19104921D02*
G01*
X17924373Y19099483D01*
X17962584Y19086498D01*
X17993757Y19063423D01*
X18024107Y19027715D01*
X18032869Y19011825D01*
X18045430Y18970102D01*
X18053373Y18917907D01*
X18055662Y18863373D01*
X18051261Y18814632D01*
X18049387Y18806340D01*
X18026996Y18757361D01*
X17990031Y18713253D01*
X17945490Y18682741D01*
X17932327Y18677921D01*
X17887363Y18669956D01*
X17833452Y18668328D01*
X17778571Y18672581D01*
X17730696Y18682258D01*
X17697805Y18696905D01*
X17672436Y18717194D01*
X17644364Y18747523D01*
X17627580Y18782093D01*
X17619444Y18827209D01*
X17617319Y18889175D01*
X17617321Y18892239D01*
X17618335Y18944622D01*
X17621964Y18980112D01*
X17629302Y19004872D01*
X17641441Y19025066D01*
X17661786Y19050502D01*
X17692121Y19078578D01*
X17726691Y19095362D01*
X17771802Y19103495D01*
X17833763Y19105619D01*
X17872911Y19104921D01*
G37*
G36*
X17872911Y21327860D02*
G01*
X17924373Y21322422D01*
X17962584Y21309437D01*
X17993757Y21286362D01*
X18024107Y21250654D01*
X18032869Y21234764D01*
X18045430Y21193041D01*
X18053373Y21140845D01*
X18055662Y21086311D01*
X18051261Y21037571D01*
X18049387Y21029278D01*
X18026996Y20980299D01*
X17990031Y20936191D01*
X17945490Y20905680D01*
X17932327Y20900860D01*
X17887363Y20892895D01*
X17833452Y20891267D01*
X17778571Y20895520D01*
X17730696Y20905197D01*
X17697805Y20919843D01*
X17672436Y20940133D01*
X17644364Y20970461D01*
X17627580Y21005031D01*
X17619444Y21050147D01*
X17617319Y21112114D01*
X17617321Y21115178D01*
X17618335Y21167561D01*
X17621964Y21203051D01*
X17629302Y21227811D01*
X17641441Y21248005D01*
X17661786Y21273441D01*
X17692121Y21301517D01*
X17726691Y21318301D01*
X17771802Y21326434D01*
X17833763Y21328558D01*
X17872911Y21327860D01*
G37*
G36*
X17872911Y22661623D02*
G01*
X17924373Y22656185D01*
X17962584Y22643200D01*
X17993757Y22620125D01*
X18024107Y22584417D01*
X18032869Y22568527D01*
X18045430Y22526804D01*
X18053373Y22474609D01*
X18055662Y22420075D01*
X18051261Y22371334D01*
X18049387Y22363042D01*
X18026996Y22314063D01*
X17990031Y22269955D01*
X17945490Y22239443D01*
X17932327Y22234623D01*
X17887363Y22226658D01*
X17833452Y22225030D01*
X17778571Y22229283D01*
X17730696Y22238960D01*
X17697805Y22253606D01*
X17672436Y22273896D01*
X17644364Y22304225D01*
X17627580Y22338795D01*
X17619444Y22383911D01*
X17617319Y22445877D01*
X17617321Y22448941D01*
X17618335Y22501324D01*
X17621964Y22536814D01*
X17629302Y22561574D01*
X17641441Y22581768D01*
X17661786Y22607204D01*
X17692121Y22635280D01*
X17726691Y22652064D01*
X17771802Y22660197D01*
X17833763Y22662321D01*
X17872911Y22661623D01*
G37*
G36*
X17428324Y20883272D02*
G01*
X17479786Y20877834D01*
X17517996Y20864849D01*
X17549170Y20841774D01*
X17579519Y20806066D01*
X17588281Y20790176D01*
X17600842Y20748453D01*
X17608785Y20696258D01*
X17611075Y20641724D01*
X17606674Y20592983D01*
X17604799Y20584691D01*
X17582408Y20535712D01*
X17545443Y20491604D01*
X17500902Y20461092D01*
X17487740Y20456272D01*
X17442775Y20448307D01*
X17388864Y20446679D01*
X17333983Y20450932D01*
X17286108Y20460609D01*
X17253217Y20475255D01*
X17227849Y20495545D01*
X17199776Y20525874D01*
X17182992Y20560444D01*
X17174857Y20605560D01*
X17172731Y20667526D01*
X17173556Y20709881D01*
X17179268Y20760215D01*
X17192699Y20797784D01*
X17216491Y20828892D01*
X17253285Y20859848D01*
X17254247Y20860561D01*
X17274520Y20872444D01*
X17299657Y20879577D01*
X17335821Y20883054D01*
X17389175Y20883970D01*
X17428324Y20883272D01*
G37*
G36*
X17428324Y19549509D02*
G01*
X17479786Y19544071D01*
X17517996Y19531086D01*
X17549170Y19508011D01*
X17579519Y19472303D01*
X17588281Y19456413D01*
X17600842Y19414690D01*
X17608785Y19362495D01*
X17611075Y19307960D01*
X17606674Y19259220D01*
X17604799Y19250927D01*
X17582408Y19201949D01*
X17545443Y19157840D01*
X17500902Y19127329D01*
X17487740Y19122509D01*
X17442775Y19114544D01*
X17388864Y19112916D01*
X17333983Y19117169D01*
X17286108Y19126846D01*
X17253217Y19141492D01*
X17227849Y19161782D01*
X17199776Y19192110D01*
X17182992Y19226680D01*
X17174857Y19271796D01*
X17172731Y19333763D01*
X17172733Y19336827D01*
X17173748Y19389210D01*
X17177377Y19424700D01*
X17184714Y19449460D01*
X17196854Y19469654D01*
X17217198Y19495090D01*
X17247533Y19523166D01*
X17282103Y19539950D01*
X17327215Y19548083D01*
X17389175Y19550207D01*
X17428324Y19549509D01*
G37*
G36*
X16539148Y15548219D02*
G01*
X16590610Y15542781D01*
X16628821Y15529796D01*
X16659994Y15506721D01*
X16690344Y15471013D01*
X16699105Y15455123D01*
X16711666Y15413400D01*
X16719610Y15361205D01*
X16721899Y15306671D01*
X16717498Y15257930D01*
X16715624Y15249638D01*
X16693233Y15200659D01*
X16656268Y15156551D01*
X16611727Y15126039D01*
X16598564Y15121220D01*
X16553600Y15113254D01*
X16499689Y15111626D01*
X16444807Y15115879D01*
X16396933Y15125556D01*
X16364041Y15140203D01*
X16338673Y15160492D01*
X16310601Y15190821D01*
X16293816Y15225391D01*
X16285681Y15270507D01*
X16283556Y15332473D01*
X16283558Y15335537D01*
X16284572Y15387920D01*
X16288201Y15423410D01*
X16295539Y15448170D01*
X16307678Y15468364D01*
X16328023Y15493800D01*
X16358357Y15521876D01*
X16392927Y15538660D01*
X16438039Y15546793D01*
X16500000Y15548917D01*
X16539148Y15548219D01*
G37*
G36*
X16539148Y17771158D02*
G01*
X16590610Y17765720D01*
X16628821Y17752735D01*
X16659994Y17729660D01*
X16690344Y17693952D01*
X16699105Y17678062D01*
X16711666Y17636339D01*
X16719610Y17584144D01*
X16721899Y17529609D01*
X16717498Y17480869D01*
X16715624Y17472576D01*
X16693233Y17423598D01*
X16656268Y17379489D01*
X16611727Y17348978D01*
X16598564Y17344158D01*
X16553600Y17336193D01*
X16499689Y17334565D01*
X16444807Y17338818D01*
X16396933Y17348495D01*
X16364041Y17363141D01*
X16338673Y17383431D01*
X16310601Y17413759D01*
X16293816Y17448329D01*
X16285681Y17493445D01*
X16283556Y17555412D01*
X16283558Y17558476D01*
X16284572Y17610859D01*
X16288201Y17646349D01*
X16295539Y17671109D01*
X16307678Y17691303D01*
X16328023Y17716739D01*
X16358357Y17744815D01*
X16392927Y17761599D01*
X16438039Y17769732D01*
X16500000Y17771856D01*
X16539148Y17771158D01*
G37*
G36*
X16094561Y15103631D02*
G01*
X16146022Y15098193D01*
X16184233Y15085209D01*
X16215406Y15062134D01*
X16245756Y15026425D01*
X16254518Y15010536D01*
X16267079Y14968812D01*
X16275022Y14916617D01*
X16277311Y14862083D01*
X16272910Y14813342D01*
X16271036Y14805050D01*
X16248645Y14756071D01*
X16211680Y14711963D01*
X16167139Y14681452D01*
X16153976Y14676632D01*
X16109012Y14668667D01*
X16055101Y14667038D01*
X16000220Y14671291D01*
X15952345Y14680969D01*
X15919454Y14695615D01*
X15894085Y14715904D01*
X15866013Y14746233D01*
X15849229Y14780803D01*
X15841093Y14825919D01*
X15838968Y14887886D01*
X15838970Y14890950D01*
X15839985Y14943332D01*
X15843613Y14978822D01*
X15850951Y15003583D01*
X15863090Y15023776D01*
X15883435Y15049212D01*
X15913770Y15077289D01*
X15948340Y15094073D01*
X15993451Y15102206D01*
X16055412Y15104330D01*
X16094561Y15103631D01*
G37*
G36*
X15649973Y15548219D02*
G01*
X15701435Y15542781D01*
X15739645Y15529796D01*
X15770819Y15506721D01*
X15801168Y15471013D01*
X15809930Y15455123D01*
X15822491Y15413400D01*
X15830434Y15361205D01*
X15832724Y15306671D01*
X15828323Y15257930D01*
X15826448Y15249638D01*
X15804057Y15200659D01*
X15767092Y15156551D01*
X15722551Y15126039D01*
X15709389Y15121220D01*
X15664424Y15113254D01*
X15610513Y15111626D01*
X15555632Y15115879D01*
X15507757Y15125556D01*
X15474866Y15140203D01*
X15449498Y15160492D01*
X15421425Y15190821D01*
X15404641Y15225391D01*
X15396506Y15270507D01*
X15394380Y15332473D01*
X15394382Y15335537D01*
X15395397Y15387920D01*
X15399026Y15423410D01*
X15406363Y15448170D01*
X15418503Y15468364D01*
X15438847Y15493800D01*
X15469182Y15521876D01*
X15503752Y15538660D01*
X15548864Y15546793D01*
X15610824Y15548917D01*
X15649973Y15548219D01*
G37*
G36*
X15649973Y23550799D02*
G01*
X15701435Y23545361D01*
X15739645Y23532376D01*
X15770819Y23509301D01*
X15801168Y23473592D01*
X15809930Y23457703D01*
X15822491Y23415979D01*
X15830434Y23363784D01*
X15832724Y23309250D01*
X15828323Y23260510D01*
X15826448Y23252217D01*
X15804057Y23203238D01*
X15767092Y23159130D01*
X15722551Y23128619D01*
X15709389Y23123799D01*
X15664424Y23115834D01*
X15610513Y23114206D01*
X15555632Y23118458D01*
X15507757Y23128136D01*
X15474866Y23142782D01*
X15449498Y23163071D01*
X15421425Y23193400D01*
X15404641Y23227970D01*
X15396506Y23273086D01*
X15394380Y23335053D01*
X15394382Y23338117D01*
X15395397Y23390500D01*
X15399026Y23425990D01*
X15406363Y23450750D01*
X15418503Y23470943D01*
X15438847Y23496380D01*
X15469182Y23524456D01*
X15503752Y23541240D01*
X15548864Y23549373D01*
X15610824Y23551497D01*
X15649973Y23550799D01*
G37*
G36*
X15205385Y13325280D02*
G01*
X15256847Y13319843D01*
X15295058Y13306858D01*
X15326231Y13283783D01*
X15356581Y13248074D01*
X15365342Y13232185D01*
X15377903Y13190461D01*
X15385847Y13138266D01*
X15388136Y13083732D01*
X15383735Y13034991D01*
X15381861Y13026699D01*
X15359470Y12977720D01*
X15322505Y12933612D01*
X15277964Y12903101D01*
X15264801Y12898281D01*
X15219837Y12890316D01*
X15165925Y12888687D01*
X15111044Y12892940D01*
X15063169Y12902618D01*
X15030278Y12917264D01*
X15004910Y12937553D01*
X14976837Y12967882D01*
X14960053Y13002452D01*
X14951918Y13047568D01*
X14949793Y13109535D01*
X14949794Y13112599D01*
X14950809Y13164981D01*
X14954438Y13200471D01*
X14961775Y13225232D01*
X14973915Y13245425D01*
X14994259Y13270861D01*
X15024594Y13298938D01*
X15059164Y13315722D01*
X15104276Y13323855D01*
X15166237Y13325979D01*
X15205385Y13325280D01*
G37*
G36*
X14760797Y12880693D02*
G01*
X14812259Y12875255D01*
X14850470Y12862270D01*
X14881643Y12839195D01*
X14911993Y12803486D01*
X14920754Y12787597D01*
X14933315Y12745873D01*
X14941259Y12693678D01*
X14943548Y12639144D01*
X14939147Y12590404D01*
X14937273Y12582111D01*
X14914882Y12533132D01*
X14877917Y12489024D01*
X14833376Y12458513D01*
X14820213Y12453693D01*
X14775249Y12445728D01*
X14721338Y12444100D01*
X14666456Y12448352D01*
X14618582Y12458030D01*
X14585690Y12472676D01*
X14560322Y12492966D01*
X14532250Y12523294D01*
X14515465Y12557864D01*
X14507330Y12602980D01*
X14505205Y12664947D01*
X14505207Y12668011D01*
X14506221Y12720394D01*
X14509850Y12755884D01*
X14517188Y12780644D01*
X14529327Y12800837D01*
X14549672Y12826274D01*
X14580006Y12854350D01*
X14614576Y12871134D01*
X14659688Y12879267D01*
X14721649Y12881391D01*
X14760797Y12880693D01*
G37*
G36*
X14760797Y18215746D02*
G01*
X14812259Y18210308D01*
X14850470Y18197323D01*
X14881643Y18174248D01*
X14911993Y18138539D01*
X14920754Y18122650D01*
X14933315Y18080926D01*
X14941259Y18028731D01*
X14943548Y17974197D01*
X14939147Y17925457D01*
X14937273Y17917164D01*
X14914882Y17868185D01*
X14877917Y17824077D01*
X14833376Y17793566D01*
X14820213Y17788746D01*
X14775249Y17780781D01*
X14721338Y17779153D01*
X14666456Y17783405D01*
X14618582Y17793083D01*
X14585690Y17807729D01*
X14560322Y17828019D01*
X14532250Y17858347D01*
X14515465Y17892917D01*
X14507330Y17938033D01*
X14505205Y18000000D01*
X14505207Y18003064D01*
X14506221Y18055447D01*
X14509850Y18090937D01*
X14517188Y18115697D01*
X14529327Y18135890D01*
X14549672Y18161327D01*
X14580006Y18189403D01*
X14614576Y18206187D01*
X14659688Y18214320D01*
X14721649Y18216444D01*
X14760797Y18215746D01*
G37*
G36*
X14316210Y19104921D02*
G01*
X14367671Y19099483D01*
X14405882Y19086498D01*
X14437055Y19063423D01*
X14467405Y19027715D01*
X14476167Y19011825D01*
X14488728Y18970102D01*
X14496671Y18917907D01*
X14498960Y18863373D01*
X14494559Y18814632D01*
X14492685Y18806340D01*
X14470294Y18757361D01*
X14433329Y18713253D01*
X14388788Y18682741D01*
X14375625Y18677921D01*
X14330661Y18669956D01*
X14276750Y18668328D01*
X14221869Y18672581D01*
X14173994Y18682258D01*
X14141103Y18696905D01*
X14115734Y18717194D01*
X14087662Y18747523D01*
X14070878Y18782093D01*
X14062742Y18827209D01*
X14060617Y18889175D01*
X14060619Y18892239D01*
X14061634Y18944622D01*
X14065262Y18980112D01*
X14072600Y19004872D01*
X14084739Y19025066D01*
X14105084Y19050502D01*
X14135419Y19078578D01*
X14169989Y19095362D01*
X14215100Y19103495D01*
X14277061Y19105619D01*
X14316210Y19104921D01*
G37*
G36*
X13871622Y15548219D02*
G01*
X13923084Y15542781D01*
X13961294Y15529796D01*
X13992468Y15506721D01*
X14022817Y15471013D01*
X14031579Y15455123D01*
X14044140Y15413400D01*
X14052083Y15361205D01*
X14054373Y15306671D01*
X14049972Y15257930D01*
X14048097Y15249638D01*
X14025706Y15200659D01*
X13988741Y15156551D01*
X13944200Y15126039D01*
X13931038Y15121220D01*
X13886073Y15113254D01*
X13832162Y15111626D01*
X13777281Y15115879D01*
X13729406Y15125556D01*
X13696515Y15140203D01*
X13671147Y15160492D01*
X13643074Y15190821D01*
X13626290Y15225391D01*
X13618155Y15270507D01*
X13616029Y15332473D01*
X13616031Y15335537D01*
X13617046Y15387920D01*
X13620675Y15423410D01*
X13628012Y15448170D01*
X13640152Y15468364D01*
X13660496Y15493800D01*
X13690831Y15521876D01*
X13725401Y15538660D01*
X13770513Y15546793D01*
X13832473Y15548917D01*
X13871622Y15548219D01*
G37*
G36*
X13871622Y19994097D02*
G01*
X13923084Y19988659D01*
X13961294Y19975674D01*
X13992468Y19952599D01*
X14022817Y19916890D01*
X14031579Y19901001D01*
X14044140Y19859277D01*
X14052083Y19807082D01*
X14054373Y19752548D01*
X14049972Y19703808D01*
X14048097Y19695515D01*
X14025706Y19646536D01*
X13988741Y19602428D01*
X13944200Y19571917D01*
X13931038Y19567097D01*
X13886073Y19559132D01*
X13832162Y19557504D01*
X13777281Y19561756D01*
X13729406Y19571434D01*
X13696515Y19586080D01*
X13671147Y19606370D01*
X13643074Y19636698D01*
X13626290Y19671268D01*
X13618155Y19716384D01*
X13616029Y19778351D01*
X13616031Y19781415D01*
X13617046Y19833798D01*
X13620675Y19869288D01*
X13628012Y19894048D01*
X13640152Y19914241D01*
X13660496Y19939678D01*
X13690831Y19967754D01*
X13725401Y19984538D01*
X13770513Y19992671D01*
X13832473Y19994795D01*
X13871622Y19994097D01*
G37*
G36*
X12537859Y12880693D02*
G01*
X12589320Y12875255D01*
X12627531Y12862270D01*
X12658704Y12839195D01*
X12689054Y12803486D01*
X12697816Y12787597D01*
X12710377Y12745873D01*
X12718320Y12693678D01*
X12720609Y12639144D01*
X12716208Y12590404D01*
X12714334Y12582111D01*
X12691943Y12533132D01*
X12654978Y12489024D01*
X12610437Y12458513D01*
X12597274Y12453693D01*
X12552310Y12445728D01*
X12498399Y12444100D01*
X12443518Y12448352D01*
X12395643Y12458030D01*
X12362752Y12472676D01*
X12337383Y12492966D01*
X12309311Y12523294D01*
X12292527Y12557864D01*
X12284391Y12602980D01*
X12282266Y12664947D01*
X12282268Y12668011D01*
X12283283Y12720394D01*
X12286911Y12755884D01*
X12294249Y12780644D01*
X12306388Y12800837D01*
X12326733Y12826274D01*
X12357068Y12854350D01*
X12391638Y12871134D01*
X12436749Y12879267D01*
X12498710Y12881391D01*
X12537859Y12880693D01*
G37*
G36*
X11204095Y19994097D02*
G01*
X11255557Y19988659D01*
X11293768Y19975674D01*
X11324941Y19952599D01*
X11355291Y19916890D01*
X11364052Y19901001D01*
X11376613Y19859277D01*
X11384557Y19807082D01*
X11386846Y19752548D01*
X11382445Y19703808D01*
X11380571Y19695515D01*
X11358180Y19646536D01*
X11321215Y19602428D01*
X11276674Y19571917D01*
X11263511Y19567097D01*
X11218547Y19559132D01*
X11164636Y19557504D01*
X11109754Y19561756D01*
X11061880Y19571434D01*
X11028988Y19586080D01*
X11003620Y19606370D01*
X10975548Y19636698D01*
X10958763Y19671268D01*
X10950628Y19716384D01*
X10948503Y19778351D01*
X10949328Y19820705D01*
X10955040Y19871040D01*
X10968471Y19908608D01*
X10992263Y19939717D01*
X11029057Y19970673D01*
X11030019Y19971386D01*
X11050291Y19983268D01*
X11075428Y19990401D01*
X11111592Y19993879D01*
X11164947Y19994795D01*
X11204095Y19994097D01*
G37*
G36*
X21681279Y19994764D02*
G01*
X21762922Y19994517D01*
X21825935Y19993860D01*
X21873142Y19992604D01*
X21907368Y19990558D01*
X21931437Y19987532D01*
X21948173Y19983336D01*
X21960400Y19977780D01*
X21970943Y19970673D01*
X21980026Y19963674D01*
X22019584Y19923792D01*
X22042857Y19877254D01*
X22053964Y19816401D01*
X22055851Y19785251D01*
X22055817Y19739097D01*
X22052551Y19703808D01*
X22050631Y19695340D01*
X22028165Y19646335D01*
X21991196Y19602373D01*
X21946780Y19572232D01*
X21939869Y19569694D01*
X21918703Y19565262D01*
X21886596Y19562026D01*
X21841058Y19559891D01*
X21779600Y19558763D01*
X21699732Y19558550D01*
X21598966Y19559158D01*
X21558325Y19559527D01*
X21472982Y19560472D01*
X21406969Y19561640D01*
X21357389Y19563260D01*
X21321343Y19565556D01*
X21295933Y19568755D01*
X21278263Y19573083D01*
X21265434Y19578765D01*
X21254548Y19586029D01*
X21229117Y19606385D01*
X21201050Y19636726D01*
X21184272Y19671294D01*
X21176144Y19716399D01*
X21174021Y19778351D01*
X21174846Y19820705D01*
X21180558Y19871040D01*
X21193989Y19908608D01*
X21217781Y19939717D01*
X21254575Y19970673D01*
X21261786Y19975742D01*
X21273186Y19981761D01*
X21288215Y19986360D01*
X21309698Y19989730D01*
X21340457Y19992060D01*
X21383319Y19993542D01*
X21441107Y19994365D01*
X21516646Y19994719D01*
X21612759Y19994795D01*
X21681279Y19994764D01*
G37*
G36*
X19902928Y16882649D02*
G01*
X19984571Y16882402D01*
X20047584Y16881746D01*
X20094791Y16880490D01*
X20129017Y16878444D01*
X20153086Y16875418D01*
X20169822Y16871222D01*
X20182049Y16865666D01*
X20192592Y16858558D01*
X20201675Y16851559D01*
X20241233Y16811678D01*
X20264506Y16765140D01*
X20275613Y16704287D01*
X20277500Y16673137D01*
X20277466Y16626983D01*
X20274200Y16591693D01*
X20272280Y16583226D01*
X20249814Y16534221D01*
X20212845Y16490259D01*
X20168429Y16460118D01*
X20161518Y16457580D01*
X20140352Y16453148D01*
X20108245Y16449912D01*
X20062707Y16447776D01*
X20001249Y16446649D01*
X19921381Y16446436D01*
X19820615Y16447044D01*
X19779974Y16447413D01*
X19694631Y16448357D01*
X19628618Y16449526D01*
X19579038Y16451146D01*
X19542992Y16453442D01*
X19517582Y16456641D01*
X19499912Y16460968D01*
X19487083Y16466651D01*
X19476197Y16473915D01*
X19450766Y16494270D01*
X19422699Y16524612D01*
X19405921Y16559180D01*
X19397793Y16604285D01*
X19395670Y16666237D01*
X19396495Y16708591D01*
X19402207Y16758926D01*
X19415638Y16796494D01*
X19439430Y16827602D01*
X19476224Y16858558D01*
X19483435Y16863627D01*
X19494835Y16869646D01*
X19509864Y16874246D01*
X19531347Y16877616D01*
X19562106Y16879946D01*
X19604968Y16881428D01*
X19662756Y16882251D01*
X19738295Y16882605D01*
X19834408Y16882681D01*
X19902928Y16882649D01*
G37*
G36*
X18569164Y18661000D02*
G01*
X18650808Y18660753D01*
X18713821Y18660097D01*
X18761028Y18658841D01*
X18795254Y18656795D01*
X18819323Y18653769D01*
X18836058Y18649573D01*
X18848286Y18644017D01*
X18858829Y18636909D01*
X18867912Y18629910D01*
X18907470Y18590029D01*
X18930742Y18543491D01*
X18941849Y18482638D01*
X18943737Y18451488D01*
X18943703Y18405334D01*
X18940437Y18370044D01*
X18938517Y18361577D01*
X18916051Y18312572D01*
X18879082Y18268610D01*
X18834666Y18238469D01*
X18827755Y18235931D01*
X18806589Y18231499D01*
X18774481Y18228263D01*
X18728943Y18226127D01*
X18667485Y18225000D01*
X18587618Y18224787D01*
X18486852Y18225395D01*
X18446211Y18225764D01*
X18360868Y18226708D01*
X18294855Y18227877D01*
X18245274Y18229497D01*
X18209228Y18231793D01*
X18183819Y18234992D01*
X18166149Y18239319D01*
X18153320Y18245002D01*
X18142434Y18252266D01*
X18117003Y18272621D01*
X18088935Y18302963D01*
X18072158Y18337531D01*
X18064029Y18382636D01*
X18061907Y18444588D01*
X18062732Y18486942D01*
X18068444Y18537277D01*
X18081875Y18574845D01*
X18105667Y18605953D01*
X18142461Y18636909D01*
X18149672Y18641978D01*
X18161072Y18647997D01*
X18176101Y18652597D01*
X18197583Y18655967D01*
X18228343Y18658297D01*
X18271205Y18659779D01*
X18328993Y18660602D01*
X18404531Y18660956D01*
X18500645Y18661032D01*
X18569164Y18661000D01*
G37*
G36*
X18569164Y19550176D02*
G01*
X18650808Y19549929D01*
X18713821Y19549272D01*
X18761028Y19548016D01*
X18795254Y19545970D01*
X18819323Y19542945D01*
X18836058Y19538748D01*
X18848286Y19533192D01*
X18858829Y19526085D01*
X18867912Y19519086D01*
X18907470Y19479204D01*
X18930742Y19432666D01*
X18941849Y19371814D01*
X18943737Y19340664D01*
X18943703Y19294509D01*
X18940437Y19259220D01*
X18938517Y19250753D01*
X18916051Y19201748D01*
X18879082Y19157786D01*
X18834666Y19127644D01*
X18827755Y19125106D01*
X18806589Y19120675D01*
X18774481Y19117438D01*
X18728943Y19115303D01*
X18667485Y19114176D01*
X18587618Y19113963D01*
X18486852Y19114570D01*
X18446211Y19114940D01*
X18360868Y19115884D01*
X18294855Y19117053D01*
X18245274Y19118672D01*
X18209228Y19120968D01*
X18183819Y19124167D01*
X18166149Y19128495D01*
X18153320Y19134178D01*
X18142434Y19141441D01*
X18117003Y19161797D01*
X18088935Y19192138D01*
X18072158Y19226707D01*
X18064029Y19271812D01*
X18061907Y19333763D01*
X18062732Y19376117D01*
X18068444Y19426452D01*
X18081875Y19464020D01*
X18105667Y19495129D01*
X18142461Y19526085D01*
X18149672Y19531154D01*
X18161072Y19537173D01*
X18176101Y19541772D01*
X18197583Y19545142D01*
X18228343Y19547473D01*
X18271205Y19548954D01*
X18328993Y19549777D01*
X18404531Y19550131D01*
X18500645Y19550207D01*
X18569164Y19550176D01*
G37*
G36*
X18320701Y14658918D02*
G01*
X18371026Y14653209D01*
X18408590Y14639784D01*
X18439702Y14616001D01*
X18470673Y14579218D01*
X18471469Y14578144D01*
X18478765Y14566808D01*
X18484431Y14553079D01*
X18488721Y14533957D01*
X18491892Y14506440D01*
X18494198Y14467527D01*
X18495895Y14414219D01*
X18497239Y14343513D01*
X18498484Y14252409D01*
X18499098Y14190160D01*
X18499383Y14111427D01*
X18499087Y14041382D01*
X18498249Y13983701D01*
X18496905Y13942062D01*
X18495094Y13920141D01*
X18491871Y13907518D01*
X18468755Y13862228D01*
X18432466Y13820942D01*
X18390078Y13792276D01*
X18376120Y13787381D01*
X18328768Y13780119D01*
X18264516Y13779253D01*
X18260789Y13779390D01*
X18200599Y13785019D01*
X18156043Y13798630D01*
X18120170Y13823479D01*
X18086029Y13862820D01*
X18080960Y13870031D01*
X18074941Y13881431D01*
X18070342Y13896460D01*
X18066972Y13917943D01*
X18064641Y13948702D01*
X18063160Y13991564D01*
X18062337Y14049352D01*
X18061983Y14124891D01*
X18061907Y14221004D01*
X18061938Y14289524D01*
X18062185Y14371167D01*
X18062842Y14434180D01*
X18064098Y14481387D01*
X18066144Y14515613D01*
X18069170Y14539682D01*
X18073366Y14556418D01*
X18078922Y14568645D01*
X18086029Y14579188D01*
X18106374Y14604625D01*
X18136708Y14632701D01*
X18171278Y14649485D01*
X18216390Y14657618D01*
X18278351Y14659742D01*
X18320701Y14658918D01*
G37*
G36*
X14763999Y22216909D02*
G01*
X14814324Y22211201D01*
X14851888Y22197776D01*
X14883000Y22173993D01*
X14913971Y22137210D01*
X14914767Y22136135D01*
X14922063Y22124800D01*
X14927729Y22111071D01*
X14932019Y22091948D01*
X14935190Y22064431D01*
X14937496Y22025519D01*
X14939193Y21972210D01*
X14940537Y21901505D01*
X14941782Y21810401D01*
X14942396Y21748152D01*
X14942681Y21669419D01*
X14942385Y21599374D01*
X14941547Y21541693D01*
X14940203Y21500053D01*
X14938392Y21478133D01*
X14935169Y21465510D01*
X14912053Y21420219D01*
X14875764Y21378934D01*
X14833376Y21350268D01*
X14819418Y21345373D01*
X14772066Y21338111D01*
X14707814Y21337245D01*
X14704087Y21337382D01*
X14643897Y21343010D01*
X14599341Y21356622D01*
X14563468Y21381471D01*
X14529327Y21420812D01*
X14524258Y21428023D01*
X14518239Y21439423D01*
X14513640Y21454452D01*
X14510270Y21475934D01*
X14507939Y21506694D01*
X14506458Y21549556D01*
X14505635Y21607344D01*
X14505281Y21682882D01*
X14505205Y21778996D01*
X14505236Y21847515D01*
X14505483Y21929159D01*
X14506140Y21992172D01*
X14507396Y22039379D01*
X14509442Y22073605D01*
X14512468Y22097674D01*
X14516664Y22114409D01*
X14522220Y22126637D01*
X14529327Y22137180D01*
X14549672Y22162616D01*
X14580006Y22190693D01*
X14614576Y22207477D01*
X14659688Y22215610D01*
X14721649Y22217734D01*
X14763999Y22216909D01*
G37*
G36*
X14763999Y23550673D02*
G01*
X14814324Y23544964D01*
X14851888Y23531539D01*
X14883000Y23507756D01*
X14913971Y23470973D01*
X14914767Y23469899D01*
X14922063Y23458563D01*
X14927729Y23444834D01*
X14932019Y23425712D01*
X14935190Y23398195D01*
X14937496Y23359282D01*
X14939193Y23305974D01*
X14940537Y23235268D01*
X14941782Y23144164D01*
X14942396Y23081915D01*
X14942681Y23003182D01*
X14942385Y22933137D01*
X14941547Y22875456D01*
X14940203Y22833817D01*
X14938392Y22811896D01*
X14935169Y22799273D01*
X14912053Y22753982D01*
X14875764Y22712697D01*
X14833376Y22684031D01*
X14819418Y22679136D01*
X14772066Y22671874D01*
X14707814Y22671008D01*
X14704087Y22671145D01*
X14643897Y22676774D01*
X14599341Y22690385D01*
X14563468Y22715234D01*
X14529327Y22754575D01*
X14524258Y22761786D01*
X14518239Y22773186D01*
X14513640Y22788215D01*
X14510270Y22809698D01*
X14507939Y22840457D01*
X14506458Y22883319D01*
X14505635Y22941107D01*
X14505281Y23016646D01*
X14505205Y23112759D01*
X14505236Y23181279D01*
X14505483Y23262922D01*
X14506140Y23325935D01*
X14507396Y23373142D01*
X14509442Y23407368D01*
X14512468Y23431437D01*
X14516664Y23448173D01*
X14522220Y23460400D01*
X14529327Y23470943D01*
X14549672Y23496380D01*
X14580006Y23524456D01*
X14614576Y23541240D01*
X14659688Y23549373D01*
X14721649Y23551497D01*
X14763999Y23550673D01*
G37*
G36*
X11207297Y15548093D02*
G01*
X11257622Y15542385D01*
X11295186Y15528960D01*
X11326298Y15505177D01*
X11357269Y15468394D01*
X11358066Y15467319D01*
X11365361Y15455983D01*
X11371027Y15442255D01*
X11375317Y15423132D01*
X11378488Y15395615D01*
X11380794Y15356703D01*
X11382491Y15303394D01*
X11383835Y15232688D01*
X11385080Y15141585D01*
X11385694Y15079336D01*
X11385979Y15000603D01*
X11385683Y14930557D01*
X11384845Y14872876D01*
X11383501Y14831237D01*
X11381690Y14809317D01*
X11378467Y14796693D01*
X11355352Y14751403D01*
X11319062Y14710118D01*
X11276674Y14681452D01*
X11262716Y14676557D01*
X11215364Y14669295D01*
X11151112Y14668429D01*
X11147385Y14668565D01*
X11087195Y14674194D01*
X11042639Y14687806D01*
X11006766Y14712655D01*
X10972625Y14751995D01*
X10967556Y14759207D01*
X10961537Y14770607D01*
X10956938Y14785636D01*
X10953568Y14807118D01*
X10951237Y14837878D01*
X10949756Y14880740D01*
X10948933Y14938528D01*
X10948579Y15014066D01*
X10948503Y15110180D01*
X10948534Y15178699D01*
X10948781Y15260342D01*
X10949438Y15323355D01*
X10950694Y15370563D01*
X10952740Y15404789D01*
X10955766Y15428857D01*
X10959962Y15445593D01*
X10965518Y15457821D01*
X10972625Y15468364D01*
X10992970Y15493800D01*
X11023304Y15521876D01*
X11057874Y15538660D01*
X11102986Y15546793D01*
X11164947Y15548917D01*
X11207297Y15548093D01*
G37*
G36*
X15685975Y22662315D02*
G01*
X15801114Y22662235D01*
X15896136Y22661993D01*
X15973132Y22661503D01*
X16034195Y22660677D01*
X16081418Y22659429D01*
X16116893Y22657671D01*
X16142714Y22655318D01*
X16160973Y22652280D01*
X16173762Y22648473D01*
X16183174Y22643808D01*
X16191303Y22638199D01*
X16200385Y22631200D01*
X16239944Y22591319D01*
X16263216Y22544781D01*
X16274323Y22483928D01*
X16276211Y22452778D01*
X16276176Y22406623D01*
X16272910Y22371334D01*
X16270976Y22362812D01*
X16248486Y22313798D01*
X16211516Y22269883D01*
X16167139Y22239859D01*
X16155102Y22236242D01*
X16134171Y22233051D01*
X16103068Y22230521D01*
X16059904Y22228608D01*
X16002790Y22227269D01*
X15929837Y22226460D01*
X15839154Y22226139D01*
X15728854Y22226262D01*
X15597046Y22226786D01*
X15548965Y22227027D01*
X15431111Y22227675D01*
X15333767Y22228374D01*
X15254809Y22229227D01*
X15192115Y22230331D01*
X15143562Y22231789D01*
X15107027Y22233699D01*
X15080387Y22236163D01*
X15061521Y22239280D01*
X15048305Y22243151D01*
X15038617Y22247876D01*
X15030334Y22253556D01*
X15004900Y22273905D01*
X14976828Y22304243D01*
X14960047Y22338812D01*
X14951916Y22383921D01*
X14949793Y22445877D01*
X14950617Y22488232D01*
X14956330Y22538566D01*
X14969761Y22576135D01*
X14993552Y22607243D01*
X15030346Y22638199D01*
X15034928Y22641506D01*
X15043529Y22646568D01*
X15054602Y22650735D01*
X15070241Y22654094D01*
X15092538Y22656733D01*
X15123586Y22658737D01*
X15165476Y22660195D01*
X15220303Y22661192D01*
X15290159Y22661817D01*
X15377136Y22662155D01*
X15483327Y22662294D01*
X15610824Y22662321D01*
X15685975Y22662315D01*
G37*
G36*
X18320701Y13325154D02*
G01*
X18371026Y13319446D01*
X18408590Y13306021D01*
X18439702Y13282238D01*
X18470673Y13245455D01*
X18471469Y13244380D01*
X18478765Y13233045D01*
X18484431Y13219316D01*
X18488721Y13200194D01*
X18491892Y13172677D01*
X18494198Y13133764D01*
X18495895Y13080456D01*
X18497239Y13009750D01*
X18498484Y12918646D01*
X18499098Y12856397D01*
X18499383Y12777664D01*
X18499087Y12707619D01*
X18498249Y12649938D01*
X18496905Y12608299D01*
X18495094Y12586378D01*
X18491830Y12573622D01*
X18468653Y12528303D01*
X18432359Y12487152D01*
X18390078Y12458828D01*
X18383167Y12456290D01*
X18362001Y12451859D01*
X18329894Y12448622D01*
X18284356Y12446487D01*
X18222898Y12445359D01*
X18143030Y12445146D01*
X18042264Y12445754D01*
X18001623Y12446123D01*
X17916280Y12447068D01*
X17850267Y12448236D01*
X17800687Y12449856D01*
X17764641Y12452152D01*
X17739231Y12455351D01*
X17721561Y12459679D01*
X17708732Y12465361D01*
X17697846Y12472625D01*
X17672415Y12492981D01*
X17644348Y12523322D01*
X17627570Y12557890D01*
X17619442Y12602995D01*
X17617319Y12664947D01*
X17617321Y12668011D01*
X17618335Y12720394D01*
X17621964Y12755884D01*
X17629302Y12780644D01*
X17641441Y12800837D01*
X17661441Y12825654D01*
X17691316Y12852830D01*
X17726438Y12870369D01*
X17772840Y12880942D01*
X17836552Y12887218D01*
X17895052Y12892275D01*
X17941258Y12900180D01*
X17974296Y12912591D01*
X17999503Y12931575D01*
X18022212Y12959200D01*
X18033391Y12977889D01*
X18043871Y13007346D01*
X18051234Y13048358D01*
X18056868Y13106846D01*
X18061622Y13156824D01*
X18070768Y13206659D01*
X18085561Y13243503D01*
X18108594Y13273265D01*
X18142461Y13301856D01*
X18143423Y13302569D01*
X18163695Y13314452D01*
X18188832Y13321585D01*
X18224996Y13325063D01*
X18278351Y13325979D01*
X18320701Y13325154D01*
G37*
G36*
X20637049Y14665363D02*
G01*
X20730540Y14664451D01*
X20816481Y14663054D01*
X20891705Y14661173D01*
X20953041Y14658807D01*
X20997321Y14655956D01*
X21021376Y14652621D01*
X21036873Y14647390D01*
X21088611Y14616074D01*
X21130466Y14569828D01*
X21156009Y14515213D01*
X21158855Y14498909D01*
X21161959Y14461290D01*
X21164265Y14404785D01*
X21165789Y14328491D01*
X21166547Y14231511D01*
X21166556Y14112942D01*
X21165832Y13971885D01*
X21165173Y13884839D01*
X21164169Y13777278D01*
X21163020Y13689424D01*
X21161633Y13619096D01*
X21159914Y13564111D01*
X21157769Y13522287D01*
X21155104Y13491441D01*
X21151824Y13469391D01*
X21147835Y13453954D01*
X21143045Y13442948D01*
X21129749Y13421257D01*
X21088223Y13377855D01*
X21031475Y13348779D01*
X21028269Y13347730D01*
X21009690Y13343759D01*
X20981552Y13340510D01*
X20941880Y13337924D01*
X20888694Y13335941D01*
X20820020Y13334502D01*
X20733879Y13333548D01*
X20628294Y13333019D01*
X20501290Y13332856D01*
X20493779Y13332856D01*
X20367987Y13332975D01*
X20263256Y13333448D01*
X20177370Y13334473D01*
X20108110Y13336247D01*
X20053261Y13338968D01*
X20010605Y13342834D01*
X19977926Y13348043D01*
X19953006Y13354793D01*
X19933629Y13363281D01*
X19917577Y13373704D01*
X19902634Y13386262D01*
X19892383Y13395631D01*
X19879444Y13408748D01*
X19868831Y13423057D01*
X19860294Y13440779D01*
X19853582Y13464134D01*
X19848447Y13495342D01*
X19844639Y13536626D01*
X19841907Y13590204D01*
X19840001Y13658299D01*
X19838673Y13743130D01*
X19837671Y13846918D01*
X19836747Y13971885D01*
X19836138Y14079319D01*
X19835960Y14203508D01*
X19836526Y14305881D01*
X19837855Y14387337D01*
X19839960Y14448778D01*
X19842860Y14491103D01*
X19846570Y14515213D01*
X19851751Y14531086D01*
X19882546Y14584004D01*
X19927839Y14626703D01*
X19981203Y14652621D01*
X19997646Y14655213D01*
X20037443Y14658178D01*
X20095043Y14660659D01*
X20167277Y14662654D01*
X20250977Y14664165D01*
X20342973Y14665192D01*
X20440097Y14665733D01*
X20539178Y14665790D01*
X20637049Y14665363D01*
G37*
G36*
X20637049Y22667942D02*
G01*
X20730540Y22667030D01*
X20816481Y22665634D01*
X20891705Y22663752D01*
X20953041Y22661386D01*
X20997321Y22658536D01*
X21021376Y22655200D01*
X21036873Y22649969D01*
X21088611Y22618653D01*
X21130466Y22572407D01*
X21156009Y22517793D01*
X21158855Y22501488D01*
X21161959Y22463870D01*
X21164265Y22407364D01*
X21165789Y22331071D01*
X21166547Y22234090D01*
X21166556Y22115521D01*
X21165832Y21974464D01*
X21165173Y21887419D01*
X21164169Y21779857D01*
X21163020Y21692004D01*
X21161633Y21621676D01*
X21159914Y21566691D01*
X21157769Y21524866D01*
X21155104Y21494020D01*
X21151824Y21471970D01*
X21147835Y21456533D01*
X21143045Y21445527D01*
X21129749Y21423836D01*
X21088223Y21380434D01*
X21031475Y21351359D01*
X21028269Y21350310D01*
X21009690Y21346338D01*
X20981552Y21343089D01*
X20941880Y21340503D01*
X20888694Y21338520D01*
X20820020Y21337081D01*
X20733879Y21336127D01*
X20628294Y21335598D01*
X20501290Y21335435D01*
X20493779Y21335435D01*
X20367987Y21335555D01*
X20263256Y21336028D01*
X20177370Y21337052D01*
X20108110Y21338826D01*
X20053261Y21341548D01*
X20010605Y21345414D01*
X19977926Y21350623D01*
X19953006Y21357372D01*
X19933629Y21365860D01*
X19917577Y21376284D01*
X19902634Y21388841D01*
X19892383Y21398210D01*
X19879444Y21411327D01*
X19868831Y21425636D01*
X19860294Y21443358D01*
X19853582Y21466713D01*
X19848447Y21497922D01*
X19844639Y21539205D01*
X19841907Y21592784D01*
X19840001Y21660878D01*
X19838673Y21745709D01*
X19837671Y21849498D01*
X19836747Y21974464D01*
X19836138Y22081899D01*
X19835960Y22206088D01*
X19836526Y22308460D01*
X19837855Y22389917D01*
X19839960Y22451358D01*
X19842860Y22493683D01*
X19846570Y22517793D01*
X19851751Y22533665D01*
X19882546Y22586584D01*
X19927839Y22629282D01*
X19981203Y22655200D01*
X19997646Y22657793D01*
X20037443Y22660758D01*
X20095043Y22663238D01*
X20167277Y22665234D01*
X20250977Y22666745D01*
X20342973Y22667771D01*
X20440097Y22668313D01*
X20539178Y22668370D01*
X20637049Y22667942D01*
G37*
G36*
X12634469Y22667942D02*
G01*
X12727960Y22667030D01*
X12813902Y22665634D01*
X12889125Y22663752D01*
X12950462Y22661386D01*
X12994742Y22658536D01*
X13018797Y22655200D01*
X13034294Y22649969D01*
X13086032Y22618653D01*
X13127887Y22572407D01*
X13153430Y22517793D01*
X13156276Y22501488D01*
X13159380Y22463870D01*
X13161685Y22407364D01*
X13163209Y22331071D01*
X13163967Y22234090D01*
X13163977Y22115521D01*
X13163253Y21974464D01*
X13162593Y21887419D01*
X13161589Y21779857D01*
X13160441Y21692004D01*
X13159054Y21621676D01*
X13157335Y21566691D01*
X13155190Y21524866D01*
X13152524Y21494020D01*
X13149244Y21471970D01*
X13145256Y21456533D01*
X13140465Y21445527D01*
X13127170Y21423836D01*
X13085644Y21380434D01*
X13028895Y21351359D01*
X13025689Y21350310D01*
X13007110Y21346338D01*
X12978973Y21343089D01*
X12939300Y21340503D01*
X12886115Y21338520D01*
X12817440Y21337081D01*
X12731299Y21336127D01*
X12625715Y21335598D01*
X12498710Y21335435D01*
X12491199Y21335435D01*
X12365408Y21335555D01*
X12260677Y21336028D01*
X12174790Y21337052D01*
X12105531Y21338826D01*
X12050682Y21341548D01*
X12008026Y21345414D01*
X11975347Y21350623D01*
X11950427Y21357372D01*
X11931049Y21365860D01*
X11914997Y21376284D01*
X11900054Y21388841D01*
X11889804Y21398210D01*
X11876865Y21411327D01*
X11866252Y21425636D01*
X11857714Y21443358D01*
X11851003Y21466713D01*
X11845868Y21497922D01*
X11842059Y21539205D01*
X11839327Y21592784D01*
X11837422Y21660878D01*
X11836093Y21745709D01*
X11835092Y21849498D01*
X11834168Y21974464D01*
X11833559Y22081899D01*
X11833380Y22206088D01*
X11833947Y22308460D01*
X11835275Y22389917D01*
X11837381Y22451358D01*
X11840281Y22493683D01*
X11843991Y22517793D01*
X11849171Y22533665D01*
X11879966Y22586584D01*
X11925260Y22629282D01*
X11978624Y22655200D01*
X11995066Y22657793D01*
X12034863Y22660758D01*
X12092463Y22663238D01*
X12164698Y22665234D01*
X12248398Y22666745D01*
X12340394Y22667771D01*
X12437517Y22668313D01*
X12536599Y22668370D01*
X12634469Y22667942D01*
G37*
G36*
X18320704Y20883146D02*
G01*
X18371036Y20877435D01*
X18408603Y20864005D01*
X18439713Y20840216D01*
X18470673Y20803425D01*
X18475742Y20796215D01*
X18481761Y20784817D01*
X18486360Y20769790D01*
X18489730Y20748309D01*
X18492061Y20717550D01*
X18493542Y20674689D01*
X18494365Y20616902D01*
X18494719Y20541364D01*
X18494795Y20445251D01*
X18494764Y20376745D01*
X18494517Y20295099D01*
X18493860Y20232083D01*
X18492604Y20184873D01*
X18490558Y20150645D01*
X18487532Y20126574D01*
X18483336Y20109835D01*
X18477780Y20097605D01*
X18470673Y20087059D01*
X18448574Y20059829D01*
X18418745Y20033384D01*
X18383528Y20016506D01*
X18336942Y20006593D01*
X18273004Y20001042D01*
X18228541Y19997901D01*
X18184070Y19992113D01*
X18153456Y19983541D01*
X18131195Y19971019D01*
X18122458Y19964101D01*
X18084790Y19919735D01*
X18063046Y19862005D01*
X18056057Y19788070D01*
X18056051Y19785356D01*
X18049499Y19708425D01*
X18029688Y19648961D01*
X17995273Y19604350D01*
X17944910Y19571976D01*
X17931842Y19567246D01*
X17884750Y19559786D01*
X17819928Y19558894D01*
X17816202Y19559031D01*
X17756011Y19564659D01*
X17711455Y19578271D01*
X17675582Y19603120D01*
X17641441Y19642461D01*
X17636372Y19649672D01*
X17630353Y19661072D01*
X17625754Y19676101D01*
X17622384Y19697583D01*
X17620054Y19728343D01*
X17618572Y19771205D01*
X17617749Y19828993D01*
X17617395Y19904531D01*
X17617319Y20000645D01*
X17617350Y20069164D01*
X17617597Y20150808D01*
X17618254Y20213821D01*
X17619510Y20261028D01*
X17621556Y20295254D01*
X17624582Y20319323D01*
X17628778Y20336058D01*
X17634334Y20348286D01*
X17641441Y20358829D01*
X17661441Y20383646D01*
X17691316Y20410822D01*
X17726438Y20428361D01*
X17772840Y20438934D01*
X17836552Y20445210D01*
X17895052Y20450267D01*
X17941258Y20458172D01*
X17974296Y20470583D01*
X17999503Y20489566D01*
X18022212Y20517192D01*
X18033391Y20535881D01*
X18043871Y20565338D01*
X18051234Y20606350D01*
X18056868Y20664838D01*
X18061622Y20714816D01*
X18070768Y20764650D01*
X18085561Y20801494D01*
X18108594Y20831257D01*
X18142461Y20859848D01*
X18143423Y20860561D01*
X18163695Y20872444D01*
X18188832Y20879577D01*
X18224996Y20883054D01*
X18278351Y20883970D01*
X18320704Y20883146D01*
G37*
G36*
X17235401Y13770535D02*
G01*
X17317044Y13770288D01*
X17380057Y13769632D01*
X17427265Y13768376D01*
X17461491Y13766330D01*
X17485559Y13763304D01*
X17502295Y13759108D01*
X17514523Y13753551D01*
X17525066Y13746444D01*
X17550498Y13726105D01*
X17578579Y13695774D01*
X17595364Y13661215D01*
X17603496Y13616119D01*
X17605619Y13554175D01*
X17605618Y13551242D01*
X17604606Y13498814D01*
X17600978Y13463288D01*
X17593640Y13438496D01*
X17581497Y13418272D01*
X17561520Y13393424D01*
X17531393Y13365888D01*
X17496126Y13348252D01*
X17449657Y13337842D01*
X17385925Y13331983D01*
X17330044Y13327566D01*
X17283223Y13319892D01*
X17249633Y13307402D01*
X17223853Y13287976D01*
X17200460Y13259495D01*
X17188394Y13239227D01*
X17178402Y13210383D01*
X17171650Y13170376D01*
X17166730Y13113090D01*
X17162848Y13067174D01*
X17154073Y13015882D01*
X17139258Y12977848D01*
X17115778Y12947085D01*
X17081010Y12917610D01*
X17065490Y12908118D01*
X17037641Y12898576D01*
X16997389Y12892137D01*
X16939241Y12887638D01*
X16894778Y12884497D01*
X16850307Y12878709D01*
X16819693Y12870137D01*
X16797432Y12857615D01*
X16788694Y12850697D01*
X16751027Y12806331D01*
X16729282Y12748601D01*
X16722294Y12674666D01*
X16722289Y12672298D01*
X16715737Y12595112D01*
X16695882Y12535470D01*
X16661445Y12490889D01*
X16611147Y12458887D01*
X16603758Y12456157D01*
X16582643Y12451764D01*
X16550655Y12448560D01*
X16505291Y12446452D01*
X16444048Y12445345D01*
X16364423Y12445144D01*
X16263913Y12445754D01*
X16223272Y12446123D01*
X16137929Y12447068D01*
X16071916Y12448236D01*
X16022336Y12449856D01*
X15986290Y12452152D01*
X15960880Y12455351D01*
X15943210Y12459679D01*
X15930381Y12465361D01*
X15919495Y12472625D01*
X15894064Y12492981D01*
X15865997Y12523322D01*
X15849219Y12557890D01*
X15841091Y12602995D01*
X15838968Y12664947D01*
X15838970Y12668011D01*
X15839985Y12720394D01*
X15843613Y12755884D01*
X15850951Y12780644D01*
X15863090Y12800837D01*
X15883090Y12825654D01*
X15912965Y12852830D01*
X15948087Y12870369D01*
X15994489Y12880942D01*
X16058201Y12887218D01*
X16116701Y12892275D01*
X16162907Y12900180D01*
X16195945Y12912591D01*
X16221152Y12931575D01*
X16243861Y12959200D01*
X16255040Y12977889D01*
X16265520Y13007346D01*
X16272883Y13048358D01*
X16278517Y13106846D01*
X16283118Y13155515D01*
X16292200Y13205815D01*
X16306854Y13242929D01*
X16329639Y13272737D01*
X16363116Y13301115D01*
X16374220Y13308208D01*
X16402419Y13318933D01*
X16443531Y13326415D01*
X16502789Y13331806D01*
X16561289Y13336863D01*
X16607495Y13344768D01*
X16640533Y13357179D01*
X16665740Y13376162D01*
X16688449Y13403788D01*
X16699628Y13422477D01*
X16710108Y13451934D01*
X16717470Y13492946D01*
X16723105Y13551434D01*
X16727859Y13601412D01*
X16737005Y13651246D01*
X16751797Y13688090D01*
X16774830Y13717853D01*
X16808697Y13746444D01*
X16815909Y13751513D01*
X16827309Y13757532D01*
X16842338Y13762131D01*
X16863820Y13765501D01*
X16894580Y13767832D01*
X16937442Y13769314D01*
X16995230Y13770136D01*
X17070768Y13770491D01*
X17166882Y13770566D01*
X17235401Y13770535D01*
G37*
G36*
X15653174Y21327734D02*
G01*
X15703499Y21322026D01*
X15741062Y21308601D01*
X15772175Y21284818D01*
X15803146Y21248036D01*
X15807545Y21241786D01*
X15813755Y21230159D01*
X15818640Y21214756D01*
X15822432Y21192773D01*
X15825363Y21161409D01*
X15827665Y21117859D01*
X15829570Y21059321D01*
X15831310Y20982992D01*
X15833118Y20886069D01*
X15833209Y20880983D01*
X15834959Y20785568D01*
X15836598Y20710559D01*
X15838391Y20653100D01*
X15840597Y20610337D01*
X15843481Y20579415D01*
X15847304Y20557478D01*
X15852328Y20541672D01*
X15858817Y20529141D01*
X15867032Y20517032D01*
X15888991Y20491654D01*
X15929796Y20464789D01*
X15983860Y20449853D01*
X16055412Y20445233D01*
X16115310Y20448013D01*
X16175272Y20460932D01*
X16219088Y20486628D01*
X16249244Y20527546D01*
X16268226Y20586135D01*
X16278517Y20664838D01*
X16283271Y20714816D01*
X16292417Y20764650D01*
X16307210Y20801494D01*
X16330243Y20831257D01*
X16364110Y20859848D01*
X16365072Y20860561D01*
X16385344Y20872444D01*
X16410481Y20879577D01*
X16446645Y20883054D01*
X16500000Y20883970D01*
X16542352Y20883146D01*
X16592682Y20877436D01*
X16630248Y20864008D01*
X16661358Y20840220D01*
X16692322Y20803432D01*
X16693193Y20802257D01*
X16698819Y20793739D01*
X16703479Y20783450D01*
X16707284Y20769227D01*
X16710342Y20748906D01*
X16712761Y20720325D01*
X16714652Y20681322D01*
X16716122Y20629733D01*
X16717281Y20563397D01*
X16718237Y20480149D01*
X16719101Y20377828D01*
X16719979Y20254270D01*
X16720405Y20181677D01*
X16720767Y20076314D01*
X16720799Y19978803D01*
X16720519Y19891736D01*
X16719942Y19817704D01*
X16719084Y19759297D01*
X16717961Y19719106D01*
X16716589Y19699722D01*
X16713301Y19686772D01*
X16690242Y19641653D01*
X16654039Y19600509D01*
X16611727Y19571917D01*
X16598564Y19567097D01*
X16553600Y19559132D01*
X16499689Y19557504D01*
X16444807Y19561756D01*
X16396933Y19571434D01*
X16364041Y19586080D01*
X16337378Y19607784D01*
X16311955Y19636713D01*
X16295397Y19671293D01*
X16285115Y19717433D01*
X16278517Y19781039D01*
X16274241Y19828194D01*
X16267385Y19872594D01*
X16257722Y19904118D01*
X16243861Y19928686D01*
X16237184Y19937952D01*
X16223823Y19954532D01*
X16209113Y19967572D01*
X16190298Y19977558D01*
X16164622Y19984978D01*
X16129329Y19990320D01*
X16081663Y19994070D01*
X16018868Y19996716D01*
X15938188Y19998745D01*
X15836868Y20000645D01*
X15817747Y20000953D01*
X15725844Y20001802D01*
X15648197Y20002658D01*
X15583612Y20005318D01*
X15530899Y20011579D01*
X15488865Y20023236D01*
X15456318Y20042089D01*
X15432064Y20069932D01*
X15414913Y20108563D01*
X15403671Y20159779D01*
X15397147Y20225378D01*
X15394148Y20307154D01*
X15393482Y20406907D01*
X15393957Y20526432D01*
X15394380Y20667526D01*
X15394387Y20742677D01*
X15394467Y20857816D01*
X15394709Y20952838D01*
X15395199Y21029834D01*
X15396025Y21090897D01*
X15397273Y21138120D01*
X15399030Y21173595D01*
X15401384Y21199416D01*
X15404421Y21217675D01*
X15408229Y21230464D01*
X15412894Y21239876D01*
X15418503Y21248005D01*
X15438847Y21273441D01*
X15469182Y21301517D01*
X15503752Y21318301D01*
X15548864Y21326434D01*
X15610824Y21328558D01*
X15653174Y21327734D01*
G37*
G36*
X20948941Y18661030D02*
G01*
X21001324Y18660015D01*
X21036814Y18656386D01*
X21061574Y18649049D01*
X21081768Y18636909D01*
X21108501Y18615148D01*
X21133928Y18586213D01*
X21150484Y18551633D01*
X21160764Y18505499D01*
X21167360Y18441899D01*
X21171636Y18394745D01*
X21178492Y18350344D01*
X21188156Y18318821D01*
X21202016Y18294253D01*
X21222818Y18268564D01*
X21247614Y18248941D01*
X21279799Y18236064D01*
X21324708Y18227863D01*
X21387676Y18222271D01*
X21420510Y18219710D01*
X21469853Y18213396D01*
X21503721Y18204402D01*
X21527349Y18191580D01*
X21553049Y18170667D01*
X21578436Y18141815D01*
X21595008Y18107224D01*
X21605326Y18061015D01*
X21611948Y17997312D01*
X21616224Y17950157D01*
X21623080Y17905756D01*
X21632743Y17874233D01*
X21646604Y17849665D01*
X21667406Y17823976D01*
X21692202Y17804354D01*
X21724387Y17791476D01*
X21769296Y17783276D01*
X21832264Y17777683D01*
X21876994Y17773841D01*
X21928484Y17764995D01*
X21966689Y17750072D01*
X21997642Y17726401D01*
X22027375Y17691311D01*
X22029937Y17687786D01*
X22034465Y17680351D01*
X22038327Y17670818D01*
X22041585Y17657414D01*
X22044304Y17638362D01*
X22046546Y17611887D01*
X22048376Y17576214D01*
X22049857Y17529569D01*
X22051052Y17470176D01*
X22052025Y17396259D01*
X22052840Y17306044D01*
X22053559Y17197755D01*
X22054246Y17069617D01*
X22054966Y16919855D01*
X22055076Y16895636D01*
X22055535Y16766170D01*
X22055760Y16643248D01*
X22055761Y16528978D01*
X22055548Y16425467D01*
X22055128Y16334820D01*
X22054512Y16259146D01*
X22053708Y16200550D01*
X22052726Y16161139D01*
X22051575Y16143020D01*
X22048268Y16129947D01*
X22025241Y16084883D01*
X21989072Y16043786D01*
X21946780Y16015215D01*
X21933617Y16010395D01*
X21888653Y16002430D01*
X21834742Y16000802D01*
X21779860Y16005054D01*
X21731986Y16014732D01*
X21699094Y16029378D01*
X21682529Y16041823D01*
X21663409Y16057638D01*
X21648497Y16074156D01*
X21637207Y16094211D01*
X21628955Y16120641D01*
X21623154Y16156283D01*
X21619220Y16203972D01*
X21616566Y16266546D01*
X21614607Y16346841D01*
X21612759Y16447694D01*
X21611072Y16539867D01*
X21609411Y16616830D01*
X21607618Y16675949D01*
X21605437Y16720072D01*
X21602612Y16752048D01*
X21598889Y16774723D01*
X21594011Y16790946D01*
X21587724Y16803567D01*
X21579771Y16815431D01*
X21558757Y16841574D01*
X21533498Y16862089D01*
X21501205Y16875348D01*
X21456427Y16883498D01*
X21393716Y16888685D01*
X21355338Y16891467D01*
X21308925Y16897400D01*
X21276993Y16906148D01*
X21254042Y16918900D01*
X21227861Y16940208D01*
X21202457Y16969099D01*
X21185892Y17003684D01*
X21175593Y17049858D01*
X21168982Y17113513D01*
X21164707Y17160667D01*
X21157850Y17205068D01*
X21148187Y17236591D01*
X21134326Y17261159D01*
X21114236Y17286182D01*
X21089097Y17306623D01*
X21056806Y17319881D01*
X21011953Y17328062D01*
X20949128Y17333273D01*
X20904910Y17336754D01*
X20853241Y17345305D01*
X20814836Y17360167D01*
X20783629Y17384015D01*
X20753556Y17419522D01*
X20750249Y17424103D01*
X20745187Y17432704D01*
X20741020Y17443778D01*
X20737660Y17459417D01*
X20735022Y17481713D01*
X20733018Y17512761D01*
X20731560Y17554652D01*
X20730563Y17609479D01*
X20729938Y17679334D01*
X20729600Y17766311D01*
X20729460Y17872502D01*
X20729433Y18000000D01*
X20729440Y18075151D01*
X20729520Y18190290D01*
X20729762Y18285311D01*
X20730252Y18362307D01*
X20731078Y18423370D01*
X20732326Y18470593D01*
X20734083Y18506069D01*
X20736437Y18531890D01*
X20739474Y18550148D01*
X20743282Y18562937D01*
X20747947Y18572350D01*
X20753556Y18580478D01*
X20773900Y18605914D01*
X20804235Y18633991D01*
X20838805Y18650775D01*
X20883917Y18658908D01*
X20945877Y18661032D01*
X20948941Y18661030D01*
G37*
G36*
X14763999Y20883146D02*
G01*
X14814323Y20877438D01*
X14851887Y20864013D01*
X14882999Y20840231D01*
X14913971Y20803448D01*
X14918369Y20797198D01*
X14924580Y20785571D01*
X14929464Y20770168D01*
X14933256Y20748186D01*
X14936187Y20716821D01*
X14938489Y20673272D01*
X14940394Y20614734D01*
X14942135Y20538404D01*
X14943943Y20441481D01*
X14945630Y20349309D01*
X14947291Y20272345D01*
X14949084Y20213226D01*
X14951265Y20169103D01*
X14954090Y20137128D01*
X14957813Y20114452D01*
X14962691Y20098229D01*
X14968978Y20085609D01*
X14976931Y20073744D01*
X14998649Y20046946D01*
X15023563Y20027247D01*
X15055752Y20014364D01*
X15100589Y20006191D01*
X15163447Y20000622D01*
X15208167Y19996781D01*
X15259653Y19987939D01*
X15297857Y19973020D01*
X15328814Y19949355D01*
X15358558Y19914272D01*
X15362957Y19908023D01*
X15369167Y19896396D01*
X15374052Y19880992D01*
X15377844Y19859010D01*
X15380775Y19827646D01*
X15383077Y19784096D01*
X15384982Y19725558D01*
X15386723Y19649229D01*
X15388531Y19552305D01*
X15390217Y19460133D01*
X15391879Y19383170D01*
X15393672Y19324050D01*
X15395853Y19279927D01*
X15398677Y19247952D01*
X15402401Y19225277D01*
X15407278Y19209053D01*
X15413566Y19196433D01*
X15421518Y19184568D01*
X15425224Y19179549D01*
X15450444Y19151170D01*
X15474167Y19131920D01*
X15475830Y19131118D01*
X15491291Y19127485D01*
X15519999Y19124291D01*
X15563405Y19121485D01*
X15622957Y19119015D01*
X15700108Y19116830D01*
X15796306Y19114878D01*
X15913003Y19113108D01*
X16051649Y19111469D01*
X16118833Y19110751D01*
X16235902Y19109430D01*
X16332704Y19108162D01*
X16411326Y19106840D01*
X16473850Y19105358D01*
X16522363Y19103607D01*
X16558947Y19101483D01*
X16585689Y19098876D01*
X16604671Y19095682D01*
X16617979Y19091791D01*
X16627697Y19087099D01*
X16635910Y19081497D01*
X16661338Y19061149D01*
X16689413Y19030814D01*
X16706192Y18996256D01*
X16714322Y18951165D01*
X16716444Y18889228D01*
X16715626Y18847052D01*
X16709921Y18796635D01*
X16696497Y18759002D01*
X16672711Y18727845D01*
X16635924Y18696854D01*
X16629350Y18692245D01*
X16617686Y18686097D01*
X16602172Y18681259D01*
X16580015Y18677502D01*
X16548423Y18674596D01*
X16504603Y18672311D01*
X16445762Y18670416D01*
X16369110Y18668683D01*
X16271852Y18666882D01*
X16213270Y18665823D01*
X16128123Y18664079D01*
X16061985Y18662268D01*
X16012068Y18660162D01*
X15975585Y18657533D01*
X15949750Y18654156D01*
X15931773Y18649802D01*
X15918869Y18644244D01*
X15908248Y18637256D01*
X15899523Y18630347D01*
X15861853Y18585976D01*
X15840107Y18528244D01*
X15833118Y18454307D01*
X15833114Y18451939D01*
X15826562Y18374753D01*
X15806707Y18315111D01*
X15772270Y18270530D01*
X15721971Y18238528D01*
X15714583Y18235798D01*
X15693467Y18231404D01*
X15661479Y18228201D01*
X15616116Y18226093D01*
X15554873Y18224985D01*
X15475248Y18224784D01*
X15374737Y18225395D01*
X15334097Y18225764D01*
X15248754Y18226708D01*
X15182741Y18227877D01*
X15133160Y18229497D01*
X15097114Y18231793D01*
X15071705Y18234992D01*
X15054034Y18239319D01*
X15041205Y18245002D01*
X15030320Y18252266D01*
X15001780Y18277448D01*
X14973915Y18308677D01*
X14970978Y18312749D01*
X14965846Y18321458D01*
X14961571Y18332721D01*
X14958044Y18348622D01*
X14955158Y18371245D01*
X14952807Y18402676D01*
X14950884Y18444998D01*
X14949282Y18500296D01*
X14947894Y18570655D01*
X14946612Y18658158D01*
X14945331Y18764891D01*
X14943943Y18892938D01*
X14938093Y19444910D01*
X14910955Y19482958D01*
X14889941Y19509101D01*
X14864682Y19529615D01*
X14832388Y19542874D01*
X14787611Y19551024D01*
X14724899Y19556212D01*
X14680681Y19559692D01*
X14629012Y19568244D01*
X14590607Y19583106D01*
X14559400Y19606953D01*
X14529327Y19642461D01*
X14526021Y19647042D01*
X14520959Y19655643D01*
X14516791Y19666716D01*
X14513432Y19682355D01*
X14510794Y19704652D01*
X14508789Y19735700D01*
X14507332Y19777591D01*
X14506334Y19832418D01*
X14505710Y19902273D01*
X14505371Y19989250D01*
X14505232Y20095441D01*
X14505205Y20222939D01*
X14505212Y20298089D01*
X14505292Y20413229D01*
X14505533Y20508250D01*
X14506024Y20585246D01*
X14506849Y20646309D01*
X14508097Y20693532D01*
X14509855Y20729008D01*
X14512209Y20754828D01*
X14515246Y20773087D01*
X14519053Y20785876D01*
X14523718Y20795288D01*
X14529327Y20803417D01*
X14549672Y20828853D01*
X14580006Y20856929D01*
X14614576Y20873713D01*
X14659688Y20881846D01*
X14721649Y20883970D01*
X14763999Y20883146D01*
G37*
G36*
X11455760Y14215123D02*
G01*
X11537404Y14214876D01*
X11600417Y14214219D01*
X11647624Y14212963D01*
X11681850Y14210917D01*
X11705919Y14207892D01*
X11722654Y14203696D01*
X11734882Y14198139D01*
X11745425Y14191032D01*
X11772159Y14169270D01*
X11797585Y14140336D01*
X11814141Y14105756D01*
X11824421Y14059621D01*
X11831017Y13996022D01*
X11832237Y13981237D01*
X11842082Y13911770D01*
X11858410Y13860554D01*
X11882958Y13823587D01*
X11917465Y13796867D01*
X11919128Y13796065D01*
X11934589Y13792432D01*
X11963298Y13789238D01*
X12006703Y13786432D01*
X12066255Y13783962D01*
X12143406Y13781777D01*
X12239604Y13779825D01*
X12356301Y13778055D01*
X12494947Y13776416D01*
X12562131Y13775698D01*
X12679200Y13774377D01*
X12776002Y13773109D01*
X12854624Y13771787D01*
X12917148Y13770305D01*
X12965661Y13768554D01*
X13002245Y13766430D01*
X13028987Y13763823D01*
X13047969Y13760629D01*
X13061277Y13756738D01*
X13070995Y13752046D01*
X13079208Y13746444D01*
X13105932Y13724678D01*
X13131355Y13695739D01*
X13147908Y13661159D01*
X13158185Y13615028D01*
X13164781Y13551434D01*
X13169056Y13504279D01*
X13175913Y13459879D01*
X13185576Y13428355D01*
X13199437Y13403788D01*
X13220239Y13378099D01*
X13245035Y13358476D01*
X13277220Y13345599D01*
X13322129Y13337398D01*
X13385096Y13331806D01*
X13429825Y13327964D01*
X13481314Y13319119D01*
X13519519Y13304196D01*
X13550472Y13280526D01*
X13580207Y13245438D01*
X13580912Y13244487D01*
X13592799Y13224220D01*
X13599935Y13199090D01*
X13603413Y13162934D01*
X13604330Y13109588D01*
X13603511Y13067406D01*
X13597803Y13016979D01*
X13584371Y12979341D01*
X13560575Y12948187D01*
X13523776Y12917213D01*
X13516564Y12912144D01*
X13505164Y12906125D01*
X13490135Y12901526D01*
X13468653Y12898156D01*
X13437893Y12895825D01*
X13395032Y12894343D01*
X13337244Y12893521D01*
X13261705Y12893166D01*
X13165592Y12893091D01*
X13097072Y12893122D01*
X13015429Y12893369D01*
X12952416Y12894026D01*
X12905209Y12895282D01*
X12870983Y12897327D01*
X12846914Y12900353D01*
X12830178Y12904549D01*
X12817951Y12910106D01*
X12807408Y12917213D01*
X12780674Y12938975D01*
X12755247Y12967909D01*
X12738691Y13002489D01*
X12728412Y13048624D01*
X12721815Y13112223D01*
X12713415Y13182564D01*
X12696465Y13243135D01*
X12669124Y13285783D01*
X12628788Y13313073D01*
X12572851Y13327567D01*
X12498710Y13331829D01*
X12434731Y13328788D01*
X12375578Y13315793D01*
X12332705Y13290234D01*
X12303563Y13249602D01*
X12285599Y13191390D01*
X12276265Y13113090D01*
X12272310Y13066491D01*
X12263502Y13015452D01*
X12248617Y12977564D01*
X12225013Y12946819D01*
X12190046Y12917213D01*
X12183473Y12912604D01*
X12171809Y12906456D01*
X12156295Y12901618D01*
X12134138Y12897861D01*
X12102545Y12894955D01*
X12058725Y12892670D01*
X11999885Y12890776D01*
X11923232Y12889043D01*
X11825974Y12887241D01*
X11767393Y12886182D01*
X11682245Y12884439D01*
X11616107Y12882627D01*
X11566190Y12880521D01*
X11529708Y12877893D01*
X11503872Y12874515D01*
X11485896Y12870161D01*
X11472991Y12864603D01*
X11462371Y12857615D01*
X11453646Y12850706D01*
X11415976Y12806335D01*
X11394230Y12748603D01*
X11387241Y12674666D01*
X11387235Y12671952D01*
X11380682Y12595021D01*
X11360872Y12535557D01*
X11326457Y12490946D01*
X11276094Y12458572D01*
X11263025Y12453842D01*
X11215934Y12446382D01*
X11151112Y12445490D01*
X11147385Y12445627D01*
X11087195Y12451255D01*
X11042639Y12464867D01*
X11006766Y12489716D01*
X10972625Y12529057D01*
X10968472Y12534916D01*
X10964266Y12542601D01*
X10960697Y12552859D01*
X10957711Y12567424D01*
X10955257Y12588032D01*
X10953284Y12616419D01*
X10951737Y12654321D01*
X10950566Y12703472D01*
X10949718Y12765610D01*
X10949142Y12842468D01*
X10948784Y12935784D01*
X10948593Y13047292D01*
X10948517Y13178729D01*
X10948503Y13331829D01*
X10948512Y13464506D01*
X10948576Y13598919D01*
X10948748Y13713157D01*
X10949079Y13808955D01*
X10949621Y13888050D01*
X10950427Y13952176D01*
X10951549Y14003069D01*
X10953039Y14042466D01*
X10954949Y14072101D01*
X10957331Y14093710D01*
X10960237Y14109029D01*
X10963720Y14119793D01*
X10967832Y14127739D01*
X10972625Y14134601D01*
X10997819Y14163165D01*
X11029057Y14191032D01*
X11036268Y14196101D01*
X11047668Y14202120D01*
X11062697Y14206719D01*
X11084179Y14210089D01*
X11114939Y14212420D01*
X11157801Y14213901D01*
X11215589Y14214724D01*
X11291127Y14215078D01*
X11387241Y14215154D01*
X11455760Y14215123D01*
G37*
G36*
X20347515Y19994764D02*
G01*
X20429159Y19994517D01*
X20492172Y19993860D01*
X20539379Y19992604D01*
X20573605Y19990558D01*
X20597674Y19987532D01*
X20614409Y19983336D01*
X20626637Y19977780D01*
X20637180Y19970673D01*
X20662613Y19950333D01*
X20690693Y19920002D01*
X20707478Y19885443D01*
X20715610Y19840347D01*
X20717734Y19778404D01*
X20717732Y19775471D01*
X20716720Y19723043D01*
X20713092Y19687516D01*
X20705754Y19662724D01*
X20693611Y19642501D01*
X20673635Y19617652D01*
X20643508Y19590116D01*
X20608240Y19572480D01*
X20561771Y19562070D01*
X20498039Y19556212D01*
X20442159Y19551794D01*
X20395337Y19544120D01*
X20361747Y19531630D01*
X20335967Y19512204D01*
X20312574Y19483724D01*
X20300508Y19463455D01*
X20290516Y19434611D01*
X20283764Y19394604D01*
X20278845Y19337318D01*
X20274962Y19291403D01*
X20266187Y19240111D01*
X20251372Y19202076D01*
X20227893Y19171313D01*
X20193125Y19141839D01*
X20177604Y19132346D01*
X20149756Y19122805D01*
X20109503Y19116365D01*
X20051355Y19111867D01*
X19997199Y19107424D01*
X19945672Y19097705D01*
X19908349Y19081136D01*
X19880168Y19055273D01*
X19856069Y19017678D01*
X19851711Y19008533D01*
X19847956Y18997330D01*
X19844785Y18982342D01*
X19842150Y18961787D01*
X19840001Y18933880D01*
X19838288Y18896839D01*
X19836964Y18848881D01*
X19835978Y18788223D01*
X19835282Y18713080D01*
X19834826Y18621671D01*
X19834561Y18512213D01*
X19834438Y18382921D01*
X19834408Y18232013D01*
X19834250Y18071974D01*
X19833697Y17914555D01*
X19832744Y17780341D01*
X19831390Y17669230D01*
X19829633Y17581122D01*
X19827471Y17515915D01*
X19824904Y17473509D01*
X19821929Y17453802D01*
X19811859Y17432241D01*
X19773755Y17383696D01*
X19723261Y17349037D01*
X19710111Y17344150D01*
X19665441Y17336178D01*
X19611703Y17334548D01*
X19556905Y17338804D01*
X19509054Y17348487D01*
X19476156Y17363141D01*
X19449493Y17384845D01*
X19424069Y17413774D01*
X19407512Y17448355D01*
X19397230Y17494494D01*
X19390631Y17558100D01*
X19386356Y17605255D01*
X19379499Y17649656D01*
X19369836Y17681179D01*
X19355975Y17705747D01*
X19335885Y17730769D01*
X19310746Y17751211D01*
X19278455Y17764469D01*
X19233602Y17772650D01*
X19170777Y17777861D01*
X19126559Y17781341D01*
X19074890Y17789893D01*
X19036485Y17804755D01*
X19005278Y17828602D01*
X18975205Y17864110D01*
X18974492Y17865072D01*
X18962609Y17885344D01*
X18955476Y17910481D01*
X18951998Y17946645D01*
X18951082Y18000000D01*
X18951084Y18003064D01*
X18952099Y18055447D01*
X18955728Y18090937D01*
X18963065Y18115697D01*
X18975205Y18135890D01*
X18997965Y18163797D01*
X19027468Y18189561D01*
X19062597Y18206181D01*
X19109263Y18216233D01*
X19173376Y18222294D01*
X19230964Y18227566D01*
X19281202Y18237593D01*
X19317454Y18254071D01*
X19344760Y18279426D01*
X19368159Y18316085D01*
X19381686Y18354823D01*
X19389596Y18410962D01*
X19389978Y18472084D01*
X19382832Y18529142D01*
X19368159Y18573090D01*
X19349264Y18603881D01*
X19322355Y18631993D01*
X19287360Y18650303D01*
X19239220Y18661251D01*
X19172873Y18667279D01*
X19123697Y18671067D01*
X19073165Y18679590D01*
X19035561Y18694399D01*
X19004902Y18718096D01*
X18975205Y18753285D01*
X18974492Y18754247D01*
X18962609Y18774520D01*
X18955476Y18799657D01*
X18951998Y18835821D01*
X18951082Y18889175D01*
X18951084Y18892239D01*
X18952099Y18944622D01*
X18955728Y18980112D01*
X18963065Y19004872D01*
X18975205Y19025066D01*
X18995204Y19049883D01*
X19025079Y19077059D01*
X19060202Y19094598D01*
X19106603Y19105170D01*
X19170316Y19111447D01*
X19228816Y19116504D01*
X19275021Y19124409D01*
X19308060Y19136819D01*
X19333266Y19155803D01*
X19355975Y19183428D01*
X19367155Y19202117D01*
X19377635Y19231575D01*
X19384997Y19272587D01*
X19390631Y19331075D01*
X19395232Y19379744D01*
X19404314Y19430043D01*
X19418968Y19467158D01*
X19441754Y19496965D01*
X19475230Y19525343D01*
X19486334Y19532437D01*
X19514534Y19543161D01*
X19555646Y19550644D01*
X19614903Y19556034D01*
X19673403Y19561091D01*
X19719609Y19568997D01*
X19752647Y19581407D01*
X19777854Y19600391D01*
X19800563Y19628016D01*
X19811742Y19646705D01*
X19822222Y19676162D01*
X19829585Y19717175D01*
X19835219Y19775663D01*
X19839973Y19825640D01*
X19849119Y19875475D01*
X19863912Y19912319D01*
X19886945Y19942081D01*
X19920812Y19970673D01*
X19928023Y19975742D01*
X19939423Y19981761D01*
X19954452Y19986360D01*
X19975934Y19989730D01*
X20006694Y19992060D01*
X20049556Y19993542D01*
X20107344Y19994365D01*
X20182882Y19994719D01*
X20278996Y19994795D01*
X20347515Y19994764D01*
G37*
G36*
X17744147Y23551488D02*
G01*
X17878560Y23551423D01*
X17992798Y23551252D01*
X18088596Y23550921D01*
X18167690Y23550379D01*
X18231817Y23549573D01*
X18282710Y23548451D01*
X18322107Y23546961D01*
X18351742Y23545051D01*
X18373351Y23542669D01*
X18388670Y23539763D01*
X18399434Y23536279D01*
X18407379Y23532167D01*
X18414241Y23527375D01*
X18439674Y23507035D01*
X18467754Y23476704D01*
X18484539Y23442145D01*
X18492672Y23397049D01*
X18494795Y23335106D01*
X18493976Y23292927D01*
X18488270Y23242505D01*
X18474842Y23204870D01*
X18451051Y23173714D01*
X18414258Y23142731D01*
X18410002Y23139667D01*
X18401272Y23134565D01*
X18389946Y23130314D01*
X18373942Y23126806D01*
X18351181Y23123936D01*
X18319582Y23121596D01*
X18277065Y23119682D01*
X18221551Y23118086D01*
X18150958Y23116702D01*
X18063208Y23115423D01*
X17956219Y23114145D01*
X17827912Y23112759D01*
X17765398Y23112093D01*
X17647226Y23110766D01*
X17549407Y23109493D01*
X17469862Y23108169D01*
X17406515Y23106688D01*
X17357286Y23104947D01*
X17320098Y23102840D01*
X17292873Y23100261D01*
X17273531Y23097107D01*
X17259996Y23093270D01*
X17250189Y23088648D01*
X17242031Y23083133D01*
X17240519Y23082001D01*
X17219568Y23065121D01*
X17203012Y23047605D01*
X17190335Y23026607D01*
X17181022Y22999282D01*
X17174557Y22962784D01*
X17170426Y22914270D01*
X17168113Y22850893D01*
X17167104Y22769808D01*
X17166882Y22668171D01*
X17166994Y22579590D01*
X17167480Y22503994D01*
X17168525Y22446064D01*
X17170311Y22402829D01*
X17173022Y22371315D01*
X17176842Y22348549D01*
X17181955Y22331560D01*
X17188543Y22317375D01*
X17208345Y22285383D01*
X17234753Y22258504D01*
X17269359Y22240862D01*
X17317203Y22230031D01*
X17383326Y22223584D01*
X17434754Y22219142D01*
X17484825Y22210213D01*
X17522033Y22195295D01*
X17552286Y22171813D01*
X17581497Y22137188D01*
X17586567Y22129978D01*
X17592585Y22118580D01*
X17597185Y22103553D01*
X17600554Y22082072D01*
X17602885Y22051313D01*
X17604367Y22008453D01*
X17605189Y21950665D01*
X17605544Y21875127D01*
X17605619Y21779014D01*
X17605588Y21710508D01*
X17605341Y21628862D01*
X17604685Y21565846D01*
X17603429Y21518637D01*
X17601383Y21484408D01*
X17598357Y21460337D01*
X17594161Y21443599D01*
X17588604Y21431368D01*
X17581497Y21420822D01*
X17559398Y21393593D01*
X17529569Y21367147D01*
X17494352Y21350269D01*
X17447766Y21340356D01*
X17383829Y21334805D01*
X17339366Y21331664D01*
X17294895Y21325877D01*
X17264281Y21317304D01*
X17242020Y21304782D01*
X17233282Y21297864D01*
X17195614Y21253498D01*
X17173870Y21195769D01*
X17166882Y21121833D01*
X17166876Y21119119D01*
X17160323Y21042188D01*
X17140512Y20982724D01*
X17106098Y20938113D01*
X17055735Y20905739D01*
X17042584Y20900852D01*
X16997914Y20892880D01*
X16944177Y20891250D01*
X16889379Y20895506D01*
X16841528Y20905189D01*
X16808629Y20919843D01*
X16781966Y20941547D01*
X16756542Y20970476D01*
X16739985Y21005057D01*
X16729703Y21051196D01*
X16723105Y21114802D01*
X16718829Y21161957D01*
X16711973Y21206358D01*
X16702309Y21237881D01*
X16688449Y21262449D01*
X16668358Y21287471D01*
X16643219Y21307913D01*
X16610929Y21321171D01*
X16566076Y21329352D01*
X16503250Y21334563D01*
X16459032Y21338043D01*
X16407363Y21346595D01*
X16368958Y21361457D01*
X16337751Y21385304D01*
X16307678Y21420812D01*
X16306965Y21421774D01*
X16295083Y21442046D01*
X16287950Y21467183D01*
X16284472Y21503347D01*
X16283556Y21556702D01*
X16283558Y21559766D01*
X16284572Y21612149D01*
X16288201Y21647639D01*
X16295539Y21672399D01*
X16307678Y21692592D01*
X16330439Y21720499D01*
X16359941Y21746263D01*
X16395071Y21762883D01*
X16441737Y21772935D01*
X16505850Y21778996D01*
X16563438Y21784268D01*
X16613676Y21794295D01*
X16649928Y21810773D01*
X16677234Y21836128D01*
X16700632Y21872787D01*
X16706799Y21885897D01*
X16712011Y21902586D01*
X16715918Y21924838D01*
X16718703Y21955626D01*
X16720549Y21997921D01*
X16721641Y22054698D01*
X16722161Y22128928D01*
X16722294Y22223584D01*
X16722181Y22312165D01*
X16721695Y22387761D01*
X16720650Y22445691D01*
X16718864Y22488926D01*
X16716153Y22520440D01*
X16712333Y22543205D01*
X16707221Y22560195D01*
X16700632Y22574380D01*
X16681738Y22605170D01*
X16654828Y22633283D01*
X16619834Y22651593D01*
X16571694Y22662541D01*
X16505347Y22668569D01*
X16456171Y22672357D01*
X16405639Y22680880D01*
X16368034Y22695688D01*
X16337375Y22719386D01*
X16307678Y22754575D01*
X16306965Y22755537D01*
X16295083Y22775809D01*
X16287950Y22800946D01*
X16284472Y22837111D01*
X16283556Y22890465D01*
X16283558Y22893529D01*
X16284572Y22945912D01*
X16288201Y22981402D01*
X16295539Y23006162D01*
X16307678Y23026355D01*
X16327678Y23051172D01*
X16357553Y23078349D01*
X16392675Y23095888D01*
X16439077Y23106460D01*
X16502789Y23112736D01*
X16561289Y23117793D01*
X16607495Y23125699D01*
X16640533Y23138109D01*
X16665740Y23157093D01*
X16688449Y23184718D01*
X16699628Y23203407D01*
X16710108Y23232864D01*
X16717470Y23273877D01*
X16723105Y23332365D01*
X16727859Y23382342D01*
X16737005Y23432177D01*
X16751797Y23469021D01*
X16774830Y23498783D01*
X16808697Y23527375D01*
X16814557Y23531528D01*
X16822242Y23535734D01*
X16832499Y23539303D01*
X16847064Y23542289D01*
X16867673Y23544742D01*
X16896060Y23546716D01*
X16933961Y23548263D01*
X16983113Y23549434D01*
X17045250Y23550281D01*
X17122109Y23550858D01*
X17215425Y23551216D01*
X17326933Y23551407D01*
X17458369Y23551483D01*
X17611469Y23551497D01*
X17744147Y23551488D01*
G37*
G36*
X12985651Y17771032D02*
G01*
X13035983Y17765320D01*
X13073550Y17751891D01*
X13104660Y17728102D01*
X13135620Y17691311D01*
X13140689Y17684100D01*
X13146708Y17672703D01*
X13151307Y17657675D01*
X13154677Y17636195D01*
X13157008Y17605436D01*
X13158489Y17562575D01*
X13159312Y17504788D01*
X13159666Y17429250D01*
X13159742Y17333137D01*
X13159711Y17264631D01*
X13159464Y17182985D01*
X13158807Y17119969D01*
X13157551Y17072759D01*
X13155505Y17038531D01*
X13152479Y17014460D01*
X13148283Y16997721D01*
X13142727Y16985491D01*
X13135620Y16974944D01*
X13115635Y16950106D01*
X13085500Y16922578D01*
X13050233Y16904948D01*
X13003770Y16894542D01*
X12940047Y16888685D01*
X12884167Y16884268D01*
X12837345Y16876594D01*
X12803756Y16864104D01*
X12777976Y16844678D01*
X12754583Y16816197D01*
X12742517Y16795928D01*
X12732524Y16767085D01*
X12725773Y16727078D01*
X12720853Y16669792D01*
X12716970Y16623876D01*
X12708195Y16572584D01*
X12693380Y16534549D01*
X12669901Y16503787D01*
X12635133Y16474312D01*
X12619612Y16464820D01*
X12591764Y16455278D01*
X12551511Y16448839D01*
X12493363Y16444340D01*
X12439207Y16439897D01*
X12387681Y16430179D01*
X12350358Y16413609D01*
X12322177Y16387747D01*
X12298078Y16350151D01*
X12292746Y16339093D01*
X12287258Y16322722D01*
X12283143Y16301147D01*
X12280208Y16271335D01*
X12278260Y16230254D01*
X12277107Y16174872D01*
X12276557Y16102156D01*
X12276416Y16009074D01*
X12276377Y15980401D01*
X12275597Y15885562D01*
X12273883Y15805491D01*
X12271314Y15742345D01*
X12267972Y15698280D01*
X12263937Y15675451D01*
X12253780Y15653725D01*
X12215638Y15605255D01*
X12165269Y15571001D01*
X12157881Y15568272D01*
X12136765Y15563878D01*
X12104777Y15560674D01*
X12059414Y15558566D01*
X11998171Y15557459D01*
X11918546Y15557258D01*
X11818035Y15557868D01*
X11777395Y15558238D01*
X11692052Y15559182D01*
X11626039Y15560351D01*
X11576458Y15561970D01*
X11540412Y15564266D01*
X11515003Y15567465D01*
X11497333Y15571793D01*
X11484503Y15577476D01*
X11473618Y15584739D01*
X11445070Y15609935D01*
X11417213Y15641171D01*
X11412144Y15648382D01*
X11406125Y15659782D01*
X11401526Y15674811D01*
X11398156Y15696294D01*
X11395825Y15727053D01*
X11394343Y15769915D01*
X11393521Y15827703D01*
X11393166Y15903242D01*
X11393091Y15999355D01*
X11393122Y16067875D01*
X11393369Y16149518D01*
X11394026Y16212531D01*
X11395282Y16259738D01*
X11397327Y16293964D01*
X11400353Y16318033D01*
X11404549Y16334769D01*
X11410106Y16346996D01*
X11417213Y16357539D01*
X11439974Y16385446D01*
X11469476Y16411210D01*
X11504605Y16427830D01*
X11551272Y16437882D01*
X11615385Y16443943D01*
X11672973Y16449215D01*
X11723211Y16459242D01*
X11759463Y16475720D01*
X11786768Y16501075D01*
X11810167Y16537734D01*
X11823669Y16576370D01*
X11831591Y16632513D01*
X11831980Y16693701D01*
X11824838Y16750909D01*
X11810165Y16795116D01*
X11803610Y16806809D01*
X11773242Y16845827D01*
X11734425Y16871002D01*
X11682567Y16884511D01*
X11613073Y16888531D01*
X11545011Y16885258D01*
X11485822Y16872148D01*
X11443070Y16846597D01*
X11414122Y16806055D01*
X11396340Y16747970D01*
X11387090Y16669792D01*
X11383133Y16623176D01*
X11374320Y16572132D01*
X11359428Y16534242D01*
X11335815Y16503504D01*
X11300837Y16473915D01*
X11299875Y16473202D01*
X11279603Y16461319D01*
X11254466Y16454186D01*
X11218302Y16450709D01*
X11164947Y16449793D01*
X11122593Y16450617D01*
X11072258Y16456330D01*
X11034690Y16469761D01*
X11003581Y16493552D01*
X10972625Y16530346D01*
X10967556Y16537558D01*
X10961537Y16548958D01*
X10956938Y16563987D01*
X10953568Y16585469D01*
X10951237Y16616229D01*
X10949756Y16659091D01*
X10948933Y16716879D01*
X10948579Y16792417D01*
X10948503Y16888531D01*
X10948534Y16957050D01*
X10948781Y17038693D01*
X10949438Y17101706D01*
X10950694Y17148914D01*
X10952740Y17183140D01*
X10955766Y17207208D01*
X10959962Y17223944D01*
X10965518Y17236172D01*
X10972625Y17246715D01*
X10992625Y17271532D01*
X11022500Y17298708D01*
X11057622Y17316247D01*
X11104024Y17326819D01*
X11167736Y17333096D01*
X11226236Y17338153D01*
X11272442Y17346058D01*
X11305480Y17358468D01*
X11330687Y17377452D01*
X11353396Y17405077D01*
X11364575Y17423766D01*
X11375055Y17453224D01*
X11382417Y17494236D01*
X11388052Y17552724D01*
X11392806Y17602702D01*
X11401952Y17652536D01*
X11416744Y17689380D01*
X11439777Y17719143D01*
X11473644Y17747734D01*
X11474607Y17748447D01*
X11494879Y17760329D01*
X11520016Y17767463D01*
X11556180Y17770940D01*
X11609535Y17771856D01*
X11612599Y17771854D01*
X11664981Y17770840D01*
X11700471Y17767211D01*
X11725232Y17759874D01*
X11745425Y17747734D01*
X11772159Y17725972D01*
X11797585Y17697038D01*
X11814141Y17662458D01*
X11824421Y17616323D01*
X11831017Y17552724D01*
X11834573Y17515336D01*
X11846327Y17451322D01*
X11865352Y17404795D01*
X11893504Y17372040D01*
X11932639Y17349344D01*
X11944034Y17346167D01*
X11980699Y17341196D01*
X12034469Y17337277D01*
X12101296Y17334410D01*
X12177132Y17332595D01*
X12257929Y17331832D01*
X12339638Y17332120D01*
X12418212Y17333461D01*
X12489603Y17335854D01*
X12549762Y17339299D01*
X12594641Y17343795D01*
X12620193Y17349344D01*
X12640168Y17359048D01*
X12673883Y17386033D01*
X12697492Y17424832D01*
X12712851Y17479157D01*
X12721815Y17552724D01*
X12726569Y17602702D01*
X12735715Y17652536D01*
X12750508Y17689380D01*
X12773541Y17719143D01*
X12807408Y17747734D01*
X12808370Y17748447D01*
X12828642Y17760329D01*
X12853779Y17767463D01*
X12889943Y17770940D01*
X12943298Y17771856D01*
X12985651Y17771032D01*
G37*
G36*
X22056523Y13807615D02*
G01*
X22056241Y13666014D01*
X22055797Y13529221D01*
X22055192Y13399301D01*
X22054424Y13278319D01*
X22053495Y13168342D01*
X22052403Y13071435D01*
X22051148Y12989664D01*
X22049731Y12925095D01*
X22048151Y12879792D01*
X22046407Y12855823D01*
X22045685Y12851004D01*
X22019827Y12753106D01*
X21975458Y12664401D01*
X21915160Y12587594D01*
X21841515Y12525390D01*
X21757103Y12480494D01*
X21664506Y12455611D01*
X21648868Y12454253D01*
X21608582Y12452523D01*
X21548451Y12450956D01*
X21470532Y12449554D01*
X21376886Y12448316D01*
X21269571Y12447244D01*
X21150646Y12446338D01*
X21022169Y12445598D01*
X20886200Y12445026D01*
X20744797Y12444622D01*
X20600020Y12444386D01*
X20453926Y12444319D01*
X20308575Y12444422D01*
X20166026Y12444696D01*
X20028338Y12445140D01*
X19897569Y12445756D01*
X19775778Y12446544D01*
X19665024Y12447505D01*
X19567366Y12448639D01*
X19484863Y12449948D01*
X19419574Y12451431D01*
X19373557Y12453089D01*
X19348871Y12454923D01*
X19343737Y12455687D01*
X19250650Y12479578D01*
X19167404Y12522203D01*
X19089388Y12585891D01*
X19087891Y12587357D01*
X19026019Y12664338D01*
X18981501Y12755068D01*
X18956172Y12855823D01*
X18955014Y12868963D01*
X18953378Y12907104D01*
X18951904Y12965229D01*
X18950593Y13041271D01*
X18949445Y13133166D01*
X18948459Y13238846D01*
X18947635Y13356247D01*
X18946973Y13483303D01*
X18946474Y13617947D01*
X18946136Y13758115D01*
X18945959Y13901741D01*
X18945950Y13991060D01*
X19389820Y13991060D01*
X19389866Y13830152D01*
X19390020Y13690864D01*
X19390320Y13571509D01*
X19390802Y13470400D01*
X19391504Y13385847D01*
X19392461Y13316164D01*
X19393712Y13259662D01*
X19395292Y13214654D01*
X19397239Y13179452D01*
X19399590Y13152368D01*
X19402381Y13131713D01*
X19405649Y13115801D01*
X19409432Y13102943D01*
X19412967Y13093445D01*
X19445406Y13036110D01*
X19492793Y12981418D01*
X19548406Y12936092D01*
X19605523Y12906853D01*
X19606882Y12906396D01*
X19619932Y12902685D01*
X19636159Y12899486D01*
X19657248Y12896765D01*
X19684885Y12894488D01*
X19720754Y12892618D01*
X19766541Y12891122D01*
X19823930Y12889965D01*
X19894608Y12889110D01*
X19980259Y12888524D01*
X20082568Y12888172D01*
X20203221Y12888017D01*
X20343903Y12888027D01*
X20506299Y12888164D01*
X20525554Y12888185D01*
X20690284Y12888330D01*
X20833470Y12888512D01*
X20956789Y12888894D01*
X21061914Y12889636D01*
X21150520Y12890901D01*
X21224282Y12892851D01*
X21284874Y12895649D01*
X21333971Y12899456D01*
X21373247Y12904435D01*
X21404376Y12910747D01*
X21429034Y12918555D01*
X21448895Y12928021D01*
X21465633Y12939307D01*
X21480923Y12952575D01*
X21496439Y12967988D01*
X21513856Y12985706D01*
X21515777Y12987622D01*
X21533641Y13005195D01*
X21549170Y13021050D01*
X21562527Y13036862D01*
X21573875Y13054305D01*
X21583377Y13075054D01*
X21591197Y13100782D01*
X21597497Y13133166D01*
X21602441Y13173878D01*
X21606192Y13224594D01*
X21608914Y13286988D01*
X21610769Y13362734D01*
X21611921Y13453507D01*
X21612532Y13560981D01*
X21612767Y13686831D01*
X21612788Y13832731D01*
X21612759Y14000355D01*
X21612759Y14022402D01*
X21612733Y14180137D01*
X21612632Y14316410D01*
X21612412Y14432939D01*
X21612028Y14531441D01*
X21611436Y14613631D01*
X21610593Y14681225D01*
X21609452Y14735942D01*
X21607971Y14779497D01*
X21606104Y14813606D01*
X21603807Y14839986D01*
X21601036Y14860354D01*
X21597747Y14876426D01*
X21593895Y14889919D01*
X21589435Y14902548D01*
X21554346Y14967704D01*
X21498095Y15028441D01*
X21425564Y15077006D01*
X21372916Y15104330D01*
X20501290Y15104330D01*
X19629664Y15104330D01*
X19577015Y15077006D01*
X19508262Y15031611D01*
X19450979Y14971480D01*
X19413144Y14902548D01*
X19412532Y14900904D01*
X19408153Y14888259D01*
X19404376Y14874530D01*
X19401157Y14857999D01*
X19398450Y14836951D01*
X19396211Y14809668D01*
X19394396Y14774434D01*
X19392961Y14729533D01*
X19391862Y14673248D01*
X19391053Y14603863D01*
X19390491Y14519661D01*
X19390131Y14418926D01*
X19389929Y14299941D01*
X19389840Y14160990D01*
X19389820Y14000355D01*
X19389820Y13991060D01*
X18945950Y13991060D01*
X18945944Y14046758D01*
X18946090Y14191102D01*
X18946396Y14332705D01*
X18946864Y14469504D01*
X18947492Y14599431D01*
X18948281Y14720421D01*
X18949230Y14830409D01*
X18950339Y14927329D01*
X18951607Y15009114D01*
X18953036Y15073700D01*
X18954624Y15119020D01*
X18956371Y15143009D01*
X18962088Y15175186D01*
X18994082Y15273838D01*
X19044962Y15361233D01*
X19112674Y15434978D01*
X19195162Y15492683D01*
X19290374Y15531954D01*
X19299660Y15533643D01*
X19333870Y15536577D01*
X19388422Y15539240D01*
X19461326Y15541629D01*
X19550594Y15543747D01*
X19654239Y15545592D01*
X19770273Y15547164D01*
X19896707Y15548463D01*
X20031553Y15549489D01*
X20172823Y15550243D01*
X20318529Y15550723D01*
X20466682Y15550930D01*
X20615296Y15550864D01*
X20762381Y15550525D01*
X20905949Y15549912D01*
X21044013Y15549025D01*
X21174584Y15547865D01*
X21295674Y15546431D01*
X21405295Y15544723D01*
X21501458Y15542741D01*
X21582177Y15540486D01*
X21645462Y15537956D01*
X21689326Y15535151D01*
X21711780Y15532073D01*
X21740923Y15522633D01*
X21833519Y15477636D01*
X21912172Y15415051D01*
X21975056Y15337001D01*
X22020343Y15245612D01*
X22046208Y15143009D01*
X22047367Y15129856D01*
X22049011Y15091696D01*
X22050495Y15033555D01*
X22051819Y14957497D01*
X22052983Y14865590D01*
X22053988Y14759898D01*
X22054832Y14642488D01*
X22055516Y14515424D01*
X22056039Y14380774D01*
X22056402Y14240602D01*
X22056603Y14096974D01*
X22056644Y13951957D01*
X22056544Y13832731D01*
X22056523Y13807615D01*
G37*
G36*
X22056523Y21810194D02*
G01*
X22056241Y21668594D01*
X22055797Y21531801D01*
X22055192Y21401880D01*
X22054424Y21280899D01*
X22053495Y21170922D01*
X22052403Y21074015D01*
X22051148Y20992244D01*
X22049731Y20927674D01*
X22048151Y20882372D01*
X22046407Y20858403D01*
X22045685Y20853583D01*
X22019827Y20755685D01*
X21975458Y20666980D01*
X21915160Y20590173D01*
X21841515Y20527969D01*
X21757103Y20483073D01*
X21664506Y20458191D01*
X21648868Y20456833D01*
X21608582Y20455103D01*
X21548451Y20453536D01*
X21470532Y20452133D01*
X21376886Y20450896D01*
X21269571Y20449824D01*
X21150646Y20448917D01*
X21022169Y20448178D01*
X20886200Y20447606D01*
X20744797Y20447201D01*
X20600020Y20446966D01*
X20453926Y20446899D01*
X20308575Y20447002D01*
X20166026Y20447275D01*
X20028338Y20447720D01*
X19897569Y20448336D01*
X19775778Y20449124D01*
X19665024Y20450085D01*
X19567366Y20451219D01*
X19484863Y20452527D01*
X19419574Y20454010D01*
X19373557Y20455668D01*
X19348871Y20457502D01*
X19343737Y20458267D01*
X19250650Y20482157D01*
X19167404Y20524782D01*
X19089388Y20588471D01*
X19087891Y20589937D01*
X19026019Y20666918D01*
X18981501Y20757647D01*
X18956172Y20858403D01*
X18955014Y20871542D01*
X18953378Y20909684D01*
X18951904Y20967808D01*
X18950593Y21043851D01*
X18949445Y21135745D01*
X18948459Y21241426D01*
X18947635Y21358827D01*
X18946973Y21485882D01*
X18946474Y21620527D01*
X18946136Y21760695D01*
X18945959Y21904320D01*
X18945950Y21993639D01*
X19389820Y21993639D01*
X19389866Y21832731D01*
X19390020Y21693444D01*
X19390320Y21574089D01*
X19390802Y21472979D01*
X19391504Y21388427D01*
X19392461Y21318744D01*
X19393712Y21262242D01*
X19395292Y21217234D01*
X19397239Y21182031D01*
X19399590Y21154947D01*
X19402381Y21134293D01*
X19405649Y21118381D01*
X19409432Y21105523D01*
X19412967Y21096025D01*
X19445406Y21038690D01*
X19492793Y20983998D01*
X19548406Y20938671D01*
X19605523Y20909432D01*
X19606882Y20908976D01*
X19619932Y20905264D01*
X19636159Y20902065D01*
X19657248Y20899345D01*
X19684885Y20897067D01*
X19720754Y20895198D01*
X19766541Y20893702D01*
X19823930Y20892544D01*
X19894608Y20891690D01*
X19980259Y20891104D01*
X20082568Y20890751D01*
X20203221Y20890597D01*
X20343903Y20890606D01*
X20506299Y20890744D01*
X20525554Y20890764D01*
X20690284Y20890910D01*
X20833470Y20891092D01*
X20956789Y20891473D01*
X21061914Y20892215D01*
X21150520Y20893480D01*
X21224282Y20895431D01*
X21284874Y20898228D01*
X21333971Y20902035D01*
X21373247Y20907014D01*
X21404376Y20913326D01*
X21429034Y20921135D01*
X21448895Y20930601D01*
X21465633Y20941887D01*
X21480923Y20955155D01*
X21496439Y20970567D01*
X21513856Y20988286D01*
X21515777Y20990202D01*
X21533641Y21007774D01*
X21549170Y21023629D01*
X21562527Y21039441D01*
X21573875Y21056884D01*
X21583377Y21077633D01*
X21591197Y21103362D01*
X21597497Y21135745D01*
X21602441Y21176458D01*
X21606192Y21227173D01*
X21608914Y21289567D01*
X21610769Y21365313D01*
X21611921Y21456086D01*
X21612532Y21563560D01*
X21612767Y21689410D01*
X21612788Y21835310D01*
X21612759Y22002935D01*
X21612759Y22024981D01*
X21612733Y22182716D01*
X21612632Y22318990D01*
X21612412Y22435519D01*
X21612028Y22534020D01*
X21611436Y22616210D01*
X21610593Y22683805D01*
X21609452Y22738521D01*
X21607971Y22782076D01*
X21606104Y22816185D01*
X21603807Y22842566D01*
X21601036Y22862933D01*
X21597747Y22879005D01*
X21593895Y22892498D01*
X21589435Y22905128D01*
X21554346Y22970284D01*
X21498095Y23031021D01*
X21425564Y23079585D01*
X21372916Y23106909D01*
X20501290Y23106909D01*
X19629664Y23106909D01*
X19577015Y23079585D01*
X19508262Y23034190D01*
X19450979Y22974059D01*
X19413144Y22905128D01*
X19412532Y22903483D01*
X19408153Y22890839D01*
X19404376Y22877109D01*
X19401157Y22860579D01*
X19398450Y22839530D01*
X19396211Y22812247D01*
X19394396Y22777014D01*
X19392961Y22732113D01*
X19391862Y22675828D01*
X19391053Y22606443D01*
X19390491Y22522241D01*
X19390131Y22421506D01*
X19389929Y22302521D01*
X19389840Y22163569D01*
X19389820Y22002935D01*
X19389820Y21993639D01*
X18945950Y21993639D01*
X18945944Y22049338D01*
X18946090Y22193681D01*
X18946396Y22335285D01*
X18946864Y22472083D01*
X18947492Y22602010D01*
X18948281Y22723001D01*
X18949230Y22832989D01*
X18950339Y22929908D01*
X18951607Y23011694D01*
X18953036Y23076279D01*
X18954624Y23121600D01*
X18956371Y23145589D01*
X18962088Y23177765D01*
X18994082Y23276417D01*
X19044962Y23363812D01*
X19112674Y23437558D01*
X19195162Y23495262D01*
X19290374Y23534533D01*
X19299660Y23536222D01*
X19333870Y23539157D01*
X19388422Y23541819D01*
X19461326Y23544209D01*
X19550594Y23546326D01*
X19654239Y23548171D01*
X19770273Y23549743D01*
X19896707Y23551042D01*
X20031553Y23552069D01*
X20172823Y23552822D01*
X20318529Y23553303D01*
X20466682Y23553510D01*
X20615296Y23553444D01*
X20762381Y23553104D01*
X20905949Y23552491D01*
X21044013Y23551605D01*
X21174584Y23550444D01*
X21295674Y23549011D01*
X21405295Y23547303D01*
X21501458Y23545321D01*
X21582177Y23543065D01*
X21645462Y23540535D01*
X21689326Y23537731D01*
X21711780Y23534652D01*
X21740923Y23525213D01*
X21833519Y23480216D01*
X21912172Y23417630D01*
X21975056Y23339580D01*
X22020343Y23248192D01*
X22046208Y23145589D01*
X22047367Y23132436D01*
X22049011Y23094276D01*
X22050495Y23036134D01*
X22051819Y22960077D01*
X22052983Y22868169D01*
X22053988Y22762478D01*
X22054832Y22645067D01*
X22055516Y22518004D01*
X22056039Y22383353D01*
X22056402Y22243181D01*
X22056603Y22099554D01*
X22056644Y21954536D01*
X22056544Y21835310D01*
X22056523Y21810194D01*
G37*
G36*
X14053944Y21810194D02*
G01*
X14053662Y21668594D01*
X14053218Y21531801D01*
X14052612Y21401880D01*
X14051845Y21280899D01*
X14050915Y21170922D01*
X14049823Y21074015D01*
X14048569Y20992244D01*
X14047151Y20927674D01*
X14045571Y20882372D01*
X14043828Y20858403D01*
X14043106Y20853583D01*
X14017248Y20755685D01*
X13972879Y20666980D01*
X13912581Y20590173D01*
X13838936Y20527969D01*
X13754524Y20483073D01*
X13661927Y20458191D01*
X13646288Y20456833D01*
X13606002Y20455103D01*
X13545871Y20453536D01*
X13467953Y20452133D01*
X13374307Y20450896D01*
X13266992Y20449824D01*
X13148067Y20448917D01*
X13019590Y20448178D01*
X12883621Y20447606D01*
X12742218Y20447201D01*
X12597440Y20446966D01*
X12451347Y20446899D01*
X12305996Y20447002D01*
X12163447Y20447275D01*
X12025758Y20447720D01*
X11894989Y20448336D01*
X11773198Y20449124D01*
X11662445Y20450085D01*
X11564787Y20451219D01*
X11482284Y20452527D01*
X11416994Y20454010D01*
X11370977Y20455668D01*
X11346292Y20457502D01*
X11341157Y20458267D01*
X11248070Y20482157D01*
X11164825Y20524782D01*
X11086808Y20588471D01*
X11085312Y20589937D01*
X11023440Y20666918D01*
X10978921Y20757647D01*
X10953592Y20858403D01*
X10952435Y20871542D01*
X10950798Y20909684D01*
X10949325Y20967808D01*
X10948014Y21043851D01*
X10946865Y21135745D01*
X10945879Y21241426D01*
X10945056Y21358827D01*
X10944394Y21485882D01*
X10943894Y21620527D01*
X10943556Y21760695D01*
X10943379Y21904320D01*
X10943370Y21993639D01*
X11387241Y21993639D01*
X11387287Y21832731D01*
X11387441Y21693444D01*
X11387741Y21574089D01*
X11388223Y21472979D01*
X11388924Y21388427D01*
X11389882Y21318744D01*
X11391132Y21262242D01*
X11392712Y21217234D01*
X11394659Y21182031D01*
X11397010Y21154947D01*
X11399801Y21134293D01*
X11403070Y21118381D01*
X11406853Y21105523D01*
X11410388Y21096025D01*
X11442827Y21038690D01*
X11490214Y20983998D01*
X11545827Y20938671D01*
X11602943Y20909432D01*
X11604302Y20908976D01*
X11617352Y20905264D01*
X11633580Y20902065D01*
X11654669Y20899345D01*
X11682305Y20897067D01*
X11718174Y20895198D01*
X11763961Y20893702D01*
X11821351Y20892544D01*
X11892029Y20891690D01*
X11977679Y20891104D01*
X12079989Y20890751D01*
X12200642Y20890597D01*
X12341324Y20890606D01*
X12503719Y20890744D01*
X12522975Y20890764D01*
X12687704Y20890910D01*
X12830891Y20891092D01*
X12954209Y20891473D01*
X13059335Y20892215D01*
X13147941Y20893480D01*
X13221703Y20895431D01*
X13282295Y20898228D01*
X13331391Y20902035D01*
X13370667Y20907014D01*
X13401797Y20913326D01*
X13426455Y20921135D01*
X13446315Y20930601D01*
X13463053Y20941887D01*
X13478343Y20955155D01*
X13493859Y20970567D01*
X13511277Y20988286D01*
X13513197Y20990202D01*
X13531062Y21007774D01*
X13546591Y21023629D01*
X13559948Y21039441D01*
X13571296Y21056884D01*
X13580798Y21077633D01*
X13588618Y21103362D01*
X13594918Y21135745D01*
X13599862Y21176458D01*
X13603613Y21227173D01*
X13606334Y21289567D01*
X13608189Y21365313D01*
X13609341Y21456086D01*
X13609953Y21563560D01*
X13610188Y21689410D01*
X13610209Y21835310D01*
X13610180Y22002935D01*
X13610179Y22024981D01*
X13610153Y22182716D01*
X13610052Y22318990D01*
X13609832Y22435519D01*
X13609449Y22534020D01*
X13608857Y22616210D01*
X13608013Y22683805D01*
X13606873Y22738521D01*
X13605391Y22782076D01*
X13603524Y22816185D01*
X13601228Y22842566D01*
X13598457Y22862933D01*
X13595167Y22879005D01*
X13591315Y22892498D01*
X13586855Y22905128D01*
X13551767Y22970284D01*
X13495516Y23031021D01*
X13422985Y23079585D01*
X13370336Y23106909D01*
X12498710Y23106909D01*
X11627084Y23106909D01*
X11574436Y23079585D01*
X11505682Y23034190D01*
X11448400Y22974059D01*
X11410565Y22905128D01*
X11409953Y22903483D01*
X11405574Y22890839D01*
X11401797Y22877109D01*
X11398577Y22860579D01*
X11395870Y22839530D01*
X11393631Y22812247D01*
X11391817Y22777014D01*
X11390382Y22732113D01*
X11389282Y22675828D01*
X11388474Y22606443D01*
X11387911Y22522241D01*
X11387551Y22421506D01*
X11387349Y22302521D01*
X11387261Y22163569D01*
X11387241Y22002935D01*
X11387241Y21993639D01*
X10943370Y21993639D01*
X10943364Y22049338D01*
X10943510Y22193681D01*
X10943817Y22335285D01*
X10944285Y22472083D01*
X10944913Y22602010D01*
X10945701Y22723001D01*
X10946650Y22832989D01*
X10947759Y22929908D01*
X10949028Y23011694D01*
X10950457Y23076279D01*
X10952045Y23121600D01*
X10953792Y23145589D01*
X10959509Y23177765D01*
X10991503Y23276417D01*
X11042383Y23363812D01*
X11110094Y23437558D01*
X11192583Y23495262D01*
X11287795Y23534533D01*
X11297081Y23536222D01*
X11331291Y23539157D01*
X11385842Y23541819D01*
X11458746Y23544209D01*
X11548015Y23546326D01*
X11651660Y23548171D01*
X11767694Y23549743D01*
X11894127Y23551042D01*
X12028973Y23552069D01*
X12170243Y23552822D01*
X12315949Y23553303D01*
X12464103Y23553510D01*
X12612716Y23553444D01*
X12759801Y23553104D01*
X12903370Y23552491D01*
X13041433Y23551605D01*
X13172004Y23550444D01*
X13293094Y23549011D01*
X13402715Y23547303D01*
X13498879Y23545321D01*
X13579598Y23543065D01*
X13642883Y23540535D01*
X13686746Y23537731D01*
X13709200Y23534652D01*
X13738344Y23525213D01*
X13830940Y23480216D01*
X13909593Y23417630D01*
X13972476Y23339580D01*
X14017763Y23248192D01*
X14043628Y23145589D01*
X14044788Y23132436D01*
X14046431Y23094276D01*
X14047915Y23036134D01*
X14049239Y22960077D01*
X14050404Y22868169D01*
X14051408Y22762478D01*
X14052252Y22645067D01*
X14052936Y22518004D01*
X14053460Y22383353D01*
X14053822Y22243181D01*
X14054024Y22099554D01*
X14054064Y21954536D01*
X14053965Y21835310D01*
X14053944Y21810194D01*
G37*
G36*
X12643792Y19550202D02*
G01*
X12801024Y19550163D01*
X12937611Y19550055D01*
X13055068Y19549841D01*
X13154910Y19549486D01*
X13238650Y19548955D01*
X13307805Y19548211D01*
X13363889Y19547220D01*
X13408417Y19545944D01*
X13442903Y19544350D01*
X13468862Y19542401D01*
X13487810Y19540061D01*
X13501260Y19537296D01*
X13510728Y19534068D01*
X13517728Y19530343D01*
X13523776Y19526085D01*
X13549209Y19505745D01*
X13577289Y19475415D01*
X13594074Y19440856D01*
X13602206Y19395759D01*
X13604330Y19333816D01*
X13604328Y19330883D01*
X13603316Y19278455D01*
X13599688Y19242928D01*
X13592350Y19218137D01*
X13580207Y19197913D01*
X13558118Y19170673D01*
X13528296Y19144220D01*
X13493078Y19127336D01*
X13446486Y19117419D01*
X13382539Y19111867D01*
X13328383Y19107424D01*
X13276856Y19097705D01*
X13239533Y19081136D01*
X13211352Y19055273D01*
X13187253Y19017678D01*
X13173726Y18978940D01*
X13165816Y18922801D01*
X13165434Y18861679D01*
X13172580Y18804621D01*
X13187253Y18760673D01*
X13197367Y18742120D01*
X13210298Y18721629D01*
X13224991Y18705590D01*
X13244150Y18693394D01*
X13270480Y18684434D01*
X13306683Y18678101D01*
X13355466Y18673788D01*
X13419532Y18670885D01*
X13501585Y18668786D01*
X13604330Y18666882D01*
X13682336Y18665487D01*
X13767793Y18663623D01*
X13834804Y18661219D01*
X13886196Y18657695D01*
X13924793Y18652470D01*
X13953424Y18644963D01*
X13974913Y18634594D01*
X13992087Y18620782D01*
X14007772Y18602947D01*
X14024795Y18580508D01*
X14025592Y18579433D01*
X14032888Y18568098D01*
X14038553Y18554369D01*
X14042844Y18535246D01*
X14046014Y18507730D01*
X14048320Y18468817D01*
X14050018Y18415508D01*
X14051361Y18344803D01*
X14052607Y18253699D01*
X14053220Y18191450D01*
X14053505Y18112717D01*
X14053210Y18042672D01*
X14052371Y17984991D01*
X14051028Y17943351D01*
X14049216Y17921431D01*
X14045953Y17908675D01*
X14022775Y17863356D01*
X13986482Y17822205D01*
X13944200Y17793881D01*
X13937289Y17791343D01*
X13916123Y17786911D01*
X13884016Y17783675D01*
X13838478Y17781540D01*
X13777020Y17780412D01*
X13697153Y17780199D01*
X13596386Y17780807D01*
X13555746Y17781176D01*
X13470403Y17782121D01*
X13404390Y17783289D01*
X13354809Y17784909D01*
X13318763Y17787205D01*
X13293354Y17790404D01*
X13275684Y17794732D01*
X13262854Y17800414D01*
X13251969Y17807678D01*
X13225248Y17829445D01*
X13199826Y17858387D01*
X13183274Y17892966D01*
X13172998Y17939096D01*
X13166403Y18002688D01*
X13163540Y18034174D01*
X13152728Y18098440D01*
X13135118Y18145527D01*
X13108748Y18179624D01*
X13071653Y18204921D01*
X13069461Y18205775D01*
X13045648Y18209544D01*
X13001391Y18212889D01*
X12939127Y18215811D01*
X12861290Y18218308D01*
X12770316Y18220382D01*
X12668640Y18222032D01*
X12558699Y18223259D01*
X12442927Y18224061D01*
X12323760Y18224440D01*
X12203634Y18224395D01*
X12084984Y18223927D01*
X11970245Y18223034D01*
X11861854Y18221718D01*
X11762245Y18219978D01*
X11673854Y18217814D01*
X11599116Y18215226D01*
X11540468Y18212215D01*
X11500344Y18208780D01*
X11481180Y18204921D01*
X11466522Y18196605D01*
X11432940Y18168136D01*
X11409808Y18129256D01*
X11395176Y18075789D01*
X11387090Y18003555D01*
X11383133Y17956939D01*
X11374320Y17905895D01*
X11359428Y17868005D01*
X11335815Y17837267D01*
X11300837Y17807678D01*
X11299875Y17806965D01*
X11279603Y17795083D01*
X11254466Y17787950D01*
X11218302Y17784472D01*
X11164947Y17783556D01*
X11122593Y17784381D01*
X11072258Y17790093D01*
X11034690Y17803524D01*
X11003581Y17827316D01*
X10972625Y17864110D01*
X10969319Y17868691D01*
X10964257Y17877292D01*
X10960089Y17888365D01*
X10956730Y17904004D01*
X10954092Y17926301D01*
X10952087Y17957349D01*
X10950630Y17999240D01*
X10949632Y18054067D01*
X10949008Y18123922D01*
X10948669Y18210899D01*
X10948530Y18317090D01*
X10948503Y18444588D01*
X10948510Y18519738D01*
X10948590Y18634878D01*
X10948831Y18729899D01*
X10949322Y18806895D01*
X10950147Y18867958D01*
X10951395Y18915181D01*
X10953153Y18950657D01*
X10955507Y18976477D01*
X10958544Y18994736D01*
X10962351Y19007525D01*
X10967016Y19016938D01*
X10972625Y19025066D01*
X10992970Y19050502D01*
X11023304Y19078578D01*
X11057874Y19095362D01*
X11102986Y19103495D01*
X11164947Y19105619D01*
X11168011Y19105618D01*
X11220394Y19104603D01*
X11255884Y19100974D01*
X11280644Y19093637D01*
X11300837Y19081497D01*
X11327571Y19059735D01*
X11352998Y19030801D01*
X11369554Y18996221D01*
X11379833Y18950086D01*
X11386430Y18886487D01*
X11391187Y18834904D01*
X11398060Y18792508D01*
X11407849Y18762087D01*
X11422011Y18737541D01*
X11436817Y18718302D01*
X11453291Y18702309D01*
X11473567Y18690014D01*
X11500444Y18680935D01*
X11536723Y18674589D01*
X11585201Y18670493D01*
X11648678Y18668165D01*
X11729955Y18667122D01*
X11831829Y18666882D01*
X11932418Y18667110D01*
X12013917Y18668131D01*
X12077594Y18670436D01*
X12126253Y18674514D01*
X12162701Y18680856D01*
X12189744Y18689953D01*
X12210187Y18702296D01*
X12226839Y18718375D01*
X12242503Y18738681D01*
X12250110Y18751440D01*
X12266079Y18798170D01*
X12274967Y18856252D01*
X12276398Y18917576D01*
X12269998Y18974027D01*
X12255391Y19017495D01*
X12244878Y19036336D01*
X12231692Y19056834D01*
X12216825Y19072869D01*
X12197563Y19085053D01*
X12171191Y19093996D01*
X12134994Y19100308D01*
X12086260Y19104601D01*
X12022272Y19107485D01*
X11940318Y19109571D01*
X11837683Y19111469D01*
X11774351Y19112615D01*
X11690294Y19114347D01*
X11625098Y19116154D01*
X11575970Y19118266D01*
X11540117Y19120912D01*
X11514747Y19124323D01*
X11497068Y19128728D01*
X11484286Y19134358D01*
X11473611Y19141441D01*
X11448181Y19161800D01*
X11420116Y19192143D01*
X11403341Y19226711D01*
X11395213Y19271814D01*
X11393091Y19333763D01*
X11393915Y19376117D01*
X11399628Y19426452D01*
X11413059Y19464020D01*
X11436850Y19495129D01*
X11473644Y19526085D01*
X11478567Y19529610D01*
X11485281Y19533429D01*
X11494188Y19536745D01*
X11506802Y19539592D01*
X11524638Y19542006D01*
X11549211Y19544023D01*
X11582035Y19545680D01*
X11624626Y19547010D01*
X11678497Y19548050D01*
X11745165Y19548837D01*
X11826143Y19549404D01*
X11922946Y19549788D01*
X12037090Y19550025D01*
X12170089Y19550150D01*
X12323457Y19550199D01*
X12498710Y19550207D01*
X12643792Y19550202D01*
G37*
G36*
X15358558Y15641135D02*
G01*
X15336445Y15613922D01*
X15306605Y15587488D01*
X15271389Y15570619D01*
X15224813Y15560713D01*
X15160890Y15555165D01*
X15106734Y15550722D01*
X15055207Y15541003D01*
X15017884Y15524434D01*
X14989703Y15498571D01*
X14965604Y15460976D01*
X14952077Y15422238D01*
X14944167Y15366099D01*
X14943785Y15304977D01*
X14950931Y15247919D01*
X14965604Y15203971D01*
X14985406Y15171979D01*
X15011814Y15145100D01*
X15046420Y15127458D01*
X15094265Y15116627D01*
X15160387Y15110180D01*
X15211815Y15105738D01*
X15261887Y15096809D01*
X15299094Y15081891D01*
X15329348Y15058409D01*
X15358558Y15023784D01*
X15363628Y15016574D01*
X15369647Y15005176D01*
X15374246Y14990149D01*
X15377616Y14968668D01*
X15379946Y14937909D01*
X15381428Y14895049D01*
X15382251Y14837261D01*
X15382605Y14761723D01*
X15382681Y14665611D01*
X15382649Y14597104D01*
X15382402Y14515458D01*
X15381746Y14452442D01*
X15380490Y14405233D01*
X15378444Y14371004D01*
X15375418Y14346933D01*
X15371222Y14330195D01*
X15365666Y14317964D01*
X15358558Y14307418D01*
X15338574Y14282580D01*
X15308439Y14255051D01*
X15273172Y14237421D01*
X15226709Y14227015D01*
X15162986Y14221159D01*
X15107106Y14216741D01*
X15060284Y14209067D01*
X15026694Y14196577D01*
X15000914Y14177151D01*
X14977521Y14148671D01*
X14965455Y14128402D01*
X14955463Y14099558D01*
X14948711Y14059551D01*
X14943792Y14002265D01*
X14939909Y13956350D01*
X14931134Y13905058D01*
X14916319Y13867023D01*
X14892840Y13836260D01*
X14858072Y13806786D01*
X14842551Y13797293D01*
X14814703Y13787752D01*
X14774450Y13781312D01*
X14716302Y13776814D01*
X14662146Y13772371D01*
X14610619Y13762653D01*
X14573296Y13746083D01*
X14545116Y13720220D01*
X14521016Y13682625D01*
X14515685Y13671566D01*
X14510197Y13655196D01*
X14506082Y13633620D01*
X14503147Y13603809D01*
X14501199Y13562728D01*
X14500046Y13507345D01*
X14499496Y13434629D01*
X14499355Y13341547D01*
X14499315Y13312875D01*
X14498536Y13218035D01*
X14496822Y13137965D01*
X14494253Y13074819D01*
X14490911Y13030754D01*
X14486876Y13007924D01*
X14476806Y12986363D01*
X14438702Y12937818D01*
X14388208Y12903160D01*
X14375058Y12898272D01*
X14330388Y12890300D01*
X14276650Y12888671D01*
X14221853Y12892926D01*
X14174001Y12902609D01*
X14141103Y12917264D01*
X14124537Y12929708D01*
X14105417Y12945524D01*
X14090505Y12962042D01*
X14079215Y12982097D01*
X14070963Y13008527D01*
X14065162Y13044169D01*
X14061228Y13091858D01*
X14058574Y13154432D01*
X14056616Y13234727D01*
X14054767Y13335580D01*
X14053080Y13427752D01*
X14051419Y13504716D01*
X14049626Y13563835D01*
X14047445Y13607958D01*
X14044620Y13639933D01*
X14040897Y13662609D01*
X14036020Y13678832D01*
X14029732Y13691452D01*
X14021780Y13703317D01*
X14000766Y13729460D01*
X13975506Y13749974D01*
X13943213Y13763234D01*
X13898436Y13771384D01*
X13835724Y13776571D01*
X13797346Y13779353D01*
X13750933Y13785286D01*
X13719001Y13794034D01*
X13696051Y13806786D01*
X13669870Y13828094D01*
X13644465Y13856984D01*
X13627901Y13891570D01*
X13617601Y13937744D01*
X13610991Y14001398D01*
X13606715Y14048553D01*
X13599859Y14092954D01*
X13590195Y14124477D01*
X13576335Y14149045D01*
X13569657Y14158311D01*
X13556297Y14174891D01*
X13541587Y14187931D01*
X13522772Y14197917D01*
X13497096Y14205337D01*
X13461802Y14210679D01*
X13414136Y14214429D01*
X13351341Y14217075D01*
X13270662Y14219104D01*
X13169341Y14221004D01*
X13094935Y14222341D01*
X13009088Y14224208D01*
X12941767Y14226605D01*
X12890136Y14230116D01*
X12851358Y14235328D01*
X12822597Y14242827D01*
X12801015Y14253198D01*
X12783776Y14267028D01*
X12768041Y14284903D01*
X12750976Y14307408D01*
X12747451Y14312330D01*
X12743632Y14319045D01*
X12740317Y14327952D01*
X12737470Y14340566D01*
X12735055Y14358402D01*
X12733038Y14382974D01*
X12731382Y14415799D01*
X12730051Y14458389D01*
X12729011Y14512261D01*
X12728225Y14578928D01*
X12727657Y14659906D01*
X12727273Y14756710D01*
X12727036Y14870853D01*
X12726911Y15003852D01*
X12726862Y15157220D01*
X12726854Y15332473D01*
X12726859Y15477555D01*
X12726898Y15634787D01*
X12726903Y15641434D01*
X13167076Y15641434D01*
X13167168Y15554391D01*
X13167595Y15448215D01*
X13168289Y15320774D01*
X13171442Y14776739D01*
X13199505Y14737391D01*
X13203317Y14732346D01*
X13233542Y14702540D01*
X13266403Y14681818D01*
X13279845Y14677882D01*
X13301326Y14674562D01*
X13332614Y14671875D01*
X13375652Y14669768D01*
X13432379Y14668188D01*
X13504738Y14667079D01*
X13594671Y14666389D01*
X13704119Y14666064D01*
X13835023Y14666050D01*
X13869539Y14666080D01*
X13995372Y14666255D01*
X14100405Y14666692D01*
X14186723Y14667628D01*
X14256413Y14669298D01*
X14311557Y14671939D01*
X14354243Y14675787D01*
X14386554Y14681077D01*
X14410576Y14688046D01*
X14428393Y14696930D01*
X14442091Y14707964D01*
X14453755Y14721386D01*
X14465470Y14737431D01*
X14493505Y14776739D01*
X14496658Y15320774D01*
X14496721Y15331793D01*
X14497396Y15457456D01*
X14497799Y15562024D01*
X14497862Y15647630D01*
X14497517Y15716406D01*
X14496694Y15770485D01*
X14495326Y15811999D01*
X14493345Y15843083D01*
X14490682Y15865868D01*
X14487269Y15882486D01*
X14483038Y15895072D01*
X14477919Y15905758D01*
X14476286Y15908701D01*
X14449712Y15943976D01*
X14417463Y15973031D01*
X14378898Y15999355D01*
X13832473Y15999355D01*
X13286049Y15999355D01*
X13247484Y15973031D01*
X13244719Y15971079D01*
X13212411Y15940834D01*
X13187028Y15905758D01*
X13186584Y15904923D01*
X13181539Y15894164D01*
X13177376Y15881335D01*
X13174025Y15864301D01*
X13171419Y15840932D01*
X13169490Y15809093D01*
X13168168Y15766652D01*
X13167386Y15711477D01*
X13167076Y15641434D01*
X12726903Y15641434D01*
X12727006Y15771375D01*
X12727220Y15888831D01*
X12727575Y15988673D01*
X12728106Y16072414D01*
X12728850Y16141569D01*
X12729841Y16197653D01*
X12731117Y16242180D01*
X12732711Y16276666D01*
X12734660Y16302626D01*
X12737000Y16321573D01*
X12739766Y16335023D01*
X12742993Y16344491D01*
X12746718Y16351492D01*
X12750976Y16357539D01*
X12770976Y16382356D01*
X12800851Y16409532D01*
X12835973Y16427071D01*
X12882375Y16437644D01*
X12946087Y16443920D01*
X13004587Y16448977D01*
X13050793Y16456882D01*
X13083831Y16469293D01*
X13109038Y16488277D01*
X13131747Y16515902D01*
X13142926Y16534591D01*
X13153406Y16564048D01*
X13160768Y16605060D01*
X13166403Y16663548D01*
X13171157Y16713526D01*
X13180303Y16763361D01*
X13195095Y16800205D01*
X13218128Y16829967D01*
X13251995Y16858558D01*
X13252958Y16859271D01*
X13273230Y16871154D01*
X13298367Y16878287D01*
X13334531Y16881765D01*
X13387886Y16882681D01*
X13390950Y16882679D01*
X13443332Y16881664D01*
X13478822Y16878035D01*
X13503583Y16870698D01*
X13523776Y16858558D01*
X13550510Y16836797D01*
X13575936Y16807862D01*
X13592492Y16773282D01*
X13602772Y16727148D01*
X13609368Y16663548D01*
X13614126Y16611966D01*
X13620999Y16569570D01*
X13630788Y16539148D01*
X13644950Y16514602D01*
X13659756Y16495364D01*
X13676230Y16479370D01*
X13696506Y16467075D01*
X13723383Y16457996D01*
X13759661Y16451650D01*
X13808140Y16447554D01*
X13871617Y16445226D01*
X13952893Y16444183D01*
X14054767Y16443943D01*
X14155357Y16444171D01*
X14236856Y16445193D01*
X14300532Y16447497D01*
X14349191Y16451575D01*
X14385639Y16457917D01*
X14412682Y16467015D01*
X14433126Y16479357D01*
X14449777Y16495436D01*
X14465442Y16515742D01*
X14473049Y16528501D01*
X14489018Y16575231D01*
X14497906Y16633314D01*
X14499337Y16694637D01*
X14492937Y16751089D01*
X14478330Y16794557D01*
X14458792Y16825761D01*
X14431618Y16853833D01*
X14396589Y16872067D01*
X14348566Y16882941D01*
X14282408Y16888928D01*
X14233232Y16892716D01*
X14182700Y16901239D01*
X14145096Y16916048D01*
X14114436Y16939745D01*
X14084739Y16974934D01*
X14084026Y16975897D01*
X14072144Y16996169D01*
X14065011Y17021306D01*
X14061533Y17057470D01*
X14060617Y17110824D01*
X14061441Y17153173D01*
X14067149Y17203497D01*
X14080573Y17241059D01*
X14104354Y17272172D01*
X14141135Y17303146D01*
X14147385Y17307546D01*
X14159011Y17313756D01*
X14174413Y17318640D01*
X14196395Y17322432D01*
X14227760Y17325363D01*
X14271310Y17327665D01*
X14329848Y17329570D01*
X14406178Y17331310D01*
X14503102Y17333118D01*
X14554031Y17334036D01*
X14645193Y17335937D01*
X14717025Y17338198D01*
X14772282Y17341309D01*
X14813721Y17345755D01*
X14844098Y17352024D01*
X14866168Y17360604D01*
X14882687Y17371981D01*
X14896412Y17386643D01*
X14910098Y17405077D01*
X14921277Y17423766D01*
X14931757Y17453224D01*
X14939119Y17494236D01*
X14944754Y17552724D01*
X14949508Y17602702D01*
X14958654Y17652536D01*
X14973446Y17689380D01*
X14996479Y17719143D01*
X15030346Y17747734D01*
X15037558Y17752803D01*
X15048958Y17758822D01*
X15063987Y17763421D01*
X15085469Y17766791D01*
X15116229Y17769122D01*
X15159091Y17770603D01*
X15216879Y17771426D01*
X15292417Y17771780D01*
X15388531Y17771856D01*
X15457050Y17771825D01*
X15538693Y17771578D01*
X15601706Y17770921D01*
X15648914Y17769665D01*
X15683140Y17767619D01*
X15707208Y17764594D01*
X15723944Y17760397D01*
X15736172Y17754841D01*
X15746715Y17747734D01*
X15775280Y17722541D01*
X15803146Y17691306D01*
X15806453Y17686725D01*
X15811515Y17678125D01*
X15815682Y17667052D01*
X15819041Y17651414D01*
X15821680Y17629118D01*
X15823684Y17598070D01*
X15825142Y17556180D01*
X15826139Y17501353D01*
X15826764Y17431498D01*
X15827102Y17344521D01*
X15827241Y17238330D01*
X15827268Y17110833D01*
X15827262Y17035687D01*
X15827182Y16920547D01*
X15826940Y16825525D01*
X15826450Y16748528D01*
X15825624Y16687464D01*
X15824376Y16640240D01*
X15822618Y16604764D01*
X15820265Y16578943D01*
X15817227Y16560683D01*
X15813420Y16547893D01*
X15808755Y16538480D01*
X15803146Y16530351D01*
X15783160Y16505515D01*
X15753023Y16477988D01*
X15717756Y16460359D01*
X15671295Y16449954D01*
X15607574Y16444097D01*
X15550712Y16439579D01*
X15504249Y16431855D01*
X15470863Y16419255D01*
X15445103Y16399633D01*
X15421518Y16370844D01*
X15413925Y16359573D01*
X15407560Y16347059D01*
X15402617Y16331086D01*
X15398842Y16308805D01*
X15395978Y16277369D01*
X15393771Y16233928D01*
X15391964Y16175636D01*
X15390302Y16099643D01*
X15388531Y16003102D01*
X15387438Y15943022D01*
X15385698Y15858640D01*
X15383888Y15793191D01*
X15381776Y15743873D01*
X15379129Y15707883D01*
X15375716Y15682416D01*
X15371305Y15664672D01*
X15365663Y15651846D01*
X15362866Y15647630D01*
X15358558Y15641135D01*
G37*
G36*
X17679989Y18216413D02*
G01*
X17761632Y18216166D01*
X17824645Y18215509D01*
X17871853Y18214253D01*
X17906078Y18212207D01*
X17930147Y18209181D01*
X17946883Y18204985D01*
X17959110Y18199429D01*
X17969654Y18192322D01*
X17986257Y18179849D01*
X18005388Y18164025D01*
X18020308Y18147501D01*
X18031603Y18127441D01*
X18039859Y18101008D01*
X18045662Y18065365D01*
X18049597Y18017675D01*
X18052251Y17955101D01*
X18054209Y17874807D01*
X18056057Y17773954D01*
X18057744Y17681782D01*
X18059405Y17604819D01*
X18061198Y17545699D01*
X18063379Y17501576D01*
X18066204Y17469601D01*
X18069927Y17446926D01*
X18074805Y17430702D01*
X18081092Y17418082D01*
X18089045Y17406217D01*
X18092751Y17401198D01*
X18117971Y17372819D01*
X18141693Y17353569D01*
X18143356Y17352767D01*
X18158818Y17349134D01*
X18187526Y17345940D01*
X18230931Y17343134D01*
X18290484Y17340664D01*
X18367634Y17338479D01*
X18463832Y17336527D01*
X18580529Y17334757D01*
X18719175Y17333118D01*
X18786360Y17332400D01*
X18903428Y17331079D01*
X19000231Y17329811D01*
X19078852Y17328489D01*
X19141377Y17327007D01*
X19189889Y17325256D01*
X19226474Y17323132D01*
X19253215Y17320525D01*
X19272197Y17317331D01*
X19285505Y17313440D01*
X19295224Y17308748D01*
X19303436Y17303146D01*
X19328865Y17282798D01*
X19356939Y17252463D01*
X19373719Y17217905D01*
X19381848Y17172814D01*
X19383970Y17110877D01*
X19383969Y17107944D01*
X19382957Y17055516D01*
X19379329Y17019990D01*
X19371991Y16995198D01*
X19359848Y16974974D01*
X19339871Y16950126D01*
X19309744Y16922590D01*
X19274477Y16904954D01*
X19228008Y16894544D01*
X19164276Y16888685D01*
X19108395Y16884268D01*
X19061574Y16876594D01*
X19027984Y16864104D01*
X19002204Y16844678D01*
X18978811Y16816197D01*
X18966745Y16795928D01*
X18956753Y16767085D01*
X18950001Y16727078D01*
X18945081Y16669792D01*
X18941124Y16623176D01*
X18932311Y16572132D01*
X18917420Y16534242D01*
X18893807Y16503504D01*
X18858829Y16473915D01*
X18857867Y16473202D01*
X18837594Y16461319D01*
X18812457Y16454186D01*
X18776293Y16450709D01*
X18722939Y16449793D01*
X18719875Y16449794D01*
X18667492Y16450809D01*
X18632002Y16454438D01*
X18607242Y16461775D01*
X18587048Y16473915D01*
X18560315Y16495677D01*
X18534888Y16524611D01*
X18518332Y16559191D01*
X18508052Y16605326D01*
X18501456Y16668925D01*
X18492549Y16742315D01*
X18475359Y16801894D01*
X18447676Y16843702D01*
X18406816Y16870342D01*
X18350090Y16884417D01*
X18274812Y16888531D01*
X18256240Y16888314D01*
X18191408Y16882211D01*
X18143106Y16866095D01*
X18106741Y16837789D01*
X18077720Y16795116D01*
X18064218Y16756247D01*
X18056296Y16699966D01*
X18055905Y16638773D01*
X18063046Y16581688D01*
X18077718Y16537734D01*
X18097520Y16505742D01*
X18123928Y16478863D01*
X18158534Y16461221D01*
X18206379Y16450390D01*
X18272501Y16443943D01*
X18323929Y16439501D01*
X18374001Y16430572D01*
X18411208Y16415655D01*
X18441462Y16392172D01*
X18470673Y16357548D01*
X18475742Y16350337D01*
X18481761Y16338939D01*
X18486360Y16323912D01*
X18489730Y16302431D01*
X18492061Y16271673D01*
X18493542Y16228812D01*
X18494365Y16171025D01*
X18494719Y16095487D01*
X18494795Y15999374D01*
X18494764Y15930867D01*
X18494517Y15849221D01*
X18493860Y15786206D01*
X18492604Y15738996D01*
X18490558Y15704768D01*
X18487532Y15680696D01*
X18483336Y15663958D01*
X18477780Y15651728D01*
X18470673Y15641181D01*
X18450332Y15615743D01*
X18420000Y15587663D01*
X18385430Y15570877D01*
X18340315Y15562742D01*
X18278351Y15560617D01*
X18275287Y15560619D01*
X18222904Y15561634D01*
X18187414Y15565262D01*
X18162654Y15572600D01*
X18142461Y15584739D01*
X18115727Y15606501D01*
X18090300Y15635436D01*
X18073744Y15670016D01*
X18063465Y15716150D01*
X18056868Y15779749D01*
X18047961Y15853140D01*
X18030771Y15912719D01*
X18003089Y15954527D01*
X17962228Y15981167D01*
X17905502Y15995242D01*
X17830225Y15999355D01*
X17811652Y15999138D01*
X17746820Y15993035D01*
X17698518Y15976919D01*
X17662153Y15948613D01*
X17633133Y15905940D01*
X17619630Y15867071D01*
X17611708Y15810791D01*
X17611317Y15749597D01*
X17618458Y15692512D01*
X17633131Y15648559D01*
X17652933Y15616566D01*
X17679340Y15589687D01*
X17713947Y15572046D01*
X17761791Y15561215D01*
X17827913Y15554767D01*
X17879342Y15550326D01*
X17929413Y15541397D01*
X17966620Y15526479D01*
X17996874Y15502997D01*
X18026085Y15468372D01*
X18031154Y15461162D01*
X18037173Y15449764D01*
X18041772Y15434737D01*
X18045142Y15413256D01*
X18047473Y15382497D01*
X18048954Y15339636D01*
X18049777Y15281849D01*
X18050131Y15206311D01*
X18050207Y15110198D01*
X18050176Y15041692D01*
X18049929Y14960046D01*
X18049272Y14897030D01*
X18048016Y14849820D01*
X18045970Y14815592D01*
X18042945Y14791521D01*
X18038749Y14774782D01*
X18033192Y14762552D01*
X18026085Y14752006D01*
X18013613Y14735398D01*
X17997792Y14716265D01*
X17981270Y14701343D01*
X17961211Y14690047D01*
X17934779Y14681791D01*
X17899135Y14675987D01*
X17851444Y14672052D01*
X17788869Y14669398D01*
X17708574Y14667440D01*
X17607720Y14665592D01*
X17555918Y14664658D01*
X17464941Y14662759D01*
X17393269Y14660494D01*
X17338143Y14657373D01*
X17296807Y14652907D01*
X17266503Y14646606D01*
X17244474Y14637981D01*
X17227962Y14626541D01*
X17214210Y14611797D01*
X17200460Y14593258D01*
X17188394Y14572990D01*
X17178402Y14544146D01*
X17171650Y14504139D01*
X17166730Y14446853D01*
X17162848Y14400937D01*
X17154073Y14349646D01*
X17139258Y14311611D01*
X17115778Y14280848D01*
X17081010Y14251374D01*
X17065490Y14241881D01*
X17037641Y14232339D01*
X16997389Y14225900D01*
X16939241Y14221402D01*
X16894778Y14218260D01*
X16850307Y14212473D01*
X16819693Y14203901D01*
X16797432Y14191378D01*
X16788694Y14184460D01*
X16751027Y14140094D01*
X16729282Y14082365D01*
X16722294Y14008429D01*
X16722288Y14005715D01*
X16715735Y13928784D01*
X16695925Y13869320D01*
X16661510Y13824709D01*
X16611147Y13792335D01*
X16598078Y13787605D01*
X16550987Y13780145D01*
X16486165Y13779253D01*
X16482438Y13779390D01*
X16422248Y13785019D01*
X16377692Y13798630D01*
X16341819Y13823479D01*
X16307678Y13862820D01*
X16302609Y13870031D01*
X16296590Y13881431D01*
X16291991Y13896460D01*
X16288621Y13917943D01*
X16286290Y13948702D01*
X16284809Y13991564D01*
X16283986Y14049352D01*
X16283632Y14124891D01*
X16283556Y14221004D01*
X16283587Y14289524D01*
X16283834Y14371167D01*
X16284491Y14434180D01*
X16285747Y14481387D01*
X16287793Y14515613D01*
X16290819Y14539682D01*
X16295015Y14556418D01*
X16300571Y14568645D01*
X16307678Y14579188D01*
X16327678Y14604005D01*
X16357553Y14631181D01*
X16392675Y14648720D01*
X16439077Y14659293D01*
X16502789Y14665569D01*
X16561289Y14670626D01*
X16607495Y14678531D01*
X16640533Y14690942D01*
X16665740Y14709926D01*
X16688449Y14737551D01*
X16699628Y14756240D01*
X16710108Y14785697D01*
X16717470Y14826709D01*
X16723105Y14885197D01*
X16727706Y14933866D01*
X16736788Y14984166D01*
X16751442Y15021280D01*
X16774227Y15051088D01*
X16807704Y15079466D01*
X16821277Y15087861D01*
X16849632Y15097923D01*
X16890948Y15104988D01*
X16950437Y15110180D01*
X17008025Y15115452D01*
X17058264Y15125479D01*
X17094516Y15141957D01*
X17121821Y15167312D01*
X17145220Y15203971D01*
X17158747Y15242708D01*
X17166657Y15298848D01*
X17167039Y15359970D01*
X17159894Y15417028D01*
X17145220Y15460976D01*
X17126326Y15491766D01*
X17099416Y15519879D01*
X17064422Y15538189D01*
X17016281Y15549137D01*
X16949934Y15555165D01*
X16905846Y15558274D01*
X16861193Y15564061D01*
X16830463Y15572628D01*
X16808165Y15585137D01*
X16781984Y15606445D01*
X16756579Y15635335D01*
X16740015Y15669921D01*
X16729715Y15716095D01*
X16723105Y15779749D01*
X16714704Y15850091D01*
X16697755Y15910661D01*
X16670414Y15953310D01*
X16630077Y15980599D01*
X16574141Y15995093D01*
X16500000Y15999355D01*
X16436020Y15996315D01*
X16376868Y15983320D01*
X16333995Y15957761D01*
X16304852Y15917129D01*
X16286889Y15858917D01*
X16277555Y15780616D01*
X16273598Y15734000D01*
X16264785Y15682957D01*
X16249894Y15645067D01*
X16226280Y15614328D01*
X16191303Y15584739D01*
X16190340Y15584026D01*
X16170068Y15572144D01*
X16144931Y15565011D01*
X16108767Y15561533D01*
X16055412Y15560617D01*
X16013058Y15561442D01*
X15962723Y15567154D01*
X15925155Y15580585D01*
X15894046Y15604377D01*
X15863090Y15641171D01*
X15858021Y15648382D01*
X15852002Y15659782D01*
X15847403Y15674811D01*
X15844033Y15696294D01*
X15841703Y15727053D01*
X15840221Y15769915D01*
X15839398Y15827703D01*
X15839044Y15903242D01*
X15838968Y15999355D01*
X15838999Y16067875D01*
X15839246Y16149518D01*
X15839903Y16212531D01*
X15841159Y16259738D01*
X15843205Y16293964D01*
X15846231Y16318033D01*
X15850427Y16334769D01*
X15855983Y16346996D01*
X15863090Y16357539D01*
X15883090Y16382356D01*
X15912965Y16409532D01*
X15948087Y16427071D01*
X15994489Y16437644D01*
X16058201Y16443920D01*
X16116701Y16448977D01*
X16162907Y16456882D01*
X16195945Y16469293D01*
X16221152Y16488277D01*
X16243861Y16515902D01*
X16255040Y16534591D01*
X16265520Y16564048D01*
X16272883Y16605060D01*
X16278517Y16663548D01*
X16283271Y16713526D01*
X16292417Y16763361D01*
X16307210Y16800205D01*
X16330243Y16829967D01*
X16364110Y16858558D01*
X16365072Y16859271D01*
X16385344Y16871154D01*
X16410481Y16878287D01*
X16446645Y16881765D01*
X16500000Y16882681D01*
X16503064Y16882679D01*
X16555447Y16881664D01*
X16590937Y16878035D01*
X16615697Y16870698D01*
X16635890Y16858558D01*
X16662624Y16836797D01*
X16688051Y16807862D01*
X16704607Y16773282D01*
X16714886Y16727148D01*
X16721483Y16663548D01*
X16726240Y16611966D01*
X16733113Y16569570D01*
X16742902Y16539148D01*
X16757064Y16514602D01*
X16771870Y16495364D01*
X16788344Y16479370D01*
X16808620Y16467075D01*
X16835497Y16457996D01*
X16871776Y16451650D01*
X16920254Y16447554D01*
X16983731Y16445226D01*
X17065007Y16444183D01*
X17166882Y16443943D01*
X17184476Y16443933D01*
X17293971Y16443767D01*
X17382629Y16444988D01*
X17452668Y16449768D01*
X17506307Y16460281D01*
X17545763Y16478697D01*
X17573255Y16507190D01*
X17591000Y16547932D01*
X17601216Y16603094D01*
X17606121Y16674850D01*
X17607934Y16765372D01*
X17608872Y16876831D01*
X17609165Y16906469D01*
X17609890Y16996415D01*
X17610030Y17066711D01*
X17609433Y17120274D01*
X17607950Y17160019D01*
X17605430Y17188863D01*
X17601721Y17209721D01*
X17596674Y17225510D01*
X17590136Y17239144D01*
X17570901Y17270218D01*
X17543870Y17298318D01*
X17508862Y17316595D01*
X17460779Y17327507D01*
X17394522Y17333516D01*
X17345346Y17337304D01*
X17294814Y17345827D01*
X17257210Y17360635D01*
X17226551Y17384333D01*
X17196854Y17419522D01*
X17191785Y17426733D01*
X17185766Y17438133D01*
X17181166Y17453162D01*
X17177796Y17474645D01*
X17175466Y17505404D01*
X17173984Y17548266D01*
X17173161Y17606054D01*
X17172807Y17681593D01*
X17172731Y17777706D01*
X17172763Y17846226D01*
X17173010Y17927869D01*
X17173666Y17990882D01*
X17174922Y18038089D01*
X17176968Y18072315D01*
X17179994Y18096384D01*
X17184190Y18113120D01*
X17189747Y18125347D01*
X17196854Y18135890D01*
X17222048Y18164455D01*
X17253285Y18192322D01*
X17260497Y18197391D01*
X17271897Y18203410D01*
X17286926Y18208009D01*
X17308408Y18211379D01*
X17339168Y18213709D01*
X17382029Y18215191D01*
X17439817Y18216014D01*
X17515356Y18216368D01*
X17611469Y18216444D01*
X17679989Y18216413D01*
G37*
%TD*%
%LPC*%
D10*
%TO.C,J7*%
X29778059Y31675500D03*
D11*
X27238059Y31675500D03*
X24698059Y31675500D03*
%TD*%
D10*
%TO.C,J6*%
X37781184Y31675500D03*
D11*
X35241184Y31675500D03*
X32701184Y31675500D03*
%TD*%
D10*
%TO.C,J5*%
X45784309Y31675500D03*
D11*
X43244309Y31675500D03*
X40704309Y31675500D03*
%TD*%
D10*
%TO.C,J4*%
X53787434Y31675500D03*
D11*
X51247434Y31675500D03*
X48707434Y31675500D03*
%TD*%
D12*
%TO.C,A1*%
X40818684Y11285500D03*
D13*
X43358684Y11285500D03*
X45898684Y11285500D03*
X48438684Y11285500D03*
X50978684Y11285500D03*
X53518684Y11285500D03*
X56058684Y11285500D03*
X58598684Y11285500D03*
X61138684Y11285500D03*
X63678684Y11285500D03*
X66218684Y11285500D03*
X68758684Y11285500D03*
X71298684Y11285500D03*
X73838684Y11285500D03*
X76378684Y11285500D03*
X76378684Y26525500D03*
X73838684Y26525500D03*
X71298684Y26525500D03*
X68758684Y26525500D03*
X66218684Y26525500D03*
X63678684Y26525500D03*
X61138684Y26525500D03*
X58598684Y26525500D03*
X56058684Y26525500D03*
X53518684Y26525500D03*
X50978684Y26525500D03*
X48438684Y26525500D03*
X45898684Y26525500D03*
X43358684Y26525500D03*
X40818684Y26525500D03*
%TD*%
D10*
%TO.C,Bluetooth Adapter*%
X53518684Y5125500D03*
D11*
X50978684Y5125500D03*
X48438684Y5125500D03*
X45898684Y5125500D03*
%TD*%
D14*
%TO.C,H4*%
X83000000Y3500000D03*
%TD*%
D10*
%TO.C,J2*%
X69793684Y31675500D03*
D11*
X67253684Y31675500D03*
X64713684Y31675500D03*
%TD*%
D15*
%TO.C,SW1*%
X6613684Y9195500D03*
X6613684Y6195500D03*
%TD*%
D10*
%TO.C,J12*%
X77796809Y31675500D03*
D11*
X75256809Y31675500D03*
X72716809Y31675500D03*
%TD*%
D14*
%TO.C,H3*%
X2000000Y3500000D03*
%TD*%
D10*
%TO.C,J3*%
X61790559Y31675500D03*
D11*
X59250559Y31675500D03*
X56710559Y31675500D03*
%TD*%
D14*
%TO.C,H1*%
X2000000Y31500000D03*
%TD*%
D10*
%TO.C,J8*%
X21774934Y31675500D03*
D11*
X19234934Y31675500D03*
X16694934Y31675500D03*
%TD*%
D10*
%TO.C,J9*%
X13771809Y31675500D03*
D11*
X11231809Y31675500D03*
X8691809Y31675500D03*
%TD*%
D14*
%TO.C,H2*%
X83000000Y31500000D03*
%TD*%
D16*
%TO.C,J1*%
X18468684Y4295500D03*
D17*
X13468684Y4295500D03*
%TD*%
D18*
%TO.C,J14*%
X33683684Y5125500D03*
D19*
X36183684Y5125500D03*
%TD*%
D18*
%TO.C,J13*%
X24933684Y5100500D03*
D19*
X27433684Y5100500D03*
%TD*%
D10*
%TO.C,REMOTE*%
X66218684Y5125500D03*
D11*
X68758684Y5125500D03*
X71298684Y5125500D03*
X73838684Y5125500D03*
%TD*%
%LPD*%
M02*
