M48
; DRILL file {KiCad 7.0.9} date Sun Jan 21 19:27:48 2024
; FORMAT={-:-/ absolute / inch / decimal}
; #@! TF.CreationDate,2024-01-21T19:27:48-06:00
; #@! TF.GenerationSoftware,Kicad,Pcbnew,7.0.9
; #@! TF.FileFunction,Plated,1,2,PTH
FMAT,2
INCH
; #@! TA.AperFunction,Plated,PTH,ViaDrill
T1C0.0157
; #@! TA.AperFunction,Plated,PTH,ViaDrill
T2C0.0354
; #@! TA.AperFunction,Plated,PTH,ComponentDrill
T3C0.0394
; #@! TA.AperFunction,Plated,PTH,ComponentDrill
T4C0.1063
%
G90
G05
T1
X0.7387Y0.9794
X0.9356Y0.9508
X1.1001Y0.6424
X1.4238Y0.6594
X1.8232Y0.5348
X1.8583Y0.5527
T2
X0.2789Y0.7051
X0.4161Y0.3896
X0.9728Y0.8455
X1.3913Y0.7128
T3
X0.3422Y1.2471
X0.4422Y1.2471
X0.5422Y1.2471
X0.6573Y1.2471
X0.7573Y1.2471
X0.8573Y1.2471
X0.9724Y1.2471
X0.9816Y0.2008
X1.0724Y1.2471
X1.0801Y0.2008
X1.1724Y1.2471
X1.2874Y1.2471
X1.3261Y0.2018
X1.3874Y1.2471
X1.4246Y0.2018
X1.4874Y1.2471
X1.6025Y1.2471
X1.607Y1.0443
X1.607Y0.4443
X1.7025Y1.2471
X1.707Y1.0443
X1.707Y0.4443
X1.8025Y1.2471
X1.807Y1.0443
X1.807Y0.4443
X1.807Y0.2018
X1.907Y1.0443
X1.907Y0.4443
X1.907Y0.2018
X1.9176Y1.2471
X2.007Y1.0443
X2.007Y0.4443
X2.007Y0.2018
X2.0176Y1.2471
X2.107Y1.0443
X2.107Y0.4443
X2.107Y0.2018
X2.1176Y1.2471
X2.207Y1.0443
X2.207Y0.4443
X2.2327Y1.2471
X2.307Y1.0443
X2.307Y0.4443
X2.3327Y1.2471
X2.407Y1.0443
X2.407Y0.4443
X2.4327Y1.2471
X2.507Y1.0443
X2.507Y0.4443
X2.5478Y1.2471
X2.607Y1.0443
X2.607Y0.4443
X2.607Y0.2018
X2.6478Y1.2471
X2.707Y1.0443
X2.707Y0.4443
X2.707Y0.2018
X2.7478Y1.2471
X2.807Y1.0443
X2.807Y0.4443
X2.807Y0.2018
X2.8629Y1.2471
X2.907Y1.0443
X2.907Y0.4443
X2.907Y0.2018
X2.9629Y1.2471
X3.007Y1.0443
X3.007Y0.4443
X3.0629Y1.2471
T4
X0.5303Y0.1691
X0.7271Y0.1691
T0
M30
