%TF.GenerationSoftware,KiCad,Pcbnew,7.0.9*%
%TF.CreationDate,2024-01-21T19:27:48-06:00*%
%TF.ProjectId,Tei,5465692e-6b69-4636-9164-5f7063625858,1*%
%TF.SameCoordinates,Original*%
%TF.FileFunction,Paste,Top*%
%TF.FilePolarity,Positive*%
%FSLAX46Y46*%
G04 Gerber Fmt 4.6, Leading zero omitted, Abs format (unit mm)*
G04 Created by KiCad (PCBNEW 7.0.9) date 2024-01-21 19:27:48*
%MOMM*%
%LPD*%
G01*
G04 APERTURE LIST*
G04 Aperture macros list*
%AMRoundRect*
0 Rectangle with rounded corners*
0 $1 Rounding radius*
0 $2 $3 $4 $5 $6 $7 $8 $9 X,Y pos of 4 corners*
0 Add a 4 corners polygon primitive as box body*
4,1,4,$2,$3,$4,$5,$6,$7,$8,$9,$2,$3,0*
0 Add four circle primitives for the rounded corners*
1,1,$1+$1,$2,$3*
1,1,$1+$1,$4,$5*
1,1,$1+$1,$6,$7*
1,1,$1+$1,$8,$9*
0 Add four rect primitives between the rounded corners*
20,1,$1+$1,$2,$3,$4,$5,0*
20,1,$1+$1,$4,$5,$6,$7,0*
20,1,$1+$1,$6,$7,$8,$9,0*
20,1,$1+$1,$8,$9,$2,$3,0*%
G04 Aperture macros list end*
%ADD10RoundRect,0.250000X-0.450000X-0.425000X0.450000X-0.425000X0.450000X0.425000X-0.450000X0.425000X0*%
%ADD11RoundRect,0.250000X0.337500X0.475000X-0.337500X0.475000X-0.337500X-0.475000X0.337500X-0.475000X0*%
%ADD12RoundRect,0.250000X-0.450000X0.350000X-0.450000X-0.350000X0.450000X-0.350000X0.450000X0.350000X0*%
%ADD13RoundRect,0.250000X-0.337500X-0.475000X0.337500X-0.475000X0.337500X0.475000X-0.337500X0.475000X0*%
%ADD14R,0.450000X1.750000*%
%ADD15RoundRect,0.250000X0.450000X-0.350000X0.450000X0.350000X-0.450000X0.350000X-0.450000X-0.350000X0*%
%ADD16RoundRect,0.250000X-0.450000X0.325000X-0.450000X-0.325000X0.450000X-0.325000X0.450000X0.325000X0*%
%ADD17R,1.500000X2.000000*%
%ADD18R,3.800000X2.000000*%
%ADD19R,0.800000X1.000000*%
%ADD20R,1.500000X0.700000*%
%ADD21R,1.000000X2.500000*%
G04 APERTURE END LIST*
D10*
%TO.C,C5*%
X29208684Y24025500D03*
X31908684Y24025500D03*
%TD*%
D11*
%TO.C,C3*%
X33596184Y21525500D03*
X31521184Y21525500D03*
%TD*%
D12*
%TO.C,R5*%
X17458684Y12895500D03*
X17458684Y10895500D03*
%TD*%
D11*
%TO.C,C4*%
X29596184Y21525500D03*
X27521184Y21525500D03*
%TD*%
D13*
%TO.C,C1*%
X5421184Y23664113D03*
X7496184Y23664113D03*
%TD*%
D14*
%TO.C,U1*%
X26983684Y10905500D03*
X27633684Y10905500D03*
X28283684Y10905500D03*
X28933684Y10905500D03*
X29583684Y10905500D03*
X30233684Y10905500D03*
X30883684Y10905500D03*
X31533684Y10905500D03*
X32183684Y10905500D03*
X32833684Y10905500D03*
X33483684Y10905500D03*
X34133684Y10905500D03*
X34133684Y18105500D03*
X33483684Y18105500D03*
X32833684Y18105500D03*
X32183684Y18105500D03*
X31533684Y18105500D03*
X30883684Y18105500D03*
X30233684Y18105500D03*
X29583684Y18105500D03*
X28933684Y18105500D03*
X28283684Y18105500D03*
X27633684Y18105500D03*
X26983684Y18105500D03*
%TD*%
D15*
%TO.C,R2*%
X17458684Y24895500D03*
X17458684Y26895500D03*
%TD*%
D16*
%TO.C,D1*%
X13058684Y19814113D03*
X13058684Y17764113D03*
%TD*%
D17*
%TO.C,U2*%
X10758684Y19814113D03*
X8458684Y19814113D03*
D18*
X8458684Y13514113D03*
D17*
X6158684Y19814113D03*
%TD*%
D15*
%TO.C,R1*%
X13058684Y13514113D03*
X13058684Y15514113D03*
%TD*%
D19*
%TO.C,SW1*%
X7723684Y11345500D03*
X5513684Y11345500D03*
X7723684Y4045500D03*
X5513684Y4045500D03*
D20*
X8373684Y9945500D03*
X8373684Y6945500D03*
X8373684Y5445500D03*
%TD*%
D21*
%TO.C,SW2*%
X17418684Y15645500D03*
X22498684Y22145500D03*
X22498684Y15645500D03*
X17418684Y22145500D03*
X19958684Y15645500D03*
X19958684Y22145500D03*
%TD*%
D15*
%TO.C,R4*%
X22458684Y24895500D03*
X22458684Y26895500D03*
%TD*%
D13*
%TO.C,C2*%
X9421184Y23664113D03*
X11496184Y23664113D03*
%TD*%
D12*
%TO.C,R3*%
X22458684Y12895500D03*
X22458684Y10895500D03*
%TD*%
M02*
